M48
; DRILL file {KiCad 8.0.1} date 2024-03-28T07:48:49+1100
; FORMAT={-:-/ absolute / inch / decimal}
; #@! TF.CreationDate,2024-03-28T07:48:49+11:00
; #@! TF.GenerationSoftware,Kicad,Pcbnew,8.0.1
; #@! TF.FileFunction,Plated,1,2,PTH
FMAT,2
INCH
; #@! TA.AperFunction,Plated,PTH,ViaDrill
T1C0.0197
; #@! TA.AperFunction,Plated,PTH,ComponentDrill
T2C0.0276
; #@! TA.AperFunction,Plated,PTH,ComponentDrill
T3C0.0315
; #@! TA.AperFunction,Plated,PTH,ComponentDrill
T4C0.0354
; #@! TA.AperFunction,Plated,PTH,ComponentDrill
T5C0.0394
; #@! TA.AperFunction,Plated,PTH,ComponentDrill
T6C0.0400
; #@! TA.AperFunction,Plated,PTH,ComponentDrill
T7C0.0433
; #@! TA.AperFunction,Plated,PTH,ComponentDrill
T8C0.0598
%
G90
G05
T1
X3.56Y-4.59
X3.58Y-3.56
T2
X4.03Y-3.41
X4.03Y-4.08
X4.03Y-4.28
X4.33Y-3.41
X4.33Y-4.08
X4.33Y-4.28
T3
X3.5208Y-3.44
X3.6192Y-3.44
X3.6508Y-4.51
X3.7208Y-3.44
X3.7492Y-4.51
X3.8192Y-3.44
T4
X4.2Y-3.7402
X4.2Y-3.8402
T5
X3.6806Y-4.71
X3.6906Y-2.8
X3.7806Y-4.71
X3.7906Y-2.8
X3.8806Y-4.71
X3.8906Y-2.8
X4.5Y-2.8
X4.5Y-2.9
X4.5Y-4.604
X4.5Y-4.704
T6
X4.07Y-3.23
X4.17Y-3.23
X4.27Y-3.23
T7
X3.57Y-4.3372
X3.59Y-3.19
X3.67Y-4.3372
X3.69Y-3.19
X3.77Y-4.3372
X3.79Y-3.19
T8
X4.1Y-2.8866
X4.1Y-4.6178
X4.3Y-2.8866
X4.3Y-4.6178
T5
G00X3.7Y-3.7529
M15
G01X3.7Y-3.8317
M16
G05
G00X3.7787Y-3.9773
M15
G01X3.8575Y-3.9773
M16
G05
G00X3.9362Y-3.7529
M15
G01X3.9362Y-3.8317
M16
G05
M30
