%TF.GenerationSoftware,KiCad,Pcbnew,8.0.1*%
%TF.CreationDate,2024-03-28T07:48:49+11:00*%
%TF.ProjectId,Breadboard Power Supply,42726561-6462-46f6-9172-6420506f7765,rev?*%
%TF.SameCoordinates,Original*%
%TF.FileFunction,Legend,Top*%
%TF.FilePolarity,Positive*%
%FSLAX46Y46*%
G04 Gerber Fmt 4.6, Leading zero omitted, Abs format (unit mm)*
G04 Created by KiCad (PCBNEW 8.0.1) date 2024-03-28 07:48:49*
%MOMM*%
%LPD*%
G01*
G04 APERTURE LIST*
G04 Aperture macros list*
%AMRoundRect*
0 Rectangle with rounded corners*
0 $1 Rounding radius*
0 $2 $3 $4 $5 $6 $7 $8 $9 X,Y pos of 4 corners*
0 Add a 4 corners polygon primitive as box body*
4,1,4,$2,$3,$4,$5,$6,$7,$8,$9,$2,$3,0*
0 Add four circle primitives for the rounded corners*
1,1,$1+$1,$2,$3*
1,1,$1+$1,$4,$5*
1,1,$1+$1,$6,$7*
1,1,$1+$1,$8,$9*
0 Add four rect primitives between the rounded corners*
20,1,$1+$1,$2,$3,$4,$5,0*
20,1,$1+$1,$4,$5,$6,$7,0*
20,1,$1+$1,$6,$7,$8,$9,0*
20,1,$1+$1,$8,$9,$2,$3,0*%
G04 Aperture macros list end*
%ADD10C,0.300000*%
%ADD11C,0.150000*%
%ADD12C,0.010000*%
%ADD13C,0.120000*%
%ADD14C,0.203200*%
%ADD15C,1.600000*%
%ADD16R,1.905000X2.000000*%
%ADD17O,1.905000X2.000000*%
%ADD18R,1.700000X1.700000*%
%ADD19O,1.700000X1.700000*%
%ADD20R,1.800000X1.800000*%
%ADD21C,1.800000*%
%ADD22C,1.400000*%
%ADD23O,1.400000X1.400000*%
%ADD24R,3.000000X3.000000*%
%ADD25C,3.000000*%
%ADD26C,2.082800*%
%ADD27R,3.500000X3.500000*%
%ADD28RoundRect,0.750000X-0.750000X-1.000000X0.750000X-1.000000X0.750000X1.000000X-0.750000X1.000000X0*%
%ADD29RoundRect,0.875000X-0.875000X-0.875000X0.875000X-0.875000X0.875000X0.875000X-0.875000X0.875000X0*%
G04 APERTURE END LIST*
D10*
X110951489Y-97527400D02*
X109808632Y-97527400D01*
X110697489Y-94479400D02*
X109554632Y-94479400D01*
X110126060Y-95050828D02*
X110126060Y-93907971D01*
D11*
X90257333Y-114913580D02*
X90209714Y-114961200D01*
X90209714Y-114961200D02*
X90066857Y-115008819D01*
X90066857Y-115008819D02*
X89971619Y-115008819D01*
X89971619Y-115008819D02*
X89828762Y-114961200D01*
X89828762Y-114961200D02*
X89733524Y-114865961D01*
X89733524Y-114865961D02*
X89685905Y-114770723D01*
X89685905Y-114770723D02*
X89638286Y-114580247D01*
X89638286Y-114580247D02*
X89638286Y-114437390D01*
X89638286Y-114437390D02*
X89685905Y-114246914D01*
X89685905Y-114246914D02*
X89733524Y-114151676D01*
X89733524Y-114151676D02*
X89828762Y-114056438D01*
X89828762Y-114056438D02*
X89971619Y-114008819D01*
X89971619Y-114008819D02*
X90066857Y-114008819D01*
X90066857Y-114008819D02*
X90209714Y-114056438D01*
X90209714Y-114056438D02*
X90257333Y-114104057D01*
X90590667Y-114008819D02*
X91209714Y-114008819D01*
X91209714Y-114008819D02*
X90876381Y-114389771D01*
X90876381Y-114389771D02*
X91019238Y-114389771D01*
X91019238Y-114389771D02*
X91114476Y-114437390D01*
X91114476Y-114437390D02*
X91162095Y-114485009D01*
X91162095Y-114485009D02*
X91209714Y-114580247D01*
X91209714Y-114580247D02*
X91209714Y-114818342D01*
X91209714Y-114818342D02*
X91162095Y-114913580D01*
X91162095Y-114913580D02*
X91114476Y-114961200D01*
X91114476Y-114961200D02*
X91019238Y-115008819D01*
X91019238Y-115008819D02*
X90733524Y-115008819D01*
X90733524Y-115008819D02*
X90638286Y-114961200D01*
X90638286Y-114961200D02*
X90590667Y-114913580D01*
X93863333Y-116902033D02*
X93463333Y-116902033D01*
X93663333Y-116902033D02*
X93663333Y-116202033D01*
X93663333Y-116202033D02*
X93596666Y-116302033D01*
X93596666Y-116302033D02*
X93530000Y-116368700D01*
X93530000Y-116368700D02*
X93463333Y-116402033D01*
X94463333Y-116435366D02*
X94463333Y-116902033D01*
X94163333Y-116435366D02*
X94163333Y-116802033D01*
X94163333Y-116802033D02*
X94196667Y-116868700D01*
X94196667Y-116868700D02*
X94263333Y-116902033D01*
X94263333Y-116902033D02*
X94363333Y-116902033D01*
X94363333Y-116902033D02*
X94430000Y-116868700D01*
X94430000Y-116868700D02*
X94463333Y-116835366D01*
X92964095Y-84750819D02*
X92964095Y-85560342D01*
X92964095Y-85560342D02*
X93011714Y-85655580D01*
X93011714Y-85655580D02*
X93059333Y-85703200D01*
X93059333Y-85703200D02*
X93154571Y-85750819D01*
X93154571Y-85750819D02*
X93345047Y-85750819D01*
X93345047Y-85750819D02*
X93440285Y-85703200D01*
X93440285Y-85703200D02*
X93487904Y-85655580D01*
X93487904Y-85655580D02*
X93535523Y-85560342D01*
X93535523Y-85560342D02*
X93535523Y-84750819D01*
X94535523Y-85750819D02*
X93964095Y-85750819D01*
X94249809Y-85750819D02*
X94249809Y-84750819D01*
X94249809Y-84750819D02*
X94154571Y-84893676D01*
X94154571Y-84893676D02*
X94059333Y-84988914D01*
X94059333Y-84988914D02*
X93964095Y-85036533D01*
X90309333Y-78842033D02*
X89975999Y-78842033D01*
X89975999Y-78842033D02*
X89975999Y-78142033D01*
X90542666Y-78842033D02*
X90542666Y-78142033D01*
X90542666Y-78142033D02*
X90776000Y-78642033D01*
X90776000Y-78642033D02*
X91009333Y-78142033D01*
X91009333Y-78142033D02*
X91009333Y-78842033D01*
X91276000Y-78142033D02*
X91742666Y-78142033D01*
X91742666Y-78142033D02*
X91442666Y-78842033D01*
X92109333Y-78442033D02*
X92042667Y-78408700D01*
X92042667Y-78408700D02*
X92009333Y-78375366D01*
X92009333Y-78375366D02*
X91976000Y-78308700D01*
X91976000Y-78308700D02*
X91976000Y-78275366D01*
X91976000Y-78275366D02*
X92009333Y-78208700D01*
X92009333Y-78208700D02*
X92042667Y-78175366D01*
X92042667Y-78175366D02*
X92109333Y-78142033D01*
X92109333Y-78142033D02*
X92242667Y-78142033D01*
X92242667Y-78142033D02*
X92309333Y-78175366D01*
X92309333Y-78175366D02*
X92342667Y-78208700D01*
X92342667Y-78208700D02*
X92376000Y-78275366D01*
X92376000Y-78275366D02*
X92376000Y-78308700D01*
X92376000Y-78308700D02*
X92342667Y-78375366D01*
X92342667Y-78375366D02*
X92309333Y-78408700D01*
X92309333Y-78408700D02*
X92242667Y-78442033D01*
X92242667Y-78442033D02*
X92109333Y-78442033D01*
X92109333Y-78442033D02*
X92042667Y-78475366D01*
X92042667Y-78475366D02*
X92009333Y-78508700D01*
X92009333Y-78508700D02*
X91976000Y-78575366D01*
X91976000Y-78575366D02*
X91976000Y-78708700D01*
X91976000Y-78708700D02*
X92009333Y-78775366D01*
X92009333Y-78775366D02*
X92042667Y-78808700D01*
X92042667Y-78808700D02*
X92109333Y-78842033D01*
X92109333Y-78842033D02*
X92242667Y-78842033D01*
X92242667Y-78842033D02*
X92309333Y-78808700D01*
X92309333Y-78808700D02*
X92342667Y-78775366D01*
X92342667Y-78775366D02*
X92376000Y-78708700D01*
X92376000Y-78708700D02*
X92376000Y-78575366D01*
X92376000Y-78575366D02*
X92342667Y-78508700D01*
X92342667Y-78508700D02*
X92309333Y-78475366D01*
X92309333Y-78475366D02*
X92242667Y-78442033D01*
X92809334Y-78142033D02*
X92876000Y-78142033D01*
X92876000Y-78142033D02*
X92942667Y-78175366D01*
X92942667Y-78175366D02*
X92976000Y-78208700D01*
X92976000Y-78208700D02*
X93009334Y-78275366D01*
X93009334Y-78275366D02*
X93042667Y-78408700D01*
X93042667Y-78408700D02*
X93042667Y-78575366D01*
X93042667Y-78575366D02*
X93009334Y-78708700D01*
X93009334Y-78708700D02*
X92976000Y-78775366D01*
X92976000Y-78775366D02*
X92942667Y-78808700D01*
X92942667Y-78808700D02*
X92876000Y-78842033D01*
X92876000Y-78842033D02*
X92809334Y-78842033D01*
X92809334Y-78842033D02*
X92742667Y-78808700D01*
X92742667Y-78808700D02*
X92709334Y-78775366D01*
X92709334Y-78775366D02*
X92676000Y-78708700D01*
X92676000Y-78708700D02*
X92642667Y-78575366D01*
X92642667Y-78575366D02*
X92642667Y-78408700D01*
X92642667Y-78408700D02*
X92676000Y-78275366D01*
X92676000Y-78275366D02*
X92709334Y-78208700D01*
X92709334Y-78208700D02*
X92742667Y-78175366D01*
X92742667Y-78175366D02*
X92809334Y-78142033D01*
X93676001Y-78142033D02*
X93342667Y-78142033D01*
X93342667Y-78142033D02*
X93309334Y-78475366D01*
X93309334Y-78475366D02*
X93342667Y-78442033D01*
X93342667Y-78442033D02*
X93409334Y-78408700D01*
X93409334Y-78408700D02*
X93576001Y-78408700D01*
X93576001Y-78408700D02*
X93642667Y-78442033D01*
X93642667Y-78442033D02*
X93676001Y-78475366D01*
X93676001Y-78475366D02*
X93709334Y-78542033D01*
X93709334Y-78542033D02*
X93709334Y-78708700D01*
X93709334Y-78708700D02*
X93676001Y-78775366D01*
X93676001Y-78775366D02*
X93642667Y-78808700D01*
X93642667Y-78808700D02*
X93576001Y-78842033D01*
X93576001Y-78842033D02*
X93409334Y-78842033D01*
X93409334Y-78842033D02*
X93342667Y-78808700D01*
X93342667Y-78808700D02*
X93309334Y-78775366D01*
X93842668Y-78908700D02*
X94376001Y-78908700D01*
X94442667Y-78142033D02*
X94842667Y-78142033D01*
X94642667Y-78842033D02*
X94642667Y-78142033D01*
X95209334Y-78142033D02*
X95342667Y-78142033D01*
X95342667Y-78142033D02*
X95409334Y-78175366D01*
X95409334Y-78175366D02*
X95476000Y-78242033D01*
X95476000Y-78242033D02*
X95509334Y-78375366D01*
X95509334Y-78375366D02*
X95509334Y-78608700D01*
X95509334Y-78608700D02*
X95476000Y-78742033D01*
X95476000Y-78742033D02*
X95409334Y-78808700D01*
X95409334Y-78808700D02*
X95342667Y-78842033D01*
X95342667Y-78842033D02*
X95209334Y-78842033D01*
X95209334Y-78842033D02*
X95142667Y-78808700D01*
X95142667Y-78808700D02*
X95076000Y-78742033D01*
X95076000Y-78742033D02*
X95042667Y-78608700D01*
X95042667Y-78608700D02*
X95042667Y-78375366D01*
X95042667Y-78375366D02*
X95076000Y-78242033D01*
X95076000Y-78242033D02*
X95142667Y-78175366D01*
X95142667Y-78175366D02*
X95209334Y-78142033D01*
X95776000Y-78208700D02*
X95809333Y-78175366D01*
X95809333Y-78175366D02*
X95876000Y-78142033D01*
X95876000Y-78142033D02*
X96042667Y-78142033D01*
X96042667Y-78142033D02*
X96109333Y-78175366D01*
X96109333Y-78175366D02*
X96142667Y-78208700D01*
X96142667Y-78208700D02*
X96176000Y-78275366D01*
X96176000Y-78275366D02*
X96176000Y-78342033D01*
X96176000Y-78342033D02*
X96142667Y-78442033D01*
X96142667Y-78442033D02*
X95742667Y-78842033D01*
X95742667Y-78842033D02*
X96176000Y-78842033D01*
X96442667Y-78208700D02*
X96476000Y-78175366D01*
X96476000Y-78175366D02*
X96542667Y-78142033D01*
X96542667Y-78142033D02*
X96709334Y-78142033D01*
X96709334Y-78142033D02*
X96776000Y-78175366D01*
X96776000Y-78175366D02*
X96809334Y-78208700D01*
X96809334Y-78208700D02*
X96842667Y-78275366D01*
X96842667Y-78275366D02*
X96842667Y-78342033D01*
X96842667Y-78342033D02*
X96809334Y-78442033D01*
X96809334Y-78442033D02*
X96409334Y-78842033D01*
X96409334Y-78842033D02*
X96842667Y-78842033D01*
X97276001Y-78142033D02*
X97342667Y-78142033D01*
X97342667Y-78142033D02*
X97409334Y-78175366D01*
X97409334Y-78175366D02*
X97442667Y-78208700D01*
X97442667Y-78208700D02*
X97476001Y-78275366D01*
X97476001Y-78275366D02*
X97509334Y-78408700D01*
X97509334Y-78408700D02*
X97509334Y-78575366D01*
X97509334Y-78575366D02*
X97476001Y-78708700D01*
X97476001Y-78708700D02*
X97442667Y-78775366D01*
X97442667Y-78775366D02*
X97409334Y-78808700D01*
X97409334Y-78808700D02*
X97342667Y-78842033D01*
X97342667Y-78842033D02*
X97276001Y-78842033D01*
X97276001Y-78842033D02*
X97209334Y-78808700D01*
X97209334Y-78808700D02*
X97176001Y-78775366D01*
X97176001Y-78775366D02*
X97142667Y-78708700D01*
X97142667Y-78708700D02*
X97109334Y-78575366D01*
X97109334Y-78575366D02*
X97109334Y-78408700D01*
X97109334Y-78408700D02*
X97142667Y-78275366D01*
X97142667Y-78275366D02*
X97176001Y-78208700D01*
X97176001Y-78208700D02*
X97209334Y-78175366D01*
X97209334Y-78175366D02*
X97276001Y-78142033D01*
X108481905Y-92910819D02*
X108481905Y-91910819D01*
X108481905Y-91910819D02*
X108720000Y-91910819D01*
X108720000Y-91910819D02*
X108862857Y-91958438D01*
X108862857Y-91958438D02*
X108958095Y-92053676D01*
X108958095Y-92053676D02*
X109005714Y-92148914D01*
X109005714Y-92148914D02*
X109053333Y-92339390D01*
X109053333Y-92339390D02*
X109053333Y-92482247D01*
X109053333Y-92482247D02*
X109005714Y-92672723D01*
X109005714Y-92672723D02*
X108958095Y-92767961D01*
X108958095Y-92767961D02*
X108862857Y-92863200D01*
X108862857Y-92863200D02*
X108720000Y-92910819D01*
X108720000Y-92910819D02*
X108481905Y-92910819D01*
X110005714Y-92910819D02*
X109434286Y-92910819D01*
X109720000Y-92910819D02*
X109720000Y-91910819D01*
X109720000Y-91910819D02*
X109624762Y-92053676D01*
X109624762Y-92053676D02*
X109529524Y-92148914D01*
X109529524Y-92148914D02*
X109434286Y-92196533D01*
X106230000Y-100392033D02*
X105896666Y-100392033D01*
X105896666Y-100392033D02*
X105896666Y-99692033D01*
X106463333Y-100025366D02*
X106696667Y-100025366D01*
X106796667Y-100392033D02*
X106463333Y-100392033D01*
X106463333Y-100392033D02*
X106463333Y-99692033D01*
X106463333Y-99692033D02*
X106796667Y-99692033D01*
X107096666Y-100392033D02*
X107096666Y-99692033D01*
X107096666Y-99692033D02*
X107263333Y-99692033D01*
X107263333Y-99692033D02*
X107363333Y-99725366D01*
X107363333Y-99725366D02*
X107430000Y-99792033D01*
X107430000Y-99792033D02*
X107463333Y-99858700D01*
X107463333Y-99858700D02*
X107496666Y-99992033D01*
X107496666Y-99992033D02*
X107496666Y-100092033D01*
X107496666Y-100092033D02*
X107463333Y-100225366D01*
X107463333Y-100225366D02*
X107430000Y-100292033D01*
X107430000Y-100292033D02*
X107363333Y-100358700D01*
X107363333Y-100358700D02*
X107263333Y-100392033D01*
X107263333Y-100392033D02*
X107096666Y-100392033D01*
X103973333Y-88846819D02*
X103640000Y-88370628D01*
X103401905Y-88846819D02*
X103401905Y-87846819D01*
X103401905Y-87846819D02*
X103782857Y-87846819D01*
X103782857Y-87846819D02*
X103878095Y-87894438D01*
X103878095Y-87894438D02*
X103925714Y-87942057D01*
X103925714Y-87942057D02*
X103973333Y-88037295D01*
X103973333Y-88037295D02*
X103973333Y-88180152D01*
X103973333Y-88180152D02*
X103925714Y-88275390D01*
X103925714Y-88275390D02*
X103878095Y-88323009D01*
X103878095Y-88323009D02*
X103782857Y-88370628D01*
X103782857Y-88370628D02*
X103401905Y-88370628D01*
X104925714Y-88846819D02*
X104354286Y-88846819D01*
X104640000Y-88846819D02*
X104640000Y-87846819D01*
X104640000Y-87846819D02*
X104544762Y-87989676D01*
X104544762Y-87989676D02*
X104449524Y-88084914D01*
X104449524Y-88084914D02*
X104354286Y-88132533D01*
X106542000Y-88008033D02*
X106975333Y-88008033D01*
X106975333Y-88008033D02*
X106742000Y-88274700D01*
X106742000Y-88274700D02*
X106842000Y-88274700D01*
X106842000Y-88274700D02*
X106908666Y-88308033D01*
X106908666Y-88308033D02*
X106942000Y-88341366D01*
X106942000Y-88341366D02*
X106975333Y-88408033D01*
X106975333Y-88408033D02*
X106975333Y-88574700D01*
X106975333Y-88574700D02*
X106942000Y-88641366D01*
X106942000Y-88641366D02*
X106908666Y-88674700D01*
X106908666Y-88674700D02*
X106842000Y-88708033D01*
X106842000Y-88708033D02*
X106642000Y-88708033D01*
X106642000Y-88708033D02*
X106575333Y-88674700D01*
X106575333Y-88674700D02*
X106542000Y-88641366D01*
X107208667Y-88008033D02*
X107642000Y-88008033D01*
X107642000Y-88008033D02*
X107408667Y-88274700D01*
X107408667Y-88274700D02*
X107508667Y-88274700D01*
X107508667Y-88274700D02*
X107575333Y-88308033D01*
X107575333Y-88308033D02*
X107608667Y-88341366D01*
X107608667Y-88341366D02*
X107642000Y-88408033D01*
X107642000Y-88408033D02*
X107642000Y-88574700D01*
X107642000Y-88574700D02*
X107608667Y-88641366D01*
X107608667Y-88641366D02*
X107575333Y-88674700D01*
X107575333Y-88674700D02*
X107508667Y-88708033D01*
X107508667Y-88708033D02*
X107308667Y-88708033D01*
X107308667Y-88708033D02*
X107242000Y-88674700D01*
X107242000Y-88674700D02*
X107208667Y-88641366D01*
X108075334Y-88008033D02*
X108142000Y-88008033D01*
X108142000Y-88008033D02*
X108208667Y-88041366D01*
X108208667Y-88041366D02*
X108242000Y-88074700D01*
X108242000Y-88074700D02*
X108275334Y-88141366D01*
X108275334Y-88141366D02*
X108308667Y-88274700D01*
X108308667Y-88274700D02*
X108308667Y-88441366D01*
X108308667Y-88441366D02*
X108275334Y-88574700D01*
X108275334Y-88574700D02*
X108242000Y-88641366D01*
X108242000Y-88641366D02*
X108208667Y-88674700D01*
X108208667Y-88674700D02*
X108142000Y-88708033D01*
X108142000Y-88708033D02*
X108075334Y-88708033D01*
X108075334Y-88708033D02*
X108008667Y-88674700D01*
X108008667Y-88674700D02*
X107975334Y-88641366D01*
X107975334Y-88641366D02*
X107942000Y-88574700D01*
X107942000Y-88574700D02*
X107908667Y-88441366D01*
X107908667Y-88441366D02*
X107908667Y-88274700D01*
X107908667Y-88274700D02*
X107942000Y-88141366D01*
X107942000Y-88141366D02*
X107975334Y-88074700D01*
X107975334Y-88074700D02*
X108008667Y-88041366D01*
X108008667Y-88041366D02*
X108075334Y-88008033D01*
X99996666Y-113500819D02*
X99996666Y-114215104D01*
X99996666Y-114215104D02*
X99949047Y-114357961D01*
X99949047Y-114357961D02*
X99853809Y-114453200D01*
X99853809Y-114453200D02*
X99710952Y-114500819D01*
X99710952Y-114500819D02*
X99615714Y-114500819D01*
X100377619Y-113500819D02*
X100996666Y-113500819D01*
X100996666Y-113500819D02*
X100663333Y-113881771D01*
X100663333Y-113881771D02*
X100806190Y-113881771D01*
X100806190Y-113881771D02*
X100901428Y-113929390D01*
X100901428Y-113929390D02*
X100949047Y-113977009D01*
X100949047Y-113977009D02*
X100996666Y-114072247D01*
X100996666Y-114072247D02*
X100996666Y-114310342D01*
X100996666Y-114310342D02*
X100949047Y-114405580D01*
X100949047Y-114405580D02*
X100901428Y-114453200D01*
X100901428Y-114453200D02*
X100806190Y-114500819D01*
X100806190Y-114500819D02*
X100520476Y-114500819D01*
X100520476Y-114500819D02*
X100425238Y-114453200D01*
X100425238Y-114453200D02*
X100377619Y-114405580D01*
X87209333Y-87735580D02*
X87161714Y-87783200D01*
X87161714Y-87783200D02*
X87018857Y-87830819D01*
X87018857Y-87830819D02*
X86923619Y-87830819D01*
X86923619Y-87830819D02*
X86780762Y-87783200D01*
X86780762Y-87783200D02*
X86685524Y-87687961D01*
X86685524Y-87687961D02*
X86637905Y-87592723D01*
X86637905Y-87592723D02*
X86590286Y-87402247D01*
X86590286Y-87402247D02*
X86590286Y-87259390D01*
X86590286Y-87259390D02*
X86637905Y-87068914D01*
X86637905Y-87068914D02*
X86685524Y-86973676D01*
X86685524Y-86973676D02*
X86780762Y-86878438D01*
X86780762Y-86878438D02*
X86923619Y-86830819D01*
X86923619Y-86830819D02*
X87018857Y-86830819D01*
X87018857Y-86830819D02*
X87161714Y-86878438D01*
X87161714Y-86878438D02*
X87209333Y-86926057D01*
X87590286Y-86926057D02*
X87637905Y-86878438D01*
X87637905Y-86878438D02*
X87733143Y-86830819D01*
X87733143Y-86830819D02*
X87971238Y-86830819D01*
X87971238Y-86830819D02*
X88066476Y-86878438D01*
X88066476Y-86878438D02*
X88114095Y-86926057D01*
X88114095Y-86926057D02*
X88161714Y-87021295D01*
X88161714Y-87021295D02*
X88161714Y-87116533D01*
X88161714Y-87116533D02*
X88114095Y-87259390D01*
X88114095Y-87259390D02*
X87542667Y-87830819D01*
X87542667Y-87830819D02*
X88161714Y-87830819D01*
X90336000Y-88770033D02*
X90402666Y-88770033D01*
X90402666Y-88770033D02*
X90469333Y-88803366D01*
X90469333Y-88803366D02*
X90502666Y-88836700D01*
X90502666Y-88836700D02*
X90536000Y-88903366D01*
X90536000Y-88903366D02*
X90569333Y-89036700D01*
X90569333Y-89036700D02*
X90569333Y-89203366D01*
X90569333Y-89203366D02*
X90536000Y-89336700D01*
X90536000Y-89336700D02*
X90502666Y-89403366D01*
X90502666Y-89403366D02*
X90469333Y-89436700D01*
X90469333Y-89436700D02*
X90402666Y-89470033D01*
X90402666Y-89470033D02*
X90336000Y-89470033D01*
X90336000Y-89470033D02*
X90269333Y-89436700D01*
X90269333Y-89436700D02*
X90236000Y-89403366D01*
X90236000Y-89403366D02*
X90202666Y-89336700D01*
X90202666Y-89336700D02*
X90169333Y-89203366D01*
X90169333Y-89203366D02*
X90169333Y-89036700D01*
X90169333Y-89036700D02*
X90202666Y-88903366D01*
X90202666Y-88903366D02*
X90236000Y-88836700D01*
X90236000Y-88836700D02*
X90269333Y-88803366D01*
X90269333Y-88803366D02*
X90336000Y-88770033D01*
X90869333Y-89403366D02*
X90902667Y-89436700D01*
X90902667Y-89436700D02*
X90869333Y-89470033D01*
X90869333Y-89470033D02*
X90836000Y-89436700D01*
X90836000Y-89436700D02*
X90869333Y-89403366D01*
X90869333Y-89403366D02*
X90869333Y-89470033D01*
X91569333Y-89470033D02*
X91169333Y-89470033D01*
X91369333Y-89470033D02*
X91369333Y-88770033D01*
X91369333Y-88770033D02*
X91302666Y-88870033D01*
X91302666Y-88870033D02*
X91236000Y-88936700D01*
X91236000Y-88936700D02*
X91169333Y-88970033D01*
X92169333Y-89003366D02*
X92169333Y-89470033D01*
X91869333Y-89003366D02*
X91869333Y-89370033D01*
X91869333Y-89370033D02*
X91902667Y-89436700D01*
X91902667Y-89436700D02*
X91969333Y-89470033D01*
X91969333Y-89470033D02*
X92069333Y-89470033D01*
X92069333Y-89470033D02*
X92136000Y-89436700D01*
X92136000Y-89436700D02*
X92169333Y-89403366D01*
X104227333Y-105864819D02*
X103894000Y-105388628D01*
X103655905Y-105864819D02*
X103655905Y-104864819D01*
X103655905Y-104864819D02*
X104036857Y-104864819D01*
X104036857Y-104864819D02*
X104132095Y-104912438D01*
X104132095Y-104912438D02*
X104179714Y-104960057D01*
X104179714Y-104960057D02*
X104227333Y-105055295D01*
X104227333Y-105055295D02*
X104227333Y-105198152D01*
X104227333Y-105198152D02*
X104179714Y-105293390D01*
X104179714Y-105293390D02*
X104132095Y-105341009D01*
X104132095Y-105341009D02*
X104036857Y-105388628D01*
X104036857Y-105388628D02*
X103655905Y-105388628D01*
X104608286Y-104960057D02*
X104655905Y-104912438D01*
X104655905Y-104912438D02*
X104751143Y-104864819D01*
X104751143Y-104864819D02*
X104989238Y-104864819D01*
X104989238Y-104864819D02*
X105084476Y-104912438D01*
X105084476Y-104912438D02*
X105132095Y-104960057D01*
X105132095Y-104960057D02*
X105179714Y-105055295D01*
X105179714Y-105055295D02*
X105179714Y-105150533D01*
X105179714Y-105150533D02*
X105132095Y-105293390D01*
X105132095Y-105293390D02*
X104560667Y-105864819D01*
X104560667Y-105864819D02*
X105179714Y-105864819D01*
X107304000Y-105026033D02*
X107737333Y-105026033D01*
X107737333Y-105026033D02*
X107504000Y-105292700D01*
X107504000Y-105292700D02*
X107604000Y-105292700D01*
X107604000Y-105292700D02*
X107670666Y-105326033D01*
X107670666Y-105326033D02*
X107704000Y-105359366D01*
X107704000Y-105359366D02*
X107737333Y-105426033D01*
X107737333Y-105426033D02*
X107737333Y-105592700D01*
X107737333Y-105592700D02*
X107704000Y-105659366D01*
X107704000Y-105659366D02*
X107670666Y-105692700D01*
X107670666Y-105692700D02*
X107604000Y-105726033D01*
X107604000Y-105726033D02*
X107404000Y-105726033D01*
X107404000Y-105726033D02*
X107337333Y-105692700D01*
X107337333Y-105692700D02*
X107304000Y-105659366D01*
X107970667Y-105026033D02*
X108404000Y-105026033D01*
X108404000Y-105026033D02*
X108170667Y-105292700D01*
X108170667Y-105292700D02*
X108270667Y-105292700D01*
X108270667Y-105292700D02*
X108337333Y-105326033D01*
X108337333Y-105326033D02*
X108370667Y-105359366D01*
X108370667Y-105359366D02*
X108404000Y-105426033D01*
X108404000Y-105426033D02*
X108404000Y-105592700D01*
X108404000Y-105592700D02*
X108370667Y-105659366D01*
X108370667Y-105659366D02*
X108337333Y-105692700D01*
X108337333Y-105692700D02*
X108270667Y-105726033D01*
X108270667Y-105726033D02*
X108070667Y-105726033D01*
X108070667Y-105726033D02*
X108004000Y-105692700D01*
X108004000Y-105692700D02*
X107970667Y-105659366D01*
X108837334Y-105026033D02*
X108904000Y-105026033D01*
X108904000Y-105026033D02*
X108970667Y-105059366D01*
X108970667Y-105059366D02*
X109004000Y-105092700D01*
X109004000Y-105092700D02*
X109037334Y-105159366D01*
X109037334Y-105159366D02*
X109070667Y-105292700D01*
X109070667Y-105292700D02*
X109070667Y-105459366D01*
X109070667Y-105459366D02*
X109037334Y-105592700D01*
X109037334Y-105592700D02*
X109004000Y-105659366D01*
X109004000Y-105659366D02*
X108970667Y-105692700D01*
X108970667Y-105692700D02*
X108904000Y-105726033D01*
X108904000Y-105726033D02*
X108837334Y-105726033D01*
X108837334Y-105726033D02*
X108770667Y-105692700D01*
X108770667Y-105692700D02*
X108737334Y-105659366D01*
X108737334Y-105659366D02*
X108704000Y-105592700D01*
X108704000Y-105592700D02*
X108670667Y-105459366D01*
X108670667Y-105459366D02*
X108670667Y-105292700D01*
X108670667Y-105292700D02*
X108704000Y-105159366D01*
X108704000Y-105159366D02*
X108737334Y-105092700D01*
X108737334Y-105092700D02*
X108770667Y-105059366D01*
X108770667Y-105059366D02*
X108837334Y-105026033D01*
X93392666Y-101529319D02*
X93392666Y-102243604D01*
X93392666Y-102243604D02*
X93345047Y-102386461D01*
X93345047Y-102386461D02*
X93249809Y-102481700D01*
X93249809Y-102481700D02*
X93106952Y-102529319D01*
X93106952Y-102529319D02*
X93011714Y-102529319D01*
X94392666Y-102529319D02*
X93821238Y-102529319D01*
X94106952Y-102529319D02*
X94106952Y-101529319D01*
X94106952Y-101529319D02*
X94011714Y-101672176D01*
X94011714Y-101672176D02*
X93916476Y-101767414D01*
X93916476Y-101767414D02*
X93821238Y-101815033D01*
X99996666Y-75908819D02*
X99996666Y-76623104D01*
X99996666Y-76623104D02*
X99949047Y-76765961D01*
X99949047Y-76765961D02*
X99853809Y-76861200D01*
X99853809Y-76861200D02*
X99710952Y-76908819D01*
X99710952Y-76908819D02*
X99615714Y-76908819D01*
X100425238Y-76004057D02*
X100472857Y-75956438D01*
X100472857Y-75956438D02*
X100568095Y-75908819D01*
X100568095Y-75908819D02*
X100806190Y-75908819D01*
X100806190Y-75908819D02*
X100901428Y-75956438D01*
X100901428Y-75956438D02*
X100949047Y-76004057D01*
X100949047Y-76004057D02*
X100996666Y-76099295D01*
X100996666Y-76099295D02*
X100996666Y-76194533D01*
X100996666Y-76194533D02*
X100949047Y-76337390D01*
X100949047Y-76337390D02*
X100377619Y-76908819D01*
X100377619Y-76908819D02*
X100996666Y-76908819D01*
X104481333Y-110944819D02*
X104148000Y-110468628D01*
X103909905Y-110944819D02*
X103909905Y-109944819D01*
X103909905Y-109944819D02*
X104290857Y-109944819D01*
X104290857Y-109944819D02*
X104386095Y-109992438D01*
X104386095Y-109992438D02*
X104433714Y-110040057D01*
X104433714Y-110040057D02*
X104481333Y-110135295D01*
X104481333Y-110135295D02*
X104481333Y-110278152D01*
X104481333Y-110278152D02*
X104433714Y-110373390D01*
X104433714Y-110373390D02*
X104386095Y-110421009D01*
X104386095Y-110421009D02*
X104290857Y-110468628D01*
X104290857Y-110468628D02*
X103909905Y-110468628D01*
X104814667Y-109944819D02*
X105433714Y-109944819D01*
X105433714Y-109944819D02*
X105100381Y-110325771D01*
X105100381Y-110325771D02*
X105243238Y-110325771D01*
X105243238Y-110325771D02*
X105338476Y-110373390D01*
X105338476Y-110373390D02*
X105386095Y-110421009D01*
X105386095Y-110421009D02*
X105433714Y-110516247D01*
X105433714Y-110516247D02*
X105433714Y-110754342D01*
X105433714Y-110754342D02*
X105386095Y-110849580D01*
X105386095Y-110849580D02*
X105338476Y-110897200D01*
X105338476Y-110897200D02*
X105243238Y-110944819D01*
X105243238Y-110944819D02*
X104957524Y-110944819D01*
X104957524Y-110944819D02*
X104862286Y-110897200D01*
X104862286Y-110897200D02*
X104814667Y-110849580D01*
X107450000Y-110106033D02*
X107116666Y-110106033D01*
X107116666Y-110106033D02*
X107083333Y-110439366D01*
X107083333Y-110439366D02*
X107116666Y-110406033D01*
X107116666Y-110406033D02*
X107183333Y-110372700D01*
X107183333Y-110372700D02*
X107350000Y-110372700D01*
X107350000Y-110372700D02*
X107416666Y-110406033D01*
X107416666Y-110406033D02*
X107450000Y-110439366D01*
X107450000Y-110439366D02*
X107483333Y-110506033D01*
X107483333Y-110506033D02*
X107483333Y-110672700D01*
X107483333Y-110672700D02*
X107450000Y-110739366D01*
X107450000Y-110739366D02*
X107416666Y-110772700D01*
X107416666Y-110772700D02*
X107350000Y-110806033D01*
X107350000Y-110806033D02*
X107183333Y-110806033D01*
X107183333Y-110806033D02*
X107116666Y-110772700D01*
X107116666Y-110772700D02*
X107083333Y-110739366D01*
X108083333Y-110106033D02*
X107950000Y-110106033D01*
X107950000Y-110106033D02*
X107883333Y-110139366D01*
X107883333Y-110139366D02*
X107850000Y-110172700D01*
X107850000Y-110172700D02*
X107783333Y-110272700D01*
X107783333Y-110272700D02*
X107750000Y-110406033D01*
X107750000Y-110406033D02*
X107750000Y-110672700D01*
X107750000Y-110672700D02*
X107783333Y-110739366D01*
X107783333Y-110739366D02*
X107816667Y-110772700D01*
X107816667Y-110772700D02*
X107883333Y-110806033D01*
X107883333Y-110806033D02*
X108016667Y-110806033D01*
X108016667Y-110806033D02*
X108083333Y-110772700D01*
X108083333Y-110772700D02*
X108116667Y-110739366D01*
X108116667Y-110739366D02*
X108150000Y-110672700D01*
X108150000Y-110672700D02*
X108150000Y-110506033D01*
X108150000Y-110506033D02*
X108116667Y-110439366D01*
X108116667Y-110439366D02*
X108083333Y-110406033D01*
X108083333Y-110406033D02*
X108016667Y-110372700D01*
X108016667Y-110372700D02*
X107883333Y-110372700D01*
X107883333Y-110372700D02*
X107816667Y-110406033D01*
X107816667Y-110406033D02*
X107783333Y-110439366D01*
X107783333Y-110439366D02*
X107750000Y-110506033D01*
X108583334Y-110106033D02*
X108650000Y-110106033D01*
X108650000Y-110106033D02*
X108716667Y-110139366D01*
X108716667Y-110139366D02*
X108750000Y-110172700D01*
X108750000Y-110172700D02*
X108783334Y-110239366D01*
X108783334Y-110239366D02*
X108816667Y-110372700D01*
X108816667Y-110372700D02*
X108816667Y-110539366D01*
X108816667Y-110539366D02*
X108783334Y-110672700D01*
X108783334Y-110672700D02*
X108750000Y-110739366D01*
X108750000Y-110739366D02*
X108716667Y-110772700D01*
X108716667Y-110772700D02*
X108650000Y-110806033D01*
X108650000Y-110806033D02*
X108583334Y-110806033D01*
X108583334Y-110806033D02*
X108516667Y-110772700D01*
X108516667Y-110772700D02*
X108483334Y-110739366D01*
X108483334Y-110739366D02*
X108450000Y-110672700D01*
X108450000Y-110672700D02*
X108416667Y-110539366D01*
X108416667Y-110539366D02*
X108416667Y-110372700D01*
X108416667Y-110372700D02*
X108450000Y-110239366D01*
X108450000Y-110239366D02*
X108483334Y-110172700D01*
X108483334Y-110172700D02*
X108516667Y-110139366D01*
X108516667Y-110139366D02*
X108583334Y-110106033D01*
X90865819Y-71453333D02*
X91580104Y-71453333D01*
X91580104Y-71453333D02*
X91722961Y-71500952D01*
X91722961Y-71500952D02*
X91818200Y-71596190D01*
X91818200Y-71596190D02*
X91865819Y-71739047D01*
X91865819Y-71739047D02*
X91865819Y-71834285D01*
X90865819Y-71072380D02*
X90865819Y-70405714D01*
X90865819Y-70405714D02*
X91865819Y-70834285D01*
X90611819Y-119967333D02*
X91326104Y-119967333D01*
X91326104Y-119967333D02*
X91468961Y-120014952D01*
X91468961Y-120014952D02*
X91564200Y-120110190D01*
X91564200Y-120110190D02*
X91611819Y-120253047D01*
X91611819Y-120253047D02*
X91611819Y-120348285D01*
X90611819Y-119062571D02*
X90611819Y-119253047D01*
X90611819Y-119253047D02*
X90659438Y-119348285D01*
X90659438Y-119348285D02*
X90707057Y-119395904D01*
X90707057Y-119395904D02*
X90849914Y-119491142D01*
X90849914Y-119491142D02*
X91040390Y-119538761D01*
X91040390Y-119538761D02*
X91421342Y-119538761D01*
X91421342Y-119538761D02*
X91516580Y-119491142D01*
X91516580Y-119491142D02*
X91564200Y-119443523D01*
X91564200Y-119443523D02*
X91611819Y-119348285D01*
X91611819Y-119348285D02*
X91611819Y-119157809D01*
X91611819Y-119157809D02*
X91564200Y-119062571D01*
X91564200Y-119062571D02*
X91516580Y-119014952D01*
X91516580Y-119014952D02*
X91421342Y-118967333D01*
X91421342Y-118967333D02*
X91183247Y-118967333D01*
X91183247Y-118967333D02*
X91088009Y-119014952D01*
X91088009Y-119014952D02*
X91040390Y-119062571D01*
X91040390Y-119062571D02*
X90992771Y-119157809D01*
X90992771Y-119157809D02*
X90992771Y-119348285D01*
X90992771Y-119348285D02*
X91040390Y-119443523D01*
X91040390Y-119443523D02*
X91088009Y-119491142D01*
X91088009Y-119491142D02*
X91183247Y-119538761D01*
X92456095Y-105349819D02*
X92456095Y-106159342D01*
X92456095Y-106159342D02*
X92503714Y-106254580D01*
X92503714Y-106254580D02*
X92551333Y-106302200D01*
X92551333Y-106302200D02*
X92646571Y-106349819D01*
X92646571Y-106349819D02*
X92837047Y-106349819D01*
X92837047Y-106349819D02*
X92932285Y-106302200D01*
X92932285Y-106302200D02*
X92979904Y-106254580D01*
X92979904Y-106254580D02*
X93027523Y-106159342D01*
X93027523Y-106159342D02*
X93027523Y-105349819D01*
X93456095Y-105445057D02*
X93503714Y-105397438D01*
X93503714Y-105397438D02*
X93598952Y-105349819D01*
X93598952Y-105349819D02*
X93837047Y-105349819D01*
X93837047Y-105349819D02*
X93932285Y-105397438D01*
X93932285Y-105397438D02*
X93979904Y-105445057D01*
X93979904Y-105445057D02*
X94027523Y-105540295D01*
X94027523Y-105540295D02*
X94027523Y-105635533D01*
X94027523Y-105635533D02*
X93979904Y-105778390D01*
X93979904Y-105778390D02*
X93408476Y-106349819D01*
X93408476Y-106349819D02*
X94027523Y-106349819D01*
X89701333Y-112981033D02*
X89367999Y-112981033D01*
X89367999Y-112981033D02*
X89367999Y-112281033D01*
X89934666Y-112981033D02*
X89934666Y-112281033D01*
X89934666Y-112281033D02*
X90168000Y-112781033D01*
X90168000Y-112781033D02*
X90401333Y-112281033D01*
X90401333Y-112281033D02*
X90401333Y-112981033D01*
X90668000Y-112281033D02*
X91101333Y-112281033D01*
X91101333Y-112281033D02*
X90868000Y-112547700D01*
X90868000Y-112547700D02*
X90968000Y-112547700D01*
X90968000Y-112547700D02*
X91034666Y-112581033D01*
X91034666Y-112581033D02*
X91068000Y-112614366D01*
X91068000Y-112614366D02*
X91101333Y-112681033D01*
X91101333Y-112681033D02*
X91101333Y-112847700D01*
X91101333Y-112847700D02*
X91068000Y-112914366D01*
X91068000Y-112914366D02*
X91034666Y-112947700D01*
X91034666Y-112947700D02*
X90968000Y-112981033D01*
X90968000Y-112981033D02*
X90768000Y-112981033D01*
X90768000Y-112981033D02*
X90701333Y-112947700D01*
X90701333Y-112947700D02*
X90668000Y-112914366D01*
X91768000Y-112981033D02*
X91368000Y-112981033D01*
X91568000Y-112981033D02*
X91568000Y-112281033D01*
X91568000Y-112281033D02*
X91501333Y-112381033D01*
X91501333Y-112381033D02*
X91434667Y-112447700D01*
X91434667Y-112447700D02*
X91368000Y-112481033D01*
X92001334Y-112281033D02*
X92468000Y-112281033D01*
X92468000Y-112281033D02*
X92168000Y-112981033D01*
X92568001Y-113047700D02*
X93101334Y-113047700D01*
X93168000Y-112281033D02*
X93568000Y-112281033D01*
X93368000Y-112981033D02*
X93368000Y-112281033D01*
X93934667Y-112281033D02*
X94068000Y-112281033D01*
X94068000Y-112281033D02*
X94134667Y-112314366D01*
X94134667Y-112314366D02*
X94201333Y-112381033D01*
X94201333Y-112381033D02*
X94234667Y-112514366D01*
X94234667Y-112514366D02*
X94234667Y-112747700D01*
X94234667Y-112747700D02*
X94201333Y-112881033D01*
X94201333Y-112881033D02*
X94134667Y-112947700D01*
X94134667Y-112947700D02*
X94068000Y-112981033D01*
X94068000Y-112981033D02*
X93934667Y-112981033D01*
X93934667Y-112981033D02*
X93868000Y-112947700D01*
X93868000Y-112947700D02*
X93801333Y-112881033D01*
X93801333Y-112881033D02*
X93768000Y-112747700D01*
X93768000Y-112747700D02*
X93768000Y-112514366D01*
X93768000Y-112514366D02*
X93801333Y-112381033D01*
X93801333Y-112381033D02*
X93868000Y-112314366D01*
X93868000Y-112314366D02*
X93934667Y-112281033D01*
X94534666Y-112714366D02*
X95068000Y-112714366D01*
X95368000Y-112347700D02*
X95401333Y-112314366D01*
X95401333Y-112314366D02*
X95468000Y-112281033D01*
X95468000Y-112281033D02*
X95634667Y-112281033D01*
X95634667Y-112281033D02*
X95701333Y-112314366D01*
X95701333Y-112314366D02*
X95734667Y-112347700D01*
X95734667Y-112347700D02*
X95768000Y-112414366D01*
X95768000Y-112414366D02*
X95768000Y-112481033D01*
X95768000Y-112481033D02*
X95734667Y-112581033D01*
X95734667Y-112581033D02*
X95334667Y-112981033D01*
X95334667Y-112981033D02*
X95768000Y-112981033D01*
X96034667Y-112347700D02*
X96068000Y-112314366D01*
X96068000Y-112314366D02*
X96134667Y-112281033D01*
X96134667Y-112281033D02*
X96301334Y-112281033D01*
X96301334Y-112281033D02*
X96368000Y-112314366D01*
X96368000Y-112314366D02*
X96401334Y-112347700D01*
X96401334Y-112347700D02*
X96434667Y-112414366D01*
X96434667Y-112414366D02*
X96434667Y-112481033D01*
X96434667Y-112481033D02*
X96401334Y-112581033D01*
X96401334Y-112581033D02*
X96001334Y-112981033D01*
X96001334Y-112981033D02*
X96434667Y-112981033D01*
X96868001Y-112281033D02*
X96934667Y-112281033D01*
X96934667Y-112281033D02*
X97001334Y-112314366D01*
X97001334Y-112314366D02*
X97034667Y-112347700D01*
X97034667Y-112347700D02*
X97068001Y-112414366D01*
X97068001Y-112414366D02*
X97101334Y-112547700D01*
X97101334Y-112547700D02*
X97101334Y-112714366D01*
X97101334Y-112714366D02*
X97068001Y-112847700D01*
X97068001Y-112847700D02*
X97034667Y-112914366D01*
X97034667Y-112914366D02*
X97001334Y-112947700D01*
X97001334Y-112947700D02*
X96934667Y-112981033D01*
X96934667Y-112981033D02*
X96868001Y-112981033D01*
X96868001Y-112981033D02*
X96801334Y-112947700D01*
X96801334Y-112947700D02*
X96768001Y-112914366D01*
X96768001Y-112914366D02*
X96734667Y-112847700D01*
X96734667Y-112847700D02*
X96701334Y-112714366D01*
X96701334Y-112714366D02*
X96701334Y-112547700D01*
X96701334Y-112547700D02*
X96734667Y-112414366D01*
X96734667Y-112414366D02*
X96768001Y-112347700D01*
X96768001Y-112347700D02*
X96801334Y-112314366D01*
X96801334Y-112314366D02*
X96868001Y-112281033D01*
X98893333Y-87735580D02*
X98845714Y-87783200D01*
X98845714Y-87783200D02*
X98702857Y-87830819D01*
X98702857Y-87830819D02*
X98607619Y-87830819D01*
X98607619Y-87830819D02*
X98464762Y-87783200D01*
X98464762Y-87783200D02*
X98369524Y-87687961D01*
X98369524Y-87687961D02*
X98321905Y-87592723D01*
X98321905Y-87592723D02*
X98274286Y-87402247D01*
X98274286Y-87402247D02*
X98274286Y-87259390D01*
X98274286Y-87259390D02*
X98321905Y-87068914D01*
X98321905Y-87068914D02*
X98369524Y-86973676D01*
X98369524Y-86973676D02*
X98464762Y-86878438D01*
X98464762Y-86878438D02*
X98607619Y-86830819D01*
X98607619Y-86830819D02*
X98702857Y-86830819D01*
X98702857Y-86830819D02*
X98845714Y-86878438D01*
X98845714Y-86878438D02*
X98893333Y-86926057D01*
X99845714Y-87830819D02*
X99274286Y-87830819D01*
X99560000Y-87830819D02*
X99560000Y-86830819D01*
X99560000Y-86830819D02*
X99464762Y-86973676D01*
X99464762Y-86973676D02*
X99369524Y-87068914D01*
X99369524Y-87068914D02*
X99274286Y-87116533D01*
X95562000Y-89470033D02*
X95162000Y-89470033D01*
X95362000Y-89470033D02*
X95362000Y-88770033D01*
X95362000Y-88770033D02*
X95295333Y-88870033D01*
X95295333Y-88870033D02*
X95228667Y-88936700D01*
X95228667Y-88936700D02*
X95162000Y-88970033D01*
X95995334Y-88770033D02*
X96062000Y-88770033D01*
X96062000Y-88770033D02*
X96128667Y-88803366D01*
X96128667Y-88803366D02*
X96162000Y-88836700D01*
X96162000Y-88836700D02*
X96195334Y-88903366D01*
X96195334Y-88903366D02*
X96228667Y-89036700D01*
X96228667Y-89036700D02*
X96228667Y-89203366D01*
X96228667Y-89203366D02*
X96195334Y-89336700D01*
X96195334Y-89336700D02*
X96162000Y-89403366D01*
X96162000Y-89403366D02*
X96128667Y-89436700D01*
X96128667Y-89436700D02*
X96062000Y-89470033D01*
X96062000Y-89470033D02*
X95995334Y-89470033D01*
X95995334Y-89470033D02*
X95928667Y-89436700D01*
X95928667Y-89436700D02*
X95895334Y-89403366D01*
X95895334Y-89403366D02*
X95862000Y-89336700D01*
X95862000Y-89336700D02*
X95828667Y-89203366D01*
X95828667Y-89203366D02*
X95828667Y-89036700D01*
X95828667Y-89036700D02*
X95862000Y-88903366D01*
X95862000Y-88903366D02*
X95895334Y-88836700D01*
X95895334Y-88836700D02*
X95928667Y-88803366D01*
X95928667Y-88803366D02*
X95995334Y-88770033D01*
X96828667Y-89003366D02*
X96828667Y-89470033D01*
X96528667Y-89003366D02*
X96528667Y-89370033D01*
X96528667Y-89370033D02*
X96562001Y-89436700D01*
X96562001Y-89436700D02*
X96628667Y-89470033D01*
X96628667Y-89470033D02*
X96728667Y-89470033D01*
X96728667Y-89470033D02*
X96795334Y-89436700D01*
X96795334Y-89436700D02*
X96828667Y-89403366D01*
D12*
%TO.C,G\u002A\u002A\u002A*%
X94025720Y-76733400D02*
X94031038Y-77520800D01*
X93969840Y-77520800D01*
X93969840Y-76726970D01*
X94025720Y-76733400D01*
G36*
X94025720Y-76733400D02*
G01*
X94031038Y-77520800D01*
X93969840Y-77520800D01*
X93969840Y-76726970D01*
X94025720Y-76733400D01*
G37*
X92097936Y-75796140D02*
X92095320Y-76428600D01*
X91937840Y-76434534D01*
X91937840Y-75163680D01*
X92100553Y-75163680D01*
X92097936Y-75796140D01*
G36*
X92097936Y-75796140D02*
G01*
X92095320Y-76428600D01*
X91937840Y-76434534D01*
X91937840Y-75163680D01*
X92100553Y-75163680D01*
X92097936Y-75796140D01*
G37*
X95250000Y-75336400D02*
X95175493Y-75336400D01*
X95138327Y-75335535D01*
X95109533Y-75333257D01*
X95094757Y-75330035D01*
X95094213Y-75329626D01*
X95091010Y-75316903D01*
X95088625Y-75289289D01*
X95087482Y-75252209D01*
X95087440Y-75243266D01*
X95087440Y-75163680D01*
X95250000Y-75163680D01*
X95250000Y-75336400D01*
G36*
X95250000Y-75336400D02*
G01*
X95175493Y-75336400D01*
X95138327Y-75335535D01*
X95109533Y-75333257D01*
X95094757Y-75330035D01*
X95094213Y-75329626D01*
X95091010Y-75316903D01*
X95088625Y-75289289D01*
X95087482Y-75252209D01*
X95087440Y-75243266D01*
X95087440Y-75163680D01*
X95250000Y-75163680D01*
X95250000Y-75336400D01*
G37*
X89997280Y-75305920D02*
X89245440Y-75305920D01*
X89245440Y-75702160D01*
X89946480Y-75702160D01*
X89946480Y-75844133D01*
X89598500Y-75846806D01*
X89250520Y-75849480D01*
X89245036Y-76281038D01*
X90022680Y-76286360D01*
X90028650Y-76433680D01*
X89072720Y-76433680D01*
X89072720Y-75163680D01*
X89997280Y-75163680D01*
X89997280Y-75305920D01*
G36*
X89997280Y-75305920D02*
G01*
X89245440Y-75305920D01*
X89245440Y-75702160D01*
X89946480Y-75702160D01*
X89946480Y-75844133D01*
X89598500Y-75846806D01*
X89250520Y-75849480D01*
X89245036Y-76281038D01*
X90022680Y-76286360D01*
X90028650Y-76433680D01*
X89072720Y-76433680D01*
X89072720Y-75163680D01*
X89997280Y-75163680D01*
X89997280Y-75305920D01*
G37*
X95820172Y-77437538D02*
X95836047Y-77457968D01*
X95839043Y-77484487D01*
X95827019Y-77510935D01*
X95823314Y-77514994D01*
X95801240Y-77529166D01*
X95776879Y-77525772D01*
X95765620Y-77519986D01*
X95752237Y-77502040D01*
X95748148Y-77475442D01*
X95754049Y-77449947D01*
X95760032Y-77441552D01*
X95779839Y-77431372D01*
X95793560Y-77429360D01*
X95820172Y-77437538D01*
G36*
X95820172Y-77437538D02*
G01*
X95836047Y-77457968D01*
X95839043Y-77484487D01*
X95827019Y-77510935D01*
X95823314Y-77514994D01*
X95801240Y-77529166D01*
X95776879Y-77525772D01*
X95765620Y-77519986D01*
X95752237Y-77502040D01*
X95748148Y-77475442D01*
X95754049Y-77449947D01*
X95760032Y-77441552D01*
X95779839Y-77431372D01*
X95793560Y-77429360D01*
X95820172Y-77437538D01*
G37*
X95250000Y-76433680D02*
X95175493Y-76433680D01*
X95138327Y-76432815D01*
X95109533Y-76430537D01*
X95094757Y-76427315D01*
X95094213Y-76426906D01*
X95092805Y-76415647D01*
X95091496Y-76386151D01*
X95090317Y-76340504D01*
X95089299Y-76280789D01*
X95088472Y-76209090D01*
X95087868Y-76127491D01*
X95087518Y-76038077D01*
X95087440Y-75969706D01*
X95087440Y-75519280D01*
X95250000Y-75519280D01*
X95250000Y-76433680D01*
G36*
X95250000Y-76433680D02*
G01*
X95175493Y-76433680D01*
X95138327Y-76432815D01*
X95109533Y-76430537D01*
X95094757Y-76427315D01*
X95094213Y-76426906D01*
X95092805Y-76415647D01*
X95091496Y-76386151D01*
X95090317Y-76340504D01*
X95089299Y-76280789D01*
X95088472Y-76209090D01*
X95087868Y-76127491D01*
X95087518Y-76038077D01*
X95087440Y-75969706D01*
X95087440Y-75519280D01*
X95250000Y-75519280D01*
X95250000Y-76433680D01*
G37*
X89672160Y-73934320D02*
X89255600Y-73934320D01*
X89255600Y-75062080D01*
X89176013Y-75062080D01*
X89137572Y-75061269D01*
X89107395Y-75059122D01*
X89090908Y-75056064D01*
X89089653Y-75055306D01*
X89088383Y-75044157D01*
X89087191Y-75014554D01*
X89086099Y-74968365D01*
X89085130Y-74907456D01*
X89084305Y-74833695D01*
X89083647Y-74748948D01*
X89083178Y-74655082D01*
X89082922Y-74553963D01*
X89082880Y-74491426D01*
X89082880Y-73934320D01*
X88666320Y-73934320D01*
X88666320Y-73792080D01*
X89672160Y-73792080D01*
X89672160Y-73934320D01*
G36*
X89672160Y-73934320D02*
G01*
X89255600Y-73934320D01*
X89255600Y-75062080D01*
X89176013Y-75062080D01*
X89137572Y-75061269D01*
X89107395Y-75059122D01*
X89090908Y-75056064D01*
X89089653Y-75055306D01*
X89088383Y-75044157D01*
X89087191Y-75014554D01*
X89086099Y-74968365D01*
X89085130Y-74907456D01*
X89084305Y-74833695D01*
X89083647Y-74748948D01*
X89083178Y-74655082D01*
X89082922Y-74553963D01*
X89082880Y-74491426D01*
X89082880Y-73934320D01*
X88666320Y-73934320D01*
X88666320Y-73792080D01*
X89672160Y-73792080D01*
X89672160Y-73934320D01*
G37*
X93639914Y-75493261D02*
X93675200Y-75499880D01*
X93675222Y-75578160D01*
X93675245Y-75656440D01*
X93603964Y-75653060D01*
X93538792Y-75656022D01*
X93483775Y-75673193D01*
X93433698Y-75706761D01*
X93401708Y-75737998D01*
X93360240Y-75782985D01*
X93360240Y-76433680D01*
X93207840Y-76433680D01*
X93207840Y-75519280D01*
X93360240Y-75519280D01*
X93360240Y-75575160D01*
X93361596Y-75605765D01*
X93365095Y-75626062D01*
X93368489Y-75631040D01*
X93379332Y-75623616D01*
X93395685Y-75605262D01*
X93399522Y-75600222D01*
X93441260Y-75557053D01*
X93493570Y-75522774D01*
X93550865Y-75499869D01*
X93607560Y-75490825D01*
X93639914Y-75493261D01*
G36*
X93639914Y-75493261D02*
G01*
X93675200Y-75499880D01*
X93675222Y-75578160D01*
X93675245Y-75656440D01*
X93603964Y-75653060D01*
X93538792Y-75656022D01*
X93483775Y-75673193D01*
X93433698Y-75706761D01*
X93401708Y-75737998D01*
X93360240Y-75782985D01*
X93360240Y-76433680D01*
X93207840Y-76433680D01*
X93207840Y-75519280D01*
X93360240Y-75519280D01*
X93360240Y-75575160D01*
X93361596Y-75605765D01*
X93365095Y-75626062D01*
X93368489Y-75631040D01*
X93379332Y-75623616D01*
X93395685Y-75605262D01*
X93399522Y-75600222D01*
X93441260Y-75557053D01*
X93493570Y-75522774D01*
X93550865Y-75499869D01*
X93607560Y-75490825D01*
X93639914Y-75493261D01*
G37*
X92621002Y-74041262D02*
X92647091Y-74055392D01*
X92658452Y-74075462D01*
X92652997Y-74098626D01*
X92639508Y-74113939D01*
X92626714Y-74127778D01*
X92626689Y-74142165D01*
X92634428Y-74159055D01*
X92646099Y-74183661D01*
X92647739Y-74195314D01*
X92639813Y-74198461D01*
X92638537Y-74198480D01*
X92627210Y-74190492D01*
X92611812Y-74170567D01*
X92607053Y-74162920D01*
X92588973Y-74136514D01*
X92576567Y-74129235D01*
X92568872Y-74141007D01*
X92565863Y-74159597D01*
X92560052Y-74183201D01*
X92550388Y-74195854D01*
X92549980Y-74196004D01*
X92543319Y-74192589D01*
X92539292Y-74175308D01*
X92537483Y-74141599D01*
X92537280Y-74118046D01*
X92537280Y-74081640D01*
X92567760Y-74081640D01*
X92574715Y-74101816D01*
X92593076Y-74107249D01*
X92617500Y-74097749D01*
X92627241Y-74083352D01*
X92621595Y-74067888D01*
X92604153Y-74057559D01*
X92593478Y-74056240D01*
X92573982Y-74060317D01*
X92567892Y-74076463D01*
X92567760Y-74081640D01*
X92537280Y-74081640D01*
X92537280Y-74035920D01*
X92582274Y-74035920D01*
X92621002Y-74041262D01*
G36*
X92621002Y-74041262D02*
G01*
X92647091Y-74055392D01*
X92658452Y-74075462D01*
X92652997Y-74098626D01*
X92639508Y-74113939D01*
X92626714Y-74127778D01*
X92626689Y-74142165D01*
X92634428Y-74159055D01*
X92646099Y-74183661D01*
X92647739Y-74195314D01*
X92639813Y-74198461D01*
X92638537Y-74198480D01*
X92627210Y-74190492D01*
X92611812Y-74170567D01*
X92607053Y-74162920D01*
X92588973Y-74136514D01*
X92576567Y-74129235D01*
X92568872Y-74141007D01*
X92565863Y-74159597D01*
X92560052Y-74183201D01*
X92550388Y-74195854D01*
X92549980Y-74196004D01*
X92543319Y-74192589D01*
X92539292Y-74175308D01*
X92537483Y-74141599D01*
X92537280Y-74118046D01*
X92537280Y-74081640D01*
X92567760Y-74081640D01*
X92574715Y-74101816D01*
X92593076Y-74107249D01*
X92617500Y-74097749D01*
X92627241Y-74083352D01*
X92621595Y-74067888D01*
X92604153Y-74057559D01*
X92593478Y-74056240D01*
X92573982Y-74060317D01*
X92567892Y-74076463D01*
X92567760Y-74081640D01*
X92537280Y-74081640D01*
X92537280Y-74035920D01*
X92582274Y-74035920D01*
X92621002Y-74041262D01*
G37*
X92624727Y-73978935D02*
X92670780Y-73997634D01*
X92707853Y-74030546D01*
X92731091Y-74073818D01*
X92738170Y-74123303D01*
X92728058Y-74168773D01*
X92703839Y-74207572D01*
X92668596Y-74237045D01*
X92625414Y-74254536D01*
X92577376Y-74257389D01*
X92532200Y-74245097D01*
X92488005Y-74216721D01*
X92460594Y-74177503D01*
X92450777Y-74134648D01*
X92483557Y-74134648D01*
X92496694Y-74173882D01*
X92523764Y-74204776D01*
X92530176Y-74209065D01*
X92574779Y-74227354D01*
X92616229Y-74225610D01*
X92655146Y-74203764D01*
X92665296Y-74194416D01*
X92692489Y-74154734D01*
X92700932Y-74110804D01*
X92689989Y-74066223D01*
X92688490Y-74063192D01*
X92661517Y-74030592D01*
X92623899Y-74010573D01*
X92581724Y-74004700D01*
X92541079Y-74014538D01*
X92528307Y-74022007D01*
X92499309Y-74053201D01*
X92484411Y-74092584D01*
X92483557Y-74134648D01*
X92450777Y-74134648D01*
X92448712Y-74125636D01*
X92448656Y-74124898D01*
X92452073Y-74071281D01*
X92471692Y-74029491D01*
X92508266Y-73998155D01*
X92522270Y-73990771D01*
X92573842Y-73976097D01*
X92624727Y-73978935D01*
G36*
X92624727Y-73978935D02*
G01*
X92670780Y-73997634D01*
X92707853Y-74030546D01*
X92731091Y-74073818D01*
X92738170Y-74123303D01*
X92728058Y-74168773D01*
X92703839Y-74207572D01*
X92668596Y-74237045D01*
X92625414Y-74254536D01*
X92577376Y-74257389D01*
X92532200Y-74245097D01*
X92488005Y-74216721D01*
X92460594Y-74177503D01*
X92450777Y-74134648D01*
X92483557Y-74134648D01*
X92496694Y-74173882D01*
X92523764Y-74204776D01*
X92530176Y-74209065D01*
X92574779Y-74227354D01*
X92616229Y-74225610D01*
X92655146Y-74203764D01*
X92665296Y-74194416D01*
X92692489Y-74154734D01*
X92700932Y-74110804D01*
X92689989Y-74066223D01*
X92688490Y-74063192D01*
X92661517Y-74030592D01*
X92623899Y-74010573D01*
X92581724Y-74004700D01*
X92541079Y-74014538D01*
X92528307Y-74022007D01*
X92499309Y-74053201D01*
X92484411Y-74092584D01*
X92483557Y-74134648D01*
X92450777Y-74134648D01*
X92448712Y-74125636D01*
X92448656Y-74124898D01*
X92452073Y-74071281D01*
X92471692Y-74029491D01*
X92508266Y-73998155D01*
X92522270Y-73990771D01*
X92573842Y-73976097D01*
X92624727Y-73978935D01*
G37*
X95060286Y-77028781D02*
X95060951Y-77029028D01*
X95073650Y-77042974D01*
X95077280Y-77059607D01*
X95073404Y-77077502D01*
X95057792Y-77083614D01*
X95048952Y-77083920D01*
X95009301Y-77091744D01*
X94967640Y-77112055D01*
X94931928Y-77140105D01*
X94912931Y-77165041D01*
X94905676Y-77181804D01*
X94900549Y-77202287D01*
X94897207Y-77230122D01*
X94895305Y-77268942D01*
X94894500Y-77322380D01*
X94894400Y-77360621D01*
X94894400Y-77520800D01*
X94833440Y-77520800D01*
X94833328Y-77320140D01*
X94832977Y-77255614D01*
X94832067Y-77195659D01*
X94830703Y-77144161D01*
X94828989Y-77105004D01*
X94827028Y-77082074D01*
X94826918Y-77081380D01*
X94823835Y-77056585D01*
X94828395Y-77045869D01*
X94844550Y-77043330D01*
X94852430Y-77043280D01*
X94873783Y-77045137D01*
X94882541Y-77054832D01*
X94884239Y-77078553D01*
X94884240Y-77078840D01*
X94885262Y-77102360D01*
X94887775Y-77114098D01*
X94888304Y-77114400D01*
X94897206Y-77107865D01*
X94915295Y-77091241D01*
X94927017Y-77079750D01*
X94958607Y-77055414D01*
X94995877Y-77037092D01*
X95032034Y-77027357D01*
X95060286Y-77028781D01*
G36*
X95060286Y-77028781D02*
G01*
X95060951Y-77029028D01*
X95073650Y-77042974D01*
X95077280Y-77059607D01*
X95073404Y-77077502D01*
X95057792Y-77083614D01*
X95048952Y-77083920D01*
X95009301Y-77091744D01*
X94967640Y-77112055D01*
X94931928Y-77140105D01*
X94912931Y-77165041D01*
X94905676Y-77181804D01*
X94900549Y-77202287D01*
X94897207Y-77230122D01*
X94895305Y-77268942D01*
X94894500Y-77322380D01*
X94894400Y-77360621D01*
X94894400Y-77520800D01*
X94833440Y-77520800D01*
X94833328Y-77320140D01*
X94832977Y-77255614D01*
X94832067Y-77195659D01*
X94830703Y-77144161D01*
X94828989Y-77105004D01*
X94827028Y-77082074D01*
X94826918Y-77081380D01*
X94823835Y-77056585D01*
X94828395Y-77045869D01*
X94844550Y-77043330D01*
X94852430Y-77043280D01*
X94873783Y-77045137D01*
X94882541Y-77054832D01*
X94884239Y-77078553D01*
X94884240Y-77078840D01*
X94885262Y-77102360D01*
X94887775Y-77114098D01*
X94888304Y-77114400D01*
X94897206Y-77107865D01*
X94915295Y-77091241D01*
X94927017Y-77079750D01*
X94958607Y-77055414D01*
X94995877Y-77037092D01*
X95032034Y-77027357D01*
X95060286Y-77028781D01*
G37*
X94848680Y-75514200D02*
X94996000Y-75520170D01*
X94996000Y-75641200D01*
X94842516Y-75641200D01*
X94845598Y-75957052D01*
X94848680Y-76272905D01*
X94878470Y-76298517D01*
X94899533Y-76313811D01*
X94921072Y-76320396D01*
X94951703Y-76320444D01*
X94962290Y-76319648D01*
X95016320Y-76315168D01*
X95016320Y-76373337D01*
X95015620Y-76403750D01*
X95011198Y-76423853D01*
X94999570Y-76435779D01*
X94977252Y-76441662D01*
X94940758Y-76443635D01*
X94901189Y-76443831D01*
X94850357Y-76442179D01*
X94812733Y-76436458D01*
X94781414Y-76425508D01*
X94775535Y-76422705D01*
X94740620Y-76399128D01*
X94715104Y-76364900D01*
X94709495Y-76354133D01*
X94703088Y-76340488D01*
X94697943Y-76326782D01*
X94693894Y-76310661D01*
X94690774Y-76289770D01*
X94688420Y-76261755D01*
X94686665Y-76224261D01*
X94685342Y-76174936D01*
X94684288Y-76111423D01*
X94683335Y-76031369D01*
X94682738Y-75973940D01*
X94679357Y-75641200D01*
X94569280Y-75641200D01*
X94569280Y-75520341D01*
X94622620Y-75517270D01*
X94675960Y-75514200D01*
X94678832Y-75399900D01*
X94681705Y-75285600D01*
X94842934Y-75285600D01*
X94848680Y-75514200D01*
G36*
X94848680Y-75514200D02*
G01*
X94996000Y-75520170D01*
X94996000Y-75641200D01*
X94842516Y-75641200D01*
X94845598Y-75957052D01*
X94848680Y-76272905D01*
X94878470Y-76298517D01*
X94899533Y-76313811D01*
X94921072Y-76320396D01*
X94951703Y-76320444D01*
X94962290Y-76319648D01*
X95016320Y-76315168D01*
X95016320Y-76373337D01*
X95015620Y-76403750D01*
X95011198Y-76423853D01*
X94999570Y-76435779D01*
X94977252Y-76441662D01*
X94940758Y-76443635D01*
X94901189Y-76443831D01*
X94850357Y-76442179D01*
X94812733Y-76436458D01*
X94781414Y-76425508D01*
X94775535Y-76422705D01*
X94740620Y-76399128D01*
X94715104Y-76364900D01*
X94709495Y-76354133D01*
X94703088Y-76340488D01*
X94697943Y-76326782D01*
X94693894Y-76310661D01*
X94690774Y-76289770D01*
X94688420Y-76261755D01*
X94686665Y-76224261D01*
X94685342Y-76174936D01*
X94684288Y-76111423D01*
X94683335Y-76031369D01*
X94682738Y-75973940D01*
X94679357Y-75641200D01*
X94569280Y-75641200D01*
X94569280Y-75520341D01*
X94622620Y-75517270D01*
X94675960Y-75514200D01*
X94678832Y-75399900D01*
X94681705Y-75285600D01*
X94842934Y-75285600D01*
X94848680Y-75514200D01*
G37*
X96898879Y-75502398D02*
X96964387Y-75527734D01*
X97008107Y-75557562D01*
X97032387Y-75579901D01*
X97052481Y-75602947D01*
X97068780Y-75628801D01*
X97081671Y-75659564D01*
X97091545Y-75697335D01*
X97098788Y-75744216D01*
X97103791Y-75802305D01*
X97106943Y-75873704D01*
X97108631Y-75960512D01*
X97109246Y-76064831D01*
X97109280Y-76103980D01*
X97109280Y-76433680D01*
X96946720Y-76433680D01*
X96946720Y-76107979D01*
X96946348Y-76008755D01*
X96945265Y-75922266D01*
X96943519Y-75850100D01*
X96941156Y-75793845D01*
X96938226Y-75755088D01*
X96935601Y-75738121D01*
X96914420Y-75688778D01*
X96880826Y-75653459D01*
X96837196Y-75632251D01*
X96785903Y-75625241D01*
X96729323Y-75632516D01*
X96669832Y-75654163D01*
X96609804Y-75690269D01*
X96568260Y-75724639D01*
X96520000Y-75769620D01*
X96520000Y-76433680D01*
X96357440Y-76433680D01*
X96357440Y-75519280D01*
X96520000Y-75519280D01*
X96520000Y-75570080D01*
X96521509Y-75599062D01*
X96525368Y-75617455D01*
X96528388Y-75620880D01*
X96540258Y-75614087D01*
X96558429Y-75597420D01*
X96561408Y-75594264D01*
X96616924Y-75547844D01*
X96682419Y-75515119D01*
X96753904Y-75496418D01*
X96827388Y-75492068D01*
X96898879Y-75502398D01*
G36*
X96898879Y-75502398D02*
G01*
X96964387Y-75527734D01*
X97008107Y-75557562D01*
X97032387Y-75579901D01*
X97052481Y-75602947D01*
X97068780Y-75628801D01*
X97081671Y-75659564D01*
X97091545Y-75697335D01*
X97098788Y-75744216D01*
X97103791Y-75802305D01*
X97106943Y-75873704D01*
X97108631Y-75960512D01*
X97109246Y-76064831D01*
X97109280Y-76103980D01*
X97109280Y-76433680D01*
X96946720Y-76433680D01*
X96946720Y-76107979D01*
X96946348Y-76008755D01*
X96945265Y-75922266D01*
X96943519Y-75850100D01*
X96941156Y-75793845D01*
X96938226Y-75755088D01*
X96935601Y-75738121D01*
X96914420Y-75688778D01*
X96880826Y-75653459D01*
X96837196Y-75632251D01*
X96785903Y-75625241D01*
X96729323Y-75632516D01*
X96669832Y-75654163D01*
X96609804Y-75690269D01*
X96568260Y-75724639D01*
X96520000Y-75769620D01*
X96520000Y-76433680D01*
X96357440Y-76433680D01*
X96357440Y-75519280D01*
X96520000Y-75519280D01*
X96520000Y-75570080D01*
X96521509Y-75599062D01*
X96525368Y-75617455D01*
X96528388Y-75620880D01*
X96540258Y-75614087D01*
X96558429Y-75597420D01*
X96561408Y-75594264D01*
X96616924Y-75547844D01*
X96682419Y-75515119D01*
X96753904Y-75496418D01*
X96827388Y-75492068D01*
X96898879Y-75502398D01*
G37*
X91694000Y-74251006D02*
X91740061Y-74210461D01*
X91792828Y-74168938D01*
X91842625Y-74142241D01*
X91896487Y-74127721D01*
X91961451Y-74122730D01*
X91973400Y-74122639D01*
X92054266Y-74128308D01*
X92120173Y-74146189D01*
X92173225Y-74177460D01*
X92215526Y-74223303D01*
X92244635Y-74274680D01*
X92250755Y-74288525D01*
X92255726Y-74302278D01*
X92259686Y-74318164D01*
X92262777Y-74338407D01*
X92265138Y-74365231D01*
X92266910Y-74400862D01*
X92268233Y-74447524D01*
X92269246Y-74507442D01*
X92270090Y-74582842D01*
X92270904Y-74675946D01*
X92271054Y-74694215D01*
X92274069Y-75062951D01*
X92194854Y-75059975D01*
X92115640Y-75057000D01*
X92110560Y-74700929D01*
X92109109Y-74605238D01*
X92107683Y-74527754D01*
X92106155Y-74466367D01*
X92104397Y-74418965D01*
X92102285Y-74383436D01*
X92099690Y-74357668D01*
X92096487Y-74339551D01*
X92092548Y-74326972D01*
X92087746Y-74317819D01*
X92087558Y-74317531D01*
X92059158Y-74284254D01*
X92024100Y-74264338D01*
X91977564Y-74255607D01*
X91948446Y-74254756D01*
X91878972Y-74263654D01*
X91815263Y-74290240D01*
X91754852Y-74335662D01*
X91737323Y-74352802D01*
X91694287Y-74397076D01*
X91691603Y-74727038D01*
X91688920Y-75057000D01*
X91531440Y-75062934D01*
X91531440Y-73792080D01*
X91694000Y-73792080D01*
X91694000Y-74251006D01*
G36*
X91694000Y-74251006D02*
G01*
X91740061Y-74210461D01*
X91792828Y-74168938D01*
X91842625Y-74142241D01*
X91896487Y-74127721D01*
X91961451Y-74122730D01*
X91973400Y-74122639D01*
X92054266Y-74128308D01*
X92120173Y-74146189D01*
X92173225Y-74177460D01*
X92215526Y-74223303D01*
X92244635Y-74274680D01*
X92250755Y-74288525D01*
X92255726Y-74302278D01*
X92259686Y-74318164D01*
X92262777Y-74338407D01*
X92265138Y-74365231D01*
X92266910Y-74400862D01*
X92268233Y-74447524D01*
X92269246Y-74507442D01*
X92270090Y-74582842D01*
X92270904Y-74675946D01*
X92271054Y-74694215D01*
X92274069Y-75062951D01*
X92194854Y-75059975D01*
X92115640Y-75057000D01*
X92110560Y-74700929D01*
X92109109Y-74605238D01*
X92107683Y-74527754D01*
X92106155Y-74466367D01*
X92104397Y-74418965D01*
X92102285Y-74383436D01*
X92099690Y-74357668D01*
X92096487Y-74339551D01*
X92092548Y-74326972D01*
X92087746Y-74317819D01*
X92087558Y-74317531D01*
X92059158Y-74284254D01*
X92024100Y-74264338D01*
X91977564Y-74255607D01*
X91948446Y-74254756D01*
X91878972Y-74263654D01*
X91815263Y-74290240D01*
X91754852Y-74335662D01*
X91737323Y-74352802D01*
X91694287Y-74397076D01*
X91691603Y-74727038D01*
X91688920Y-75057000D01*
X91531440Y-75062934D01*
X91531440Y-73792080D01*
X91694000Y-73792080D01*
X91694000Y-74251006D01*
G37*
X94467278Y-77029704D02*
X94533399Y-77047811D01*
X94580711Y-77072415D01*
X94626368Y-77112826D01*
X94659861Y-77165920D01*
X94680028Y-77227291D01*
X94685707Y-77292538D01*
X94675736Y-77357257D01*
X94664215Y-77388720D01*
X94636532Y-77433615D01*
X94598010Y-77474531D01*
X94554695Y-77505894D01*
X94521739Y-77520067D01*
X94461620Y-77529791D01*
X94398606Y-77528315D01*
X94341501Y-77516100D01*
X94325440Y-77509786D01*
X94267024Y-77474494D01*
X94224859Y-77428257D01*
X94197949Y-77369585D01*
X94185540Y-77300141D01*
X94186340Y-77282040D01*
X94244606Y-77282040D01*
X94253332Y-77344356D01*
X94277613Y-77397124D01*
X94314600Y-77438450D01*
X94361444Y-77466441D01*
X94415299Y-77479201D01*
X94473314Y-77474837D01*
X94513820Y-77461062D01*
X94564732Y-77427792D01*
X94601070Y-77382765D01*
X94621933Y-77329256D01*
X94626418Y-77270541D01*
X94613625Y-77209895D01*
X94594298Y-77168715D01*
X94557656Y-77125112D01*
X94508729Y-77097115D01*
X94449076Y-77085453D01*
X94417307Y-77085856D01*
X94357344Y-77099261D01*
X94308388Y-77128779D01*
X94272171Y-77172442D01*
X94250425Y-77228284D01*
X94244606Y-77282040D01*
X94186340Y-77282040D01*
X94188681Y-77229154D01*
X94208406Y-77166522D01*
X94242186Y-77113703D01*
X94287492Y-77072154D01*
X94341796Y-77043333D01*
X94402567Y-77028697D01*
X94467278Y-77029704D01*
G36*
X94467278Y-77029704D02*
G01*
X94533399Y-77047811D01*
X94580711Y-77072415D01*
X94626368Y-77112826D01*
X94659861Y-77165920D01*
X94680028Y-77227291D01*
X94685707Y-77292538D01*
X94675736Y-77357257D01*
X94664215Y-77388720D01*
X94636532Y-77433615D01*
X94598010Y-77474531D01*
X94554695Y-77505894D01*
X94521739Y-77520067D01*
X94461620Y-77529791D01*
X94398606Y-77528315D01*
X94341501Y-77516100D01*
X94325440Y-77509786D01*
X94267024Y-77474494D01*
X94224859Y-77428257D01*
X94197949Y-77369585D01*
X94185540Y-77300141D01*
X94186340Y-77282040D01*
X94244606Y-77282040D01*
X94253332Y-77344356D01*
X94277613Y-77397124D01*
X94314600Y-77438450D01*
X94361444Y-77466441D01*
X94415299Y-77479201D01*
X94473314Y-77474837D01*
X94513820Y-77461062D01*
X94564732Y-77427792D01*
X94601070Y-77382765D01*
X94621933Y-77329256D01*
X94626418Y-77270541D01*
X94613625Y-77209895D01*
X94594298Y-77168715D01*
X94557656Y-77125112D01*
X94508729Y-77097115D01*
X94449076Y-77085453D01*
X94417307Y-77085856D01*
X94357344Y-77099261D01*
X94308388Y-77128779D01*
X94272171Y-77172442D01*
X94250425Y-77228284D01*
X94244606Y-77282040D01*
X94186340Y-77282040D01*
X94188681Y-77229154D01*
X94208406Y-77166522D01*
X94242186Y-77113703D01*
X94287492Y-77072154D01*
X94341796Y-77043333D01*
X94402567Y-77028697D01*
X94467278Y-77029704D01*
G37*
X96325639Y-77044288D02*
X96376364Y-77070021D01*
X96401264Y-77091971D01*
X96413416Y-77107628D01*
X96410440Y-77117947D01*
X96397289Y-77128034D01*
X96381575Y-77136903D01*
X96367679Y-77135715D01*
X96347910Y-77123093D01*
X96341144Y-77117986D01*
X96294405Y-77094190D01*
X96238390Y-77084631D01*
X96190226Y-77088249D01*
X96151809Y-77103470D01*
X96113057Y-77131714D01*
X96080989Y-77167062D01*
X96066366Y-77192654D01*
X96054580Y-77240204D01*
X96053184Y-77294883D01*
X96061731Y-77347723D01*
X96075821Y-77383339D01*
X96111095Y-77428208D01*
X96156044Y-77459546D01*
X96206547Y-77476387D01*
X96258485Y-77477767D01*
X96307737Y-77462722D01*
X96335747Y-77444195D01*
X96360869Y-77425372D01*
X96378231Y-77420817D01*
X96394000Y-77430003D01*
X96402240Y-77438503D01*
X96412119Y-77451554D01*
X96410694Y-77462023D01*
X96395782Y-77475960D01*
X96385989Y-77483526D01*
X96356668Y-77503169D01*
X96327969Y-77518362D01*
X96323713Y-77520102D01*
X96289478Y-77527429D01*
X96244319Y-77529838D01*
X96196996Y-77527464D01*
X96156266Y-77520440D01*
X96146507Y-77517397D01*
X96089982Y-77486685D01*
X96044915Y-77441458D01*
X96012689Y-77384847D01*
X95994691Y-77319986D01*
X95992304Y-77250007D01*
X96002667Y-77192076D01*
X96022645Y-77149748D01*
X96056376Y-77107427D01*
X96098174Y-77071039D01*
X96142341Y-77046513D01*
X96203476Y-77031629D01*
X96266293Y-77031189D01*
X96325639Y-77044288D01*
G36*
X96325639Y-77044288D02*
G01*
X96376364Y-77070021D01*
X96401264Y-77091971D01*
X96413416Y-77107628D01*
X96410440Y-77117947D01*
X96397289Y-77128034D01*
X96381575Y-77136903D01*
X96367679Y-77135715D01*
X96347910Y-77123093D01*
X96341144Y-77117986D01*
X96294405Y-77094190D01*
X96238390Y-77084631D01*
X96190226Y-77088249D01*
X96151809Y-77103470D01*
X96113057Y-77131714D01*
X96080989Y-77167062D01*
X96066366Y-77192654D01*
X96054580Y-77240204D01*
X96053184Y-77294883D01*
X96061731Y-77347723D01*
X96075821Y-77383339D01*
X96111095Y-77428208D01*
X96156044Y-77459546D01*
X96206547Y-77476387D01*
X96258485Y-77477767D01*
X96307737Y-77462722D01*
X96335747Y-77444195D01*
X96360869Y-77425372D01*
X96378231Y-77420817D01*
X96394000Y-77430003D01*
X96402240Y-77438503D01*
X96412119Y-77451554D01*
X96410694Y-77462023D01*
X96395782Y-77475960D01*
X96385989Y-77483526D01*
X96356668Y-77503169D01*
X96327969Y-77518362D01*
X96323713Y-77520102D01*
X96289478Y-77527429D01*
X96244319Y-77529838D01*
X96196996Y-77527464D01*
X96156266Y-77520440D01*
X96146507Y-77517397D01*
X96089982Y-77486685D01*
X96044915Y-77441458D01*
X96012689Y-77384847D01*
X95994691Y-77319986D01*
X95992304Y-77250007D01*
X96002667Y-77192076D01*
X96022645Y-77149748D01*
X96056376Y-77107427D01*
X96098174Y-77071039D01*
X96142341Y-77046513D01*
X96203476Y-77031629D01*
X96266293Y-77031189D01*
X96325639Y-77044288D01*
G37*
X96789377Y-77032558D02*
X96852716Y-77049631D01*
X96882971Y-77065016D01*
X96930944Y-77106063D01*
X96966702Y-77160180D01*
X96988546Y-77223047D01*
X96994780Y-77290349D01*
X96989394Y-77335697D01*
X96966464Y-77404104D01*
X96929558Y-77457784D01*
X96878860Y-77496589D01*
X96814549Y-77520369D01*
X96754866Y-77528401D01*
X96712077Y-77529699D01*
X96681297Y-77527181D01*
X96654351Y-77519393D01*
X96623209Y-77504950D01*
X96566374Y-77465506D01*
X96525017Y-77412972D01*
X96499667Y-77348023D01*
X96499531Y-77347461D01*
X96492019Y-77278659D01*
X96552109Y-77278659D01*
X96560428Y-77338034D01*
X96585048Y-77392232D01*
X96610793Y-77423649D01*
X96660849Y-77460483D01*
X96716194Y-77477921D01*
X96777793Y-77476194D01*
X96804835Y-77470068D01*
X96841705Y-77451603D01*
X96878388Y-77419709D01*
X96909012Y-77380467D01*
X96926460Y-77344141D01*
X96934607Y-77289995D01*
X96928612Y-77231674D01*
X96909743Y-77178250D01*
X96901277Y-77163796D01*
X96863032Y-77122880D01*
X96814887Y-77096449D01*
X96761122Y-77084511D01*
X96706017Y-77087075D01*
X96653851Y-77104149D01*
X96608905Y-77135741D01*
X96586158Y-77163198D01*
X96560538Y-77218812D01*
X96552109Y-77278659D01*
X96492019Y-77278659D01*
X96491943Y-77277966D01*
X96501350Y-77210270D01*
X96526317Y-77148410D01*
X96565408Y-77096422D01*
X96598434Y-77069357D01*
X96656047Y-77042515D01*
X96721757Y-77030218D01*
X96789377Y-77032558D01*
G36*
X96789377Y-77032558D02*
G01*
X96852716Y-77049631D01*
X96882971Y-77065016D01*
X96930944Y-77106063D01*
X96966702Y-77160180D01*
X96988546Y-77223047D01*
X96994780Y-77290349D01*
X96989394Y-77335697D01*
X96966464Y-77404104D01*
X96929558Y-77457784D01*
X96878860Y-77496589D01*
X96814549Y-77520369D01*
X96754866Y-77528401D01*
X96712077Y-77529699D01*
X96681297Y-77527181D01*
X96654351Y-77519393D01*
X96623209Y-77504950D01*
X96566374Y-77465506D01*
X96525017Y-77412972D01*
X96499667Y-77348023D01*
X96499531Y-77347461D01*
X96492019Y-77278659D01*
X96552109Y-77278659D01*
X96560428Y-77338034D01*
X96585048Y-77392232D01*
X96610793Y-77423649D01*
X96660849Y-77460483D01*
X96716194Y-77477921D01*
X96777793Y-77476194D01*
X96804835Y-77470068D01*
X96841705Y-77451603D01*
X96878388Y-77419709D01*
X96909012Y-77380467D01*
X96926460Y-77344141D01*
X96934607Y-77289995D01*
X96928612Y-77231674D01*
X96909743Y-77178250D01*
X96901277Y-77163796D01*
X96863032Y-77122880D01*
X96814887Y-77096449D01*
X96761122Y-77084511D01*
X96706017Y-77087075D01*
X96653851Y-77104149D01*
X96608905Y-77135741D01*
X96586158Y-77163198D01*
X96560538Y-77218812D01*
X96552109Y-77278659D01*
X96492019Y-77278659D01*
X96491943Y-77277966D01*
X96501350Y-77210270D01*
X96526317Y-77148410D01*
X96565408Y-77096422D01*
X96598434Y-77069357D01*
X96656047Y-77042515D01*
X96721757Y-77030218D01*
X96789377Y-77032558D01*
G37*
X93641356Y-77039169D02*
X93700080Y-77065205D01*
X93750561Y-77105776D01*
X93785423Y-77153413D01*
X93808802Y-77215605D01*
X93815587Y-77283579D01*
X93806205Y-77352021D01*
X93781082Y-77415616D01*
X93761985Y-77444945D01*
X93719268Y-77485201D01*
X93664971Y-77512992D01*
X93603796Y-77527928D01*
X93540447Y-77529617D01*
X93479624Y-77517669D01*
X93426032Y-77491694D01*
X93404771Y-77474616D01*
X93370899Y-77442672D01*
X93368109Y-77601116D01*
X93365320Y-77759560D01*
X93337380Y-77762774D01*
X93309440Y-77765989D01*
X93309440Y-77299945D01*
X93362039Y-77299945D01*
X93375790Y-77353365D01*
X93406885Y-77403732D01*
X93419798Y-77417798D01*
X93449158Y-77442579D01*
X93480177Y-77461996D01*
X93492799Y-77467440D01*
X93547002Y-77477031D01*
X93604308Y-77473113D01*
X93656334Y-77456634D01*
X93673357Y-77447025D01*
X93713465Y-77409058D01*
X93740600Y-77359724D01*
X93754230Y-77303724D01*
X93753825Y-77245754D01*
X93738856Y-77190514D01*
X93708792Y-77142701D01*
X93707832Y-77141630D01*
X93671063Y-77113120D01*
X93623314Y-77092686D01*
X93573443Y-77084001D01*
X93568598Y-77083920D01*
X93506468Y-77092429D01*
X93453630Y-77115952D01*
X93411427Y-77151475D01*
X93381199Y-77195989D01*
X93364289Y-77246483D01*
X93362039Y-77299945D01*
X93309440Y-77299945D01*
X93309440Y-77043280D01*
X93339920Y-77043280D01*
X93360030Y-77045106D01*
X93368552Y-77054608D01*
X93370394Y-77077817D01*
X93370400Y-77080740D01*
X93370400Y-77118201D01*
X93398340Y-77092142D01*
X93452880Y-77054155D01*
X93514040Y-77033056D01*
X93578104Y-77028256D01*
X93641356Y-77039169D01*
G36*
X93641356Y-77039169D02*
G01*
X93700080Y-77065205D01*
X93750561Y-77105776D01*
X93785423Y-77153413D01*
X93808802Y-77215605D01*
X93815587Y-77283579D01*
X93806205Y-77352021D01*
X93781082Y-77415616D01*
X93761985Y-77444945D01*
X93719268Y-77485201D01*
X93664971Y-77512992D01*
X93603796Y-77527928D01*
X93540447Y-77529617D01*
X93479624Y-77517669D01*
X93426032Y-77491694D01*
X93404771Y-77474616D01*
X93370899Y-77442672D01*
X93368109Y-77601116D01*
X93365320Y-77759560D01*
X93337380Y-77762774D01*
X93309440Y-77765989D01*
X93309440Y-77299945D01*
X93362039Y-77299945D01*
X93375790Y-77353365D01*
X93406885Y-77403732D01*
X93419798Y-77417798D01*
X93449158Y-77442579D01*
X93480177Y-77461996D01*
X93492799Y-77467440D01*
X93547002Y-77477031D01*
X93604308Y-77473113D01*
X93656334Y-77456634D01*
X93673357Y-77447025D01*
X93713465Y-77409058D01*
X93740600Y-77359724D01*
X93754230Y-77303724D01*
X93753825Y-77245754D01*
X93738856Y-77190514D01*
X93708792Y-77142701D01*
X93707832Y-77141630D01*
X93671063Y-77113120D01*
X93623314Y-77092686D01*
X93573443Y-77084001D01*
X93568598Y-77083920D01*
X93506468Y-77092429D01*
X93453630Y-77115952D01*
X93411427Y-77151475D01*
X93381199Y-77195989D01*
X93364289Y-77246483D01*
X93362039Y-77299945D01*
X93309440Y-77299945D01*
X93309440Y-77043280D01*
X93339920Y-77043280D01*
X93360030Y-77045106D01*
X93368552Y-77054608D01*
X93370394Y-77077817D01*
X93370400Y-77080740D01*
X93370400Y-77118201D01*
X93398340Y-77092142D01*
X93452880Y-77054155D01*
X93514040Y-77033056D01*
X93578104Y-77028256D01*
X93641356Y-77039169D01*
G37*
X92545241Y-76902407D02*
X92552887Y-76909503D01*
X92556935Y-76926817D01*
X92559185Y-76958838D01*
X92559675Y-76969620D01*
X92562680Y-77038200D01*
X92631260Y-77041204D01*
X92667640Y-77043285D01*
X92688196Y-77046718D01*
X92697416Y-77053300D01*
X92699790Y-77064830D01*
X92699840Y-77068680D01*
X92698472Y-77081721D01*
X92691376Y-77089367D01*
X92674062Y-77093415D01*
X92642041Y-77095665D01*
X92631260Y-77096155D01*
X92562680Y-77099160D01*
X92562680Y-77270253D01*
X92562759Y-77332870D01*
X92563281Y-77378372D01*
X92564667Y-77409961D01*
X92567341Y-77430843D01*
X92571726Y-77444220D01*
X92578243Y-77453299D01*
X92587317Y-77461281D01*
X92587961Y-77461803D01*
X92611505Y-77475429D01*
X92639735Y-77478108D01*
X92655446Y-77476473D01*
X92682910Y-77474155D01*
X92696714Y-77478387D01*
X92702908Y-77490797D01*
X92699775Y-77512161D01*
X92689431Y-77520932D01*
X92659928Y-77528869D01*
X92620820Y-77529855D01*
X92581433Y-77524319D01*
X92554591Y-77514743D01*
X92530923Y-77495554D01*
X92516491Y-77473848D01*
X92513300Y-77455530D01*
X92510551Y-77420805D01*
X92508432Y-77373586D01*
X92507129Y-77317785D01*
X92506800Y-77271218D01*
X92506800Y-77094080D01*
X92450920Y-77094080D01*
X92418902Y-77093402D01*
X92402229Y-77089895D01*
X92395937Y-77081350D01*
X92395040Y-77069210D01*
X92396873Y-77054576D01*
X92405742Y-77046654D01*
X92426696Y-77042801D01*
X92448380Y-77041270D01*
X92501720Y-77038200D01*
X92504724Y-76969620D01*
X92506805Y-76933239D01*
X92510238Y-76912683D01*
X92516820Y-76903463D01*
X92528350Y-76901089D01*
X92532200Y-76901040D01*
X92545241Y-76902407D01*
G36*
X92545241Y-76902407D02*
G01*
X92552887Y-76909503D01*
X92556935Y-76926817D01*
X92559185Y-76958838D01*
X92559675Y-76969620D01*
X92562680Y-77038200D01*
X92631260Y-77041204D01*
X92667640Y-77043285D01*
X92688196Y-77046718D01*
X92697416Y-77053300D01*
X92699790Y-77064830D01*
X92699840Y-77068680D01*
X92698472Y-77081721D01*
X92691376Y-77089367D01*
X92674062Y-77093415D01*
X92642041Y-77095665D01*
X92631260Y-77096155D01*
X92562680Y-77099160D01*
X92562680Y-77270253D01*
X92562759Y-77332870D01*
X92563281Y-77378372D01*
X92564667Y-77409961D01*
X92567341Y-77430843D01*
X92571726Y-77444220D01*
X92578243Y-77453299D01*
X92587317Y-77461281D01*
X92587961Y-77461803D01*
X92611505Y-77475429D01*
X92639735Y-77478108D01*
X92655446Y-77476473D01*
X92682910Y-77474155D01*
X92696714Y-77478387D01*
X92702908Y-77490797D01*
X92699775Y-77512161D01*
X92689431Y-77520932D01*
X92659928Y-77528869D01*
X92620820Y-77529855D01*
X92581433Y-77524319D01*
X92554591Y-77514743D01*
X92530923Y-77495554D01*
X92516491Y-77473848D01*
X92513300Y-77455530D01*
X92510551Y-77420805D01*
X92508432Y-77373586D01*
X92507129Y-77317785D01*
X92506800Y-77271218D01*
X92506800Y-77094080D01*
X92450920Y-77094080D01*
X92418902Y-77093402D01*
X92402229Y-77089895D01*
X92395937Y-77081350D01*
X92395040Y-77069210D01*
X92396873Y-77054576D01*
X92405742Y-77046654D01*
X92426696Y-77042801D01*
X92448380Y-77041270D01*
X92501720Y-77038200D01*
X92504724Y-76969620D01*
X92506805Y-76933239D01*
X92510238Y-76912683D01*
X92516820Y-76903463D01*
X92528350Y-76901089D01*
X92532200Y-76901040D01*
X92545241Y-76902407D01*
G37*
X95454967Y-77041569D02*
X95483680Y-77053824D01*
X95535882Y-77090781D01*
X95572684Y-77140651D01*
X95593410Y-77202341D01*
X95597545Y-77237515D01*
X95600520Y-77292200D01*
X95399860Y-77294954D01*
X95328462Y-77295971D01*
X95275123Y-77297349D01*
X95237588Y-77299922D01*
X95213600Y-77304525D01*
X95200903Y-77311993D01*
X95197242Y-77323161D01*
X95200362Y-77338862D01*
X95208006Y-77359931D01*
X95210006Y-77365198D01*
X95238281Y-77414211D01*
X95278721Y-77449838D01*
X95327627Y-77471395D01*
X95381302Y-77478196D01*
X95436047Y-77469555D01*
X95488164Y-77444788D01*
X95516524Y-77422007D01*
X95535382Y-77405292D01*
X95547436Y-77401682D01*
X95560179Y-77409845D01*
X95564284Y-77413508D01*
X95577703Y-77428974D01*
X95575860Y-77443578D01*
X95569630Y-77453959D01*
X95539242Y-77483840D01*
X95494579Y-77507201D01*
X95440936Y-77522983D01*
X95383610Y-77530133D01*
X95327895Y-77527593D01*
X95279089Y-77514307D01*
X95275400Y-77512635D01*
X95231002Y-77483654D01*
X95190670Y-77443021D01*
X95160127Y-77397292D01*
X95147815Y-77366435D01*
X95139495Y-77310560D01*
X95141262Y-77249241D01*
X95143681Y-77236320D01*
X95196997Y-77236320D01*
X95546009Y-77236320D01*
X95538957Y-77213460D01*
X95513520Y-77156864D01*
X95476901Y-77117062D01*
X95428283Y-77093367D01*
X95386952Y-77086020D01*
X95329172Y-77090068D01*
X95277918Y-77110536D01*
X95236786Y-77145018D01*
X95209373Y-77191109D01*
X95203969Y-77208380D01*
X95196997Y-77236320D01*
X95143681Y-77236320D01*
X95152249Y-77190573D01*
X95171593Y-77142648D01*
X95171746Y-77142387D01*
X95212910Y-77090969D01*
X95265529Y-77054123D01*
X95325889Y-77032904D01*
X95390273Y-77028368D01*
X95454967Y-77041569D01*
G36*
X95454967Y-77041569D02*
G01*
X95483680Y-77053824D01*
X95535882Y-77090781D01*
X95572684Y-77140651D01*
X95593410Y-77202341D01*
X95597545Y-77237515D01*
X95600520Y-77292200D01*
X95399860Y-77294954D01*
X95328462Y-77295971D01*
X95275123Y-77297349D01*
X95237588Y-77299922D01*
X95213600Y-77304525D01*
X95200903Y-77311993D01*
X95197242Y-77323161D01*
X95200362Y-77338862D01*
X95208006Y-77359931D01*
X95210006Y-77365198D01*
X95238281Y-77414211D01*
X95278721Y-77449838D01*
X95327627Y-77471395D01*
X95381302Y-77478196D01*
X95436047Y-77469555D01*
X95488164Y-77444788D01*
X95516524Y-77422007D01*
X95535382Y-77405292D01*
X95547436Y-77401682D01*
X95560179Y-77409845D01*
X95564284Y-77413508D01*
X95577703Y-77428974D01*
X95575860Y-77443578D01*
X95569630Y-77453959D01*
X95539242Y-77483840D01*
X95494579Y-77507201D01*
X95440936Y-77522983D01*
X95383610Y-77530133D01*
X95327895Y-77527593D01*
X95279089Y-77514307D01*
X95275400Y-77512635D01*
X95231002Y-77483654D01*
X95190670Y-77443021D01*
X95160127Y-77397292D01*
X95147815Y-77366435D01*
X95139495Y-77310560D01*
X95141262Y-77249241D01*
X95143681Y-77236320D01*
X95196997Y-77236320D01*
X95546009Y-77236320D01*
X95538957Y-77213460D01*
X95513520Y-77156864D01*
X95476901Y-77117062D01*
X95428283Y-77093367D01*
X95386952Y-77086020D01*
X95329172Y-77090068D01*
X95277918Y-77110536D01*
X95236786Y-77145018D01*
X95209373Y-77191109D01*
X95203969Y-77208380D01*
X95196997Y-77236320D01*
X95143681Y-77236320D01*
X95152249Y-77190573D01*
X95171593Y-77142648D01*
X95171746Y-77142387D01*
X95212910Y-77090969D01*
X95265529Y-77054123D01*
X95325889Y-77032904D01*
X95390273Y-77028368D01*
X95454967Y-77041569D01*
G37*
X90243093Y-74126719D02*
X90324272Y-74151236D01*
X90398296Y-74191157D01*
X90449745Y-74233850D01*
X90500970Y-74298668D01*
X90540048Y-74376935D01*
X90565553Y-74464837D01*
X90576057Y-74558560D01*
X90576249Y-74571860D01*
X90576400Y-74635360D01*
X89882758Y-74635360D01*
X89888997Y-74678540D01*
X89908394Y-74763308D01*
X89939965Y-74832132D01*
X89984064Y-74885599D01*
X90036540Y-74922006D01*
X90093608Y-74943176D01*
X90154291Y-74951239D01*
X90214982Y-74947275D01*
X90272077Y-74932365D01*
X90321967Y-74907591D01*
X90361046Y-74874031D01*
X90385709Y-74832768D01*
X90390418Y-74815969D01*
X90393888Y-74802176D01*
X90400412Y-74793823D01*
X90414336Y-74789545D01*
X90440008Y-74787978D01*
X90480331Y-74787760D01*
X90564602Y-74787760D01*
X90554140Y-74825860D01*
X90524528Y-74897141D01*
X90478873Y-74958472D01*
X90419435Y-75008728D01*
X90348475Y-75046783D01*
X90268253Y-75071510D01*
X90181030Y-75081784D01*
X90089066Y-75076479D01*
X90060636Y-75071632D01*
X89978483Y-75045658D01*
X89902606Y-75002784D01*
X89836807Y-74945882D01*
X89784886Y-74877822D01*
X89771223Y-74852960D01*
X89738476Y-74767820D01*
X89720420Y-74676215D01*
X89716593Y-74581823D01*
X89723865Y-74513440D01*
X89883905Y-74513440D01*
X90406277Y-74513440D01*
X90399629Y-74471867D01*
X90383002Y-74413487D01*
X90354089Y-74357626D01*
X90316647Y-74310023D01*
X90274435Y-74276417D01*
X90270097Y-74274048D01*
X90203270Y-74249421D01*
X90136141Y-74243494D01*
X90071777Y-74255283D01*
X90013246Y-74283805D01*
X89963617Y-74328074D01*
X89927433Y-74383975D01*
X89910674Y-74421769D01*
X89897173Y-74457316D01*
X89890467Y-74480420D01*
X89883905Y-74513440D01*
X89723865Y-74513440D01*
X89726537Y-74488322D01*
X89749791Y-74399393D01*
X89785896Y-74318712D01*
X89834391Y-74249960D01*
X89848476Y-74234988D01*
X89914598Y-74182575D01*
X89990510Y-74145536D01*
X90072822Y-74123876D01*
X90158146Y-74117601D01*
X90243093Y-74126719D01*
G36*
X90243093Y-74126719D02*
G01*
X90324272Y-74151236D01*
X90398296Y-74191157D01*
X90449745Y-74233850D01*
X90500970Y-74298668D01*
X90540048Y-74376935D01*
X90565553Y-74464837D01*
X90576057Y-74558560D01*
X90576249Y-74571860D01*
X90576400Y-74635360D01*
X89882758Y-74635360D01*
X89888997Y-74678540D01*
X89908394Y-74763308D01*
X89939965Y-74832132D01*
X89984064Y-74885599D01*
X90036540Y-74922006D01*
X90093608Y-74943176D01*
X90154291Y-74951239D01*
X90214982Y-74947275D01*
X90272077Y-74932365D01*
X90321967Y-74907591D01*
X90361046Y-74874031D01*
X90385709Y-74832768D01*
X90390418Y-74815969D01*
X90393888Y-74802176D01*
X90400412Y-74793823D01*
X90414336Y-74789545D01*
X90440008Y-74787978D01*
X90480331Y-74787760D01*
X90564602Y-74787760D01*
X90554140Y-74825860D01*
X90524528Y-74897141D01*
X90478873Y-74958472D01*
X90419435Y-75008728D01*
X90348475Y-75046783D01*
X90268253Y-75071510D01*
X90181030Y-75081784D01*
X90089066Y-75076479D01*
X90060636Y-75071632D01*
X89978483Y-75045658D01*
X89902606Y-75002784D01*
X89836807Y-74945882D01*
X89784886Y-74877822D01*
X89771223Y-74852960D01*
X89738476Y-74767820D01*
X89720420Y-74676215D01*
X89716593Y-74581823D01*
X89723865Y-74513440D01*
X89883905Y-74513440D01*
X90406277Y-74513440D01*
X90399629Y-74471867D01*
X90383002Y-74413487D01*
X90354089Y-74357626D01*
X90316647Y-74310023D01*
X90274435Y-74276417D01*
X90270097Y-74274048D01*
X90203270Y-74249421D01*
X90136141Y-74243494D01*
X90071777Y-74255283D01*
X90013246Y-74283805D01*
X89963617Y-74328074D01*
X89927433Y-74383975D01*
X89910674Y-74421769D01*
X89897173Y-74457316D01*
X89890467Y-74480420D01*
X89883905Y-74513440D01*
X89723865Y-74513440D01*
X89726537Y-74488322D01*
X89749791Y-74399393D01*
X89785896Y-74318712D01*
X89834391Y-74249960D01*
X89848476Y-74234988D01*
X89914598Y-74182575D01*
X89990510Y-74145536D01*
X90072822Y-74123876D01*
X90158146Y-74117601D01*
X90243093Y-74126719D01*
G37*
X91188997Y-74132749D02*
X91263166Y-74157968D01*
X91326102Y-74195692D01*
X91334449Y-74202535D01*
X91373465Y-74244916D01*
X91406963Y-74297728D01*
X91429935Y-74352459D01*
X91435197Y-74373740D01*
X91442261Y-74411840D01*
X91279980Y-74411840D01*
X91273712Y-74380504D01*
X91253948Y-74330077D01*
X91218160Y-74290239D01*
X91168460Y-74262412D01*
X91106957Y-74248015D01*
X91074240Y-74246291D01*
X91006605Y-74253658D01*
X90949837Y-74276866D01*
X90900249Y-74317571D01*
X90889698Y-74329319D01*
X90859156Y-74370997D01*
X90837617Y-74416083D01*
X90823902Y-74468858D01*
X90816829Y-74533605D01*
X90815160Y-74599800D01*
X90817569Y-74677549D01*
X90825601Y-74739801D01*
X90840461Y-74790892D01*
X90863352Y-74835159D01*
X90890580Y-74871309D01*
X90936850Y-74913492D01*
X90990731Y-74939101D01*
X91055719Y-74949641D01*
X91073572Y-74950096D01*
X91140481Y-74942996D01*
X91196269Y-74922079D01*
X91238933Y-74888657D01*
X91266469Y-74844040D01*
X91273712Y-74819095D01*
X91279980Y-74787760D01*
X91359990Y-74787760D01*
X91399942Y-74788084D01*
X91423746Y-74789883D01*
X91435574Y-74794397D01*
X91439595Y-74802865D01*
X91440000Y-74811537D01*
X91433726Y-74841604D01*
X91417155Y-74880731D01*
X91393661Y-74922943D01*
X91366615Y-74962265D01*
X91339393Y-74992724D01*
X91335971Y-74995761D01*
X91301397Y-75020361D01*
X91259597Y-75043407D01*
X91237606Y-75052972D01*
X91180299Y-75068540D01*
X91112866Y-75077359D01*
X91043548Y-75079008D01*
X90980588Y-75073070D01*
X90954866Y-75067351D01*
X90867413Y-75033587D01*
X90794504Y-74985655D01*
X90736183Y-74923617D01*
X90692489Y-74847537D01*
X90663466Y-74757477D01*
X90649153Y-74653500D01*
X90647520Y-74599799D01*
X90654941Y-74489877D01*
X90677097Y-74393246D01*
X90713827Y-74310223D01*
X90764972Y-74241124D01*
X90830370Y-74186265D01*
X90868473Y-74164220D01*
X90943333Y-74135773D01*
X91024656Y-74121288D01*
X91108019Y-74120402D01*
X91188997Y-74132749D01*
G36*
X91188997Y-74132749D02*
G01*
X91263166Y-74157968D01*
X91326102Y-74195692D01*
X91334449Y-74202535D01*
X91373465Y-74244916D01*
X91406963Y-74297728D01*
X91429935Y-74352459D01*
X91435197Y-74373740D01*
X91442261Y-74411840D01*
X91279980Y-74411840D01*
X91273712Y-74380504D01*
X91253948Y-74330077D01*
X91218160Y-74290239D01*
X91168460Y-74262412D01*
X91106957Y-74248015D01*
X91074240Y-74246291D01*
X91006605Y-74253658D01*
X90949837Y-74276866D01*
X90900249Y-74317571D01*
X90889698Y-74329319D01*
X90859156Y-74370997D01*
X90837617Y-74416083D01*
X90823902Y-74468858D01*
X90816829Y-74533605D01*
X90815160Y-74599800D01*
X90817569Y-74677549D01*
X90825601Y-74739801D01*
X90840461Y-74790892D01*
X90863352Y-74835159D01*
X90890580Y-74871309D01*
X90936850Y-74913492D01*
X90990731Y-74939101D01*
X91055719Y-74949641D01*
X91073572Y-74950096D01*
X91140481Y-74942996D01*
X91196269Y-74922079D01*
X91238933Y-74888657D01*
X91266469Y-74844040D01*
X91273712Y-74819095D01*
X91279980Y-74787760D01*
X91359990Y-74787760D01*
X91399942Y-74788084D01*
X91423746Y-74789883D01*
X91435574Y-74794397D01*
X91439595Y-74802865D01*
X91440000Y-74811537D01*
X91433726Y-74841604D01*
X91417155Y-74880731D01*
X91393661Y-74922943D01*
X91366615Y-74962265D01*
X91339393Y-74992724D01*
X91335971Y-74995761D01*
X91301397Y-75020361D01*
X91259597Y-75043407D01*
X91237606Y-75052972D01*
X91180299Y-75068540D01*
X91112866Y-75077359D01*
X91043548Y-75079008D01*
X90980588Y-75073070D01*
X90954866Y-75067351D01*
X90867413Y-75033587D01*
X90794504Y-74985655D01*
X90736183Y-74923617D01*
X90692489Y-74847537D01*
X90663466Y-74757477D01*
X90649153Y-74653500D01*
X90647520Y-74599799D01*
X90654941Y-74489877D01*
X90677097Y-74393246D01*
X90713827Y-74310223D01*
X90764972Y-74241124D01*
X90830370Y-74186265D01*
X90868473Y-74164220D01*
X90943333Y-74135773D01*
X91024656Y-74121288D01*
X91108019Y-74120402D01*
X91188997Y-74132749D01*
G37*
X90868413Y-75567540D02*
X90845911Y-75598897D01*
X90816994Y-75639471D01*
X90783727Y-75686333D01*
X90748178Y-75736551D01*
X90712414Y-75787196D01*
X90678504Y-75835337D01*
X90648513Y-75878042D01*
X90624511Y-75912383D01*
X90608563Y-75935428D01*
X90603000Y-75943753D01*
X90604089Y-75952072D01*
X90612585Y-75969669D01*
X90629106Y-75997470D01*
X90654275Y-76036398D01*
X90688710Y-76087379D01*
X90733032Y-76151335D01*
X90787861Y-76229193D01*
X90853817Y-76321875D01*
X90899301Y-76385420D01*
X90933906Y-76433680D01*
X90732717Y-76433680D01*
X90621538Y-76256267D01*
X90587821Y-76203147D01*
X90557454Y-76156595D01*
X90532144Y-76119128D01*
X90513604Y-76093262D01*
X90503541Y-76081513D01*
X90502504Y-76081086D01*
X90494919Y-76089975D01*
X90478328Y-76113479D01*
X90454487Y-76148973D01*
X90425151Y-76193836D01*
X90392077Y-76245445D01*
X90385413Y-76255958D01*
X90276177Y-76428600D01*
X90175947Y-76431525D01*
X90075718Y-76434450D01*
X90090963Y-76411205D01*
X90100832Y-76396807D01*
X90120712Y-76368325D01*
X90148853Y-76328247D01*
X90183506Y-76279059D01*
X90222922Y-76223250D01*
X90260004Y-76170854D01*
X90413800Y-75953748D01*
X90379421Y-75906694D01*
X90362754Y-75883626D01*
X90336845Y-75847450D01*
X90304180Y-75801652D01*
X90267244Y-75749717D01*
X90228524Y-75695132D01*
X90226305Y-75692000D01*
X90107569Y-75524360D01*
X90196400Y-75521399D01*
X90237844Y-75520553D01*
X90271978Y-75520844D01*
X90293359Y-75522188D01*
X90297044Y-75522971D01*
X90306009Y-75532701D01*
X90323605Y-75556909D01*
X90347881Y-75592725D01*
X90376884Y-75637280D01*
X90404528Y-75681050D01*
X90438982Y-75735955D01*
X90464577Y-75775465D01*
X90482931Y-75801592D01*
X90495664Y-75816351D01*
X90504397Y-75821755D01*
X90510748Y-75819818D01*
X90513602Y-75816638D01*
X90523406Y-75802144D01*
X90541778Y-75773778D01*
X90566556Y-75734924D01*
X90595576Y-75688964D01*
X90614380Y-75658980D01*
X90701755Y-75519280D01*
X90903250Y-75519280D01*
X90868413Y-75567540D01*
G36*
X90868413Y-75567540D02*
G01*
X90845911Y-75598897D01*
X90816994Y-75639471D01*
X90783727Y-75686333D01*
X90748178Y-75736551D01*
X90712414Y-75787196D01*
X90678504Y-75835337D01*
X90648513Y-75878042D01*
X90624511Y-75912383D01*
X90608563Y-75935428D01*
X90603000Y-75943753D01*
X90604089Y-75952072D01*
X90612585Y-75969669D01*
X90629106Y-75997470D01*
X90654275Y-76036398D01*
X90688710Y-76087379D01*
X90733032Y-76151335D01*
X90787861Y-76229193D01*
X90853817Y-76321875D01*
X90899301Y-76385420D01*
X90933906Y-76433680D01*
X90732717Y-76433680D01*
X90621538Y-76256267D01*
X90587821Y-76203147D01*
X90557454Y-76156595D01*
X90532144Y-76119128D01*
X90513604Y-76093262D01*
X90503541Y-76081513D01*
X90502504Y-76081086D01*
X90494919Y-76089975D01*
X90478328Y-76113479D01*
X90454487Y-76148973D01*
X90425151Y-76193836D01*
X90392077Y-76245445D01*
X90385413Y-76255958D01*
X90276177Y-76428600D01*
X90175947Y-76431525D01*
X90075718Y-76434450D01*
X90090963Y-76411205D01*
X90100832Y-76396807D01*
X90120712Y-76368325D01*
X90148853Y-76328247D01*
X90183506Y-76279059D01*
X90222922Y-76223250D01*
X90260004Y-76170854D01*
X90413800Y-75953748D01*
X90379421Y-75906694D01*
X90362754Y-75883626D01*
X90336845Y-75847450D01*
X90304180Y-75801652D01*
X90267244Y-75749717D01*
X90228524Y-75695132D01*
X90226305Y-75692000D01*
X90107569Y-75524360D01*
X90196400Y-75521399D01*
X90237844Y-75520553D01*
X90271978Y-75520844D01*
X90293359Y-75522188D01*
X90297044Y-75522971D01*
X90306009Y-75532701D01*
X90323605Y-75556909D01*
X90347881Y-75592725D01*
X90376884Y-75637280D01*
X90404528Y-75681050D01*
X90438982Y-75735955D01*
X90464577Y-75775465D01*
X90482931Y-75801592D01*
X90495664Y-75816351D01*
X90504397Y-75821755D01*
X90510748Y-75819818D01*
X90513602Y-75816638D01*
X90523406Y-75802144D01*
X90541778Y-75773778D01*
X90566556Y-75734924D01*
X90595576Y-75688964D01*
X90614380Y-75658980D01*
X90701755Y-75519280D01*
X90903250Y-75519280D01*
X90868413Y-75567540D01*
G37*
X92754919Y-75503546D02*
X92838041Y-75527843D01*
X92909164Y-75568404D01*
X92968886Y-75625646D01*
X93017806Y-75699986D01*
X93046993Y-75765168D01*
X93068164Y-75843159D01*
X93078102Y-75931740D01*
X93076931Y-76024652D01*
X93064777Y-76115637D01*
X93041765Y-76198434D01*
X93038149Y-76207852D01*
X93002845Y-76274263D01*
X92953841Y-76335002D01*
X92895769Y-76385348D01*
X92833261Y-76420583D01*
X92826840Y-76423134D01*
X92779207Y-76436359D01*
X92719810Y-76445726D01*
X92655961Y-76450734D01*
X92594973Y-76450879D01*
X92544161Y-76445657D01*
X92533396Y-76443328D01*
X92478468Y-76423593D01*
X92420804Y-76393091D01*
X92368387Y-76356587D01*
X92333491Y-76323920D01*
X92287670Y-76262304D01*
X92254819Y-76194889D01*
X92234051Y-76118543D01*
X92224478Y-76030136D01*
X92224597Y-75950582D01*
X92386464Y-75950582D01*
X92387949Y-76015276D01*
X92396277Y-76089549D01*
X92411194Y-76149202D01*
X92434558Y-76199377D01*
X92468230Y-76245215D01*
X92473076Y-76250696D01*
X92525265Y-76296221D01*
X92583309Y-76322633D01*
X92648263Y-76330230D01*
X92718158Y-76320084D01*
X92755127Y-76305974D01*
X92791244Y-76280812D01*
X92817386Y-76256498D01*
X92853885Y-76214160D01*
X92879783Y-76168735D01*
X92896963Y-76115324D01*
X92907309Y-76049029D01*
X92910130Y-76015276D01*
X92910077Y-75918484D01*
X92896494Y-75832634D01*
X92869976Y-75759085D01*
X92831120Y-75699196D01*
X92780521Y-75654329D01*
X92743346Y-75634580D01*
X92704382Y-75624852D01*
X92654933Y-75621404D01*
X92603806Y-75624144D01*
X92559809Y-75632976D01*
X92549653Y-75636658D01*
X92494582Y-75670385D01*
X92450032Y-75720270D01*
X92416698Y-75784684D01*
X92395277Y-75861997D01*
X92386464Y-75950582D01*
X92224597Y-75950582D01*
X92224614Y-75939784D01*
X92234399Y-75838630D01*
X92255494Y-75752888D01*
X92288838Y-75680493D01*
X92335370Y-75619382D01*
X92393193Y-75569507D01*
X92451519Y-75533959D01*
X92512235Y-75510746D01*
X92580884Y-75498320D01*
X92659200Y-75495097D01*
X92754919Y-75503546D01*
G36*
X92754919Y-75503546D02*
G01*
X92838041Y-75527843D01*
X92909164Y-75568404D01*
X92968886Y-75625646D01*
X93017806Y-75699986D01*
X93046993Y-75765168D01*
X93068164Y-75843159D01*
X93078102Y-75931740D01*
X93076931Y-76024652D01*
X93064777Y-76115637D01*
X93041765Y-76198434D01*
X93038149Y-76207852D01*
X93002845Y-76274263D01*
X92953841Y-76335002D01*
X92895769Y-76385348D01*
X92833261Y-76420583D01*
X92826840Y-76423134D01*
X92779207Y-76436359D01*
X92719810Y-76445726D01*
X92655961Y-76450734D01*
X92594973Y-76450879D01*
X92544161Y-76445657D01*
X92533396Y-76443328D01*
X92478468Y-76423593D01*
X92420804Y-76393091D01*
X92368387Y-76356587D01*
X92333491Y-76323920D01*
X92287670Y-76262304D01*
X92254819Y-76194889D01*
X92234051Y-76118543D01*
X92224478Y-76030136D01*
X92224597Y-75950582D01*
X92386464Y-75950582D01*
X92387949Y-76015276D01*
X92396277Y-76089549D01*
X92411194Y-76149202D01*
X92434558Y-76199377D01*
X92468230Y-76245215D01*
X92473076Y-76250696D01*
X92525265Y-76296221D01*
X92583309Y-76322633D01*
X92648263Y-76330230D01*
X92718158Y-76320084D01*
X92755127Y-76305974D01*
X92791244Y-76280812D01*
X92817386Y-76256498D01*
X92853885Y-76214160D01*
X92879783Y-76168735D01*
X92896963Y-76115324D01*
X92907309Y-76049029D01*
X92910130Y-76015276D01*
X92910077Y-75918484D01*
X92896494Y-75832634D01*
X92869976Y-75759085D01*
X92831120Y-75699196D01*
X92780521Y-75654329D01*
X92743346Y-75634580D01*
X92704382Y-75624852D01*
X92654933Y-75621404D01*
X92603806Y-75624144D01*
X92559809Y-75632976D01*
X92549653Y-75636658D01*
X92494582Y-75670385D01*
X92450032Y-75720270D01*
X92416698Y-75784684D01*
X92395277Y-75861997D01*
X92386464Y-75950582D01*
X92224597Y-75950582D01*
X92224614Y-75939784D01*
X92234399Y-75838630D01*
X92255494Y-75752888D01*
X92288838Y-75680493D01*
X92335370Y-75619382D01*
X92393193Y-75569507D01*
X92451519Y-75533959D01*
X92512235Y-75510746D01*
X92580884Y-75498320D01*
X92659200Y-75495097D01*
X92754919Y-75503546D01*
G37*
X91492729Y-75496736D02*
X91532815Y-75502665D01*
X91567738Y-75513904D01*
X91576350Y-75517605D01*
X91650030Y-75560981D01*
X91709659Y-75618872D01*
X91755271Y-75691345D01*
X91786901Y-75778467D01*
X91804583Y-75880303D01*
X91808712Y-75971400D01*
X91807701Y-76027809D01*
X91804282Y-76071306D01*
X91797412Y-76109255D01*
X91786048Y-76149017D01*
X91781713Y-76162088D01*
X91746351Y-76248051D01*
X91703501Y-76316961D01*
X91651143Y-76371339D01*
X91587256Y-76413702D01*
X91574784Y-76420047D01*
X91506225Y-76443528D01*
X91430379Y-76452574D01*
X91352998Y-76447548D01*
X91279836Y-76428817D01*
X91217529Y-76397350D01*
X91193546Y-76382184D01*
X91176601Y-76373510D01*
X91173481Y-76372720D01*
X91171137Y-76382378D01*
X91169076Y-76409353D01*
X91167408Y-76450638D01*
X91166247Y-76503230D01*
X91165705Y-76564126D01*
X91165680Y-76581000D01*
X91165680Y-76789280D01*
X91013280Y-76789280D01*
X91013280Y-75775477D01*
X91165680Y-75775477D01*
X91165680Y-76218612D01*
X91203780Y-76248476D01*
X91276006Y-76295684D01*
X91346597Y-76322719D01*
X91415787Y-76329643D01*
X91474137Y-76319623D01*
X91528039Y-76293182D01*
X91571877Y-76249505D01*
X91605334Y-76189183D01*
X91628096Y-76112809D01*
X91639848Y-76020976D01*
X91640595Y-76006960D01*
X91640303Y-75905212D01*
X91629296Y-75819804D01*
X91607247Y-75749612D01*
X91573825Y-75693509D01*
X91538636Y-75657980D01*
X91512226Y-75639523D01*
X91485208Y-75629077D01*
X91449080Y-75623761D01*
X91434526Y-75622692D01*
X91392871Y-75621723D01*
X91360662Y-75626498D01*
X91327370Y-75639008D01*
X91313465Y-75645607D01*
X91272766Y-75670687D01*
X91231436Y-75704393D01*
X91211881Y-75724090D01*
X91165680Y-75775477D01*
X91013280Y-75775477D01*
X91013280Y-75519280D01*
X91165680Y-75519280D01*
X91165680Y-75565000D01*
X91166949Y-75592274D01*
X91170162Y-75608628D01*
X91172068Y-75610720D01*
X91182568Y-75604450D01*
X91202723Y-75588336D01*
X91219084Y-75574015D01*
X91269896Y-75534826D01*
X91322066Y-75510066D01*
X91381709Y-75497545D01*
X91440000Y-75494870D01*
X91492729Y-75496736D01*
G36*
X91492729Y-75496736D02*
G01*
X91532815Y-75502665D01*
X91567738Y-75513904D01*
X91576350Y-75517605D01*
X91650030Y-75560981D01*
X91709659Y-75618872D01*
X91755271Y-75691345D01*
X91786901Y-75778467D01*
X91804583Y-75880303D01*
X91808712Y-75971400D01*
X91807701Y-76027809D01*
X91804282Y-76071306D01*
X91797412Y-76109255D01*
X91786048Y-76149017D01*
X91781713Y-76162088D01*
X91746351Y-76248051D01*
X91703501Y-76316961D01*
X91651143Y-76371339D01*
X91587256Y-76413702D01*
X91574784Y-76420047D01*
X91506225Y-76443528D01*
X91430379Y-76452574D01*
X91352998Y-76447548D01*
X91279836Y-76428817D01*
X91217529Y-76397350D01*
X91193546Y-76382184D01*
X91176601Y-76373510D01*
X91173481Y-76372720D01*
X91171137Y-76382378D01*
X91169076Y-76409353D01*
X91167408Y-76450638D01*
X91166247Y-76503230D01*
X91165705Y-76564126D01*
X91165680Y-76581000D01*
X91165680Y-76789280D01*
X91013280Y-76789280D01*
X91013280Y-75775477D01*
X91165680Y-75775477D01*
X91165680Y-76218612D01*
X91203780Y-76248476D01*
X91276006Y-76295684D01*
X91346597Y-76322719D01*
X91415787Y-76329643D01*
X91474137Y-76319623D01*
X91528039Y-76293182D01*
X91571877Y-76249505D01*
X91605334Y-76189183D01*
X91628096Y-76112809D01*
X91639848Y-76020976D01*
X91640595Y-76006960D01*
X91640303Y-75905212D01*
X91629296Y-75819804D01*
X91607247Y-75749612D01*
X91573825Y-75693509D01*
X91538636Y-75657980D01*
X91512226Y-75639523D01*
X91485208Y-75629077D01*
X91449080Y-75623761D01*
X91434526Y-75622692D01*
X91392871Y-75621723D01*
X91360662Y-75626498D01*
X91327370Y-75639008D01*
X91313465Y-75645607D01*
X91272766Y-75670687D01*
X91231436Y-75704393D01*
X91211881Y-75724090D01*
X91165680Y-75775477D01*
X91013280Y-75775477D01*
X91013280Y-75519280D01*
X91165680Y-75519280D01*
X91165680Y-75565000D01*
X91166949Y-75592274D01*
X91170162Y-75608628D01*
X91172068Y-75610720D01*
X91182568Y-75604450D01*
X91202723Y-75588336D01*
X91219084Y-75574015D01*
X91269896Y-75534826D01*
X91322066Y-75510066D01*
X91381709Y-75497545D01*
X91440000Y-75494870D01*
X91492729Y-75496736D01*
G37*
X92828020Y-77044203D02*
X92843021Y-77049036D01*
X92857884Y-77060868D01*
X92876335Y-77082791D01*
X92902099Y-77117896D01*
X92906528Y-77124076D01*
X92932253Y-77159283D01*
X92954236Y-77188039D01*
X92969420Y-77206412D01*
X92973957Y-77210794D01*
X92983466Y-77205564D01*
X93001716Y-77186798D01*
X93025861Y-77157655D01*
X93046775Y-77129998D01*
X93075813Y-77090946D01*
X93096668Y-77065703D01*
X93112643Y-77051314D01*
X93127039Y-77044825D01*
X93143158Y-77043280D01*
X93143685Y-77043280D01*
X93166442Y-77044803D01*
X93177225Y-77048524D01*
X93177360Y-77049040D01*
X93171509Y-77058844D01*
X93155555Y-77081376D01*
X93131894Y-77113343D01*
X93102922Y-77151452D01*
X93101160Y-77153742D01*
X93071910Y-77192353D01*
X93047857Y-77225309D01*
X93031409Y-77249222D01*
X93024975Y-77260705D01*
X93024960Y-77260892D01*
X93030957Y-77271396D01*
X93047433Y-77294642D01*
X93072112Y-77327553D01*
X93102718Y-77367052D01*
X93114715Y-77382250D01*
X93154538Y-77432439D01*
X93182943Y-77468797D01*
X93200983Y-77493534D01*
X93209711Y-77508862D01*
X93210182Y-77516990D01*
X93203448Y-77520130D01*
X93190564Y-77520493D01*
X93180499Y-77520300D01*
X93164089Y-77519286D01*
X93150156Y-77514976D01*
X93135777Y-77504744D01*
X93118029Y-77485963D01*
X93093990Y-77456009D01*
X93061765Y-77413620D01*
X93031548Y-77374168D01*
X93005556Y-77341425D01*
X92986252Y-77318408D01*
X92976099Y-77308134D01*
X92975405Y-77307871D01*
X92967326Y-77315736D01*
X92949718Y-77336944D01*
X92925033Y-77368424D01*
X92895725Y-77407106D01*
X92890182Y-77414551D01*
X92857511Y-77458102D01*
X92833868Y-77487801D01*
X92816399Y-77506284D01*
X92802254Y-77516186D01*
X92788579Y-77520143D01*
X92775194Y-77520800D01*
X92739103Y-77520800D01*
X92836311Y-77394434D01*
X92869547Y-77350831D01*
X92897893Y-77312884D01*
X92919233Y-77283487D01*
X92931448Y-77265536D01*
X92933520Y-77261494D01*
X92927632Y-77251451D01*
X92911520Y-77228615D01*
X92887508Y-77196173D01*
X92857920Y-77157315D01*
X92851574Y-77149100D01*
X92769628Y-77043280D01*
X92809154Y-77043280D01*
X92828020Y-77044203D01*
G36*
X92828020Y-77044203D02*
G01*
X92843021Y-77049036D01*
X92857884Y-77060868D01*
X92876335Y-77082791D01*
X92902099Y-77117896D01*
X92906528Y-77124076D01*
X92932253Y-77159283D01*
X92954236Y-77188039D01*
X92969420Y-77206412D01*
X92973957Y-77210794D01*
X92983466Y-77205564D01*
X93001716Y-77186798D01*
X93025861Y-77157655D01*
X93046775Y-77129998D01*
X93075813Y-77090946D01*
X93096668Y-77065703D01*
X93112643Y-77051314D01*
X93127039Y-77044825D01*
X93143158Y-77043280D01*
X93143685Y-77043280D01*
X93166442Y-77044803D01*
X93177225Y-77048524D01*
X93177360Y-77049040D01*
X93171509Y-77058844D01*
X93155555Y-77081376D01*
X93131894Y-77113343D01*
X93102922Y-77151452D01*
X93101160Y-77153742D01*
X93071910Y-77192353D01*
X93047857Y-77225309D01*
X93031409Y-77249222D01*
X93024975Y-77260705D01*
X93024960Y-77260892D01*
X93030957Y-77271396D01*
X93047433Y-77294642D01*
X93072112Y-77327553D01*
X93102718Y-77367052D01*
X93114715Y-77382250D01*
X93154538Y-77432439D01*
X93182943Y-77468797D01*
X93200983Y-77493534D01*
X93209711Y-77508862D01*
X93210182Y-77516990D01*
X93203448Y-77520130D01*
X93190564Y-77520493D01*
X93180499Y-77520300D01*
X93164089Y-77519286D01*
X93150156Y-77514976D01*
X93135777Y-77504744D01*
X93118029Y-77485963D01*
X93093990Y-77456009D01*
X93061765Y-77413620D01*
X93031548Y-77374168D01*
X93005556Y-77341425D01*
X92986252Y-77318408D01*
X92976099Y-77308134D01*
X92975405Y-77307871D01*
X92967326Y-77315736D01*
X92949718Y-77336944D01*
X92925033Y-77368424D01*
X92895725Y-77407106D01*
X92890182Y-77414551D01*
X92857511Y-77458102D01*
X92833868Y-77487801D01*
X92816399Y-77506284D01*
X92802254Y-77516186D01*
X92788579Y-77520143D01*
X92775194Y-77520800D01*
X92739103Y-77520800D01*
X92836311Y-77394434D01*
X92869547Y-77350831D01*
X92897893Y-77312884D01*
X92919233Y-77283487D01*
X92931448Y-77265536D01*
X92933520Y-77261494D01*
X92927632Y-77251451D01*
X92911520Y-77228615D01*
X92887508Y-77196173D01*
X92857920Y-77157315D01*
X92851574Y-77149100D01*
X92769628Y-77043280D01*
X92809154Y-77043280D01*
X92828020Y-77044203D01*
G37*
X95874369Y-75497894D02*
X95941874Y-75509782D01*
X96001657Y-75532030D01*
X96051982Y-75561094D01*
X96116752Y-75615166D01*
X96166884Y-75681500D01*
X96202794Y-75760962D01*
X96224893Y-75854420D01*
X96232952Y-75940920D01*
X96230631Y-76053661D01*
X96213747Y-76152411D01*
X96182116Y-76237532D01*
X96135555Y-76309390D01*
X96073881Y-76368348D01*
X95996911Y-76414769D01*
X95994072Y-76416109D01*
X95957908Y-76431646D01*
X95925338Y-76441440D01*
X95888858Y-76447065D01*
X95840962Y-76450098D01*
X95830258Y-76450500D01*
X95753635Y-76450010D01*
X95693344Y-76442365D01*
X95676966Y-76438348D01*
X95593405Y-76405299D01*
X95522897Y-76356981D01*
X95465858Y-76294036D01*
X95422704Y-76217105D01*
X95393848Y-76126831D01*
X95379708Y-76023857D01*
X95378256Y-75976480D01*
X95381275Y-75926620D01*
X95545273Y-75926620D01*
X95545694Y-75976466D01*
X95546546Y-76001642D01*
X95549039Y-76054006D01*
X95552634Y-76092057D01*
X95558564Y-76121799D01*
X95568065Y-76149239D01*
X95582371Y-76180382D01*
X95583964Y-76183627D01*
X95619520Y-76242091D01*
X95661730Y-76283832D01*
X95714266Y-76312227D01*
X95729773Y-76317744D01*
X95786112Y-76327587D01*
X95847312Y-76324553D01*
X95903746Y-76309380D01*
X95916723Y-76303398D01*
X95949438Y-76282905D01*
X95979286Y-76258516D01*
X95983515Y-76254270D01*
X96020176Y-76202270D01*
X96046921Y-76136784D01*
X96063625Y-76062131D01*
X96070165Y-75982630D01*
X96066417Y-75902599D01*
X96052259Y-75826357D01*
X96027567Y-75758221D01*
X95999039Y-75710992D01*
X95951791Y-75663948D01*
X95894896Y-75634418D01*
X95827318Y-75621912D01*
X95808800Y-75621389D01*
X95736736Y-75629893D01*
X95675596Y-75655521D01*
X95625440Y-75698226D01*
X95586329Y-75757958D01*
X95563306Y-75817069D01*
X95553486Y-75853449D01*
X95547673Y-75887790D01*
X95545273Y-75926620D01*
X95381275Y-75926620D01*
X95384792Y-75868547D01*
X95405071Y-75774855D01*
X95439532Y-75694282D01*
X95488616Y-75625707D01*
X95532370Y-75583866D01*
X95596160Y-75540108D01*
X95664544Y-75511867D01*
X95742276Y-75497526D01*
X95793560Y-75494938D01*
X95874369Y-75497894D01*
G36*
X95874369Y-75497894D02*
G01*
X95941874Y-75509782D01*
X96001657Y-75532030D01*
X96051982Y-75561094D01*
X96116752Y-75615166D01*
X96166884Y-75681500D01*
X96202794Y-75760962D01*
X96224893Y-75854420D01*
X96232952Y-75940920D01*
X96230631Y-76053661D01*
X96213747Y-76152411D01*
X96182116Y-76237532D01*
X96135555Y-76309390D01*
X96073881Y-76368348D01*
X95996911Y-76414769D01*
X95994072Y-76416109D01*
X95957908Y-76431646D01*
X95925338Y-76441440D01*
X95888858Y-76447065D01*
X95840962Y-76450098D01*
X95830258Y-76450500D01*
X95753635Y-76450010D01*
X95693344Y-76442365D01*
X95676966Y-76438348D01*
X95593405Y-76405299D01*
X95522897Y-76356981D01*
X95465858Y-76294036D01*
X95422704Y-76217105D01*
X95393848Y-76126831D01*
X95379708Y-76023857D01*
X95378256Y-75976480D01*
X95381275Y-75926620D01*
X95545273Y-75926620D01*
X95545694Y-75976466D01*
X95546546Y-76001642D01*
X95549039Y-76054006D01*
X95552634Y-76092057D01*
X95558564Y-76121799D01*
X95568065Y-76149239D01*
X95582371Y-76180382D01*
X95583964Y-76183627D01*
X95619520Y-76242091D01*
X95661730Y-76283832D01*
X95714266Y-76312227D01*
X95729773Y-76317744D01*
X95786112Y-76327587D01*
X95847312Y-76324553D01*
X95903746Y-76309380D01*
X95916723Y-76303398D01*
X95949438Y-76282905D01*
X95979286Y-76258516D01*
X95983515Y-76254270D01*
X96020176Y-76202270D01*
X96046921Y-76136784D01*
X96063625Y-76062131D01*
X96070165Y-75982630D01*
X96066417Y-75902599D01*
X96052259Y-75826357D01*
X96027567Y-75758221D01*
X95999039Y-75710992D01*
X95951791Y-75663948D01*
X95894896Y-75634418D01*
X95827318Y-75621912D01*
X95808800Y-75621389D01*
X95736736Y-75629893D01*
X95675596Y-75655521D01*
X95625440Y-75698226D01*
X95586329Y-75757958D01*
X95563306Y-75817069D01*
X95553486Y-75853449D01*
X95547673Y-75887790D01*
X95545273Y-75926620D01*
X95381275Y-75926620D01*
X95384792Y-75868547D01*
X95405071Y-75774855D01*
X95439532Y-75694282D01*
X95488616Y-75625707D01*
X95532370Y-75583866D01*
X95596160Y-75540108D01*
X95664544Y-75511867D01*
X95742276Y-75497526D01*
X95793560Y-75494938D01*
X95874369Y-75497894D01*
G37*
X97747004Y-77039427D02*
X97792214Y-77064260D01*
X97827927Y-77101822D01*
X97849977Y-77149960D01*
X97853776Y-77174080D01*
X97857017Y-77213944D01*
X97859453Y-77264977D01*
X97860838Y-77322605D01*
X97861063Y-77355700D01*
X97861120Y-77520800D01*
X97800160Y-77520800D01*
X97800160Y-77352833D01*
X97799451Y-77278165D01*
X97796925Y-77220861D01*
X97791979Y-77178004D01*
X97784014Y-77146675D01*
X97772426Y-77123955D01*
X97756616Y-77106926D01*
X97748172Y-77100487D01*
X97715008Y-77087495D01*
X97672675Y-77084498D01*
X97629586Y-77091307D01*
X97599993Y-77103828D01*
X97576850Y-77120120D01*
X97559439Y-77138988D01*
X97546866Y-77163540D01*
X97538240Y-77196883D01*
X97532668Y-77242125D01*
X97529257Y-77302373D01*
X97527665Y-77355700D01*
X97526133Y-77416959D01*
X97524584Y-77460812D01*
X97522542Y-77490168D01*
X97519531Y-77507936D01*
X97515075Y-77517024D01*
X97508701Y-77520343D01*
X97500675Y-77520800D01*
X97492314Y-77520263D01*
X97486180Y-77516770D01*
X97481828Y-77507499D01*
X97478812Y-77489626D01*
X97476688Y-77460328D01*
X97475012Y-77416782D01*
X97473338Y-77356165D01*
X97473062Y-77345540D01*
X97470043Y-77265013D01*
X97465000Y-77202575D01*
X97456939Y-77156019D01*
X97444868Y-77123139D01*
X97427793Y-77101731D01*
X97404722Y-77089589D01*
X97374662Y-77084505D01*
X97355290Y-77083920D01*
X97306985Y-77093652D01*
X97263861Y-77121310D01*
X97229259Y-77164581D01*
X97223580Y-77175054D01*
X97214554Y-77194720D01*
X97208256Y-77214692D01*
X97204204Y-77239081D01*
X97201918Y-77271996D01*
X97200918Y-77317549D01*
X97200720Y-77370552D01*
X97200720Y-77520800D01*
X97139760Y-77520800D01*
X97139760Y-77298110D01*
X97139487Y-77232096D01*
X97138726Y-77172372D01*
X97137557Y-77122129D01*
X97136064Y-77084560D01*
X97134328Y-77062855D01*
X97133592Y-77059350D01*
X97133653Y-77047944D01*
X97148431Y-77043586D01*
X97158992Y-77043280D01*
X97181101Y-77045602D01*
X97189461Y-77056607D01*
X97190560Y-77073160D01*
X97194010Y-77099926D01*
X97204681Y-77107773D01*
X97223051Y-77096869D01*
X97232263Y-77087721D01*
X97279101Y-77050762D01*
X97333761Y-77032442D01*
X97362558Y-77030074D01*
X97419426Y-77037375D01*
X97464281Y-77061041D01*
X97490373Y-77089975D01*
X97511545Y-77121430D01*
X97547432Y-77083999D01*
X97592511Y-77049608D01*
X97643341Y-77031270D01*
X97696109Y-77028153D01*
X97747004Y-77039427D01*
G36*
X97747004Y-77039427D02*
G01*
X97792214Y-77064260D01*
X97827927Y-77101822D01*
X97849977Y-77149960D01*
X97853776Y-77174080D01*
X97857017Y-77213944D01*
X97859453Y-77264977D01*
X97860838Y-77322605D01*
X97861063Y-77355700D01*
X97861120Y-77520800D01*
X97800160Y-77520800D01*
X97800160Y-77352833D01*
X97799451Y-77278165D01*
X97796925Y-77220861D01*
X97791979Y-77178004D01*
X97784014Y-77146675D01*
X97772426Y-77123955D01*
X97756616Y-77106926D01*
X97748172Y-77100487D01*
X97715008Y-77087495D01*
X97672675Y-77084498D01*
X97629586Y-77091307D01*
X97599993Y-77103828D01*
X97576850Y-77120120D01*
X97559439Y-77138988D01*
X97546866Y-77163540D01*
X97538240Y-77196883D01*
X97532668Y-77242125D01*
X97529257Y-77302373D01*
X97527665Y-77355700D01*
X97526133Y-77416959D01*
X97524584Y-77460812D01*
X97522542Y-77490168D01*
X97519531Y-77507936D01*
X97515075Y-77517024D01*
X97508701Y-77520343D01*
X97500675Y-77520800D01*
X97492314Y-77520263D01*
X97486180Y-77516770D01*
X97481828Y-77507499D01*
X97478812Y-77489626D01*
X97476688Y-77460328D01*
X97475012Y-77416782D01*
X97473338Y-77356165D01*
X97473062Y-77345540D01*
X97470043Y-77265013D01*
X97465000Y-77202575D01*
X97456939Y-77156019D01*
X97444868Y-77123139D01*
X97427793Y-77101731D01*
X97404722Y-77089589D01*
X97374662Y-77084505D01*
X97355290Y-77083920D01*
X97306985Y-77093652D01*
X97263861Y-77121310D01*
X97229259Y-77164581D01*
X97223580Y-77175054D01*
X97214554Y-77194720D01*
X97208256Y-77214692D01*
X97204204Y-77239081D01*
X97201918Y-77271996D01*
X97200918Y-77317549D01*
X97200720Y-77370552D01*
X97200720Y-77520800D01*
X97139760Y-77520800D01*
X97139760Y-77298110D01*
X97139487Y-77232096D01*
X97138726Y-77172372D01*
X97137557Y-77122129D01*
X97136064Y-77084560D01*
X97134328Y-77062855D01*
X97133592Y-77059350D01*
X97133653Y-77047944D01*
X97148431Y-77043586D01*
X97158992Y-77043280D01*
X97181101Y-77045602D01*
X97189461Y-77056607D01*
X97190560Y-77073160D01*
X97194010Y-77099926D01*
X97204681Y-77107773D01*
X97223051Y-77096869D01*
X97232263Y-77087721D01*
X97279101Y-77050762D01*
X97333761Y-77032442D01*
X97362558Y-77030074D01*
X97419426Y-77037375D01*
X97464281Y-77061041D01*
X97490373Y-77089975D01*
X97511545Y-77121430D01*
X97547432Y-77083999D01*
X97592511Y-77049608D01*
X97643341Y-77031270D01*
X97696109Y-77028153D01*
X97747004Y-77039427D01*
G37*
X94157804Y-75493040D02*
X94236640Y-75504690D01*
X94307097Y-75525825D01*
X94365984Y-75555917D01*
X94410112Y-75594437D01*
X94418774Y-75605767D01*
X94433770Y-75629123D01*
X94446024Y-75653216D01*
X94455805Y-75680315D01*
X94463384Y-75712692D01*
X94469034Y-75752615D01*
X94473024Y-75802357D01*
X94475626Y-75864187D01*
X94477111Y-75940376D01*
X94477750Y-76033194D01*
X94477840Y-76100534D01*
X94477840Y-76433680D01*
X94315280Y-76433680D01*
X94315280Y-76342112D01*
X94273571Y-76372326D01*
X94208438Y-76410640D01*
X94135692Y-76435555D01*
X94051084Y-76448378D01*
X94020640Y-76450148D01*
X93954323Y-76450376D01*
X93903920Y-76445424D01*
X93883480Y-76440430D01*
X93809459Y-76407580D01*
X93751708Y-76363834D01*
X93710953Y-76309795D01*
X93701114Y-76289226D01*
X93689749Y-76245132D01*
X93685693Y-76190891D01*
X93687361Y-76161142D01*
X93850311Y-76161142D01*
X93852381Y-76216771D01*
X93869668Y-76260321D01*
X93903320Y-76293287D01*
X93954487Y-76317163D01*
X93974920Y-76323173D01*
X94017610Y-76328177D01*
X94071065Y-76325460D01*
X94127609Y-76315843D01*
X94175500Y-76301707D01*
X94216082Y-76282099D01*
X94256517Y-76255729D01*
X94273127Y-76242036D01*
X94315280Y-76203121D01*
X94315280Y-75983989D01*
X94180660Y-75989337D01*
X94099477Y-75994289D01*
X94035028Y-76002568D01*
X93983864Y-76015112D01*
X93942540Y-76032864D01*
X93907608Y-76056763D01*
X93895955Y-76067033D01*
X93871118Y-76092624D01*
X93857945Y-76115682D01*
X93851785Y-76145792D01*
X93850311Y-76161142D01*
X93687361Y-76161142D01*
X93688815Y-76135210D01*
X93698985Y-76086797D01*
X93704370Y-76072774D01*
X93736882Y-76019549D01*
X93782707Y-75975008D01*
X93842933Y-75938695D01*
X93918648Y-75910155D01*
X94010941Y-75888933D01*
X94120900Y-75874573D01*
X94190820Y-75869347D01*
X94315280Y-75862109D01*
X94315264Y-75799914D01*
X94308079Y-75735020D01*
X94286388Y-75683993D01*
X94251500Y-75647350D01*
X94223274Y-75635021D01*
X94180788Y-75626314D01*
X94129818Y-75621474D01*
X94076142Y-75620745D01*
X94025537Y-75624371D01*
X93983779Y-75632595D01*
X93974738Y-75635649D01*
X93930341Y-75660493D01*
X93895036Y-75695402D01*
X93873837Y-75735107D01*
X93871512Y-75744218D01*
X93867901Y-75758718D01*
X93861255Y-75767356D01*
X93847089Y-75771650D01*
X93820917Y-75773118D01*
X93785690Y-75773280D01*
X93743391Y-75772899D01*
X93718480Y-75769298D01*
X93708030Y-75758786D01*
X93709114Y-75737675D01*
X93718804Y-75702274D01*
X93721684Y-75692596D01*
X93749825Y-75632349D01*
X93794480Y-75580848D01*
X93852743Y-75540855D01*
X93902920Y-75520290D01*
X93987754Y-75500312D01*
X94073779Y-75491405D01*
X94157804Y-75493040D01*
G36*
X94157804Y-75493040D02*
G01*
X94236640Y-75504690D01*
X94307097Y-75525825D01*
X94365984Y-75555917D01*
X94410112Y-75594437D01*
X94418774Y-75605767D01*
X94433770Y-75629123D01*
X94446024Y-75653216D01*
X94455805Y-75680315D01*
X94463384Y-75712692D01*
X94469034Y-75752615D01*
X94473024Y-75802357D01*
X94475626Y-75864187D01*
X94477111Y-75940376D01*
X94477750Y-76033194D01*
X94477840Y-76100534D01*
X94477840Y-76433680D01*
X94315280Y-76433680D01*
X94315280Y-76342112D01*
X94273571Y-76372326D01*
X94208438Y-76410640D01*
X94135692Y-76435555D01*
X94051084Y-76448378D01*
X94020640Y-76450148D01*
X93954323Y-76450376D01*
X93903920Y-76445424D01*
X93883480Y-76440430D01*
X93809459Y-76407580D01*
X93751708Y-76363834D01*
X93710953Y-76309795D01*
X93701114Y-76289226D01*
X93689749Y-76245132D01*
X93685693Y-76190891D01*
X93687361Y-76161142D01*
X93850311Y-76161142D01*
X93852381Y-76216771D01*
X93869668Y-76260321D01*
X93903320Y-76293287D01*
X93954487Y-76317163D01*
X93974920Y-76323173D01*
X94017610Y-76328177D01*
X94071065Y-76325460D01*
X94127609Y-76315843D01*
X94175500Y-76301707D01*
X94216082Y-76282099D01*
X94256517Y-76255729D01*
X94273127Y-76242036D01*
X94315280Y-76203121D01*
X94315280Y-75983989D01*
X94180660Y-75989337D01*
X94099477Y-75994289D01*
X94035028Y-76002568D01*
X93983864Y-76015112D01*
X93942540Y-76032864D01*
X93907608Y-76056763D01*
X93895955Y-76067033D01*
X93871118Y-76092624D01*
X93857945Y-76115682D01*
X93851785Y-76145792D01*
X93850311Y-76161142D01*
X93687361Y-76161142D01*
X93688815Y-76135210D01*
X93698985Y-76086797D01*
X93704370Y-76072774D01*
X93736882Y-76019549D01*
X93782707Y-75975008D01*
X93842933Y-75938695D01*
X93918648Y-75910155D01*
X94010941Y-75888933D01*
X94120900Y-75874573D01*
X94190820Y-75869347D01*
X94315280Y-75862109D01*
X94315264Y-75799914D01*
X94308079Y-75735020D01*
X94286388Y-75683993D01*
X94251500Y-75647350D01*
X94223274Y-75635021D01*
X94180788Y-75626314D01*
X94129818Y-75621474D01*
X94076142Y-75620745D01*
X94025537Y-75624371D01*
X93983779Y-75632595D01*
X93974738Y-75635649D01*
X93930341Y-75660493D01*
X93895036Y-75695402D01*
X93873837Y-75735107D01*
X93871512Y-75744218D01*
X93867901Y-75758718D01*
X93861255Y-75767356D01*
X93847089Y-75771650D01*
X93820917Y-75773118D01*
X93785690Y-75773280D01*
X93743391Y-75772899D01*
X93718480Y-75769298D01*
X93708030Y-75758786D01*
X93709114Y-75737675D01*
X93718804Y-75702274D01*
X93721684Y-75692596D01*
X93749825Y-75632349D01*
X93794480Y-75580848D01*
X93852743Y-75540855D01*
X93902920Y-75520290D01*
X93987754Y-75500312D01*
X94073779Y-75491405D01*
X94157804Y-75493040D01*
G37*
X97687221Y-75498063D02*
X97772051Y-75517235D01*
X97839522Y-75545959D01*
X97890494Y-75584796D01*
X97925830Y-75634305D01*
X97936887Y-75660295D01*
X97949542Y-75698694D01*
X97952854Y-75722840D01*
X97944197Y-75736036D01*
X97920944Y-75741585D01*
X97880469Y-75742789D01*
X97871280Y-75742800D01*
X97830708Y-75742344D01*
X97806385Y-75740328D01*
X97794250Y-75735773D01*
X97790239Y-75727703D01*
X97790000Y-75723259D01*
X97781465Y-75696977D01*
X97759568Y-75668993D01*
X97729870Y-75645013D01*
X97700446Y-75631393D01*
X97670488Y-75626004D01*
X97629672Y-75622306D01*
X97591880Y-75621159D01*
X97524677Y-75627080D01*
X97470863Y-75643882D01*
X97431909Y-75670643D01*
X97409286Y-75706439D01*
X97403920Y-75739149D01*
X97405709Y-75765862D01*
X97412649Y-75787587D01*
X97427094Y-75805786D01*
X97451401Y-75821922D01*
X97487925Y-75837456D01*
X97539022Y-75853851D01*
X97607049Y-75872568D01*
X97627523Y-75877924D01*
X97709232Y-75899909D01*
X97773832Y-75919231D01*
X97824173Y-75937045D01*
X97863102Y-75954502D01*
X97893470Y-75972758D01*
X97918126Y-75992965D01*
X97922710Y-75997430D01*
X97957118Y-76042626D01*
X97976430Y-76095841D01*
X97981656Y-76160396D01*
X97980295Y-76186895D01*
X97965089Y-76258443D01*
X97932106Y-76320873D01*
X97882258Y-76373042D01*
X97816459Y-76413809D01*
X97790000Y-76425107D01*
X97748206Y-76436419D01*
X97692872Y-76444844D01*
X97630623Y-76449983D01*
X97568086Y-76451438D01*
X97511885Y-76448810D01*
X97477780Y-76443898D01*
X97397542Y-76418378D01*
X97331030Y-76379198D01*
X97279321Y-76327395D01*
X97243493Y-76264002D01*
X97226456Y-76202540D01*
X97219253Y-76159360D01*
X97301426Y-76159360D01*
X97342048Y-76159687D01*
X97366463Y-76161435D01*
X97378781Y-76165757D01*
X97383115Y-76173805D01*
X97383600Y-76182378D01*
X97393218Y-76225826D01*
X97420373Y-76264175D01*
X97462516Y-76295397D01*
X97517096Y-76317465D01*
X97565253Y-76326857D01*
X97641497Y-76328640D01*
X97707728Y-76315656D01*
X97761817Y-76288452D01*
X97782257Y-76271093D01*
X97805383Y-76245557D01*
X97816725Y-76223456D01*
X97820311Y-76195467D01*
X97820480Y-76182646D01*
X97819468Y-76155971D01*
X97814948Y-76134295D01*
X97804693Y-76116245D01*
X97786478Y-76100447D01*
X97758075Y-76085524D01*
X97717258Y-76070103D01*
X97661800Y-76052809D01*
X97589475Y-76032267D01*
X97566696Y-76025967D01*
X97477416Y-76000174D01*
X97406178Y-75976298D01*
X97351015Y-75952721D01*
X97309956Y-75927825D01*
X97281036Y-75899991D01*
X97262285Y-75867602D01*
X97251735Y-75829040D01*
X97247419Y-75782685D01*
X97247007Y-75763120D01*
X97247850Y-75719712D01*
X97252313Y-75688611D01*
X97262130Y-75661891D01*
X97273876Y-75640249D01*
X97317994Y-75584738D01*
X97376837Y-75541361D01*
X97448322Y-75510834D01*
X97530366Y-75493875D01*
X97620885Y-75491201D01*
X97687221Y-75498063D01*
G36*
X97687221Y-75498063D02*
G01*
X97772051Y-75517235D01*
X97839522Y-75545959D01*
X97890494Y-75584796D01*
X97925830Y-75634305D01*
X97936887Y-75660295D01*
X97949542Y-75698694D01*
X97952854Y-75722840D01*
X97944197Y-75736036D01*
X97920944Y-75741585D01*
X97880469Y-75742789D01*
X97871280Y-75742800D01*
X97830708Y-75742344D01*
X97806385Y-75740328D01*
X97794250Y-75735773D01*
X97790239Y-75727703D01*
X97790000Y-75723259D01*
X97781465Y-75696977D01*
X97759568Y-75668993D01*
X97729870Y-75645013D01*
X97700446Y-75631393D01*
X97670488Y-75626004D01*
X97629672Y-75622306D01*
X97591880Y-75621159D01*
X97524677Y-75627080D01*
X97470863Y-75643882D01*
X97431909Y-75670643D01*
X97409286Y-75706439D01*
X97403920Y-75739149D01*
X97405709Y-75765862D01*
X97412649Y-75787587D01*
X97427094Y-75805786D01*
X97451401Y-75821922D01*
X97487925Y-75837456D01*
X97539022Y-75853851D01*
X97607049Y-75872568D01*
X97627523Y-75877924D01*
X97709232Y-75899909D01*
X97773832Y-75919231D01*
X97824173Y-75937045D01*
X97863102Y-75954502D01*
X97893470Y-75972758D01*
X97918126Y-75992965D01*
X97922710Y-75997430D01*
X97957118Y-76042626D01*
X97976430Y-76095841D01*
X97981656Y-76160396D01*
X97980295Y-76186895D01*
X97965089Y-76258443D01*
X97932106Y-76320873D01*
X97882258Y-76373042D01*
X97816459Y-76413809D01*
X97790000Y-76425107D01*
X97748206Y-76436419D01*
X97692872Y-76444844D01*
X97630623Y-76449983D01*
X97568086Y-76451438D01*
X97511885Y-76448810D01*
X97477780Y-76443898D01*
X97397542Y-76418378D01*
X97331030Y-76379198D01*
X97279321Y-76327395D01*
X97243493Y-76264002D01*
X97226456Y-76202540D01*
X97219253Y-76159360D01*
X97301426Y-76159360D01*
X97342048Y-76159687D01*
X97366463Y-76161435D01*
X97378781Y-76165757D01*
X97383115Y-76173805D01*
X97383600Y-76182378D01*
X97393218Y-76225826D01*
X97420373Y-76264175D01*
X97462516Y-76295397D01*
X97517096Y-76317465D01*
X97565253Y-76326857D01*
X97641497Y-76328640D01*
X97707728Y-76315656D01*
X97761817Y-76288452D01*
X97782257Y-76271093D01*
X97805383Y-76245557D01*
X97816725Y-76223456D01*
X97820311Y-76195467D01*
X97820480Y-76182646D01*
X97819468Y-76155971D01*
X97814948Y-76134295D01*
X97804693Y-76116245D01*
X97786478Y-76100447D01*
X97758075Y-76085524D01*
X97717258Y-76070103D01*
X97661800Y-76052809D01*
X97589475Y-76032267D01*
X97566696Y-76025967D01*
X97477416Y-76000174D01*
X97406178Y-75976298D01*
X97351015Y-75952721D01*
X97309956Y-75927825D01*
X97281036Y-75899991D01*
X97262285Y-75867602D01*
X97251735Y-75829040D01*
X97247419Y-75782685D01*
X97247007Y-75763120D01*
X97247850Y-75719712D01*
X97252313Y-75688611D01*
X97262130Y-75661891D01*
X97273876Y-75640249D01*
X97317994Y-75584738D01*
X97376837Y-75541361D01*
X97448322Y-75510834D01*
X97530366Y-75493875D01*
X97620885Y-75491201D01*
X97687221Y-75498063D01*
G37*
X88027324Y-73782590D02*
X88059452Y-73786805D01*
X88091888Y-73794057D01*
X88114244Y-73807779D01*
X88128737Y-73831481D01*
X88137584Y-73868672D01*
X88142699Y-73918624D01*
X88148869Y-73972591D01*
X88159736Y-74011246D01*
X88177581Y-74039453D01*
X88204685Y-74062078D01*
X88212212Y-74066847D01*
X88245198Y-74081655D01*
X88280129Y-74085052D01*
X88321114Y-74076564D01*
X88372263Y-74055716D01*
X88392000Y-74046079D01*
X88429668Y-74027854D01*
X88461296Y-74013857D01*
X88481929Y-74006229D01*
X88486101Y-74005439D01*
X88498904Y-74012277D01*
X88520557Y-74029828D01*
X88546499Y-74053653D01*
X88572166Y-74079311D01*
X88592995Y-74102363D01*
X88604425Y-74118366D01*
X88605360Y-74121499D01*
X88600238Y-74133261D01*
X88586415Y-74158067D01*
X88566207Y-74191887D01*
X88549480Y-74218800D01*
X88526082Y-74257204D01*
X88507520Y-74290189D01*
X88496139Y-74313437D01*
X88493699Y-74321500D01*
X88497831Y-74338064D01*
X88508368Y-74365751D01*
X88518162Y-74387966D01*
X88528453Y-74409784D01*
X88537994Y-74425351D01*
X88550354Y-74436241D01*
X88569105Y-74444024D01*
X88597818Y-74450273D01*
X88640063Y-74456560D01*
X88688704Y-74463030D01*
X88777129Y-74474763D01*
X88782995Y-74522041D01*
X88787602Y-74559124D01*
X88791930Y-74593886D01*
X88792961Y-74602153D01*
X88794529Y-74618623D01*
X88792384Y-74630934D01*
X88783506Y-74641491D01*
X88764877Y-74652697D01*
X88733475Y-74666958D01*
X88687328Y-74686242D01*
X88636773Y-74709451D01*
X88602387Y-74732260D01*
X88580539Y-74758844D01*
X88567601Y-74793380D01*
X88560952Y-74831680D01*
X88554745Y-74880681D01*
X88630852Y-74960577D01*
X88661740Y-74993523D01*
X88686602Y-75021032D01*
X88702552Y-75039848D01*
X88706960Y-75046486D01*
X88701763Y-75063417D01*
X88688526Y-75090796D01*
X88670776Y-75122559D01*
X88652041Y-75152645D01*
X88635850Y-75174991D01*
X88627490Y-75183031D01*
X88608301Y-75186637D01*
X88575567Y-75183025D01*
X88528912Y-75172500D01*
X88479740Y-75162001D01*
X88438802Y-75157293D01*
X88415688Y-75158250D01*
X88376977Y-75173644D01*
X88339123Y-75202043D01*
X88309900Y-75237346D01*
X88305912Y-75244432D01*
X88298565Y-75262010D01*
X88299225Y-75277466D01*
X88309433Y-75297761D01*
X88321944Y-75316882D01*
X88362366Y-75380572D01*
X88408183Y-75459006D01*
X88457284Y-75548049D01*
X88507562Y-75643560D01*
X88556906Y-75741403D01*
X88603207Y-75837438D01*
X88644356Y-75927528D01*
X88678243Y-76007534D01*
X88691825Y-76042520D01*
X88712017Y-76101643D01*
X88730845Y-76165846D01*
X88747045Y-76229882D01*
X88759352Y-76288501D01*
X88766500Y-76336456D01*
X88767786Y-76357638D01*
X88758929Y-76401394D01*
X88735123Y-76442530D01*
X88701074Y-76473266D01*
X88696173Y-76476074D01*
X88650585Y-76492257D01*
X88605693Y-76489573D01*
X88579960Y-76480488D01*
X88548210Y-76459594D01*
X88510028Y-76423143D01*
X88467653Y-76373958D01*
X88423324Y-76314858D01*
X88379282Y-76248663D01*
X88337767Y-76178195D01*
X88333025Y-76169520D01*
X88310124Y-76124975D01*
X88285705Y-76072748D01*
X88258963Y-76010860D01*
X88229091Y-75937335D01*
X88195285Y-75850195D01*
X88156738Y-75747462D01*
X88117749Y-75641200D01*
X88093953Y-75576465D01*
X88071930Y-75517775D01*
X88052771Y-75467948D01*
X88037572Y-75429800D01*
X88027425Y-75406147D01*
X88024073Y-75399900D01*
X88008117Y-75392389D01*
X87979179Y-75387894D01*
X87961495Y-75387237D01*
X87915810Y-75391403D01*
X87879603Y-75405701D01*
X87849142Y-75432946D01*
X87820692Y-75475953D01*
X87805914Y-75504535D01*
X87786399Y-75541328D01*
X87767632Y-75571260D01*
X87752893Y-75589252D01*
X87749732Y-75591570D01*
X87727509Y-75595665D01*
X87693944Y-75593851D01*
X87656679Y-75587466D01*
X87623358Y-75577846D01*
X87601622Y-75566329D01*
X87600747Y-75565501D01*
X87591972Y-75546728D01*
X87584510Y-75511065D01*
X87579311Y-75464809D01*
X87569998Y-75399581D01*
X87552833Y-75351433D01*
X87526226Y-75318115D01*
X87488584Y-75297376D01*
X87455121Y-75289186D01*
X87434685Y-75288370D01*
X87410689Y-75293403D01*
X87378733Y-75305709D01*
X87334418Y-75326712D01*
X87325625Y-75331106D01*
X87230917Y-75378671D01*
X87171378Y-75319753D01*
X87143946Y-75291861D01*
X87123193Y-75269339D01*
X87112550Y-75255961D01*
X87111840Y-75254242D01*
X87117131Y-75243497D01*
X87131382Y-75219876D01*
X87152157Y-75187326D01*
X87167720Y-75163680D01*
X87191747Y-75125190D01*
X87210596Y-75090457D01*
X87221708Y-75064442D01*
X87223600Y-75055318D01*
X87219076Y-75032441D01*
X87207516Y-75000801D01*
X87198588Y-74981566D01*
X87173577Y-74932209D01*
X87084288Y-74920353D01*
X87028327Y-74912974D01*
X86989249Y-74907156D01*
X86963864Y-74901297D01*
X86948982Y-74893797D01*
X86941413Y-74883056D01*
X86937967Y-74867471D01*
X86935483Y-74845670D01*
X86929923Y-74797017D01*
X86928614Y-74763996D01*
X86933713Y-74742028D01*
X86947377Y-74726531D01*
X86971762Y-74712927D01*
X87004804Y-74698453D01*
X87041140Y-74683264D01*
X87070385Y-74671846D01*
X87087486Y-74666146D01*
X87089393Y-74665839D01*
X87105296Y-74657312D01*
X87120626Y-74639679D01*
X87422165Y-74639679D01*
X87422245Y-74726561D01*
X87425571Y-74749781D01*
X87450805Y-74840675D01*
X87491719Y-74921285D01*
X87546170Y-74990265D01*
X87612016Y-75046267D01*
X87687114Y-75087946D01*
X87769321Y-75113955D01*
X87856496Y-75122948D01*
X87946496Y-75113577D01*
X87987500Y-75102963D01*
X88073749Y-75066135D01*
X88148615Y-75013440D01*
X88210314Y-74946923D01*
X88257063Y-74868627D01*
X88287079Y-74780595D01*
X88292378Y-74753663D01*
X88297475Y-74663406D01*
X88283589Y-74575734D01*
X88252057Y-74493110D01*
X88204216Y-74417997D01*
X88141402Y-74352858D01*
X88064953Y-74300156D01*
X88039026Y-74286886D01*
X88007094Y-74272416D01*
X87980599Y-74263015D01*
X87953507Y-74257598D01*
X87919782Y-74255081D01*
X87873390Y-74254379D01*
X87858073Y-74254360D01*
X87808120Y-74254663D01*
X87772360Y-74256398D01*
X87744668Y-74260797D01*
X87718918Y-74269094D01*
X87688984Y-74282525D01*
X87668507Y-74292553D01*
X87591241Y-74341115D01*
X87526504Y-74402876D01*
X87475765Y-74475069D01*
X87440495Y-74554926D01*
X87422165Y-74639679D01*
X87120626Y-74639679D01*
X87124212Y-74635555D01*
X87141872Y-74606312D01*
X87152235Y-74581357D01*
X87160608Y-74542107D01*
X87157332Y-74506901D01*
X87140818Y-74471568D01*
X87109477Y-74431935D01*
X87086003Y-74407452D01*
X87049700Y-74368782D01*
X87028482Y-74338001D01*
X87021423Y-74310486D01*
X87027598Y-74281614D01*
X87046079Y-74246764D01*
X87051939Y-74237469D01*
X87067738Y-74213965D01*
X87082072Y-74198815D01*
X87099179Y-74191164D01*
X87123298Y-74190159D01*
X87158668Y-74194946D01*
X87209529Y-74204670D01*
X87212148Y-74205190D01*
X87254180Y-74213162D01*
X87281976Y-74216788D01*
X87301160Y-74216015D01*
X87317356Y-74210792D01*
X87330602Y-74204096D01*
X87359527Y-74184795D01*
X87389695Y-74159301D01*
X87396362Y-74152715D01*
X87428736Y-74119314D01*
X87415640Y-74004613D01*
X87410519Y-73952314D01*
X87408534Y-73913767D01*
X87409758Y-73891381D01*
X87412131Y-73886682D01*
X87425685Y-73880899D01*
X87451744Y-73868937D01*
X87482680Y-73854331D01*
X87543640Y-73825210D01*
X87626218Y-73905165D01*
X87662262Y-73939742D01*
X87687897Y-73962563D01*
X87707250Y-73976069D01*
X87724449Y-73982703D01*
X87743620Y-73984906D01*
X87761343Y-73985120D01*
X87802214Y-73982716D01*
X87833617Y-73973495D01*
X87859511Y-73954440D01*
X87883857Y-73922536D01*
X87910615Y-73874767D01*
X87913422Y-73869303D01*
X87935531Y-73826969D01*
X87953098Y-73799886D01*
X87971002Y-73785298D01*
X87994118Y-73780452D01*
X88027324Y-73782590D01*
G36*
X88027324Y-73782590D02*
G01*
X88059452Y-73786805D01*
X88091888Y-73794057D01*
X88114244Y-73807779D01*
X88128737Y-73831481D01*
X88137584Y-73868672D01*
X88142699Y-73918624D01*
X88148869Y-73972591D01*
X88159736Y-74011246D01*
X88177581Y-74039453D01*
X88204685Y-74062078D01*
X88212212Y-74066847D01*
X88245198Y-74081655D01*
X88280129Y-74085052D01*
X88321114Y-74076564D01*
X88372263Y-74055716D01*
X88392000Y-74046079D01*
X88429668Y-74027854D01*
X88461296Y-74013857D01*
X88481929Y-74006229D01*
X88486101Y-74005439D01*
X88498904Y-74012277D01*
X88520557Y-74029828D01*
X88546499Y-74053653D01*
X88572166Y-74079311D01*
X88592995Y-74102363D01*
X88604425Y-74118366D01*
X88605360Y-74121499D01*
X88600238Y-74133261D01*
X88586415Y-74158067D01*
X88566207Y-74191887D01*
X88549480Y-74218800D01*
X88526082Y-74257204D01*
X88507520Y-74290189D01*
X88496139Y-74313437D01*
X88493699Y-74321500D01*
X88497831Y-74338064D01*
X88508368Y-74365751D01*
X88518162Y-74387966D01*
X88528453Y-74409784D01*
X88537994Y-74425351D01*
X88550354Y-74436241D01*
X88569105Y-74444024D01*
X88597818Y-74450273D01*
X88640063Y-74456560D01*
X88688704Y-74463030D01*
X88777129Y-74474763D01*
X88782995Y-74522041D01*
X88787602Y-74559124D01*
X88791930Y-74593886D01*
X88792961Y-74602153D01*
X88794529Y-74618623D01*
X88792384Y-74630934D01*
X88783506Y-74641491D01*
X88764877Y-74652697D01*
X88733475Y-74666958D01*
X88687328Y-74686242D01*
X88636773Y-74709451D01*
X88602387Y-74732260D01*
X88580539Y-74758844D01*
X88567601Y-74793380D01*
X88560952Y-74831680D01*
X88554745Y-74880681D01*
X88630852Y-74960577D01*
X88661740Y-74993523D01*
X88686602Y-75021032D01*
X88702552Y-75039848D01*
X88706960Y-75046486D01*
X88701763Y-75063417D01*
X88688526Y-75090796D01*
X88670776Y-75122559D01*
X88652041Y-75152645D01*
X88635850Y-75174991D01*
X88627490Y-75183031D01*
X88608301Y-75186637D01*
X88575567Y-75183025D01*
X88528912Y-75172500D01*
X88479740Y-75162001D01*
X88438802Y-75157293D01*
X88415688Y-75158250D01*
X88376977Y-75173644D01*
X88339123Y-75202043D01*
X88309900Y-75237346D01*
X88305912Y-75244432D01*
X88298565Y-75262010D01*
X88299225Y-75277466D01*
X88309433Y-75297761D01*
X88321944Y-75316882D01*
X88362366Y-75380572D01*
X88408183Y-75459006D01*
X88457284Y-75548049D01*
X88507562Y-75643560D01*
X88556906Y-75741403D01*
X88603207Y-75837438D01*
X88644356Y-75927528D01*
X88678243Y-76007534D01*
X88691825Y-76042520D01*
X88712017Y-76101643D01*
X88730845Y-76165846D01*
X88747045Y-76229882D01*
X88759352Y-76288501D01*
X88766500Y-76336456D01*
X88767786Y-76357638D01*
X88758929Y-76401394D01*
X88735123Y-76442530D01*
X88701074Y-76473266D01*
X88696173Y-76476074D01*
X88650585Y-76492257D01*
X88605693Y-76489573D01*
X88579960Y-76480488D01*
X88548210Y-76459594D01*
X88510028Y-76423143D01*
X88467653Y-76373958D01*
X88423324Y-76314858D01*
X88379282Y-76248663D01*
X88337767Y-76178195D01*
X88333025Y-76169520D01*
X88310124Y-76124975D01*
X88285705Y-76072748D01*
X88258963Y-76010860D01*
X88229091Y-75937335D01*
X88195285Y-75850195D01*
X88156738Y-75747462D01*
X88117749Y-75641200D01*
X88093953Y-75576465D01*
X88071930Y-75517775D01*
X88052771Y-75467948D01*
X88037572Y-75429800D01*
X88027425Y-75406147D01*
X88024073Y-75399900D01*
X88008117Y-75392389D01*
X87979179Y-75387894D01*
X87961495Y-75387237D01*
X87915810Y-75391403D01*
X87879603Y-75405701D01*
X87849142Y-75432946D01*
X87820692Y-75475953D01*
X87805914Y-75504535D01*
X87786399Y-75541328D01*
X87767632Y-75571260D01*
X87752893Y-75589252D01*
X87749732Y-75591570D01*
X87727509Y-75595665D01*
X87693944Y-75593851D01*
X87656679Y-75587466D01*
X87623358Y-75577846D01*
X87601622Y-75566329D01*
X87600747Y-75565501D01*
X87591972Y-75546728D01*
X87584510Y-75511065D01*
X87579311Y-75464809D01*
X87569998Y-75399581D01*
X87552833Y-75351433D01*
X87526226Y-75318115D01*
X87488584Y-75297376D01*
X87455121Y-75289186D01*
X87434685Y-75288370D01*
X87410689Y-75293403D01*
X87378733Y-75305709D01*
X87334418Y-75326712D01*
X87325625Y-75331106D01*
X87230917Y-75378671D01*
X87171378Y-75319753D01*
X87143946Y-75291861D01*
X87123193Y-75269339D01*
X87112550Y-75255961D01*
X87111840Y-75254242D01*
X87117131Y-75243497D01*
X87131382Y-75219876D01*
X87152157Y-75187326D01*
X87167720Y-75163680D01*
X87191747Y-75125190D01*
X87210596Y-75090457D01*
X87221708Y-75064442D01*
X87223600Y-75055318D01*
X87219076Y-75032441D01*
X87207516Y-75000801D01*
X87198588Y-74981566D01*
X87173577Y-74932209D01*
X87084288Y-74920353D01*
X87028327Y-74912974D01*
X86989249Y-74907156D01*
X86963864Y-74901297D01*
X86948982Y-74893797D01*
X86941413Y-74883056D01*
X86937967Y-74867471D01*
X86935483Y-74845670D01*
X86929923Y-74797017D01*
X86928614Y-74763996D01*
X86933713Y-74742028D01*
X86947377Y-74726531D01*
X86971762Y-74712927D01*
X87004804Y-74698453D01*
X87041140Y-74683264D01*
X87070385Y-74671846D01*
X87087486Y-74666146D01*
X87089393Y-74665839D01*
X87105296Y-74657312D01*
X87120626Y-74639679D01*
X87422165Y-74639679D01*
X87422245Y-74726561D01*
X87425571Y-74749781D01*
X87450805Y-74840675D01*
X87491719Y-74921285D01*
X87546170Y-74990265D01*
X87612016Y-75046267D01*
X87687114Y-75087946D01*
X87769321Y-75113955D01*
X87856496Y-75122948D01*
X87946496Y-75113577D01*
X87987500Y-75102963D01*
X88073749Y-75066135D01*
X88148615Y-75013440D01*
X88210314Y-74946923D01*
X88257063Y-74868627D01*
X88287079Y-74780595D01*
X88292378Y-74753663D01*
X88297475Y-74663406D01*
X88283589Y-74575734D01*
X88252057Y-74493110D01*
X88204216Y-74417997D01*
X88141402Y-74352858D01*
X88064953Y-74300156D01*
X88039026Y-74286886D01*
X88007094Y-74272416D01*
X87980599Y-74263015D01*
X87953507Y-74257598D01*
X87919782Y-74255081D01*
X87873390Y-74254379D01*
X87858073Y-74254360D01*
X87808120Y-74254663D01*
X87772360Y-74256398D01*
X87744668Y-74260797D01*
X87718918Y-74269094D01*
X87688984Y-74282525D01*
X87668507Y-74292553D01*
X87591241Y-74341115D01*
X87526504Y-74402876D01*
X87475765Y-74475069D01*
X87440495Y-74554926D01*
X87422165Y-74639679D01*
X87120626Y-74639679D01*
X87124212Y-74635555D01*
X87141872Y-74606312D01*
X87152235Y-74581357D01*
X87160608Y-74542107D01*
X87157332Y-74506901D01*
X87140818Y-74471568D01*
X87109477Y-74431935D01*
X87086003Y-74407452D01*
X87049700Y-74368782D01*
X87028482Y-74338001D01*
X87021423Y-74310486D01*
X87027598Y-74281614D01*
X87046079Y-74246764D01*
X87051939Y-74237469D01*
X87067738Y-74213965D01*
X87082072Y-74198815D01*
X87099179Y-74191164D01*
X87123298Y-74190159D01*
X87158668Y-74194946D01*
X87209529Y-74204670D01*
X87212148Y-74205190D01*
X87254180Y-74213162D01*
X87281976Y-74216788D01*
X87301160Y-74216015D01*
X87317356Y-74210792D01*
X87330602Y-74204096D01*
X87359527Y-74184795D01*
X87389695Y-74159301D01*
X87396362Y-74152715D01*
X87428736Y-74119314D01*
X87415640Y-74004613D01*
X87410519Y-73952314D01*
X87408534Y-73913767D01*
X87409758Y-73891381D01*
X87412131Y-73886682D01*
X87425685Y-73880899D01*
X87451744Y-73868937D01*
X87482680Y-73854331D01*
X87543640Y-73825210D01*
X87626218Y-73905165D01*
X87662262Y-73939742D01*
X87687897Y-73962563D01*
X87707250Y-73976069D01*
X87724449Y-73982703D01*
X87743620Y-73984906D01*
X87761343Y-73985120D01*
X87802214Y-73982716D01*
X87833617Y-73973495D01*
X87859511Y-73954440D01*
X87883857Y-73922536D01*
X87910615Y-73874767D01*
X87913422Y-73869303D01*
X87935531Y-73826969D01*
X87953098Y-73799886D01*
X87971002Y-73785298D01*
X87994118Y-73780452D01*
X88027324Y-73782590D01*
G37*
D13*
%TO.C,C3*%
X93351000Y-113634000D02*
X94609000Y-113634000D01*
X93351000Y-115474000D02*
X94609000Y-115474000D01*
%TO.C,U1*%
X88606000Y-84296000D02*
X88606000Y-79655000D01*
X91875000Y-84296000D02*
X91875000Y-82786000D01*
X95576000Y-84296000D02*
X95576000Y-82786000D01*
X98846000Y-79655000D02*
X88606000Y-79655000D01*
X98846000Y-82786000D02*
X88606000Y-82786000D01*
X98846000Y-84296000D02*
X88606000Y-84296000D01*
X98846000Y-84296000D02*
X98846000Y-79655000D01*
%TO.C,J4*%
X112970000Y-115611600D02*
X114300000Y-115611600D01*
X112970000Y-116941600D02*
X112970000Y-115611600D01*
X112970000Y-118211600D02*
X112970000Y-120811600D01*
X112970000Y-118211600D02*
X115630000Y-118211600D01*
X112970000Y-120811600D02*
X115630000Y-120811600D01*
X115630000Y-118211600D02*
X115630000Y-120811600D01*
%TO.C,D1*%
X105135000Y-98831000D02*
X108225000Y-98831000D01*
X105135170Y-98830999D02*
G75*
G02*
X106680462Y-93281001I1544830J2559999D01*
G01*
X106679538Y-93281000D02*
G75*
G02*
X108224830Y-98831000I462J-2990000D01*
G01*
X109180000Y-96271000D02*
G75*
G02*
X104180000Y-96271000I-2500000J0D01*
G01*
X104180000Y-96271000D02*
G75*
G02*
X109180000Y-96271000I2500000J0D01*
G01*
%TO.C,R1*%
X103302000Y-86614000D02*
X104252000Y-86614000D01*
X104252000Y-85694000D02*
X104252000Y-87534000D01*
X104252000Y-87534000D02*
X108092000Y-87534000D01*
X108092000Y-85694000D02*
X104252000Y-85694000D01*
X108092000Y-87534000D02*
X108092000Y-85694000D01*
X109042000Y-86614000D02*
X108092000Y-86614000D01*
%TO.C,J3*%
X101600000Y-113481600D02*
X101600000Y-121101600D01*
X101600000Y-114751600D02*
X111760000Y-114751600D01*
X101600000Y-121101600D02*
X111760000Y-121101600D01*
X111760000Y-113481600D02*
X101600000Y-113481600D01*
X111760000Y-121101600D02*
X111760000Y-113481600D01*
%TO.C,C2*%
X90049000Y-86456000D02*
X91307000Y-86456000D01*
X90049000Y-88296000D02*
X91307000Y-88296000D01*
%TO.C,R2*%
X103302000Y-103632000D02*
X104252000Y-103632000D01*
X104252000Y-102712000D02*
X104252000Y-104552000D01*
X104252000Y-104552000D02*
X108092000Y-104552000D01*
X108092000Y-102712000D02*
X104252000Y-102712000D01*
X108092000Y-104552000D02*
X108092000Y-102712000D01*
X109042000Y-103632000D02*
X108092000Y-103632000D01*
D14*
%TO.C,SW1*%
X100103000Y-79867000D02*
X100103000Y-84217000D01*
X100103000Y-84217000D02*
X111733000Y-84217000D01*
X111733000Y-79867000D02*
X100103000Y-79867000D01*
X111733000Y-84217000D02*
X111733000Y-79867000D01*
D13*
%TO.C,J1*%
X86180000Y-91724500D02*
X100880000Y-91724500D01*
X86180000Y-100924500D02*
X86180000Y-91724500D01*
X94980000Y-100924500D02*
X86180000Y-100924500D01*
X100030000Y-91524500D02*
X101080000Y-91524500D01*
X100880000Y-91724500D02*
X100880000Y-94324500D01*
X100880000Y-98224500D02*
X100880000Y-100924500D01*
X100880000Y-100924500D02*
X98980000Y-100924500D01*
X101080000Y-92574500D02*
X101080000Y-91524500D01*
%TO.C,J2*%
X101600000Y-69510000D02*
X101600000Y-77130000D01*
X101600000Y-77130000D02*
X111760000Y-77130000D01*
X111760000Y-69510000D02*
X101600000Y-69510000D01*
X111760000Y-75860000D02*
X101600000Y-75860000D01*
X111760000Y-77130000D02*
X111760000Y-69510000D01*
%TO.C,R3*%
X103302000Y-108712000D02*
X104252000Y-108712000D01*
X104252000Y-107792000D02*
X104252000Y-109632000D01*
X104252000Y-109632000D02*
X108092000Y-109632000D01*
X108092000Y-107792000D02*
X104252000Y-107792000D01*
X108092000Y-109632000D02*
X108092000Y-107792000D01*
X109042000Y-108712000D02*
X108092000Y-108712000D01*
%TO.C,J7*%
X92411000Y-72450000D02*
X92411000Y-71120000D01*
X93741000Y-72450000D02*
X92411000Y-72450000D01*
X95011000Y-69790000D02*
X100151000Y-69790000D01*
X95011000Y-72450000D02*
X95011000Y-69790000D01*
X95011000Y-72450000D02*
X100151000Y-72450000D01*
X100151000Y-72450000D02*
X100151000Y-69790000D01*
%TO.C,J6*%
X92157000Y-120964000D02*
X92157000Y-119634000D01*
X93487000Y-120964000D02*
X92157000Y-120964000D01*
X94757000Y-118304000D02*
X99897000Y-118304000D01*
X94757000Y-120964000D02*
X94757000Y-118304000D01*
X94757000Y-120964000D02*
X99897000Y-120964000D01*
X99897000Y-120964000D02*
X99897000Y-118304000D01*
%TO.C,U2*%
X88098000Y-106895000D02*
X88098000Y-111536000D01*
X88098000Y-106895000D02*
X98338000Y-106895000D01*
X88098000Y-108405000D02*
X98338000Y-108405000D01*
X88098000Y-111536000D02*
X98338000Y-111536000D01*
X91368000Y-106895000D02*
X91368000Y-108405000D01*
X95069000Y-106895000D02*
X95069000Y-108405000D01*
X98338000Y-106895000D02*
X98338000Y-111536000D01*
%TO.C,J5*%
X112970000Y-69790000D02*
X114300000Y-69790000D01*
X112970000Y-71120000D02*
X112970000Y-69790000D01*
X112970000Y-72390000D02*
X112970000Y-74990000D01*
X112970000Y-72390000D02*
X115630000Y-72390000D01*
X112970000Y-74990000D02*
X115630000Y-74990000D01*
X115630000Y-72390000D02*
X115630000Y-74990000D01*
%TO.C,C1*%
X96387000Y-86456000D02*
X95129000Y-86456000D01*
X96387000Y-88296000D02*
X95129000Y-88296000D01*
%TD*%
%LPC*%
D15*
%TO.C,C3*%
X92730000Y-114554000D03*
X95230000Y-114554000D03*
%TD*%
D16*
%TO.C,U1*%
X96266000Y-81026000D03*
D17*
X93726000Y-81026000D03*
X91186000Y-81026000D03*
%TD*%
D18*
%TO.C,J4*%
X114300000Y-116941600D03*
D19*
X114300000Y-119481600D03*
%TD*%
D20*
%TO.C,D1*%
X106680000Y-97541000D03*
D21*
X106680000Y-95001000D03*
%TD*%
D22*
%TO.C,R1*%
X102362000Y-86614000D03*
D23*
X109982000Y-86614000D03*
%TD*%
D24*
%TO.C,J3*%
X109220000Y-117291600D03*
D25*
X104140000Y-117291600D03*
%TD*%
D15*
%TO.C,C2*%
X89428000Y-87376000D03*
X91928000Y-87376000D03*
%TD*%
D22*
%TO.C,R2*%
X109982000Y-103632000D03*
D23*
X102362000Y-103632000D03*
%TD*%
D26*
%TO.C,SW1*%
X108458000Y-82042000D03*
X105918000Y-82042000D03*
X103378000Y-82042000D03*
%TD*%
D27*
%TO.C,J1*%
X99980000Y-96324500D03*
D28*
X93980000Y-96324500D03*
D29*
X96980000Y-101024500D03*
%TD*%
D24*
%TO.C,J2*%
X104140000Y-73320000D03*
D25*
X109220000Y-73320000D03*
%TD*%
D22*
%TO.C,R3*%
X102362000Y-108712000D03*
D23*
X109982000Y-108712000D03*
%TD*%
D18*
%TO.C,J7*%
X93741000Y-71120000D03*
D19*
X96281000Y-71120000D03*
X98821000Y-71120000D03*
%TD*%
D18*
%TO.C,J6*%
X93487000Y-119634000D03*
D19*
X96027000Y-119634000D03*
X98567000Y-119634000D03*
%TD*%
D16*
%TO.C,U2*%
X90678000Y-110165000D03*
D17*
X93218000Y-110165000D03*
X95758000Y-110165000D03*
%TD*%
D18*
%TO.C,J5*%
X114300000Y-71120000D03*
D19*
X114300000Y-73660000D03*
%TD*%
D15*
%TO.C,C1*%
X97008000Y-87376000D03*
X94508000Y-87376000D03*
%TD*%
%LPD*%
M02*
