%TF.GenerationSoftware,KiCad,Pcbnew,8.0.1*%
%TF.CreationDate,2024-03-27T16:26:59+11:00*%
%TF.ProjectId,Breadboard Power Supply,42726561-6462-46f6-9172-6420506f7765,rev?*%
%TF.SameCoordinates,Original*%
%TF.FileFunction,Soldermask,Bot*%
%TF.FilePolarity,Negative*%
%FSLAX46Y46*%
G04 Gerber Fmt 4.6, Leading zero omitted, Abs format (unit mm)*
G04 Created by KiCad (PCBNEW 8.0.1) date 2024-03-27 16:26:59*
%MOMM*%
%LPD*%
G01*
G04 APERTURE LIST*
G04 Aperture macros list*
%AMRoundRect*
0 Rectangle with rounded corners*
0 $1 Rounding radius*
0 $2 $3 $4 $5 $6 $7 $8 $9 X,Y pos of 4 corners*
0 Add a 4 corners polygon primitive as box body*
4,1,4,$2,$3,$4,$5,$6,$7,$8,$9,$2,$3,0*
0 Add four circle primitives for the rounded corners*
1,1,$1+$1,$2,$3*
1,1,$1+$1,$4,$5*
1,1,$1+$1,$6,$7*
1,1,$1+$1,$8,$9*
0 Add four rect primitives between the rounded corners*
20,1,$1+$1,$2,$3,$4,$5,0*
20,1,$1+$1,$4,$5,$6,$7,0*
20,1,$1+$1,$6,$7,$8,$9,0*
20,1,$1+$1,$8,$9,$2,$3,0*%
G04 Aperture macros list end*
%ADD10C,1.600000*%
%ADD11R,1.905000X2.000000*%
%ADD12O,1.905000X2.000000*%
%ADD13O,1.700000X1.700000*%
%ADD14R,1.700000X1.700000*%
%ADD15R,1.800000X1.800000*%
%ADD16C,1.800000*%
%ADD17O,1.400000X1.400000*%
%ADD18C,1.400000*%
%ADD19R,3.000000X3.000000*%
%ADD20C,3.000000*%
%ADD21C,2.082800*%
%ADD22R,3.500000X3.500000*%
%ADD23RoundRect,0.750000X-0.750000X-1.000000X0.750000X-1.000000X0.750000X1.000000X-0.750000X1.000000X0*%
%ADD24RoundRect,0.875000X-0.875000X-0.875000X0.875000X-0.875000X0.875000X0.875000X-0.875000X0.875000X0*%
G04 APERTURE END LIST*
D10*
%TO.C,C3*%
X92730000Y-114554000D03*
X95230000Y-114554000D03*
%TD*%
D11*
%TO.C,U1*%
X96266000Y-81026000D03*
D12*
X93726000Y-81026000D03*
X91186000Y-81026000D03*
%TD*%
D13*
%TO.C,J4*%
X114300000Y-119481600D03*
D14*
X114300000Y-116941600D03*
%TD*%
D15*
%TO.C,D1*%
X106680000Y-97541000D03*
D16*
X106680000Y-95001000D03*
%TD*%
D17*
%TO.C,R1*%
X109982000Y-86614000D03*
D18*
X102362000Y-86614000D03*
%TD*%
D19*
%TO.C,J3*%
X109220000Y-117291600D03*
D20*
X104140000Y-117291600D03*
%TD*%
D10*
%TO.C,C2*%
X89428000Y-87376000D03*
X91928000Y-87376000D03*
%TD*%
D18*
%TO.C,R2*%
X109982000Y-103632000D03*
D17*
X102362000Y-103632000D03*
%TD*%
D21*
%TO.C,SW1*%
X103378000Y-82042000D03*
X105918000Y-82042000D03*
X108458000Y-82042000D03*
%TD*%
D22*
%TO.C,J1*%
X99980000Y-96324500D03*
D23*
X93980000Y-96324500D03*
D24*
X96980000Y-101024500D03*
%TD*%
D19*
%TO.C,J2*%
X104140000Y-73320000D03*
D20*
X109220000Y-73320000D03*
%TD*%
D17*
%TO.C,R3*%
X109982000Y-108712000D03*
D18*
X102362000Y-108712000D03*
%TD*%
D14*
%TO.C,J7*%
X93741000Y-71120000D03*
D13*
X96281000Y-71120000D03*
X98821000Y-71120000D03*
%TD*%
D14*
%TO.C,J6*%
X93487000Y-119634000D03*
D13*
X96027000Y-119634000D03*
X98567000Y-119634000D03*
%TD*%
D11*
%TO.C,U2*%
X90678000Y-110165000D03*
D12*
X93218000Y-110165000D03*
X95758000Y-110165000D03*
%TD*%
D14*
%TO.C,J5*%
X114300000Y-71120000D03*
D13*
X114300000Y-73660000D03*
%TD*%
D10*
%TO.C,C1*%
X97008000Y-87376000D03*
X94508000Y-87376000D03*
%TD*%
M02*
