%TF.GenerationSoftware,KiCad,Pcbnew,8.0.1*%
%TF.CreationDate,2024-03-27T16:26:59+11:00*%
%TF.ProjectId,Breadboard Power Supply,42726561-6462-46f6-9172-6420506f7765,rev?*%
%TF.SameCoordinates,Original*%
%TF.FileFunction,Copper,L2,Bot*%
%TF.FilePolarity,Positive*%
%FSLAX46Y46*%
G04 Gerber Fmt 4.6, Leading zero omitted, Abs format (unit mm)*
G04 Created by KiCad (PCBNEW 8.0.1) date 2024-03-27 16:26:59*
%MOMM*%
%LPD*%
G01*
G04 APERTURE LIST*
G04 Aperture macros list*
%AMRoundRect*
0 Rectangle with rounded corners*
0 $1 Rounding radius*
0 $2 $3 $4 $5 $6 $7 $8 $9 X,Y pos of 4 corners*
0 Add a 4 corners polygon primitive as box body*
4,1,4,$2,$3,$4,$5,$6,$7,$8,$9,$2,$3,0*
0 Add four circle primitives for the rounded corners*
1,1,$1+$1,$2,$3*
1,1,$1+$1,$4,$5*
1,1,$1+$1,$6,$7*
1,1,$1+$1,$8,$9*
0 Add four rect primitives between the rounded corners*
20,1,$1+$1,$2,$3,$4,$5,0*
20,1,$1+$1,$4,$5,$6,$7,0*
20,1,$1+$1,$6,$7,$8,$9,0*
20,1,$1+$1,$8,$9,$2,$3,0*%
G04 Aperture macros list end*
%TA.AperFunction,ComponentPad*%
%ADD10C,1.600000*%
%TD*%
%TA.AperFunction,ComponentPad*%
%ADD11R,1.905000X2.000000*%
%TD*%
%TA.AperFunction,ComponentPad*%
%ADD12O,1.905000X2.000000*%
%TD*%
%TA.AperFunction,ComponentPad*%
%ADD13O,1.700000X1.700000*%
%TD*%
%TA.AperFunction,ComponentPad*%
%ADD14R,1.700000X1.700000*%
%TD*%
%TA.AperFunction,ComponentPad*%
%ADD15R,1.800000X1.800000*%
%TD*%
%TA.AperFunction,ComponentPad*%
%ADD16C,1.800000*%
%TD*%
%TA.AperFunction,ComponentPad*%
%ADD17O,1.400000X1.400000*%
%TD*%
%TA.AperFunction,ComponentPad*%
%ADD18C,1.400000*%
%TD*%
%TA.AperFunction,ComponentPad*%
%ADD19R,3.000000X3.000000*%
%TD*%
%TA.AperFunction,ComponentPad*%
%ADD20C,3.000000*%
%TD*%
%TA.AperFunction,ComponentPad*%
%ADD21C,1.879600*%
%TD*%
%TA.AperFunction,ComponentPad*%
%ADD22R,3.500000X3.500000*%
%TD*%
%TA.AperFunction,ComponentPad*%
%ADD23RoundRect,0.750000X-0.750000X-1.000000X0.750000X-1.000000X0.750000X1.000000X-0.750000X1.000000X0*%
%TD*%
%TA.AperFunction,ComponentPad*%
%ADD24RoundRect,0.875000X-0.875000X-0.875000X0.875000X-0.875000X0.875000X0.875000X-0.875000X0.875000X0*%
%TD*%
%TA.AperFunction,ViaPad*%
%ADD25C,0.900000*%
%TD*%
%TA.AperFunction,Conductor*%
%ADD26C,0.350000*%
%TD*%
%TA.AperFunction,Conductor*%
%ADD27C,0.250000*%
%TD*%
G04 APERTURE END LIST*
D10*
%TO.P,C3,1*%
%TO.N,/3.3V*%
X92730000Y-114554000D03*
%TO.P,C3,2*%
%TO.N,GND*%
X95230000Y-114554000D03*
%TD*%
D11*
%TO.P,U1,1,VI*%
%TO.N,/12V*%
X96266000Y-81026000D03*
D12*
%TO.P,U1,2,GND*%
%TO.N,GND*%
X93726000Y-81026000D03*
%TO.P,U1,3,VO*%
%TO.N,/5V*%
X91186000Y-81026000D03*
%TD*%
D13*
%TO.P,J4,2,Pin_2*%
%TO.N,/PWR_output*%
X114300000Y-119481600D03*
D14*
%TO.P,J4,1,Pin_1*%
%TO.N,GND*%
X114300000Y-116941600D03*
%TD*%
D15*
%TO.P,D1,1,K*%
%TO.N,GND*%
X106680000Y-97541000D03*
D16*
%TO.P,D1,2,A*%
%TO.N,Net-(D1-A)*%
X106680000Y-95001000D03*
%TD*%
D17*
%TO.P,R1,2*%
%TO.N,/12V*%
X109982000Y-86614000D03*
D18*
%TO.P,R1,1*%
%TO.N,Net-(D1-A)*%
X102362000Y-86614000D03*
%TD*%
D19*
%TO.P,J3,1,Pin_1*%
%TO.N,GND*%
X109220000Y-117291600D03*
D20*
%TO.P,J3,2,Pin_2*%
%TO.N,/PWR_output*%
X104140000Y-117291600D03*
%TD*%
D10*
%TO.P,C2,1*%
%TO.N,/5V*%
X89428000Y-87376000D03*
%TO.P,C2,2*%
%TO.N,GND*%
X91928000Y-87376000D03*
%TD*%
D18*
%TO.P,R2,1*%
%TO.N,Net-(U2-ADJ)*%
X109982000Y-103632000D03*
D17*
%TO.P,R2,2*%
%TO.N,/3.3V*%
X102362000Y-103632000D03*
%TD*%
D21*
%TO.P,SW1,3,C*%
%TO.N,unconnected-(SW1-C-Pad3)*%
X103378000Y-82042000D03*
%TO.P,SW1,2,B*%
%TO.N,/PWR_input*%
X105918000Y-82042000D03*
%TO.P,SW1,1,A*%
%TO.N,/12V*%
X108458000Y-82042000D03*
%TD*%
D22*
%TO.P,J1,1*%
%TO.N,/PWR_input*%
X99980000Y-96324500D03*
D23*
%TO.P,J1,2*%
%TO.N,GND*%
X93980000Y-96324500D03*
D24*
%TO.P,J1,3*%
X96980000Y-101024500D03*
%TD*%
D19*
%TO.P,J2,1,Pin_1*%
%TO.N,GND*%
X104140000Y-73320000D03*
D20*
%TO.P,J2,2,Pin_2*%
%TO.N,/PWR_output*%
X109220000Y-73320000D03*
%TD*%
D17*
%TO.P,R3,2*%
%TO.N,Net-(U2-ADJ)*%
X109982000Y-108712000D03*
D18*
%TO.P,R3,1*%
%TO.N,GND*%
X102362000Y-108712000D03*
%TD*%
D14*
%TO.P,J7,1,Pin_1*%
%TO.N,/3.3V*%
X93741000Y-71120000D03*
D13*
%TO.P,J7,2,Pin_2*%
%TO.N,/PWR_output*%
X96281000Y-71120000D03*
%TO.P,J7,3,Pin_3*%
%TO.N,/5V*%
X98821000Y-71120000D03*
%TD*%
D14*
%TO.P,J6,1,Pin_1*%
%TO.N,/3.3V*%
X93487000Y-119634000D03*
D13*
%TO.P,J6,2,Pin_2*%
%TO.N,/PWR_output*%
X96027000Y-119634000D03*
%TO.P,J6,3,Pin_3*%
%TO.N,/5V*%
X98567000Y-119634000D03*
%TD*%
D11*
%TO.P,U2,1,ADJ*%
%TO.N,Net-(U2-ADJ)*%
X90678000Y-110165000D03*
D12*
%TO.P,U2,2,VO*%
%TO.N,/3.3V*%
X93218000Y-110165000D03*
%TO.P,U2,3,VI*%
%TO.N,/12V*%
X95758000Y-110165000D03*
%TD*%
D14*
%TO.P,J5,1,Pin_1*%
%TO.N,GND*%
X114300000Y-71120000D03*
D13*
%TO.P,J5,2,Pin_2*%
%TO.N,/PWR_output*%
X114300000Y-73660000D03*
%TD*%
D10*
%TO.P,C1,1*%
%TO.N,/12V*%
X97008000Y-87376000D03*
%TO.P,C1,2*%
%TO.N,GND*%
X94508000Y-87376000D03*
%TD*%
D25*
%TO.N,/3.3V*%
X90932000Y-90424000D03*
%TO.N,/5V*%
X90424000Y-116586000D03*
%TD*%
D26*
%TO.N,/3.3V*%
X90932000Y-90424000D02*
X89662000Y-90424000D01*
X89662000Y-90424000D02*
X88138000Y-88900000D01*
X88138000Y-88900000D02*
X88138000Y-85344000D01*
X88138000Y-85344000D02*
X88900000Y-84582000D01*
X88900000Y-84582000D02*
X88900000Y-80264000D01*
X93741000Y-75423000D02*
X93741000Y-71120000D01*
X88900000Y-80264000D02*
X93741000Y-75423000D01*
%TO.N,/5V*%
X95519000Y-116586000D02*
X98567000Y-119634000D01*
X90424000Y-116586000D02*
X95519000Y-116586000D01*
D27*
%TO.N,Net-(U2-ADJ)*%
X90678000Y-110165000D02*
X90678000Y-107950000D01*
X90678000Y-107950000D02*
X92964000Y-105664000D01*
X107696000Y-105664000D02*
X109728000Y-103632000D01*
X92964000Y-105664000D02*
X107696000Y-105664000D01*
X109728000Y-103632000D02*
X109982000Y-103632000D01*
%TD*%
%TA.AperFunction,Conductor*%
%TO.N,GND*%
G36*
X94830000Y-114606661D02*
G01*
X94857259Y-114708394D01*
X94909920Y-114799606D01*
X94984394Y-114874080D01*
X95075606Y-114926741D01*
X95177339Y-114954000D01*
X95183553Y-114954000D01*
X94504526Y-115633025D01*
X94578647Y-115684926D01*
X94622272Y-115739503D01*
X94629464Y-115809001D01*
X94597941Y-115871356D01*
X94537711Y-115906769D01*
X94507523Y-115910500D01*
X93453347Y-115910500D01*
X93386308Y-115890815D01*
X93340553Y-115838011D01*
X93330609Y-115768853D01*
X93359634Y-115705297D01*
X93382224Y-115684925D01*
X93385426Y-115682683D01*
X93569139Y-115554047D01*
X93730047Y-115393139D01*
X93860568Y-115206734D01*
X93867893Y-115191024D01*
X93914064Y-115138586D01*
X93981257Y-115119433D01*
X94048138Y-115139648D01*
X94092657Y-115191024D01*
X94099864Y-115206480D01*
X94150974Y-115279472D01*
X94830000Y-114600446D01*
X94830000Y-114606661D01*
G37*
%TD.AperFunction*%
%TA.AperFunction,Conductor*%
G36*
X115839677Y-69107685D02*
G01*
X115860319Y-69124319D01*
X116295681Y-69559681D01*
X116329166Y-69621004D01*
X116332000Y-69647362D01*
X116332000Y-75386638D01*
X116312315Y-75453677D01*
X116295681Y-75474319D01*
X116035681Y-75734319D01*
X115974358Y-75767804D01*
X115904666Y-75762820D01*
X115848733Y-75720948D01*
X115840482Y-75698827D01*
X115823999Y-75691999D01*
X115606319Y-75909681D01*
X115544996Y-75943166D01*
X115518638Y-75946000D01*
X113029999Y-75946000D01*
X112268000Y-76707999D01*
X112268000Y-76708000D01*
X112268000Y-114046000D01*
X112776000Y-114554000D01*
X115772638Y-114554000D01*
X115839677Y-114573685D01*
X115860319Y-114590319D01*
X116295681Y-115025681D01*
X116329166Y-115087004D01*
X116332000Y-115113362D01*
X116332000Y-120852638D01*
X116312315Y-120919677D01*
X116295681Y-120940319D01*
X115860319Y-121375681D01*
X115798996Y-121409166D01*
X115772638Y-121412000D01*
X86411362Y-121412000D01*
X86344323Y-121392315D01*
X86323681Y-121375681D01*
X85888319Y-120940319D01*
X85854834Y-120878996D01*
X85852000Y-120852638D01*
X85852000Y-119336000D01*
X86976000Y-119336000D01*
X86976000Y-120288000D01*
X87602000Y-120288000D01*
X87602000Y-119336000D01*
X88600000Y-119336000D01*
X88600000Y-120288000D01*
X90102000Y-120288000D01*
X90102000Y-119336000D01*
X88600000Y-119336000D01*
X87602000Y-119336000D01*
X86976000Y-119336000D01*
X85852000Y-119336000D01*
X85852000Y-116836000D01*
X86976000Y-116836000D01*
X86976000Y-118338000D01*
X87602000Y-118338000D01*
X87602000Y-117282731D01*
X88600000Y-117282731D01*
X88600000Y-118338000D01*
X89568301Y-118338000D01*
X89401316Y-118248745D01*
X89396022Y-118245746D01*
X89364445Y-118226820D01*
X89359304Y-118223565D01*
X89318554Y-118196338D01*
X89313576Y-118192832D01*
X89283993Y-118170892D01*
X89279194Y-118167147D01*
X89096576Y-118017276D01*
X89091967Y-118013301D01*
X89064684Y-117988573D01*
X89060277Y-117984376D01*
X89025624Y-117949723D01*
X89021427Y-117945316D01*
X88996699Y-117918033D01*
X88992724Y-117913424D01*
X88842853Y-117730806D01*
X88839108Y-117726007D01*
X88817168Y-117696424D01*
X88813662Y-117691446D01*
X88786435Y-117650696D01*
X88783180Y-117645555D01*
X88764254Y-117613978D01*
X88761255Y-117608684D01*
X88649893Y-117400339D01*
X88647156Y-117394902D01*
X88631408Y-117361605D01*
X88628941Y-117356038D01*
X88610189Y-117310763D01*
X88607999Y-117305088D01*
X88600000Y-117282731D01*
X87602000Y-117282731D01*
X87602000Y-116836000D01*
X86976000Y-116836000D01*
X85852000Y-116836000D01*
X85852000Y-116586000D01*
X89468901Y-116586000D01*
X89487252Y-116772331D01*
X89487253Y-116772333D01*
X89541604Y-116951502D01*
X89629862Y-117116623D01*
X89629864Y-117116626D01*
X89748642Y-117261357D01*
X89893373Y-117380135D01*
X89893376Y-117380137D01*
X89958313Y-117414846D01*
X90058499Y-117468396D01*
X90206474Y-117513284D01*
X90237666Y-117522746D01*
X90237668Y-117522747D01*
X90254374Y-117524392D01*
X90424000Y-117541099D01*
X90610331Y-117522747D01*
X90789501Y-117468396D01*
X90954625Y-117380136D01*
X91064886Y-117289647D01*
X91129196Y-117262334D01*
X91143551Y-117261500D01*
X95187837Y-117261500D01*
X95254876Y-117281185D01*
X95275518Y-117297819D01*
X96049581Y-118071882D01*
X96083066Y-118133205D01*
X96078082Y-118202897D01*
X96036210Y-118258830D01*
X95972708Y-118283091D01*
X95791596Y-118298936D01*
X95791586Y-118298938D01*
X95563344Y-118360094D01*
X95563335Y-118360098D01*
X95349171Y-118459964D01*
X95349169Y-118459965D01*
X95155600Y-118595503D01*
X95033673Y-118717430D01*
X94972350Y-118750914D01*
X94902658Y-118745930D01*
X94846725Y-118704058D01*
X94829810Y-118673081D01*
X94780797Y-118541671D01*
X94780793Y-118541664D01*
X94694547Y-118426455D01*
X94694544Y-118426452D01*
X94579335Y-118340206D01*
X94579328Y-118340202D01*
X94444482Y-118289908D01*
X94444483Y-118289908D01*
X94384883Y-118283501D01*
X94384881Y-118283500D01*
X94384873Y-118283500D01*
X94384864Y-118283500D01*
X92589129Y-118283500D01*
X92589123Y-118283501D01*
X92529516Y-118289908D01*
X92394671Y-118340202D01*
X92394664Y-118340206D01*
X92279455Y-118426452D01*
X92279452Y-118426455D01*
X92193206Y-118541664D01*
X92193202Y-118541671D01*
X92142908Y-118676517D01*
X92136501Y-118736116D01*
X92136500Y-118736135D01*
X92136500Y-120531870D01*
X92136501Y-120531876D01*
X92142908Y-120591483D01*
X92193202Y-120726328D01*
X92193206Y-120726335D01*
X92279452Y-120841544D01*
X92279455Y-120841547D01*
X92394664Y-120927793D01*
X92394671Y-120927797D01*
X92529517Y-120978091D01*
X92529516Y-120978091D01*
X92536444Y-120978835D01*
X92589127Y-120984500D01*
X94384872Y-120984499D01*
X94444483Y-120978091D01*
X94579331Y-120927796D01*
X94694546Y-120841546D01*
X94780796Y-120726331D01*
X94829810Y-120594916D01*
X94871681Y-120538984D01*
X94937145Y-120514566D01*
X95005418Y-120529417D01*
X95033673Y-120550569D01*
X95155599Y-120672495D01*
X95252384Y-120740265D01*
X95349165Y-120808032D01*
X95349167Y-120808033D01*
X95349170Y-120808035D01*
X95563337Y-120907903D01*
X95791592Y-120969063D01*
X95968034Y-120984500D01*
X96026999Y-120989659D01*
X96027000Y-120989659D01*
X96027001Y-120989659D01*
X96085966Y-120984500D01*
X96262408Y-120969063D01*
X96490663Y-120907903D01*
X96704830Y-120808035D01*
X96898401Y-120672495D01*
X97065495Y-120505401D01*
X97195425Y-120319842D01*
X97250002Y-120276217D01*
X97319500Y-120269023D01*
X97381855Y-120300546D01*
X97398575Y-120319842D01*
X97528500Y-120505395D01*
X97528505Y-120505401D01*
X97695599Y-120672495D01*
X97792384Y-120740265D01*
X97889165Y-120808032D01*
X97889167Y-120808033D01*
X97889170Y-120808035D01*
X98103337Y-120907903D01*
X98331592Y-120969063D01*
X98508034Y-120984500D01*
X98566999Y-120989659D01*
X98567000Y-120989659D01*
X98567001Y-120989659D01*
X98625966Y-120984500D01*
X98802408Y-120969063D01*
X99030663Y-120907903D01*
X99244830Y-120808035D01*
X99438401Y-120672495D01*
X99605495Y-120505401D01*
X99741035Y-120311830D01*
X99840903Y-120097663D01*
X99902063Y-119869408D01*
X99922659Y-119634000D01*
X99902063Y-119398592D01*
X99885292Y-119336000D01*
X101100000Y-119336000D01*
X101100000Y-120288000D01*
X102602000Y-120288000D01*
X106100000Y-120288000D01*
X107602000Y-120288000D01*
X107602000Y-120287224D01*
X107582095Y-120285623D01*
X107578783Y-120285311D01*
X107474931Y-120274145D01*
X107467262Y-120273078D01*
X107421084Y-120265172D01*
X107413499Y-120263628D01*
X107352788Y-120249285D01*
X107345305Y-120247268D01*
X107300436Y-120233658D01*
X107293096Y-120231179D01*
X107095739Y-120157570D01*
X107087559Y-120154181D01*
X107038823Y-120131923D01*
X107030909Y-120127962D01*
X106968319Y-120093785D01*
X106960705Y-120089267D01*
X106915638Y-120060303D01*
X106908368Y-120055255D01*
X106736184Y-119926357D01*
X106729293Y-119920804D01*
X106688808Y-119885724D01*
X106682329Y-119879692D01*
X106631908Y-119829271D01*
X106625876Y-119822792D01*
X106590796Y-119782307D01*
X106585243Y-119775416D01*
X106456345Y-119603232D01*
X106451297Y-119595962D01*
X106422333Y-119550895D01*
X106417815Y-119543281D01*
X106384134Y-119481600D01*
X112944341Y-119481600D01*
X112964936Y-119717003D01*
X112964938Y-119717013D01*
X113026094Y-119945255D01*
X113026096Y-119945259D01*
X113026097Y-119945263D01*
X113097163Y-120097664D01*
X113125965Y-120159430D01*
X113125967Y-120159434D01*
X113214108Y-120285311D01*
X113261505Y-120353001D01*
X113428599Y-120520095D01*
X113525384Y-120587865D01*
X113622165Y-120655632D01*
X113622167Y-120655633D01*
X113622170Y-120655635D01*
X113836337Y-120755503D01*
X114064592Y-120816663D01*
X114252918Y-120833139D01*
X114299999Y-120837259D01*
X114300000Y-120837259D01*
X114300001Y-120837259D01*
X114339234Y-120833826D01*
X114535408Y-120816663D01*
X114763663Y-120755503D01*
X114977830Y-120655635D01*
X115171401Y-120520095D01*
X115338495Y-120353001D01*
X115474035Y-120159430D01*
X115573903Y-119945263D01*
X115635063Y-119717008D01*
X115655659Y-119481600D01*
X115655579Y-119480691D01*
X115642920Y-119336000D01*
X115635063Y-119246192D01*
X115573903Y-119017937D01*
X115474035Y-118803771D01*
X115445206Y-118762599D01*
X115338496Y-118610200D01*
X115323797Y-118595501D01*
X115216179Y-118487883D01*
X115182696Y-118426563D01*
X115187680Y-118356871D01*
X115229551Y-118300937D01*
X115260529Y-118284022D01*
X115392086Y-118234954D01*
X115392093Y-118234950D01*
X115507187Y-118148790D01*
X115507190Y-118148787D01*
X115593350Y-118033693D01*
X115593354Y-118033686D01*
X115643596Y-117898979D01*
X115643598Y-117898972D01*
X115649999Y-117839444D01*
X115650000Y-117839427D01*
X115650000Y-117191600D01*
X114733012Y-117191600D01*
X114765925Y-117134593D01*
X114800000Y-117007426D01*
X114800000Y-116875774D01*
X114765925Y-116748607D01*
X114733012Y-116691600D01*
X115650000Y-116691600D01*
X115650000Y-116043772D01*
X115649999Y-116043755D01*
X115643598Y-115984227D01*
X115643596Y-115984220D01*
X115593354Y-115849513D01*
X115593350Y-115849506D01*
X115507190Y-115734412D01*
X115507187Y-115734409D01*
X115392093Y-115648249D01*
X115392086Y-115648245D01*
X115257379Y-115598003D01*
X115257372Y-115598001D01*
X115197844Y-115591600D01*
X114550000Y-115591600D01*
X114550000Y-116508588D01*
X114492993Y-116475675D01*
X114365826Y-116441600D01*
X114234174Y-116441600D01*
X114107007Y-116475675D01*
X114050000Y-116508588D01*
X114050000Y-115591600D01*
X113402155Y-115591600D01*
X113342627Y-115598001D01*
X113342620Y-115598003D01*
X113207913Y-115648245D01*
X113207906Y-115648249D01*
X113092812Y-115734409D01*
X113092809Y-115734412D01*
X113006649Y-115849506D01*
X113006645Y-115849513D01*
X112956403Y-115984220D01*
X112956401Y-115984227D01*
X112950000Y-116043755D01*
X112950000Y-116691600D01*
X113866988Y-116691600D01*
X113834075Y-116748607D01*
X113800000Y-116875774D01*
X113800000Y-117007426D01*
X113834075Y-117134593D01*
X113866988Y-117191600D01*
X112950000Y-117191600D01*
X112950000Y-117839444D01*
X112956401Y-117898972D01*
X112956403Y-117898979D01*
X113006645Y-118033686D01*
X113006649Y-118033693D01*
X113092809Y-118148787D01*
X113092812Y-118148790D01*
X113207906Y-118234950D01*
X113207913Y-118234954D01*
X113339470Y-118284021D01*
X113395403Y-118325892D01*
X113419821Y-118391356D01*
X113404970Y-118459629D01*
X113383819Y-118487884D01*
X113261503Y-118610200D01*
X113125965Y-118803769D01*
X113125964Y-118803771D01*
X113026098Y-119017935D01*
X113026094Y-119017944D01*
X112964938Y-119246186D01*
X112964936Y-119246196D01*
X112944341Y-119481599D01*
X112944341Y-119481600D01*
X106384134Y-119481600D01*
X106383638Y-119480691D01*
X106379677Y-119472777D01*
X106357419Y-119424041D01*
X106354030Y-119415861D01*
X106327469Y-119344649D01*
X106146484Y-119525635D01*
X106143299Y-119528708D01*
X106123692Y-119546963D01*
X106120395Y-119549925D01*
X106100000Y-119567596D01*
X106100000Y-120288000D01*
X102602000Y-120288000D01*
X102602000Y-119868185D01*
X102561747Y-119846206D01*
X102557898Y-119844014D01*
X102534853Y-119830340D01*
X102531083Y-119828011D01*
X102501107Y-119808744D01*
X102497430Y-119806287D01*
X102475450Y-119791025D01*
X102471863Y-119788438D01*
X102214268Y-119595605D01*
X102210776Y-119592893D01*
X102189934Y-119576099D01*
X102186537Y-119573260D01*
X102159605Y-119549925D01*
X102156308Y-119546963D01*
X102136701Y-119528708D01*
X102133516Y-119525635D01*
X101943881Y-119336000D01*
X101100000Y-119336000D01*
X99885292Y-119336000D01*
X99840903Y-119170337D01*
X99741035Y-118956171D01*
X99659303Y-118839444D01*
X99605494Y-118762597D01*
X99438402Y-118595506D01*
X99438395Y-118595501D01*
X99244834Y-118459967D01*
X99244830Y-118459965D01*
X99173199Y-118426563D01*
X99030663Y-118360097D01*
X99030659Y-118360096D01*
X99030655Y-118360094D01*
X98802413Y-118298938D01*
X98802403Y-118298936D01*
X98567001Y-118278341D01*
X98566999Y-118278341D01*
X98331596Y-118298936D01*
X98331583Y-118298939D01*
X98286893Y-118310913D01*
X98217043Y-118309249D01*
X98167120Y-118278819D01*
X96724302Y-116836000D01*
X98600000Y-116836000D01*
X98600000Y-117280712D01*
X98626890Y-117281887D01*
X98632287Y-117282241D01*
X98911084Y-117306633D01*
X98916461Y-117307222D01*
X98948904Y-117311493D01*
X98954251Y-117312316D01*
X98997146Y-117319879D01*
X99002454Y-117320934D01*
X99034412Y-117328019D01*
X99039666Y-117329305D01*
X99310008Y-117401741D01*
X99315205Y-117403256D01*
X99346440Y-117413105D01*
X99351568Y-117414846D01*
X99392500Y-117429747D01*
X99397535Y-117431705D01*
X99427756Y-117444223D01*
X99432708Y-117446402D01*
X99686337Y-117564672D01*
X99691188Y-117567064D01*
X99720209Y-117582171D01*
X99724949Y-117584771D01*
X99762673Y-117606549D01*
X99767302Y-117609358D01*
X99794916Y-117626950D01*
X99799415Y-117629956D01*
X100028678Y-117790488D01*
X100033042Y-117793689D01*
X100059022Y-117813625D01*
X100063243Y-117817012D01*
X100096610Y-117845012D01*
X100100678Y-117848580D01*
X100102000Y-117849791D01*
X100102000Y-117291601D01*
X102134390Y-117291601D01*
X102154804Y-117577033D01*
X102215628Y-117856637D01*
X102215630Y-117856643D01*
X102215631Y-117856646D01*
X102288345Y-118051600D01*
X102315635Y-118124766D01*
X102452770Y-118375909D01*
X102452775Y-118375917D01*
X102624254Y-118604987D01*
X102624270Y-118605005D01*
X102826594Y-118807329D01*
X102826612Y-118807345D01*
X103055682Y-118978824D01*
X103055690Y-118978829D01*
X103306833Y-119115964D01*
X103306832Y-119115964D01*
X103306836Y-119115965D01*
X103306839Y-119115967D01*
X103574954Y-119215969D01*
X103574960Y-119215970D01*
X103574962Y-119215971D01*
X103854566Y-119276795D01*
X103854568Y-119276795D01*
X103854572Y-119276796D01*
X104108220Y-119294937D01*
X104139999Y-119297210D01*
X104140000Y-119297210D01*
X104140001Y-119297210D01*
X104168595Y-119295164D01*
X104425428Y-119276796D01*
X104566095Y-119246196D01*
X104705037Y-119215971D01*
X104705037Y-119215970D01*
X104705046Y-119215969D01*
X104973161Y-119115967D01*
X105224315Y-118978826D01*
X105410508Y-118839444D01*
X107220000Y-118839444D01*
X107226401Y-118898972D01*
X107226403Y-118898979D01*
X107276645Y-119033686D01*
X107276649Y-119033693D01*
X107362809Y-119148787D01*
X107362812Y-119148790D01*
X107477906Y-119234950D01*
X107477913Y-119234954D01*
X107612620Y-119285196D01*
X107612627Y-119285198D01*
X107672155Y-119291599D01*
X107672172Y-119291600D01*
X108970000Y-119291600D01*
X108970000Y-118010664D01*
X108998316Y-118022393D01*
X109145147Y-118051600D01*
X109294853Y-118051600D01*
X109441684Y-118022393D01*
X109470000Y-118010664D01*
X109470000Y-119291600D01*
X110767828Y-119291600D01*
X110767844Y-119291599D01*
X110827372Y-119285198D01*
X110827379Y-119285196D01*
X110962086Y-119234954D01*
X110962093Y-119234950D01*
X111077187Y-119148790D01*
X111077190Y-119148787D01*
X111163350Y-119033693D01*
X111163354Y-119033686D01*
X111213596Y-118898979D01*
X111213598Y-118898972D01*
X111219999Y-118839444D01*
X111220000Y-118839427D01*
X111220000Y-117541600D01*
X109939064Y-117541600D01*
X109950793Y-117513284D01*
X109980000Y-117366453D01*
X109980000Y-117216747D01*
X109950793Y-117069916D01*
X109939064Y-117041600D01*
X111220000Y-117041600D01*
X111220000Y-115743772D01*
X111219999Y-115743755D01*
X111213598Y-115684227D01*
X111213596Y-115684220D01*
X111163354Y-115549513D01*
X111163350Y-115549506D01*
X111077190Y-115434412D01*
X111077187Y-115434409D01*
X110962093Y-115348249D01*
X110962086Y-115348245D01*
X110827379Y-115298003D01*
X110827372Y-115298001D01*
X110767844Y-115291600D01*
X109470000Y-115291600D01*
X109470000Y-116572535D01*
X109441684Y-116560807D01*
X109294853Y-116531600D01*
X109145147Y-116531600D01*
X108998316Y-116560807D01*
X108970000Y-116572535D01*
X108970000Y-115291600D01*
X107672155Y-115291600D01*
X107612627Y-115298001D01*
X107612620Y-115298003D01*
X107477913Y-115348245D01*
X107477906Y-115348249D01*
X107362812Y-115434409D01*
X107362809Y-115434412D01*
X107276649Y-115549506D01*
X107276645Y-115549513D01*
X107226403Y-115684220D01*
X107226401Y-115684227D01*
X107220000Y-115743755D01*
X107220000Y-117041600D01*
X108500936Y-117041600D01*
X108489207Y-117069916D01*
X108460000Y-117216747D01*
X108460000Y-117366453D01*
X108489207Y-117513284D01*
X108500936Y-117541600D01*
X107220000Y-117541600D01*
X107220000Y-118839444D01*
X105410508Y-118839444D01*
X105453395Y-118807339D01*
X105655739Y-118604995D01*
X105827226Y-118375915D01*
X105964367Y-118124761D01*
X106064369Y-117856646D01*
X106125196Y-117577028D01*
X106145610Y-117291600D01*
X106125196Y-117006172D01*
X106113303Y-116951502D01*
X106064371Y-116726562D01*
X106064370Y-116726560D01*
X106064369Y-116726554D01*
X105964367Y-116458439D01*
X105932275Y-116399668D01*
X105827229Y-116207290D01*
X105827224Y-116207282D01*
X105655745Y-115978212D01*
X105655729Y-115978194D01*
X105453405Y-115775870D01*
X105453387Y-115775854D01*
X105224317Y-115604375D01*
X105224309Y-115604370D01*
X104973166Y-115467235D01*
X104973167Y-115467235D01*
X104774513Y-115393141D01*
X104705046Y-115367231D01*
X104705043Y-115367230D01*
X104705037Y-115367228D01*
X104425433Y-115306404D01*
X104140001Y-115285990D01*
X104139999Y-115285990D01*
X103854566Y-115306404D01*
X103574962Y-115367228D01*
X103306833Y-115467235D01*
X103055690Y-115604370D01*
X103055682Y-115604375D01*
X102826612Y-115775854D01*
X102826594Y-115775870D01*
X102624270Y-115978194D01*
X102624254Y-115978212D01*
X102452775Y-116207282D01*
X102452770Y-116207290D01*
X102315635Y-116458433D01*
X102215628Y-116726562D01*
X102154804Y-117006166D01*
X102134390Y-117291598D01*
X102134390Y-117291601D01*
X100102000Y-117291601D01*
X100102000Y-116836000D01*
X98600000Y-116836000D01*
X96724302Y-116836000D01*
X95949609Y-116061307D01*
X95949605Y-116061304D01*
X95838975Y-115987383D01*
X95838970Y-115987381D01*
X95838969Y-115987380D01*
X95810083Y-115975415D01*
X95777978Y-115962116D01*
X95723575Y-115918274D01*
X95701511Y-115851979D01*
X95718791Y-115784280D01*
X95769929Y-115736670D01*
X95773028Y-115735172D01*
X95882482Y-115684133D01*
X95955471Y-115633024D01*
X95276447Y-114954000D01*
X95282661Y-114954000D01*
X95384394Y-114926741D01*
X95475606Y-114874080D01*
X95550080Y-114799606D01*
X95602741Y-114708394D01*
X95630000Y-114606661D01*
X95630000Y-114600447D01*
X96309024Y-115279471D01*
X96360136Y-115206478D01*
X96456264Y-115000331D01*
X96456269Y-115000317D01*
X96515139Y-114780610D01*
X96515141Y-114780599D01*
X96534966Y-114554000D01*
X96534966Y-114553997D01*
X96515893Y-114336000D01*
X98600000Y-114336000D01*
X98600000Y-115838000D01*
X100102000Y-115838000D01*
X100102000Y-114336000D01*
X101100000Y-114336000D01*
X101100000Y-115838000D01*
X101517328Y-115838000D01*
X101585394Y-115713347D01*
X101587586Y-115709498D01*
X101601260Y-115686453D01*
X101603589Y-115682683D01*
X101622856Y-115652707D01*
X101625313Y-115649030D01*
X101640575Y-115627050D01*
X101643162Y-115623463D01*
X101835995Y-115365868D01*
X101838707Y-115362376D01*
X101855501Y-115341534D01*
X101858340Y-115338137D01*
X101881675Y-115311205D01*
X101884637Y-115307908D01*
X101902892Y-115288301D01*
X101905965Y-115285116D01*
X102133516Y-115057565D01*
X102136701Y-115054492D01*
X102156308Y-115036237D01*
X102159605Y-115033275D01*
X102186537Y-115009940D01*
X102189934Y-115007101D01*
X102210776Y-114990307D01*
X102214268Y-114987595D01*
X102471863Y-114794762D01*
X102475450Y-114792175D01*
X102497430Y-114776913D01*
X102501107Y-114774456D01*
X102531083Y-114755189D01*
X102534853Y-114752860D01*
X102557898Y-114739186D01*
X102561747Y-114736994D01*
X102602000Y-114715013D01*
X102602000Y-114336000D01*
X106100000Y-114336000D01*
X106100000Y-115015603D01*
X106120395Y-115033275D01*
X106123692Y-115036237D01*
X106143299Y-115054492D01*
X106146484Y-115057565D01*
X106327469Y-115238550D01*
X106354030Y-115167339D01*
X106357419Y-115159159D01*
X106379677Y-115110423D01*
X106383638Y-115102509D01*
X106417815Y-115039919D01*
X106422333Y-115032305D01*
X106451297Y-114987238D01*
X106456345Y-114979968D01*
X106585243Y-114807784D01*
X106590796Y-114800893D01*
X106625876Y-114760408D01*
X106631908Y-114753929D01*
X106682329Y-114703508D01*
X106688808Y-114697476D01*
X106729293Y-114662396D01*
X106736184Y-114656843D01*
X106908368Y-114527945D01*
X106915638Y-114522897D01*
X106960705Y-114493933D01*
X106968319Y-114489415D01*
X107030909Y-114455238D01*
X107038823Y-114451277D01*
X107087559Y-114429019D01*
X107095739Y-114425630D01*
X107293096Y-114352021D01*
X107300436Y-114349542D01*
X107345081Y-114336000D01*
X106100000Y-114336000D01*
X102602000Y-114336000D01*
X101100000Y-114336000D01*
X100102000Y-114336000D01*
X98600000Y-114336000D01*
X96515893Y-114336000D01*
X96515141Y-114327400D01*
X96515139Y-114327389D01*
X96456269Y-114107682D01*
X96456264Y-114107668D01*
X96360136Y-113901521D01*
X96360132Y-113901513D01*
X96309025Y-113828526D01*
X95630000Y-114507551D01*
X95630000Y-114501339D01*
X95602741Y-114399606D01*
X95550080Y-114308394D01*
X95475606Y-114233920D01*
X95384394Y-114181259D01*
X95282661Y-114154000D01*
X95276448Y-114154000D01*
X95955472Y-113474974D01*
X95882478Y-113423863D01*
X95676331Y-113327735D01*
X95676317Y-113327730D01*
X95456610Y-113268860D01*
X95456599Y-113268858D01*
X95230002Y-113249034D01*
X95229998Y-113249034D01*
X95003400Y-113268858D01*
X95003389Y-113268860D01*
X94783682Y-113327730D01*
X94783673Y-113327734D01*
X94577516Y-113423866D01*
X94577512Y-113423868D01*
X94504526Y-113474973D01*
X94504526Y-113474974D01*
X95183553Y-114154000D01*
X95177339Y-114154000D01*
X95075606Y-114181259D01*
X94984394Y-114233920D01*
X94909920Y-114308394D01*
X94857259Y-114399606D01*
X94830000Y-114501339D01*
X94830000Y-114507552D01*
X94150974Y-113828526D01*
X94150973Y-113828526D01*
X94099868Y-113901512D01*
X94099867Y-113901514D01*
X94092656Y-113916979D01*
X94046482Y-113969417D01*
X93979288Y-113988567D01*
X93912407Y-113968350D01*
X93867893Y-113916976D01*
X93860568Y-113901266D01*
X93730047Y-113714861D01*
X93730045Y-113714858D01*
X93569141Y-113553954D01*
X93382734Y-113423432D01*
X93382732Y-113423431D01*
X93176497Y-113327261D01*
X93176488Y-113327258D01*
X92956697Y-113268366D01*
X92956693Y-113268365D01*
X92956692Y-113268365D01*
X92956691Y-113268364D01*
X92956686Y-113268364D01*
X92730002Y-113248532D01*
X92729998Y-113248532D01*
X92503313Y-113268364D01*
X92503302Y-113268366D01*
X92283511Y-113327258D01*
X92283502Y-113327261D01*
X92077267Y-113423431D01*
X92077265Y-113423432D01*
X91890858Y-113553954D01*
X91729954Y-113714858D01*
X91599432Y-113901265D01*
X91599431Y-113901267D01*
X91503261Y-114107502D01*
X91503258Y-114107511D01*
X91444366Y-114327302D01*
X91444364Y-114327313D01*
X91424532Y-114553998D01*
X91424532Y-114554000D01*
X91444364Y-114780686D01*
X91444366Y-114780697D01*
X91503258Y-115000488D01*
X91503261Y-115000497D01*
X91599431Y-115206732D01*
X91599432Y-115206734D01*
X91729954Y-115393141D01*
X91890858Y-115554045D01*
X91890861Y-115554047D01*
X92026830Y-115649253D01*
X92077776Y-115684925D01*
X92121401Y-115739501D01*
X92128595Y-115809000D01*
X92097073Y-115871355D01*
X92036843Y-115906769D01*
X92006653Y-115910500D01*
X91143551Y-115910500D01*
X91076512Y-115890815D01*
X91064886Y-115882353D01*
X90954626Y-115791864D01*
X90954623Y-115791862D01*
X90789502Y-115703604D01*
X90610333Y-115649253D01*
X90610331Y-115649252D01*
X90424000Y-115630901D01*
X90237668Y-115649252D01*
X90237666Y-115649253D01*
X90058497Y-115703604D01*
X89893376Y-115791862D01*
X89893373Y-115791864D01*
X89748642Y-115910642D01*
X89629864Y-116055373D01*
X89629862Y-116055376D01*
X89541604Y-116220497D01*
X89487253Y-116399666D01*
X89487252Y-116399668D01*
X89468901Y-116586000D01*
X85852000Y-116586000D01*
X85852000Y-114336000D01*
X86976000Y-114336000D01*
X86976000Y-115838000D01*
X87602000Y-115838000D01*
X87602000Y-114336000D01*
X88600000Y-114336000D01*
X88600000Y-115838000D01*
X88619813Y-115838000D01*
X88628941Y-115815962D01*
X88631408Y-115810395D01*
X88647156Y-115777098D01*
X88649893Y-115771661D01*
X88761255Y-115563316D01*
X88764254Y-115558022D01*
X88783180Y-115526445D01*
X88786435Y-115521304D01*
X88813662Y-115480554D01*
X88817168Y-115475576D01*
X88839108Y-115445993D01*
X88842853Y-115441194D01*
X88992724Y-115258576D01*
X88996699Y-115253967D01*
X89021427Y-115226684D01*
X89025624Y-115222277D01*
X89060277Y-115187624D01*
X89064684Y-115183427D01*
X89091967Y-115158699D01*
X89096576Y-115154724D01*
X89279194Y-115004853D01*
X89283993Y-115001108D01*
X89313576Y-114979168D01*
X89318554Y-114975662D01*
X89359304Y-114948435D01*
X89364445Y-114945180D01*
X89396022Y-114926254D01*
X89401316Y-114923255D01*
X89609661Y-114811893D01*
X89615098Y-114809156D01*
X89648395Y-114793408D01*
X89653962Y-114790941D01*
X89699237Y-114772189D01*
X89704912Y-114769999D01*
X89739571Y-114757598D01*
X89745349Y-114755690D01*
X89971408Y-114687115D01*
X89977274Y-114685491D01*
X90012988Y-114676545D01*
X90018926Y-114675212D01*
X90066991Y-114665651D01*
X90072985Y-114664611D01*
X90102000Y-114660306D01*
X90102000Y-114336000D01*
X88600000Y-114336000D01*
X87602000Y-114336000D01*
X86976000Y-114336000D01*
X85852000Y-114336000D01*
X85852000Y-111836000D01*
X86976000Y-111836000D01*
X86976000Y-113338000D01*
X87602000Y-113338000D01*
X87602000Y-112160750D01*
X88600000Y-112160750D01*
X88600000Y-113338000D01*
X90102000Y-113338000D01*
X90102000Y-112663499D01*
X89664252Y-112663500D01*
X89660928Y-112663455D01*
X89640826Y-112662916D01*
X89637506Y-112662783D01*
X89610820Y-112661351D01*
X89607511Y-112661129D01*
X89587518Y-112659519D01*
X89584215Y-112659208D01*
X89480325Y-112648038D01*
X89472657Y-112646971D01*
X89426471Y-112639064D01*
X89418881Y-112637519D01*
X89358170Y-112623174D01*
X89350691Y-112621158D01*
X89305828Y-112607550D01*
X89298488Y-112605071D01*
X89224144Y-112577343D01*
X96411365Y-112577343D01*
X96432579Y-112590858D01*
X96437077Y-112593863D01*
X96711470Y-112785997D01*
X96747733Y-112825572D01*
X96824852Y-112959147D01*
X96958424Y-113036264D01*
X96997999Y-113072527D01*
X97183888Y-113338000D01*
X97602000Y-113338000D01*
X97602000Y-111836000D01*
X98600000Y-111836000D01*
X98600000Y-113338000D01*
X100102000Y-113338000D01*
X100102000Y-111836000D01*
X101100000Y-111836000D01*
X101100000Y-113338000D01*
X102602000Y-113338000D01*
X102602000Y-111836000D01*
X103600000Y-111836000D01*
X103600000Y-113338000D01*
X105102000Y-113338000D01*
X105102000Y-111836000D01*
X106100000Y-111836000D01*
X106100000Y-113338000D01*
X107602000Y-113338000D01*
X107602000Y-111836000D01*
X108600000Y-111836000D01*
X108600000Y-113338000D01*
X110102000Y-113338000D01*
X110102000Y-111836000D01*
X108600000Y-111836000D01*
X107602000Y-111836000D01*
X106100000Y-111836000D01*
X105102000Y-111836000D01*
X103600000Y-111836000D01*
X102602000Y-111836000D01*
X101100000Y-111836000D01*
X100102000Y-111836000D01*
X98600000Y-111836000D01*
X97602000Y-111836000D01*
X97599740Y-111836000D01*
X97589210Y-111847391D01*
X97585836Y-111850900D01*
X97396400Y-112040336D01*
X97392891Y-112043710D01*
X97371263Y-112063703D01*
X97367623Y-112066938D01*
X97337816Y-112092396D01*
X97334053Y-112095484D01*
X97310919Y-112113722D01*
X97307036Y-112116662D01*
X97090291Y-112274137D01*
X97086295Y-112276922D01*
X97061798Y-112293290D01*
X97057697Y-112295915D01*
X97024273Y-112316397D01*
X97020072Y-112318859D01*
X96994376Y-112333249D01*
X96990083Y-112335544D01*
X96751381Y-112457169D01*
X96747002Y-112459293D01*
X96720260Y-112471622D01*
X96715799Y-112473573D01*
X96679583Y-112488575D01*
X96675049Y-112490350D01*
X96647405Y-112500549D01*
X96642802Y-112502145D01*
X96411365Y-112577343D01*
X89224144Y-112577343D01*
X89100998Y-112531413D01*
X89092818Y-112528025D01*
X89044081Y-112505767D01*
X89036167Y-112501805D01*
X88973577Y-112467628D01*
X88965963Y-112463110D01*
X88920896Y-112434146D01*
X88913626Y-112429098D01*
X88741327Y-112300114D01*
X88734436Y-112294561D01*
X88693951Y-112259481D01*
X88687472Y-112253449D01*
X88637051Y-112203028D01*
X88631019Y-112196549D01*
X88600000Y-112160750D01*
X87602000Y-112160750D01*
X87602000Y-111836000D01*
X86976000Y-111836000D01*
X85852000Y-111836000D01*
X85852000Y-111212870D01*
X89225000Y-111212870D01*
X89225001Y-111212876D01*
X89231408Y-111272483D01*
X89281702Y-111407328D01*
X89281706Y-111407335D01*
X89367952Y-111522544D01*
X89367955Y-111522547D01*
X89483164Y-111608793D01*
X89483171Y-111608797D01*
X89618017Y-111659091D01*
X89618016Y-111659091D01*
X89624944Y-111659835D01*
X89677627Y-111665500D01*
X91678372Y-111665499D01*
X91737983Y-111659091D01*
X91872831Y-111608796D01*
X91988046Y-111522546D01*
X92074296Y-111407331D01*
X92084690Y-111379460D01*
X92126560Y-111323527D01*
X92192023Y-111299108D01*
X92260297Y-111313958D01*
X92273746Y-111322465D01*
X92456462Y-111455217D01*
X92588599Y-111522544D01*
X92660244Y-111559049D01*
X92877751Y-111629721D01*
X92877752Y-111629721D01*
X92877755Y-111629722D01*
X93103646Y-111665500D01*
X93103647Y-111665500D01*
X93332353Y-111665500D01*
X93332354Y-111665500D01*
X93558245Y-111629722D01*
X93558248Y-111629721D01*
X93558249Y-111629721D01*
X93775755Y-111559049D01*
X93775755Y-111559048D01*
X93775758Y-111559048D01*
X93979538Y-111455217D01*
X94164566Y-111320786D01*
X94326286Y-111159066D01*
X94387683Y-111074559D01*
X94443012Y-111031896D01*
X94512625Y-111025917D01*
X94574420Y-111058523D01*
X94588314Y-111074556D01*
X94649714Y-111159066D01*
X94811434Y-111320786D01*
X94996462Y-111455217D01*
X95128599Y-111522544D01*
X95200244Y-111559049D01*
X95417751Y-111629721D01*
X95417752Y-111629721D01*
X95417755Y-111629722D01*
X95643646Y-111665500D01*
X95643647Y-111665500D01*
X95872353Y-111665500D01*
X95872354Y-111665500D01*
X96098245Y-111629722D01*
X96098248Y-111629721D01*
X96098249Y-111629721D01*
X96315755Y-111559049D01*
X96315755Y-111559048D01*
X96315758Y-111559048D01*
X96519538Y-111455217D01*
X96704566Y-111320786D01*
X96866286Y-111159066D01*
X97000717Y-110974038D01*
X97104548Y-110770258D01*
X97175222Y-110552745D01*
X97211000Y-110326854D01*
X97211000Y-110003146D01*
X97175222Y-109777255D01*
X97175221Y-109777251D01*
X97175221Y-109777250D01*
X97104549Y-109559744D01*
X97104548Y-109559742D01*
X97000717Y-109355962D01*
X96986214Y-109336000D01*
X98600000Y-109336000D01*
X98600000Y-110838000D01*
X100102000Y-110838000D01*
X103600000Y-110838000D01*
X105102000Y-110838000D01*
X105102000Y-109336000D01*
X106100000Y-109336000D01*
X106100000Y-110838000D01*
X107602000Y-110838000D01*
X107602000Y-109336000D01*
X106100000Y-109336000D01*
X105102000Y-109336000D01*
X104469696Y-109336000D01*
X104439355Y-109442638D01*
X104437660Y-109448109D01*
X104426647Y-109480968D01*
X104424701Y-109486357D01*
X104408039Y-109529366D01*
X104405848Y-109534657D01*
X104391849Y-109566363D01*
X104389414Y-109571550D01*
X104269725Y-109811917D01*
X104267055Y-109816982D01*
X104250191Y-109847260D01*
X104247287Y-109852202D01*
X104223003Y-109891421D01*
X104219875Y-109896222D01*
X104200283Y-109924821D01*
X104196937Y-109929470D01*
X104035158Y-110143688D01*
X103995287Y-110177980D01*
X103883987Y-110238295D01*
X103777181Y-110406427D01*
X103737792Y-110445364D01*
X103600000Y-110530682D01*
X103600000Y-110838000D01*
X100102000Y-110838000D01*
X100102000Y-109718880D01*
X101708672Y-109718880D01*
X101824821Y-109790797D01*
X101824822Y-109790798D01*
X102032195Y-109871134D01*
X102250807Y-109912000D01*
X102473193Y-109912000D01*
X102691809Y-109871133D01*
X102899168Y-109790801D01*
X102899181Y-109790795D01*
X103015326Y-109718879D01*
X102362001Y-109065553D01*
X102362000Y-109065553D01*
X101708672Y-109718879D01*
X101708672Y-109718880D01*
X100102000Y-109718880D01*
X100102000Y-109336000D01*
X98600000Y-109336000D01*
X96986214Y-109336000D01*
X96866286Y-109170934D01*
X96704566Y-109009214D01*
X96519538Y-108874783D01*
X96465197Y-108847095D01*
X96315755Y-108770950D01*
X96134325Y-108712000D01*
X101156859Y-108712000D01*
X101177378Y-108933439D01*
X101238240Y-109147350D01*
X101337369Y-109346428D01*
X101353137Y-109367308D01*
X101353138Y-109367308D01*
X101962369Y-108758078D01*
X102012000Y-108758078D01*
X102035852Y-108847095D01*
X102081930Y-108926905D01*
X102147095Y-108992070D01*
X102226905Y-109038148D01*
X102315922Y-109062000D01*
X102408078Y-109062000D01*
X102497095Y-109038148D01*
X102576905Y-108992070D01*
X102642070Y-108926905D01*
X102688148Y-108847095D01*
X102712000Y-108758078D01*
X102712000Y-108712000D01*
X102715553Y-108712000D01*
X103370861Y-109367308D01*
X103386631Y-109346425D01*
X103386633Y-109346422D01*
X103485759Y-109147350D01*
X103546621Y-108933439D01*
X103567141Y-108712000D01*
X108776357Y-108712000D01*
X108796884Y-108933535D01*
X108796885Y-108933537D01*
X108857769Y-109147523D01*
X108857775Y-109147538D01*
X108956938Y-109346683D01*
X108956943Y-109346691D01*
X109091020Y-109524238D01*
X109255437Y-109674123D01*
X109255439Y-109674125D01*
X109444595Y-109791245D01*
X109444596Y-109791245D01*
X109444599Y-109791247D01*
X109652060Y-109871618D01*
X109870757Y-109912500D01*
X109870759Y-109912500D01*
X110093241Y-109912500D01*
X110093243Y-109912500D01*
X110311940Y-109871618D01*
X110519401Y-109791247D01*
X110708562Y-109674124D01*
X110872981Y-109524236D01*
X111007058Y-109346689D01*
X111106229Y-109147528D01*
X111167115Y-108933536D01*
X111187643Y-108712000D01*
X111181417Y-108644815D01*
X111167115Y-108490464D01*
X111167114Y-108490462D01*
X111150460Y-108431930D01*
X111106229Y-108276472D01*
X111106224Y-108276461D01*
X111007061Y-108077316D01*
X111007056Y-108077308D01*
X110872979Y-107899761D01*
X110708562Y-107749876D01*
X110708560Y-107749874D01*
X110519404Y-107632754D01*
X110519398Y-107632752D01*
X110311940Y-107552382D01*
X110093243Y-107511500D01*
X109870757Y-107511500D01*
X109652060Y-107552382D01*
X109522717Y-107602490D01*
X109444601Y-107632752D01*
X109444595Y-107632754D01*
X109255439Y-107749874D01*
X109255437Y-107749876D01*
X109091020Y-107899761D01*
X108956943Y-108077308D01*
X108956938Y-108077316D01*
X108857775Y-108276461D01*
X108857769Y-108276476D01*
X108796885Y-108490462D01*
X108796884Y-108490464D01*
X108776357Y-108711999D01*
X108776357Y-108712000D01*
X103567141Y-108712000D01*
X103567141Y-108711999D01*
X103546621Y-108490560D01*
X103485759Y-108276649D01*
X103386635Y-108077580D01*
X103386630Y-108077572D01*
X103370860Y-108056690D01*
X102715553Y-108711999D01*
X102715553Y-108712000D01*
X102712000Y-108712000D01*
X102712000Y-108665922D01*
X102688148Y-108576905D01*
X102642070Y-108497095D01*
X102576905Y-108431930D01*
X102497095Y-108385852D01*
X102408078Y-108362000D01*
X102315922Y-108362000D01*
X102226905Y-108385852D01*
X102147095Y-108431930D01*
X102081930Y-108497095D01*
X102035852Y-108576905D01*
X102012000Y-108665922D01*
X102012000Y-108758078D01*
X101962369Y-108758078D01*
X102008447Y-108712000D01*
X101353138Y-108056691D01*
X101353137Y-108056691D01*
X101337368Y-108077574D01*
X101238240Y-108276649D01*
X101177378Y-108490560D01*
X101156859Y-108711999D01*
X101156859Y-108712000D01*
X96134325Y-108712000D01*
X96098248Y-108700278D01*
X95912812Y-108670908D01*
X95872354Y-108664500D01*
X95643646Y-108664500D01*
X95603188Y-108670908D01*
X95417753Y-108700278D01*
X95417750Y-108700278D01*
X95200244Y-108770950D01*
X94996461Y-108874783D01*
X94915594Y-108933537D01*
X94811434Y-109009214D01*
X94811432Y-109009216D01*
X94811431Y-109009216D01*
X94649715Y-109170932D01*
X94588318Y-109255438D01*
X94532987Y-109298103D01*
X94463374Y-109304082D01*
X94401579Y-109271476D01*
X94387682Y-109255438D01*
X94376773Y-109240423D01*
X94326286Y-109170934D01*
X94164566Y-109009214D01*
X93979538Y-108874783D01*
X93925197Y-108847095D01*
X93775755Y-108770950D01*
X93558248Y-108700278D01*
X93372812Y-108670908D01*
X93332354Y-108664500D01*
X93103646Y-108664500D01*
X93063188Y-108670908D01*
X92877753Y-108700278D01*
X92877750Y-108700278D01*
X92660244Y-108770950D01*
X92456461Y-108874783D01*
X92273759Y-109007525D01*
X92207952Y-109031005D01*
X92139898Y-109015180D01*
X92091203Y-108965074D01*
X92084690Y-108950538D01*
X92074296Y-108922669D01*
X92074293Y-108922664D01*
X91988047Y-108807455D01*
X91988044Y-108807452D01*
X91872835Y-108721206D01*
X91872828Y-108721202D01*
X91737982Y-108670908D01*
X91737983Y-108670908D01*
X91678383Y-108664501D01*
X91678381Y-108664500D01*
X91678373Y-108664500D01*
X91678365Y-108664500D01*
X91427500Y-108664500D01*
X91360461Y-108644815D01*
X91314706Y-108592011D01*
X91303500Y-108540500D01*
X91303500Y-108260452D01*
X91323185Y-108193413D01*
X91339819Y-108172771D01*
X91816139Y-107696451D01*
X93600000Y-107696451D01*
X93733712Y-107717630D01*
X93738500Y-107718485D01*
X93767363Y-107724225D01*
X93772114Y-107725267D01*
X93810232Y-107734415D01*
X93814949Y-107735645D01*
X93843326Y-107743647D01*
X93847990Y-107745062D01*
X94102802Y-107827855D01*
X94107405Y-107829451D01*
X94135049Y-107839650D01*
X94139583Y-107841425D01*
X94175799Y-107856427D01*
X94180260Y-107858378D01*
X94207002Y-107870707D01*
X94211381Y-107872831D01*
X94450083Y-107994456D01*
X94454376Y-107996751D01*
X94480072Y-108011141D01*
X94484273Y-108013603D01*
X94488000Y-108015886D01*
X94491727Y-108013603D01*
X94495928Y-108011141D01*
X94521624Y-107996751D01*
X94525917Y-107994456D01*
X94764619Y-107872831D01*
X94768998Y-107870707D01*
X94795740Y-107858378D01*
X94800201Y-107856427D01*
X94836417Y-107841425D01*
X94840951Y-107839650D01*
X94868595Y-107829451D01*
X94873198Y-107827855D01*
X95102000Y-107753513D01*
X95102000Y-107287500D01*
X96100000Y-107287500D01*
X96100000Y-107690116D01*
X96273712Y-107717630D01*
X96278500Y-107718485D01*
X96307363Y-107724225D01*
X96312114Y-107725267D01*
X96350232Y-107734415D01*
X96354949Y-107735645D01*
X96383326Y-107743647D01*
X96387990Y-107745062D01*
X96642802Y-107827855D01*
X96647405Y-107829451D01*
X96675049Y-107839650D01*
X96679583Y-107841425D01*
X96715799Y-107856427D01*
X96720260Y-107858378D01*
X96747002Y-107870707D01*
X96751381Y-107872831D01*
X96990083Y-107994456D01*
X96994376Y-107996751D01*
X97020072Y-108011141D01*
X97024273Y-108013603D01*
X97057697Y-108034085D01*
X97061798Y-108036710D01*
X97086295Y-108053078D01*
X97090291Y-108055863D01*
X97307036Y-108213338D01*
X97310919Y-108216278D01*
X97334053Y-108234516D01*
X97337816Y-108237604D01*
X97367623Y-108263062D01*
X97371263Y-108266297D01*
X97392891Y-108286290D01*
X97396400Y-108289664D01*
X97444736Y-108338000D01*
X97602000Y-108338000D01*
X97602000Y-107287500D01*
X98600000Y-107287500D01*
X98600000Y-108338000D01*
X100102000Y-108338000D01*
X100102000Y-107705119D01*
X101708671Y-107705119D01*
X102362000Y-108358447D01*
X102362001Y-108358447D01*
X103015327Y-107705119D01*
X102899178Y-107633202D01*
X102899177Y-107633201D01*
X102691804Y-107552865D01*
X102473193Y-107512000D01*
X102250807Y-107512000D01*
X102032195Y-107552865D01*
X101824824Y-107633200D01*
X101824823Y-107633201D01*
X101708671Y-107705119D01*
X100102000Y-107705119D01*
X100102000Y-107287500D01*
X104040593Y-107287500D01*
X104196946Y-107494541D01*
X104200291Y-107499192D01*
X104219873Y-107527778D01*
X104222999Y-107532574D01*
X104247281Y-107571788D01*
X104250184Y-107576729D01*
X104267052Y-107607012D01*
X104269724Y-107612080D01*
X104389414Y-107852450D01*
X104391849Y-107857637D01*
X104405848Y-107889343D01*
X104408039Y-107894634D01*
X104424701Y-107937643D01*
X104426647Y-107943032D01*
X104437660Y-107975891D01*
X104439355Y-107981363D01*
X104512834Y-108239621D01*
X104514273Y-108245164D01*
X104522205Y-108278889D01*
X104523387Y-108284490D01*
X104531863Y-108329825D01*
X104532786Y-108335483D01*
X104533137Y-108338000D01*
X105102000Y-108338000D01*
X105102000Y-107287500D01*
X106100000Y-107287500D01*
X106100000Y-108338000D01*
X107602000Y-108338000D01*
X107602000Y-107287500D01*
X106100000Y-107287500D01*
X105102000Y-107287500D01*
X104040593Y-107287500D01*
X100102000Y-107287500D01*
X98600000Y-107287500D01*
X97602000Y-107287500D01*
X96100000Y-107287500D01*
X95102000Y-107287500D01*
X93636475Y-107287500D01*
X93600000Y-107323974D01*
X93600000Y-107696451D01*
X91816139Y-107696451D01*
X93186771Y-106325819D01*
X93248094Y-106292334D01*
X93274452Y-106289500D01*
X107757607Y-106289500D01*
X107818029Y-106277481D01*
X107878452Y-106265463D01*
X107878455Y-106265461D01*
X107878458Y-106265461D01*
X107911787Y-106251654D01*
X107911786Y-106251654D01*
X107911792Y-106251652D01*
X107992286Y-106218312D01*
X108043509Y-106184084D01*
X108094733Y-106149858D01*
X108181858Y-106062733D01*
X108181859Y-106062731D01*
X108188925Y-106055665D01*
X108188928Y-106055661D01*
X109451431Y-104793157D01*
X109512752Y-104759674D01*
X109582444Y-104764658D01*
X109583882Y-104765205D01*
X109652060Y-104791618D01*
X109870757Y-104832500D01*
X109870759Y-104832500D01*
X110093241Y-104832500D01*
X110093243Y-104832500D01*
X110311940Y-104791618D01*
X110519401Y-104711247D01*
X110708562Y-104594124D01*
X110872981Y-104444236D01*
X111007058Y-104266689D01*
X111106229Y-104067528D01*
X111167115Y-103853536D01*
X111187643Y-103632000D01*
X111167115Y-103410464D01*
X111106229Y-103196472D01*
X111106224Y-103196461D01*
X111007061Y-102997316D01*
X111007056Y-102997308D01*
X110872979Y-102819761D01*
X110708562Y-102669876D01*
X110708560Y-102669874D01*
X110519404Y-102552754D01*
X110519398Y-102552752D01*
X110311940Y-102472382D01*
X110093243Y-102431500D01*
X109870757Y-102431500D01*
X109652060Y-102472382D01*
X109524222Y-102521907D01*
X109444601Y-102552752D01*
X109444595Y-102552754D01*
X109255439Y-102669874D01*
X109255437Y-102669876D01*
X109091020Y-102819761D01*
X108956943Y-102997308D01*
X108956938Y-102997316D01*
X108857775Y-103196461D01*
X108857769Y-103196476D01*
X108796885Y-103410462D01*
X108796884Y-103410464D01*
X108776357Y-103631998D01*
X108776673Y-103635410D01*
X108776357Y-103637024D01*
X108776357Y-103637732D01*
X108776219Y-103637732D01*
X108763254Y-103703979D01*
X108740882Y-103734526D01*
X107473229Y-105002181D01*
X107411906Y-105035666D01*
X107385548Y-105038500D01*
X102709410Y-105038500D01*
X102642371Y-105018815D01*
X102596616Y-104966011D01*
X102586672Y-104896853D01*
X102615697Y-104833297D01*
X102674475Y-104795523D01*
X102686624Y-104792612D01*
X102689346Y-104792102D01*
X102691940Y-104791618D01*
X102899401Y-104711247D01*
X103088562Y-104594124D01*
X103252981Y-104444236D01*
X103387058Y-104266689D01*
X103486229Y-104067528D01*
X103547115Y-103853536D01*
X103567643Y-103632000D01*
X103547115Y-103410464D01*
X103486229Y-103196472D01*
X103486224Y-103196461D01*
X103387061Y-102997316D01*
X103387056Y-102997308D01*
X103252979Y-102819761D01*
X103088562Y-102669876D01*
X103088560Y-102669874D01*
X102899404Y-102552754D01*
X102899398Y-102552752D01*
X102691940Y-102472382D01*
X102473243Y-102431500D01*
X102250757Y-102431500D01*
X102032060Y-102472382D01*
X101904222Y-102521907D01*
X101824601Y-102552752D01*
X101824595Y-102552754D01*
X101635439Y-102669874D01*
X101635437Y-102669876D01*
X101471020Y-102819761D01*
X101336943Y-102997308D01*
X101336938Y-102997316D01*
X101237775Y-103196461D01*
X101237769Y-103196476D01*
X101176885Y-103410462D01*
X101176884Y-103410464D01*
X101156357Y-103631999D01*
X101156357Y-103632000D01*
X101176884Y-103853535D01*
X101176885Y-103853537D01*
X101237769Y-104067523D01*
X101237775Y-104067538D01*
X101336938Y-104266683D01*
X101336943Y-104266691D01*
X101471020Y-104444238D01*
X101635437Y-104594123D01*
X101635439Y-104594125D01*
X101824595Y-104711245D01*
X101824596Y-104711245D01*
X101824599Y-104711247D01*
X102032060Y-104791618D01*
X102032071Y-104791620D01*
X102037376Y-104792612D01*
X102099657Y-104824280D01*
X102134929Y-104884592D01*
X102131995Y-104954401D01*
X102091786Y-105011540D01*
X102027067Y-105037871D01*
X102014590Y-105038500D01*
X92902389Y-105038500D01*
X92841971Y-105050518D01*
X92798743Y-105059116D01*
X92781546Y-105062537D01*
X92667716Y-105109687D01*
X92667707Y-105109692D01*
X92565268Y-105178140D01*
X92521705Y-105221703D01*
X92478142Y-105265267D01*
X90192144Y-107551264D01*
X90192138Y-107551272D01*
X90123692Y-107653705D01*
X90123684Y-107653719D01*
X90094050Y-107725267D01*
X90090347Y-107734207D01*
X90086437Y-107743647D01*
X90076537Y-107767545D01*
X90076535Y-107767553D01*
X90052500Y-107888389D01*
X90052500Y-108540500D01*
X90032815Y-108607539D01*
X89980011Y-108653294D01*
X89928500Y-108664500D01*
X89677630Y-108664500D01*
X89677623Y-108664501D01*
X89618016Y-108670908D01*
X89483171Y-108721202D01*
X89483164Y-108721206D01*
X89367955Y-108807452D01*
X89367952Y-108807455D01*
X89281706Y-108922664D01*
X89281702Y-108922671D01*
X89231408Y-109057517D01*
X89225001Y-109117116D01*
X89225000Y-109117135D01*
X89225000Y-111212870D01*
X85852000Y-111212870D01*
X85852000Y-109336000D01*
X86976000Y-109336000D01*
X86976000Y-110838000D01*
X87602000Y-110838000D01*
X87602000Y-109336000D01*
X86976000Y-109336000D01*
X85852000Y-109336000D01*
X85852000Y-106836000D01*
X86976000Y-106836000D01*
X86976000Y-108338000D01*
X87602000Y-108338000D01*
X87602000Y-106836000D01*
X88600000Y-106836000D01*
X88600000Y-108169249D01*
X88631019Y-108133451D01*
X88637051Y-108126972D01*
X88687472Y-108076551D01*
X88693951Y-108070519D01*
X88734436Y-108035439D01*
X88741327Y-108029886D01*
X88913626Y-107900902D01*
X88920896Y-107895854D01*
X88965963Y-107866890D01*
X88973577Y-107862372D01*
X89036167Y-107828195D01*
X89044081Y-107824233D01*
X89056642Y-107818496D01*
X89056903Y-107814964D01*
X89061706Y-107766195D01*
X89062451Y-107760154D01*
X89067854Y-107723728D01*
X89068895Y-107717731D01*
X89102491Y-107548829D01*
X89103824Y-107542892D01*
X89112766Y-107507192D01*
X89114387Y-107501332D01*
X89128611Y-107454432D01*
X89130521Y-107448649D01*
X89142934Y-107413954D01*
X89145127Y-107408270D01*
X89168320Y-107352280D01*
X89211028Y-107249168D01*
X89213494Y-107243604D01*
X89229235Y-107210321D01*
X89231973Y-107204883D01*
X89255076Y-107161660D01*
X89258074Y-107156367D01*
X89277011Y-107124771D01*
X89280270Y-107119625D01*
X89375959Y-106976420D01*
X89379464Y-106971443D01*
X89401407Y-106941858D01*
X89405153Y-106937058D01*
X89436242Y-106899179D01*
X89440216Y-106894573D01*
X89464935Y-106867301D01*
X89469130Y-106862895D01*
X89496025Y-106836000D01*
X88600000Y-106836000D01*
X87602000Y-106836000D01*
X86976000Y-106836000D01*
X85852000Y-106836000D01*
X85852000Y-104336000D01*
X86976000Y-104336000D01*
X86976000Y-105838000D01*
X87602000Y-105838000D01*
X87602000Y-104336000D01*
X88600000Y-104336000D01*
X88600000Y-105838000D01*
X90102000Y-105838000D01*
X90102000Y-104336000D01*
X88600000Y-104336000D01*
X87602000Y-104336000D01*
X86976000Y-104336000D01*
X85852000Y-104336000D01*
X85852000Y-101836000D01*
X86976000Y-101836000D01*
X86976000Y-103338000D01*
X87602000Y-103338000D01*
X87602000Y-101836000D01*
X88600000Y-101836000D01*
X88600000Y-103338000D01*
X90102000Y-103338000D01*
X90102000Y-101836000D01*
X91100000Y-101836000D01*
X91100000Y-103338000D01*
X92602000Y-103338000D01*
X92602000Y-101836000D01*
X93600000Y-101836000D01*
X93600000Y-103338000D01*
X94213955Y-103338000D01*
X94201681Y-103323442D01*
X94198375Y-103319347D01*
X94178897Y-103294148D01*
X94175765Y-103289914D01*
X94151294Y-103255313D01*
X94148349Y-103250955D01*
X94131083Y-103224203D01*
X94128322Y-103219719D01*
X93988414Y-102981302D01*
X93985848Y-102976708D01*
X93970912Y-102948586D01*
X93968542Y-102943886D01*
X93950269Y-102905647D01*
X93948099Y-102900848D01*
X93935600Y-102871555D01*
X93933638Y-102866672D01*
X93836031Y-102608031D01*
X93834277Y-102603066D01*
X93824305Y-102572812D01*
X93822764Y-102567778D01*
X93811218Y-102527002D01*
X93809891Y-102521907D01*
X93802526Y-102490936D01*
X93801418Y-102485794D01*
X93749681Y-102218286D01*
X93748941Y-102214073D01*
X93744906Y-102188509D01*
X93744312Y-102184271D01*
X93740120Y-102150091D01*
X93739673Y-102145837D01*
X93737411Y-102120062D01*
X93737110Y-102115796D01*
X93732788Y-102034401D01*
X93732657Y-102031105D01*
X93732044Y-102007931D01*
X93732001Y-102004652D01*
X93732001Y-101836000D01*
X93600000Y-101836000D01*
X92602000Y-101836000D01*
X91100000Y-101836000D01*
X90102000Y-101836000D01*
X88600000Y-101836000D01*
X87602000Y-101836000D01*
X86976000Y-101836000D01*
X85852000Y-101836000D01*
X85852000Y-99336000D01*
X86976000Y-99336000D01*
X86976000Y-100838000D01*
X87602000Y-100838000D01*
X87602000Y-99336000D01*
X88600000Y-99336000D01*
X88600000Y-100838000D01*
X90102000Y-100838000D01*
X90102000Y-99336000D01*
X91100000Y-99336000D01*
X91100000Y-100838000D01*
X92602000Y-100838000D01*
X92602000Y-100774500D01*
X94730000Y-100774500D01*
X95546988Y-100774500D01*
X95514075Y-100831507D01*
X95480000Y-100958674D01*
X95480000Y-101090326D01*
X95514075Y-101217493D01*
X95546988Y-101274500D01*
X94730001Y-101274500D01*
X94730001Y-101993088D01*
X94732794Y-102045691D01*
X94777237Y-102275487D01*
X94859879Y-102494475D01*
X94978339Y-102696341D01*
X94978344Y-102696348D01*
X95129211Y-102875286D01*
X95129213Y-102875288D01*
X95308151Y-103026155D01*
X95308158Y-103026160D01*
X95510024Y-103144620D01*
X95729012Y-103227262D01*
X95958809Y-103271705D01*
X96011382Y-103274498D01*
X96011421Y-103274499D01*
X96729999Y-103274499D01*
X96730000Y-103274498D01*
X96730000Y-101524500D01*
X97230000Y-101524500D01*
X97230000Y-103274499D01*
X97948576Y-103274499D01*
X97948588Y-103274498D01*
X98001191Y-103271705D01*
X98230987Y-103227262D01*
X98449975Y-103144620D01*
X98651841Y-103026160D01*
X98651848Y-103026155D01*
X98830786Y-102875288D01*
X98830788Y-102875286D01*
X98981655Y-102696348D01*
X98981660Y-102696341D01*
X99100120Y-102494475D01*
X99182762Y-102275487D01*
X99227205Y-102045691D01*
X99227205Y-102045690D01*
X99229998Y-101993117D01*
X99230000Y-101993078D01*
X99230000Y-101836000D01*
X103637386Y-101836000D01*
X103638350Y-101836628D01*
X103666947Y-101856218D01*
X103671598Y-101859565D01*
X103708404Y-101887361D01*
X103712891Y-101890915D01*
X103739549Y-101913051D01*
X103743871Y-101916812D01*
X103942373Y-102097771D01*
X103946516Y-102101727D01*
X103971024Y-102126235D01*
X103974981Y-102130379D01*
X104006052Y-102164463D01*
X104009812Y-102168783D01*
X104031950Y-102195443D01*
X104035506Y-102199933D01*
X104197374Y-102414281D01*
X104200719Y-102418930D01*
X104220300Y-102447514D01*
X104223427Y-102452313D01*
X104247707Y-102491525D01*
X104250609Y-102496464D01*
X104267477Y-102526747D01*
X104270149Y-102531815D01*
X104389888Y-102772281D01*
X104392325Y-102777472D01*
X104406336Y-102809208D01*
X104408530Y-102814506D01*
X104425187Y-102857515D01*
X104427129Y-102862895D01*
X104438131Y-102895723D01*
X104439824Y-102901192D01*
X104513326Y-103159524D01*
X104514766Y-103165067D01*
X104522699Y-103198795D01*
X104523881Y-103204398D01*
X104532357Y-103249734D01*
X104533280Y-103255391D01*
X104538069Y-103289724D01*
X104538729Y-103295413D01*
X104542675Y-103338000D01*
X105102000Y-103338000D01*
X105102000Y-101836000D01*
X106100000Y-101836000D01*
X106100000Y-103338000D01*
X107602000Y-103338000D01*
X107602000Y-101836000D01*
X106100000Y-101836000D01*
X105102000Y-101836000D01*
X103637386Y-101836000D01*
X99230000Y-101836000D01*
X99230000Y-101274500D01*
X98413012Y-101274500D01*
X98445925Y-101217493D01*
X98480000Y-101090326D01*
X98480000Y-100958674D01*
X98447665Y-100838000D01*
X101100000Y-100838000D01*
X102602000Y-100838000D01*
X102602000Y-99336000D01*
X103600000Y-99336000D01*
X103600000Y-100838000D01*
X105102000Y-100838000D01*
X106100000Y-100838000D01*
X107602000Y-100838000D01*
X108600000Y-100838000D01*
X110102000Y-100838000D01*
X110102000Y-99336000D01*
X108781246Y-99336000D01*
X108714757Y-99424817D01*
X108709204Y-99431707D01*
X108674124Y-99472192D01*
X108668092Y-99478671D01*
X108617671Y-99529092D01*
X108611192Y-99535124D01*
X108600000Y-99544821D01*
X108600000Y-100838000D01*
X107602000Y-100838000D01*
X107602000Y-99939000D01*
X106729454Y-99939000D01*
X106682000Y-99929561D01*
X106680000Y-99928732D01*
X106678000Y-99929561D01*
X106630546Y-99939000D01*
X106100000Y-99939000D01*
X106100000Y-100838000D01*
X105102000Y-100838000D01*
X105102000Y-99782773D01*
X105098823Y-99781323D01*
X105090909Y-99777362D01*
X105028319Y-99743185D01*
X105020705Y-99738667D01*
X104975638Y-99709703D01*
X104968368Y-99704655D01*
X104796184Y-99575757D01*
X104789293Y-99570204D01*
X104748808Y-99535124D01*
X104742329Y-99529092D01*
X104691908Y-99478671D01*
X104685876Y-99472192D01*
X104650796Y-99431707D01*
X104645243Y-99424817D01*
X104578754Y-99336000D01*
X103600000Y-99336000D01*
X102602000Y-99336000D01*
X102545346Y-99336000D01*
X102541874Y-99338599D01*
X102534604Y-99343646D01*
X102489537Y-99372610D01*
X102481923Y-99377128D01*
X102419333Y-99411305D01*
X102411419Y-99415267D01*
X102362682Y-99437525D01*
X102354502Y-99440913D01*
X102157018Y-99514569D01*
X102149679Y-99517048D01*
X102104828Y-99530653D01*
X102097352Y-99532668D01*
X102036637Y-99547016D01*
X102029045Y-99548561D01*
X101982840Y-99556472D01*
X101975167Y-99557541D01*
X101871244Y-99568712D01*
X101867939Y-99569022D01*
X101847899Y-99570635D01*
X101844578Y-99570858D01*
X101817895Y-99572286D01*
X101814582Y-99572419D01*
X101794534Y-99572955D01*
X101791220Y-99572999D01*
X101100000Y-99572999D01*
X101100000Y-100838000D01*
X98447665Y-100838000D01*
X98445925Y-100831507D01*
X98413012Y-100774500D01*
X99229999Y-100774500D01*
X99229999Y-100055923D01*
X99229998Y-100055911D01*
X99227205Y-100003308D01*
X99182762Y-99773512D01*
X99100120Y-99554524D01*
X98981660Y-99352658D01*
X98981655Y-99352651D01*
X98830788Y-99173713D01*
X98830786Y-99173711D01*
X98651848Y-99022844D01*
X98651841Y-99022839D01*
X98449975Y-98904379D01*
X98230984Y-98821736D01*
X98225840Y-98820741D01*
X98163760Y-98788680D01*
X98128869Y-98728146D01*
X98132244Y-98658358D01*
X98172814Y-98601473D01*
X98237697Y-98575552D01*
X98249374Y-98574999D01*
X101777872Y-98574999D01*
X101837483Y-98568591D01*
X101972331Y-98518296D01*
X102087546Y-98432046D01*
X102173796Y-98316831D01*
X102224091Y-98181983D01*
X102230500Y-98122373D01*
X102230500Y-96836000D01*
X103600000Y-96836000D01*
X103600000Y-98338000D01*
X104282000Y-98338000D01*
X104282000Y-97590454D01*
X104291439Y-97543002D01*
X104292268Y-97541000D01*
X104291439Y-97538998D01*
X104282000Y-97491546D01*
X104282000Y-96836000D01*
X103600000Y-96836000D01*
X102230500Y-96836000D01*
X102230499Y-94526628D01*
X102224091Y-94467017D01*
X102184571Y-94361059D01*
X102175225Y-94336000D01*
X103600000Y-94336000D01*
X103600000Y-95838000D01*
X104428076Y-95838000D01*
X104426655Y-95834570D01*
X104415387Y-95805694D01*
X104413624Y-95800883D01*
X104400224Y-95761854D01*
X104398660Y-95756974D01*
X104389809Y-95727248D01*
X104388447Y-95722302D01*
X104321337Y-95457293D01*
X104320181Y-95452295D01*
X104313816Y-95421933D01*
X104312869Y-95416897D01*
X104306078Y-95376194D01*
X104305339Y-95371123D01*
X104301506Y-95340368D01*
X104300978Y-95335273D01*
X104278405Y-95062852D01*
X104278087Y-95057735D01*
X104276806Y-95026755D01*
X104276700Y-95021632D01*
X104276700Y-95001006D01*
X105274700Y-95001006D01*
X105293864Y-95232297D01*
X105293866Y-95232308D01*
X105350842Y-95457300D01*
X105444075Y-95669848D01*
X105571018Y-95864150D01*
X105666167Y-95967510D01*
X105697089Y-96030164D01*
X105689228Y-96099590D01*
X105645081Y-96153746D01*
X105618271Y-96167674D01*
X105537911Y-96197646D01*
X105537906Y-96197649D01*
X105422812Y-96283809D01*
X105422809Y-96283812D01*
X105336649Y-96398906D01*
X105336645Y-96398913D01*
X105286403Y-96533620D01*
X105286401Y-96533627D01*
X105280000Y-96593155D01*
X105280000Y-97291000D01*
X106304722Y-97291000D01*
X106260667Y-97367306D01*
X106230000Y-97481756D01*
X106230000Y-97600244D01*
X106260667Y-97714694D01*
X106304722Y-97791000D01*
X105280000Y-97791000D01*
X105280000Y-98488844D01*
X105286401Y-98548372D01*
X105286403Y-98548379D01*
X105336645Y-98683086D01*
X105336649Y-98683093D01*
X105422809Y-98798187D01*
X105422812Y-98798190D01*
X105537906Y-98884350D01*
X105537913Y-98884354D01*
X105672620Y-98934596D01*
X105672627Y-98934598D01*
X105732155Y-98940999D01*
X105732172Y-98941000D01*
X106430000Y-98941000D01*
X106430000Y-97916277D01*
X106506306Y-97960333D01*
X106620756Y-97991000D01*
X106739244Y-97991000D01*
X106853694Y-97960333D01*
X106930000Y-97916277D01*
X106930000Y-98941000D01*
X107627828Y-98941000D01*
X107627844Y-98940999D01*
X107687372Y-98934598D01*
X107687379Y-98934596D01*
X107822086Y-98884354D01*
X107822093Y-98884350D01*
X107937187Y-98798190D01*
X107937190Y-98798187D01*
X108023350Y-98683093D01*
X108023354Y-98683086D01*
X108073596Y-98548379D01*
X108073598Y-98548372D01*
X108079999Y-98488844D01*
X108080000Y-98488827D01*
X108080000Y-97791000D01*
X107055278Y-97791000D01*
X107099333Y-97714694D01*
X107130000Y-97600244D01*
X107130000Y-97541000D01*
X109067732Y-97541000D01*
X109068561Y-97543000D01*
X109078000Y-97590454D01*
X109078000Y-98338000D01*
X110102000Y-98338000D01*
X110102000Y-96836000D01*
X109078000Y-96836000D01*
X109078000Y-97491546D01*
X109068561Y-97539000D01*
X109067732Y-97541000D01*
X107130000Y-97541000D01*
X107130000Y-97481756D01*
X107099333Y-97367306D01*
X107055278Y-97291000D01*
X108080000Y-97291000D01*
X108080000Y-96593172D01*
X108079999Y-96593155D01*
X108073598Y-96533627D01*
X108073596Y-96533620D01*
X108023354Y-96398913D01*
X108023350Y-96398906D01*
X107937190Y-96283812D01*
X107937187Y-96283809D01*
X107822093Y-96197649D01*
X107822086Y-96197645D01*
X107741729Y-96167674D01*
X107685795Y-96125803D01*
X107661378Y-96060338D01*
X107676230Y-95992065D01*
X107693826Y-95967516D01*
X107788979Y-95864153D01*
X107806066Y-95838000D01*
X108931924Y-95838000D01*
X110102000Y-95838000D01*
X110102000Y-94336000D01*
X108985811Y-94336000D01*
X109038663Y-94544707D01*
X109039819Y-94549705D01*
X109046184Y-94580067D01*
X109047131Y-94585103D01*
X109053922Y-94625806D01*
X109054661Y-94630877D01*
X109058494Y-94661632D01*
X109059022Y-94666727D01*
X109081595Y-94939148D01*
X109081913Y-94944265D01*
X109083194Y-94975245D01*
X109083300Y-94980368D01*
X109083300Y-95021632D01*
X109083194Y-95026755D01*
X109081913Y-95057735D01*
X109081595Y-95062852D01*
X109059022Y-95335273D01*
X109058494Y-95340368D01*
X109054661Y-95371123D01*
X109053922Y-95376194D01*
X109047131Y-95416897D01*
X109046184Y-95421933D01*
X109039819Y-95452295D01*
X109038663Y-95457293D01*
X108971553Y-95722302D01*
X108970191Y-95727248D01*
X108961340Y-95756974D01*
X108959776Y-95761854D01*
X108946376Y-95800883D01*
X108944613Y-95805694D01*
X108933345Y-95834570D01*
X108931924Y-95838000D01*
X107806066Y-95838000D01*
X107915924Y-95669849D01*
X108009157Y-95457300D01*
X108066134Y-95232305D01*
X108066135Y-95232297D01*
X108085300Y-95001006D01*
X108085300Y-95000993D01*
X108066135Y-94769702D01*
X108066133Y-94769691D01*
X108009157Y-94544699D01*
X107915924Y-94332151D01*
X107788983Y-94137852D01*
X107788980Y-94137849D01*
X107788979Y-94137847D01*
X107631784Y-93967087D01*
X107631779Y-93967083D01*
X107631777Y-93967081D01*
X107448634Y-93824535D01*
X107448628Y-93824531D01*
X107244504Y-93714064D01*
X107244495Y-93714061D01*
X107024984Y-93638702D01*
X106853282Y-93610050D01*
X106796049Y-93600500D01*
X106563951Y-93600500D01*
X106518164Y-93608140D01*
X106335015Y-93638702D01*
X106115504Y-93714061D01*
X106115495Y-93714064D01*
X105911371Y-93824531D01*
X105911365Y-93824535D01*
X105728222Y-93967081D01*
X105728219Y-93967084D01*
X105571016Y-94137852D01*
X105444075Y-94332151D01*
X105350842Y-94544699D01*
X105293866Y-94769691D01*
X105293864Y-94769702D01*
X105274700Y-95000993D01*
X105274700Y-95001006D01*
X104276700Y-95001006D01*
X104276700Y-94980368D01*
X104276806Y-94975245D01*
X104278087Y-94944265D01*
X104278405Y-94939148D01*
X104300978Y-94666727D01*
X104301506Y-94661632D01*
X104305339Y-94630877D01*
X104306078Y-94625806D01*
X104312869Y-94585103D01*
X104313816Y-94580067D01*
X104320181Y-94549705D01*
X104321337Y-94544707D01*
X104374189Y-94336000D01*
X103600000Y-94336000D01*
X102175225Y-94336000D01*
X102173797Y-94332171D01*
X102173793Y-94332164D01*
X102087547Y-94216955D01*
X102087544Y-94216952D01*
X101972335Y-94130706D01*
X101972328Y-94130702D01*
X101837482Y-94080408D01*
X101837483Y-94080408D01*
X101777883Y-94074001D01*
X101777881Y-94074000D01*
X101777873Y-94074000D01*
X101777864Y-94074000D01*
X98182129Y-94074000D01*
X98182123Y-94074001D01*
X98122516Y-94080408D01*
X97987671Y-94130702D01*
X97987664Y-94130706D01*
X97872455Y-94216952D01*
X97872452Y-94216955D01*
X97786206Y-94332164D01*
X97786202Y-94332171D01*
X97735908Y-94467017D01*
X97729501Y-94526616D01*
X97729501Y-94526623D01*
X97729500Y-94526635D01*
X97729500Y-98122370D01*
X97729501Y-98122376D01*
X97735908Y-98181983D01*
X97786202Y-98316828D01*
X97786206Y-98316835D01*
X97872452Y-98432044D01*
X97872455Y-98432047D01*
X97987664Y-98518293D01*
X97987673Y-98518298D01*
X98036506Y-98536511D01*
X98092440Y-98578381D01*
X98116858Y-98643845D01*
X98102007Y-98712118D01*
X98052603Y-98761524D01*
X97986598Y-98776518D01*
X97948625Y-98774501D01*
X97948579Y-98774500D01*
X97230000Y-98774500D01*
X97230000Y-100524500D01*
X96730000Y-100524500D01*
X96730000Y-98774500D01*
X96011423Y-98774500D01*
X96011411Y-98774501D01*
X95958808Y-98777294D01*
X95729012Y-98821737D01*
X95510024Y-98904379D01*
X95308158Y-99022839D01*
X95308151Y-99022844D01*
X95129213Y-99173711D01*
X95129211Y-99173713D01*
X94978344Y-99352651D01*
X94978339Y-99352658D01*
X94859879Y-99554524D01*
X94777237Y-99773512D01*
X94732794Y-100003308D01*
X94732794Y-100003309D01*
X94730001Y-100055882D01*
X94730000Y-100055921D01*
X94730000Y-100774500D01*
X92602000Y-100774500D01*
X92602000Y-99484525D01*
X92549906Y-99471399D01*
X92544541Y-99469918D01*
X92512286Y-99460232D01*
X92506992Y-99458512D01*
X92464702Y-99443713D01*
X92459494Y-99441758D01*
X92428258Y-99429228D01*
X92423142Y-99427041D01*
X92222710Y-99336000D01*
X91100000Y-99336000D01*
X90102000Y-99336000D01*
X88600000Y-99336000D01*
X87602000Y-99336000D01*
X86976000Y-99336000D01*
X85852000Y-99336000D01*
X85852000Y-96836000D01*
X86976000Y-96836000D01*
X86976000Y-98338000D01*
X87602000Y-98338000D01*
X87602000Y-96836000D01*
X88600000Y-96836000D01*
X88600000Y-98338000D01*
X90102000Y-98338000D01*
X90102000Y-96836000D01*
X88600000Y-96836000D01*
X87602000Y-96836000D01*
X86976000Y-96836000D01*
X85852000Y-96836000D01*
X85852000Y-96074500D01*
X91980000Y-96074500D01*
X93480000Y-96074500D01*
X93480000Y-96574500D01*
X91980001Y-96574500D01*
X91980001Y-97388697D01*
X91990400Y-97520832D01*
X92045377Y-97739019D01*
X92138428Y-97943874D01*
X92138431Y-97943880D01*
X92266559Y-98128823D01*
X92266569Y-98128835D01*
X92425664Y-98287930D01*
X92425676Y-98287940D01*
X92610619Y-98416068D01*
X92610625Y-98416071D01*
X92815480Y-98509122D01*
X93033667Y-98564099D01*
X93165810Y-98574499D01*
X93729999Y-98574499D01*
X93730000Y-98574498D01*
X93730000Y-97757512D01*
X93787007Y-97790425D01*
X93914174Y-97824500D01*
X94045826Y-97824500D01*
X94172993Y-97790425D01*
X94230000Y-97757512D01*
X94230000Y-98574499D01*
X94794182Y-98574499D01*
X94794197Y-98574498D01*
X94926332Y-98564099D01*
X95144519Y-98509122D01*
X95349374Y-98416071D01*
X95349380Y-98416068D01*
X95534323Y-98287940D01*
X95534335Y-98287930D01*
X95693430Y-98128835D01*
X95693440Y-98128823D01*
X95821568Y-97943880D01*
X95821571Y-97943874D01*
X95914622Y-97739019D01*
X95969599Y-97520832D01*
X95979999Y-97388696D01*
X95980000Y-97388684D01*
X95980000Y-96574500D01*
X94480000Y-96574500D01*
X94480000Y-96074500D01*
X95979999Y-96074500D01*
X95979999Y-95260317D01*
X95979998Y-95260302D01*
X95969599Y-95128167D01*
X95914622Y-94909980D01*
X95821571Y-94705125D01*
X95821568Y-94705119D01*
X95693440Y-94520176D01*
X95693430Y-94520164D01*
X95534335Y-94361069D01*
X95534323Y-94361059D01*
X95349380Y-94232931D01*
X95349374Y-94232928D01*
X95144519Y-94139877D01*
X94926332Y-94084900D01*
X94794196Y-94074500D01*
X94230000Y-94074500D01*
X94230000Y-94891488D01*
X94172993Y-94858575D01*
X94045826Y-94824500D01*
X93914174Y-94824500D01*
X93787007Y-94858575D01*
X93730000Y-94891488D01*
X93730000Y-94074500D01*
X93165817Y-94074500D01*
X93165802Y-94074501D01*
X93033667Y-94084900D01*
X92815480Y-94139877D01*
X92610625Y-94232928D01*
X92610619Y-94232931D01*
X92425676Y-94361059D01*
X92425664Y-94361069D01*
X92266569Y-94520164D01*
X92266559Y-94520176D01*
X92138431Y-94705119D01*
X92138428Y-94705125D01*
X92045377Y-94909980D01*
X91990400Y-95128167D01*
X91980000Y-95260303D01*
X91980000Y-96074500D01*
X85852000Y-96074500D01*
X85852000Y-94336000D01*
X86976000Y-94336000D01*
X86976000Y-95838000D01*
X87602000Y-95838000D01*
X87602000Y-94336000D01*
X88600000Y-94336000D01*
X88600000Y-95838000D01*
X90102000Y-95838000D01*
X90102000Y-94336000D01*
X88600000Y-94336000D01*
X87602000Y-94336000D01*
X86976000Y-94336000D01*
X85852000Y-94336000D01*
X85852000Y-91836000D01*
X86976000Y-91836000D01*
X86976000Y-93338000D01*
X87602000Y-93338000D01*
X87602000Y-91836000D01*
X88600000Y-91836000D01*
X88600000Y-93338000D01*
X90102000Y-93338000D01*
X91100000Y-93338000D01*
X92168461Y-93338000D01*
X92172478Y-93335953D01*
X92177494Y-93333538D01*
X92423142Y-93221959D01*
X92428258Y-93219772D01*
X92459494Y-93207242D01*
X92464702Y-93205287D01*
X92506992Y-93190488D01*
X92512286Y-93188768D01*
X92544541Y-93179082D01*
X92549905Y-93177602D01*
X92602000Y-93164474D01*
X92602000Y-91836000D01*
X93600000Y-91836000D01*
X93600000Y-93076500D01*
X93930544Y-93076500D01*
X93977995Y-93085938D01*
X93979999Y-93086768D01*
X93982003Y-93085938D01*
X94029454Y-93076500D01*
X94811337Y-93076500D01*
X94816199Y-93076595D01*
X94850501Y-93077941D01*
X94855368Y-93078228D01*
X95025571Y-93091624D01*
X95030763Y-93092143D01*
X95062088Y-93095940D01*
X95067249Y-93096676D01*
X95102000Y-93102379D01*
X95102000Y-91836000D01*
X96100000Y-91836000D01*
X96100000Y-93338000D01*
X97381260Y-93338000D01*
X97418126Y-93310402D01*
X97425396Y-93305354D01*
X97470463Y-93276390D01*
X97478077Y-93271872D01*
X97540667Y-93237695D01*
X97548581Y-93233733D01*
X97597318Y-93211475D01*
X97602000Y-93209535D01*
X97602000Y-91836000D01*
X98600000Y-91836000D01*
X98600000Y-93076000D01*
X100102000Y-93076000D01*
X100102000Y-91836000D01*
X101100000Y-91836000D01*
X101100000Y-93076000D01*
X101791248Y-93076000D01*
X101794572Y-93076045D01*
X101814674Y-93076584D01*
X101817994Y-93076717D01*
X101844680Y-93078149D01*
X101847989Y-93078371D01*
X101867982Y-93079981D01*
X101871285Y-93080292D01*
X101975175Y-93091462D01*
X101982843Y-93092529D01*
X102029029Y-93100436D01*
X102036619Y-93101981D01*
X102097330Y-93116326D01*
X102104809Y-93118342D01*
X102149672Y-93131950D01*
X102157012Y-93134429D01*
X102354502Y-93208087D01*
X102362682Y-93211475D01*
X102411419Y-93233733D01*
X102419333Y-93237695D01*
X102481923Y-93271872D01*
X102489537Y-93276390D01*
X102534604Y-93305354D01*
X102541874Y-93310402D01*
X102578740Y-93338000D01*
X102602000Y-93338000D01*
X102602000Y-91836000D01*
X103600000Y-91836000D01*
X103600000Y-93338000D01*
X104950846Y-93338000D01*
X105007932Y-93275987D01*
X105011479Y-93272290D01*
X105033397Y-93250371D01*
X105037095Y-93246822D01*
X105067453Y-93218874D01*
X105071296Y-93215481D01*
X105094966Y-93195433D01*
X105098945Y-93192201D01*
X105102000Y-93189823D01*
X105102000Y-91836000D01*
X106100000Y-91836000D01*
X106100000Y-92668714D01*
X106110038Y-92666173D01*
X106115028Y-92665018D01*
X106145369Y-92658656D01*
X106150406Y-92657708D01*
X106420037Y-92612715D01*
X106425110Y-92611976D01*
X106455879Y-92608141D01*
X106460975Y-92607613D01*
X106502098Y-92604205D01*
X106507216Y-92603887D01*
X106538196Y-92602606D01*
X106543319Y-92602500D01*
X106816681Y-92602500D01*
X106821804Y-92602606D01*
X106852784Y-92603887D01*
X106857902Y-92604205D01*
X106899025Y-92607613D01*
X106904121Y-92608141D01*
X106934890Y-92611976D01*
X106939963Y-92612715D01*
X107209594Y-92657708D01*
X107214631Y-92658656D01*
X107244972Y-92665018D01*
X107249962Y-92666173D01*
X107289965Y-92676302D01*
X107294909Y-92677663D01*
X107324633Y-92686512D01*
X107329515Y-92688076D01*
X107588066Y-92776837D01*
X107592880Y-92778602D01*
X107602000Y-92782160D01*
X107602000Y-91836000D01*
X108600000Y-91836000D01*
X108600000Y-93338000D01*
X110102000Y-93338000D01*
X110102000Y-91836000D01*
X108600000Y-91836000D01*
X107602000Y-91836000D01*
X106100000Y-91836000D01*
X105102000Y-91836000D01*
X103600000Y-91836000D01*
X102602000Y-91836000D01*
X101100000Y-91836000D01*
X100102000Y-91836000D01*
X98600000Y-91836000D01*
X97602000Y-91836000D01*
X96100000Y-91836000D01*
X95102000Y-91836000D01*
X93600000Y-91836000D01*
X92602000Y-91836000D01*
X92280915Y-91836000D01*
X92264033Y-91851301D01*
X92259424Y-91855276D01*
X92076806Y-92005147D01*
X92072007Y-92008892D01*
X92042424Y-92030832D01*
X92037446Y-92034338D01*
X91996696Y-92061565D01*
X91991555Y-92064820D01*
X91959978Y-92083746D01*
X91954684Y-92086745D01*
X91746339Y-92198107D01*
X91740902Y-92200844D01*
X91707605Y-92216592D01*
X91702038Y-92219059D01*
X91656763Y-92237811D01*
X91651088Y-92240001D01*
X91616429Y-92252402D01*
X91610651Y-92254310D01*
X91384592Y-92322885D01*
X91378726Y-92324509D01*
X91343012Y-92333455D01*
X91337074Y-92334788D01*
X91289009Y-92344349D01*
X91283015Y-92345389D01*
X91246584Y-92350794D01*
X91240540Y-92351540D01*
X91100000Y-92365381D01*
X91100000Y-93338000D01*
X90102000Y-93338000D01*
X90102000Y-92189736D01*
X89929437Y-92097500D01*
X89570969Y-92097500D01*
X89564886Y-92097351D01*
X89528114Y-92095545D01*
X89522045Y-92095097D01*
X89473272Y-92090294D01*
X89467230Y-92089549D01*
X89430797Y-92084145D01*
X89424799Y-92083104D01*
X89246222Y-92047581D01*
X89240283Y-92046247D01*
X89204559Y-92037298D01*
X89198693Y-92035675D01*
X89151799Y-92021449D01*
X89146019Y-92019540D01*
X89111357Y-92007137D01*
X89105682Y-92004947D01*
X88937482Y-91935277D01*
X88931919Y-91932812D01*
X88898638Y-91917072D01*
X88893203Y-91914336D01*
X88849983Y-91891236D01*
X88844687Y-91888236D01*
X88813096Y-91869302D01*
X88807951Y-91866044D01*
X88762987Y-91836000D01*
X88600000Y-91836000D01*
X87602000Y-91836000D01*
X86976000Y-91836000D01*
X85852000Y-91836000D01*
X85852000Y-88966535D01*
X87462500Y-88966535D01*
X87488457Y-89097028D01*
X87488459Y-89097036D01*
X87539378Y-89219965D01*
X87539383Y-89219975D01*
X87613304Y-89330605D01*
X87613307Y-89330609D01*
X89137305Y-90854606D01*
X89231394Y-90948695D01*
X89231397Y-90948697D01*
X89231398Y-90948698D01*
X89342020Y-91022613D01*
X89342023Y-91022614D01*
X89342031Y-91022620D01*
X89464964Y-91073540D01*
X89464968Y-91073540D01*
X89464969Y-91073541D01*
X89595466Y-91099500D01*
X89595469Y-91099500D01*
X90212449Y-91099500D01*
X90279488Y-91119185D01*
X90291114Y-91127647D01*
X90401373Y-91218135D01*
X90401376Y-91218137D01*
X90566497Y-91306395D01*
X90566499Y-91306396D01*
X90745666Y-91360746D01*
X90745668Y-91360747D01*
X90762374Y-91362392D01*
X90932000Y-91379099D01*
X91118331Y-91360747D01*
X91297501Y-91306396D01*
X91462625Y-91218136D01*
X91607357Y-91099357D01*
X91726136Y-90954625D01*
X91814396Y-90789501D01*
X91868747Y-90610331D01*
X91887099Y-90424000D01*
X91868747Y-90237669D01*
X91814396Y-90058499D01*
X91726136Y-89893375D01*
X91726135Y-89893373D01*
X91607357Y-89748642D01*
X91462626Y-89629864D01*
X91462623Y-89629862D01*
X91297502Y-89541604D01*
X91121306Y-89488155D01*
X93600000Y-89488155D01*
X93600000Y-90838000D01*
X95102000Y-90838000D01*
X95102000Y-89595903D01*
X94971866Y-89630773D01*
X94966610Y-89632059D01*
X94934651Y-89639144D01*
X94929343Y-89640200D01*
X94886447Y-89647763D01*
X94881101Y-89648585D01*
X94848656Y-89652856D01*
X94843279Y-89653445D01*
X94573285Y-89677066D01*
X94567888Y-89677420D01*
X94535189Y-89678848D01*
X94529779Y-89678966D01*
X94486221Y-89678966D01*
X94480811Y-89678848D01*
X94448112Y-89677420D01*
X94442715Y-89677066D01*
X94172721Y-89653445D01*
X94167344Y-89652856D01*
X94134899Y-89648585D01*
X94129553Y-89647763D01*
X94086657Y-89640200D01*
X94081349Y-89639144D01*
X94049390Y-89632059D01*
X94044134Y-89630773D01*
X93782327Y-89560622D01*
X93777130Y-89559107D01*
X93745896Y-89549258D01*
X93740772Y-89547518D01*
X93699842Y-89532619D01*
X93694800Y-89530658D01*
X93664580Y-89518139D01*
X93659632Y-89515962D01*
X93601182Y-89488706D01*
X96100000Y-89488706D01*
X96100000Y-90838000D01*
X97602000Y-90838000D01*
X97602000Y-89596421D01*
X97471951Y-89631267D01*
X97466696Y-89632553D01*
X97434737Y-89639638D01*
X97429430Y-89640693D01*
X97386535Y-89648256D01*
X97381188Y-89649079D01*
X97348744Y-89653350D01*
X97343367Y-89653939D01*
X97073286Y-89677568D01*
X97067889Y-89677922D01*
X97035189Y-89679350D01*
X97029779Y-89679468D01*
X96986221Y-89679468D01*
X96980811Y-89679350D01*
X96948111Y-89677922D01*
X96942714Y-89677568D01*
X96672633Y-89653939D01*
X96667256Y-89653350D01*
X96634812Y-89649079D01*
X96629465Y-89648256D01*
X96586570Y-89640693D01*
X96581263Y-89639638D01*
X96549304Y-89632553D01*
X96544049Y-89631267D01*
X96282159Y-89561095D01*
X96276962Y-89559580D01*
X96245727Y-89549731D01*
X96240599Y-89547990D01*
X96199667Y-89533089D01*
X96194629Y-89531130D01*
X96164408Y-89518611D01*
X96159459Y-89516433D01*
X96100000Y-89488706D01*
X93601182Y-89488706D01*
X93600000Y-89488155D01*
X91121306Y-89488155D01*
X91118333Y-89487253D01*
X91118331Y-89487252D01*
X90932000Y-89468901D01*
X90745668Y-89487252D01*
X90745666Y-89487253D01*
X90566497Y-89541604D01*
X90401376Y-89629862D01*
X90401373Y-89629864D01*
X90291114Y-89720353D01*
X90226804Y-89747666D01*
X90212449Y-89748500D01*
X89993163Y-89748500D01*
X89926124Y-89728815D01*
X89905482Y-89712181D01*
X89529301Y-89336000D01*
X98600000Y-89336000D01*
X98600000Y-90838000D01*
X100102000Y-90838000D01*
X100102000Y-89336000D01*
X101100000Y-89336000D01*
X101100000Y-90838000D01*
X102602000Y-90838000D01*
X102602000Y-89336000D01*
X103600000Y-89336000D01*
X103600000Y-90838000D01*
X105102000Y-90838000D01*
X105102000Y-89336000D01*
X106100000Y-89336000D01*
X106100000Y-90838000D01*
X107602000Y-90838000D01*
X107602000Y-89336000D01*
X108600000Y-89336000D01*
X108600000Y-90838000D01*
X110102000Y-90838000D01*
X110102000Y-89336000D01*
X108600000Y-89336000D01*
X107602000Y-89336000D01*
X106100000Y-89336000D01*
X105102000Y-89336000D01*
X103600000Y-89336000D01*
X102602000Y-89336000D01*
X101100000Y-89336000D01*
X100102000Y-89336000D01*
X98600000Y-89336000D01*
X89529301Y-89336000D01*
X89055385Y-88862084D01*
X89021900Y-88800761D01*
X89026884Y-88731069D01*
X89068756Y-88675136D01*
X89134220Y-88650719D01*
X89175155Y-88654627D01*
X89201308Y-88661635D01*
X89355625Y-88675136D01*
X89427998Y-88681468D01*
X89428000Y-88681468D01*
X89428002Y-88681468D01*
X89484673Y-88676509D01*
X89654692Y-88661635D01*
X89874496Y-88602739D01*
X90080734Y-88506568D01*
X90267139Y-88376047D01*
X90428047Y-88215139D01*
X90558568Y-88028734D01*
X90565893Y-88013024D01*
X90612064Y-87960586D01*
X90679257Y-87941433D01*
X90746138Y-87961648D01*
X90790657Y-88013024D01*
X90797864Y-88028480D01*
X90848974Y-88101472D01*
X91528000Y-87422446D01*
X91528000Y-87428661D01*
X91555259Y-87530394D01*
X91607920Y-87621606D01*
X91682394Y-87696080D01*
X91773606Y-87748741D01*
X91875339Y-87776000D01*
X91881553Y-87776000D01*
X91202526Y-88455025D01*
X91275513Y-88506132D01*
X91275521Y-88506136D01*
X91481668Y-88602264D01*
X91481682Y-88602269D01*
X91701389Y-88661139D01*
X91701400Y-88661141D01*
X91927998Y-88680966D01*
X91928002Y-88680966D01*
X92154599Y-88661141D01*
X92154610Y-88661139D01*
X92374317Y-88602269D01*
X92374331Y-88602264D01*
X92580478Y-88506136D01*
X92653471Y-88455024D01*
X91974447Y-87776000D01*
X91980661Y-87776000D01*
X92082394Y-87748741D01*
X92173606Y-87696080D01*
X92248080Y-87621606D01*
X92300741Y-87530394D01*
X92328000Y-87428661D01*
X92328000Y-87422447D01*
X93007024Y-88101471D01*
X93058136Y-88028478D01*
X93105618Y-87926654D01*
X93151790Y-87874214D01*
X93218983Y-87855062D01*
X93285865Y-87875278D01*
X93330382Y-87926654D01*
X93377863Y-88028478D01*
X93428974Y-88101472D01*
X94108000Y-87422446D01*
X94108000Y-87428661D01*
X94135259Y-87530394D01*
X94187920Y-87621606D01*
X94262394Y-87696080D01*
X94353606Y-87748741D01*
X94455339Y-87776000D01*
X94461553Y-87776000D01*
X93782526Y-88455025D01*
X93855513Y-88506132D01*
X93855521Y-88506136D01*
X94061668Y-88602264D01*
X94061682Y-88602269D01*
X94281389Y-88661139D01*
X94281400Y-88661141D01*
X94507998Y-88680966D01*
X94508002Y-88680966D01*
X94734599Y-88661141D01*
X94734610Y-88661139D01*
X94954317Y-88602269D01*
X94954331Y-88602264D01*
X95160478Y-88506136D01*
X95233471Y-88455024D01*
X94554447Y-87776000D01*
X94560661Y-87776000D01*
X94662394Y-87748741D01*
X94753606Y-87696080D01*
X94828080Y-87621606D01*
X94880741Y-87530394D01*
X94908000Y-87428661D01*
X94908000Y-87422447D01*
X95587024Y-88101471D01*
X95638134Y-88028481D01*
X95645340Y-88013028D01*
X95691511Y-87960587D01*
X95758704Y-87941433D01*
X95825585Y-87961646D01*
X95870105Y-88013022D01*
X95877430Y-88028730D01*
X95877432Y-88028734D01*
X96007954Y-88215141D01*
X96168858Y-88376045D01*
X96168861Y-88376047D01*
X96355266Y-88506568D01*
X96561504Y-88602739D01*
X96781308Y-88661635D01*
X96935625Y-88675136D01*
X97007998Y-88681468D01*
X97008000Y-88681468D01*
X97008002Y-88681468D01*
X97064673Y-88676509D01*
X97234692Y-88661635D01*
X97454496Y-88602739D01*
X97660734Y-88506568D01*
X97847139Y-88376047D01*
X97885186Y-88338000D01*
X99095526Y-88338000D01*
X100102000Y-88338000D01*
X103733466Y-88338000D01*
X105102000Y-88338000D01*
X105102000Y-86836000D01*
X106100000Y-86836000D01*
X106100000Y-88338000D01*
X107602000Y-88338000D01*
X107602000Y-86836000D01*
X106100000Y-86836000D01*
X105102000Y-86836000D01*
X104549348Y-86836000D01*
X104538729Y-86950587D01*
X104538069Y-86956276D01*
X104533280Y-86990609D01*
X104532357Y-86996266D01*
X104523881Y-87041602D01*
X104522699Y-87047205D01*
X104514766Y-87080933D01*
X104513326Y-87086476D01*
X104439824Y-87344808D01*
X104438131Y-87350277D01*
X104427129Y-87383105D01*
X104425187Y-87388485D01*
X104408530Y-87431494D01*
X104406336Y-87436792D01*
X104392325Y-87468528D01*
X104389888Y-87473719D01*
X104270149Y-87714185D01*
X104267477Y-87719253D01*
X104250609Y-87749536D01*
X104247707Y-87754475D01*
X104223427Y-87793687D01*
X104220300Y-87798486D01*
X104200719Y-87827070D01*
X104197374Y-87831719D01*
X104035506Y-88046067D01*
X104031950Y-88050557D01*
X104009812Y-88077217D01*
X104006052Y-88081537D01*
X103974981Y-88115621D01*
X103971024Y-88119765D01*
X103946516Y-88144273D01*
X103942373Y-88148229D01*
X103743871Y-88329188D01*
X103739549Y-88332949D01*
X103733466Y-88338000D01*
X100102000Y-88338000D01*
X100102000Y-86836000D01*
X99242890Y-86836000D01*
X99263267Y-86912049D01*
X99264553Y-86917304D01*
X99271638Y-86949263D01*
X99272693Y-86954570D01*
X99280256Y-86997465D01*
X99281079Y-87002812D01*
X99285350Y-87035256D01*
X99285939Y-87040633D01*
X99309568Y-87310714D01*
X99309922Y-87316111D01*
X99311350Y-87348811D01*
X99311468Y-87354221D01*
X99311468Y-87397779D01*
X99311350Y-87403189D01*
X99309922Y-87435889D01*
X99309568Y-87441286D01*
X99285939Y-87711367D01*
X99285350Y-87716744D01*
X99281079Y-87749188D01*
X99280256Y-87754535D01*
X99272693Y-87797430D01*
X99271638Y-87802737D01*
X99264553Y-87834696D01*
X99263267Y-87839951D01*
X99193095Y-88101841D01*
X99191580Y-88107038D01*
X99181731Y-88138273D01*
X99179990Y-88143401D01*
X99165089Y-88184333D01*
X99163130Y-88189371D01*
X99150611Y-88219592D01*
X99148433Y-88224541D01*
X99095526Y-88338000D01*
X97885186Y-88338000D01*
X98008047Y-88215139D01*
X98138568Y-88028734D01*
X98234739Y-87822496D01*
X98293635Y-87602692D01*
X98313468Y-87376000D01*
X98293635Y-87149308D01*
X98247198Y-86976000D01*
X98234741Y-86929511D01*
X98234738Y-86929502D01*
X98229050Y-86917304D01*
X98138568Y-86723266D01*
X98062060Y-86614000D01*
X101156357Y-86614000D01*
X101176884Y-86835535D01*
X101176885Y-86835537D01*
X101237769Y-87049523D01*
X101237775Y-87049538D01*
X101336938Y-87248683D01*
X101336943Y-87248691D01*
X101471020Y-87426238D01*
X101635437Y-87576123D01*
X101635439Y-87576125D01*
X101824595Y-87693245D01*
X101824596Y-87693245D01*
X101824599Y-87693247D01*
X102032060Y-87773618D01*
X102250757Y-87814500D01*
X102250759Y-87814500D01*
X102473241Y-87814500D01*
X102473243Y-87814500D01*
X102691940Y-87773618D01*
X102899401Y-87693247D01*
X103088562Y-87576124D01*
X103252981Y-87426236D01*
X103387058Y-87248689D01*
X103486229Y-87049528D01*
X103547115Y-86835536D01*
X103567643Y-86614000D01*
X108776357Y-86614000D01*
X108796884Y-86835535D01*
X108796885Y-86835537D01*
X108857769Y-87049523D01*
X108857775Y-87049538D01*
X108956938Y-87248683D01*
X108956943Y-87248691D01*
X109091020Y-87426238D01*
X109255437Y-87576123D01*
X109255439Y-87576125D01*
X109444595Y-87693245D01*
X109444596Y-87693245D01*
X109444599Y-87693247D01*
X109652060Y-87773618D01*
X109870757Y-87814500D01*
X109870759Y-87814500D01*
X110093241Y-87814500D01*
X110093243Y-87814500D01*
X110311940Y-87773618D01*
X110519401Y-87693247D01*
X110708562Y-87576124D01*
X110872981Y-87426236D01*
X111007058Y-87248689D01*
X111106229Y-87049528D01*
X111167115Y-86835536D01*
X111187643Y-86614000D01*
X111167115Y-86392464D01*
X111106229Y-86178472D01*
X111106224Y-86178461D01*
X111007061Y-85979316D01*
X111007056Y-85979308D01*
X110872979Y-85801761D01*
X110708562Y-85651876D01*
X110708560Y-85651874D01*
X110519404Y-85534754D01*
X110519398Y-85534752D01*
X110311940Y-85454382D01*
X110093243Y-85413500D01*
X109870757Y-85413500D01*
X109652060Y-85454382D01*
X109520864Y-85505207D01*
X109444601Y-85534752D01*
X109444595Y-85534754D01*
X109255439Y-85651874D01*
X109255437Y-85651876D01*
X109091020Y-85801761D01*
X108956943Y-85979308D01*
X108956938Y-85979316D01*
X108857775Y-86178461D01*
X108857769Y-86178476D01*
X108796885Y-86392462D01*
X108796884Y-86392464D01*
X108776357Y-86613999D01*
X108776357Y-86614000D01*
X103567643Y-86614000D01*
X103547115Y-86392464D01*
X103486229Y-86178472D01*
X103486224Y-86178461D01*
X103387061Y-85979316D01*
X103387056Y-85979308D01*
X103252979Y-85801761D01*
X103088562Y-85651876D01*
X103088560Y-85651874D01*
X102899404Y-85534754D01*
X102899398Y-85534752D01*
X102691940Y-85454382D01*
X102473243Y-85413500D01*
X102250757Y-85413500D01*
X102032060Y-85454382D01*
X101900864Y-85505207D01*
X101824601Y-85534752D01*
X101824595Y-85534754D01*
X101635439Y-85651874D01*
X101635437Y-85651876D01*
X101471020Y-85801761D01*
X101336943Y-85979308D01*
X101336938Y-85979316D01*
X101237775Y-86178461D01*
X101237769Y-86178476D01*
X101176885Y-86392462D01*
X101176884Y-86392464D01*
X101156357Y-86613999D01*
X101156357Y-86614000D01*
X98062060Y-86614000D01*
X98008047Y-86536861D01*
X98008045Y-86536858D01*
X97847141Y-86375954D01*
X97660734Y-86245432D01*
X97660732Y-86245431D01*
X97454497Y-86149261D01*
X97454488Y-86149258D01*
X97234697Y-86090366D01*
X97234693Y-86090365D01*
X97234692Y-86090365D01*
X97234691Y-86090364D01*
X97234686Y-86090364D01*
X97008002Y-86070532D01*
X97007998Y-86070532D01*
X96781313Y-86090364D01*
X96781302Y-86090366D01*
X96561511Y-86149258D01*
X96561502Y-86149261D01*
X96355267Y-86245431D01*
X96355265Y-86245432D01*
X96168858Y-86375954D01*
X96007954Y-86536858D01*
X95877432Y-86723265D01*
X95877429Y-86723270D01*
X95870104Y-86738979D01*
X95823929Y-86791417D01*
X95756735Y-86810566D01*
X95689855Y-86790347D01*
X95645341Y-86738973D01*
X95638133Y-86723515D01*
X95638132Y-86723513D01*
X95587025Y-86650526D01*
X94908000Y-87329551D01*
X94908000Y-87323339D01*
X94880741Y-87221606D01*
X94828080Y-87130394D01*
X94753606Y-87055920D01*
X94662394Y-87003259D01*
X94560661Y-86976000D01*
X94554448Y-86976000D01*
X95233472Y-86296974D01*
X95160478Y-86245863D01*
X94954331Y-86149735D01*
X94954317Y-86149730D01*
X94734610Y-86090860D01*
X94734599Y-86090858D01*
X94508002Y-86071034D01*
X94507998Y-86071034D01*
X94281400Y-86090858D01*
X94281389Y-86090860D01*
X94061682Y-86149730D01*
X94061673Y-86149734D01*
X93855516Y-86245866D01*
X93855512Y-86245868D01*
X93782526Y-86296973D01*
X93782526Y-86296974D01*
X94461553Y-86976000D01*
X94455339Y-86976000D01*
X94353606Y-87003259D01*
X94262394Y-87055920D01*
X94187920Y-87130394D01*
X94135259Y-87221606D01*
X94108000Y-87323339D01*
X94108000Y-87329552D01*
X93428974Y-86650526D01*
X93428973Y-86650526D01*
X93377868Y-86723512D01*
X93377866Y-86723516D01*
X93330382Y-86825347D01*
X93284210Y-86877786D01*
X93217016Y-86896938D01*
X93150135Y-86876722D01*
X93105618Y-86825346D01*
X93058136Y-86723521D01*
X93058132Y-86723513D01*
X93007025Y-86650526D01*
X92328000Y-87329551D01*
X92328000Y-87323339D01*
X92300741Y-87221606D01*
X92248080Y-87130394D01*
X92173606Y-87055920D01*
X92082394Y-87003259D01*
X91980661Y-86976000D01*
X91974448Y-86976000D01*
X92653472Y-86296974D01*
X92580478Y-86245863D01*
X92374331Y-86149735D01*
X92374317Y-86149730D01*
X92154610Y-86090860D01*
X92154599Y-86090858D01*
X91928002Y-86071034D01*
X91927998Y-86071034D01*
X91701400Y-86090858D01*
X91701389Y-86090860D01*
X91481682Y-86149730D01*
X91481673Y-86149734D01*
X91275516Y-86245866D01*
X91275512Y-86245868D01*
X91202526Y-86296973D01*
X91202526Y-86296974D01*
X91881553Y-86976000D01*
X91875339Y-86976000D01*
X91773606Y-87003259D01*
X91682394Y-87055920D01*
X91607920Y-87130394D01*
X91555259Y-87221606D01*
X91528000Y-87323339D01*
X91528000Y-87329552D01*
X90848974Y-86650526D01*
X90848973Y-86650526D01*
X90797868Y-86723512D01*
X90797867Y-86723514D01*
X90790656Y-86738979D01*
X90744482Y-86791417D01*
X90677288Y-86810567D01*
X90610407Y-86790350D01*
X90565893Y-86738976D01*
X90558568Y-86723266D01*
X90428047Y-86536861D01*
X90428045Y-86536858D01*
X90267141Y-86375954D01*
X90080734Y-86245432D01*
X90080732Y-86245431D01*
X89874497Y-86149261D01*
X89874488Y-86149258D01*
X89654697Y-86090366D01*
X89654693Y-86090365D01*
X89654692Y-86090365D01*
X89654691Y-86090364D01*
X89654686Y-86090364D01*
X89428002Y-86070532D01*
X89427998Y-86070532D01*
X89201313Y-86090364D01*
X89201302Y-86090366D01*
X88981503Y-86149260D01*
X88979915Y-86149839D01*
X88979168Y-86149886D01*
X88976274Y-86150662D01*
X88976118Y-86150080D01*
X88910187Y-86154273D01*
X88849130Y-86120306D01*
X88816130Y-86058720D01*
X88813500Y-86033319D01*
X88813500Y-85675163D01*
X88833185Y-85608124D01*
X88849819Y-85587482D01*
X89424692Y-85012609D01*
X89424695Y-85012606D01*
X89498620Y-84901969D01*
X89513534Y-84865962D01*
X89549541Y-84779036D01*
X89575500Y-84648531D01*
X89575500Y-84515469D01*
X89575500Y-84336000D01*
X91100000Y-84336000D01*
X91100000Y-85227473D01*
X91114802Y-85221342D01*
X91119840Y-85219382D01*
X91160771Y-85204482D01*
X91165896Y-85202742D01*
X91197130Y-85192893D01*
X91202327Y-85191378D01*
X91464134Y-85121227D01*
X91469390Y-85119941D01*
X91501349Y-85112856D01*
X91506657Y-85111800D01*
X91549553Y-85104237D01*
X91554899Y-85103415D01*
X91587344Y-85099144D01*
X91592721Y-85098555D01*
X91862715Y-85074934D01*
X91868112Y-85074580D01*
X91900811Y-85073152D01*
X91906221Y-85073034D01*
X91949779Y-85073034D01*
X91955189Y-85073152D01*
X91987888Y-85074580D01*
X91993285Y-85074934D01*
X92263279Y-85098555D01*
X92268656Y-85099144D01*
X92301101Y-85103415D01*
X92306447Y-85104237D01*
X92349343Y-85111800D01*
X92354651Y-85112856D01*
X92386610Y-85119941D01*
X92391866Y-85121227D01*
X92602000Y-85177532D01*
X92602000Y-84336000D01*
X93600000Y-84336000D01*
X93600000Y-85263844D01*
X93659631Y-85236038D01*
X93664582Y-85233860D01*
X93694802Y-85221342D01*
X93699840Y-85219382D01*
X93740771Y-85204482D01*
X93745896Y-85202742D01*
X93777130Y-85192893D01*
X93782327Y-85191378D01*
X94044134Y-85121227D01*
X94049390Y-85119941D01*
X94081349Y-85112856D01*
X94086657Y-85111800D01*
X94129553Y-85104237D01*
X94134899Y-85103415D01*
X94167344Y-85099144D01*
X94172721Y-85098555D01*
X94442715Y-85074934D01*
X94448112Y-85074580D01*
X94480811Y-85073152D01*
X94486221Y-85073034D01*
X94529779Y-85073034D01*
X94535189Y-85073152D01*
X94567888Y-85074580D01*
X94573285Y-85074934D01*
X94843279Y-85098555D01*
X94848656Y-85099144D01*
X94881101Y-85103415D01*
X94886447Y-85104237D01*
X94929343Y-85111800D01*
X94934651Y-85112856D01*
X94966610Y-85119941D01*
X94971866Y-85121227D01*
X95102000Y-85156096D01*
X95102000Y-84336000D01*
X96100000Y-84336000D01*
X96100000Y-85263293D01*
X96159459Y-85235567D01*
X96164408Y-85233389D01*
X96194629Y-85220870D01*
X96199667Y-85218911D01*
X96240599Y-85204010D01*
X96245727Y-85202269D01*
X96276962Y-85192420D01*
X96282159Y-85190905D01*
X96544049Y-85120733D01*
X96549304Y-85119447D01*
X96581263Y-85112362D01*
X96586570Y-85111307D01*
X96629465Y-85103744D01*
X96634812Y-85102921D01*
X96667256Y-85098650D01*
X96672633Y-85098061D01*
X96942714Y-85074432D01*
X96948111Y-85074078D01*
X96980811Y-85072650D01*
X96986221Y-85072532D01*
X97029779Y-85072532D01*
X97035189Y-85072650D01*
X97067889Y-85074078D01*
X97073286Y-85074432D01*
X97343367Y-85098061D01*
X97348744Y-85098650D01*
X97381188Y-85102921D01*
X97386535Y-85103744D01*
X97429430Y-85111307D01*
X97434737Y-85112362D01*
X97466696Y-85119447D01*
X97471951Y-85120733D01*
X97602000Y-85155578D01*
X97602000Y-84336000D01*
X98600000Y-84336000D01*
X98600000Y-85717429D01*
X98720571Y-85838000D01*
X100102000Y-85838000D01*
X100102000Y-84794726D01*
X103600000Y-84794726D01*
X103633550Y-84815500D01*
X103638350Y-84818628D01*
X103666947Y-84838218D01*
X103671598Y-84841565D01*
X103708404Y-84869361D01*
X103712891Y-84872915D01*
X103739549Y-84895051D01*
X103743871Y-84898812D01*
X103942373Y-85079771D01*
X103946516Y-85083727D01*
X103971024Y-85108235D01*
X103974981Y-85112379D01*
X104006052Y-85146463D01*
X104009812Y-85150783D01*
X104031950Y-85177443D01*
X104035506Y-85181933D01*
X104197374Y-85396281D01*
X104200719Y-85400930D01*
X104220300Y-85429514D01*
X104223427Y-85434313D01*
X104247707Y-85473525D01*
X104250609Y-85478464D01*
X104267477Y-85508747D01*
X104270149Y-85513815D01*
X104389888Y-85754281D01*
X104392325Y-85759472D01*
X104406336Y-85791208D01*
X104408530Y-85796506D01*
X104424600Y-85838000D01*
X105102000Y-85838000D01*
X106100000Y-85838000D01*
X107602000Y-85838000D01*
X107602000Y-84336000D01*
X106745210Y-84336000D01*
X106577321Y-84393637D01*
X106572439Y-84395201D01*
X106542725Y-84404047D01*
X106537785Y-84405407D01*
X106497784Y-84415537D01*
X106492791Y-84416693D01*
X106462441Y-84423057D01*
X106457403Y-84424005D01*
X106181262Y-84470085D01*
X106176188Y-84470824D01*
X106145418Y-84474659D01*
X106140323Y-84475187D01*
X106100000Y-84478528D01*
X106100000Y-85838000D01*
X105102000Y-85838000D01*
X105102000Y-84339848D01*
X105090791Y-84336000D01*
X104205210Y-84336000D01*
X104037321Y-84393637D01*
X104032439Y-84395201D01*
X104002725Y-84404047D01*
X103997785Y-84405407D01*
X103957784Y-84415537D01*
X103952791Y-84416693D01*
X103922441Y-84423057D01*
X103917403Y-84424005D01*
X103641262Y-84470085D01*
X103636188Y-84470824D01*
X103605418Y-84474659D01*
X103600323Y-84475187D01*
X103600000Y-84475213D01*
X103600000Y-84794726D01*
X100102000Y-84794726D01*
X100102000Y-84336000D01*
X98600000Y-84336000D01*
X97602000Y-84336000D01*
X96100000Y-84336000D01*
X95102000Y-84336000D01*
X93600000Y-84336000D01*
X92602000Y-84336000D01*
X91100000Y-84336000D01*
X89575500Y-84336000D01*
X89575500Y-83338000D01*
X98600000Y-83338000D01*
X100102000Y-83338000D01*
X100102000Y-82042005D01*
X101932764Y-82042005D01*
X101952473Y-82279869D01*
X101952475Y-82279881D01*
X102011070Y-82511267D01*
X102054401Y-82610050D01*
X102106953Y-82729856D01*
X102237506Y-82929682D01*
X102399168Y-83105295D01*
X102587531Y-83251903D01*
X102797455Y-83365509D01*
X103023216Y-83443012D01*
X103258653Y-83482300D01*
X103258654Y-83482300D01*
X103497346Y-83482300D01*
X103497347Y-83482300D01*
X103732784Y-83443012D01*
X103958545Y-83365509D01*
X104168469Y-83251903D01*
X104356832Y-83105295D01*
X104518494Y-82929682D01*
X104544191Y-82890350D01*
X104597337Y-82844993D01*
X104666568Y-82835569D01*
X104729904Y-82865071D01*
X104751809Y-82890350D01*
X104777506Y-82929682D01*
X104939168Y-83105295D01*
X105127531Y-83251903D01*
X105337455Y-83365509D01*
X105563216Y-83443012D01*
X105798653Y-83482300D01*
X105798654Y-83482300D01*
X106037346Y-83482300D01*
X106037347Y-83482300D01*
X106272784Y-83443012D01*
X106498545Y-83365509D01*
X106708469Y-83251903D01*
X106896832Y-83105295D01*
X107058494Y-82929682D01*
X107084191Y-82890350D01*
X107137337Y-82844993D01*
X107206568Y-82835569D01*
X107269904Y-82865071D01*
X107291809Y-82890350D01*
X107317506Y-82929682D01*
X107479168Y-83105295D01*
X107667531Y-83251903D01*
X107877455Y-83365509D01*
X108103216Y-83443012D01*
X108338653Y-83482300D01*
X108338654Y-83482300D01*
X108577346Y-83482300D01*
X108577347Y-83482300D01*
X108812784Y-83443012D01*
X109038545Y-83365509D01*
X109248469Y-83251903D01*
X109436832Y-83105295D01*
X109598494Y-82929682D01*
X109729047Y-82729856D01*
X109824929Y-82511267D01*
X109883525Y-82279878D01*
X109884246Y-82271175D01*
X109903236Y-82042005D01*
X109903236Y-82041994D01*
X109883526Y-81804130D01*
X109883524Y-81804118D01*
X109824929Y-81572732D01*
X109729048Y-81354147D01*
X109729047Y-81354144D01*
X109598494Y-81154318D01*
X109436832Y-80978705D01*
X109248469Y-80832097D01*
X109152152Y-80779972D01*
X109038546Y-80718491D01*
X109038541Y-80718489D01*
X108812786Y-80640988D01*
X108655826Y-80614796D01*
X108577347Y-80601700D01*
X108338653Y-80601700D01*
X108279793Y-80611522D01*
X108103213Y-80640988D01*
X107877458Y-80718489D01*
X107877453Y-80718491D01*
X107667529Y-80832098D01*
X107479169Y-80978704D01*
X107317508Y-81154315D01*
X107291808Y-81193652D01*
X107238661Y-81239008D01*
X107169430Y-81248431D01*
X107106094Y-81218928D01*
X107084192Y-81193652D01*
X107080404Y-81187854D01*
X107058494Y-81154318D01*
X106896832Y-80978705D01*
X106708469Y-80832097D01*
X106612152Y-80779972D01*
X106498546Y-80718491D01*
X106498541Y-80718489D01*
X106272786Y-80640988D01*
X106115826Y-80614796D01*
X106037347Y-80601700D01*
X105798653Y-80601700D01*
X105739793Y-80611522D01*
X105563213Y-80640988D01*
X105337458Y-80718489D01*
X105337453Y-80718491D01*
X105127529Y-80832098D01*
X104939169Y-80978704D01*
X104777508Y-81154315D01*
X104751808Y-81193652D01*
X104698661Y-81239008D01*
X104629430Y-81248431D01*
X104566094Y-81218928D01*
X104544192Y-81193652D01*
X104540404Y-81187854D01*
X104518494Y-81154318D01*
X104356832Y-80978705D01*
X104168469Y-80832097D01*
X104072152Y-80779972D01*
X103958546Y-80718491D01*
X103958541Y-80718489D01*
X103732786Y-80640988D01*
X103575826Y-80614796D01*
X103497347Y-80601700D01*
X103258653Y-80601700D01*
X103199793Y-80611522D01*
X103023213Y-80640988D01*
X102797458Y-80718489D01*
X102797453Y-80718491D01*
X102587529Y-80832098D01*
X102399169Y-80978704D01*
X102237506Y-81154317D01*
X102106951Y-81354147D01*
X102011070Y-81572732D01*
X101952475Y-81804118D01*
X101952473Y-81804130D01*
X101932764Y-82041994D01*
X101932764Y-82042005D01*
X100102000Y-82042005D01*
X100102000Y-81836000D01*
X98717000Y-81836000D01*
X98717000Y-82087248D01*
X98716955Y-82090572D01*
X98716416Y-82110674D01*
X98716283Y-82113994D01*
X98714851Y-82140680D01*
X98714629Y-82143989D01*
X98713019Y-82163982D01*
X98712708Y-82167285D01*
X98701538Y-82271175D01*
X98700471Y-82278843D01*
X98692564Y-82325029D01*
X98691019Y-82332619D01*
X98676674Y-82393330D01*
X98674658Y-82400809D01*
X98661050Y-82445672D01*
X98658571Y-82453012D01*
X98600000Y-82610050D01*
X98600000Y-83338000D01*
X89575500Y-83338000D01*
X89575500Y-81601804D01*
X89595185Y-81534765D01*
X89647989Y-81489010D01*
X89717147Y-81479066D01*
X89780703Y-81508091D01*
X89817431Y-81563486D01*
X89839450Y-81631255D01*
X89927535Y-81804130D01*
X89943283Y-81835038D01*
X90077714Y-82020066D01*
X90239434Y-82181786D01*
X90424462Y-82316217D01*
X90627327Y-82419582D01*
X90628244Y-82420049D01*
X90845751Y-82490721D01*
X90845752Y-82490721D01*
X90845755Y-82490722D01*
X91071646Y-82526500D01*
X91071647Y-82526500D01*
X91300353Y-82526500D01*
X91300354Y-82526500D01*
X91526245Y-82490722D01*
X91526248Y-82490721D01*
X91526249Y-82490721D01*
X91743755Y-82420049D01*
X91743755Y-82420048D01*
X91743758Y-82420048D01*
X91947538Y-82316217D01*
X92132566Y-82181786D01*
X92294286Y-82020066D01*
X92355992Y-81935134D01*
X92411319Y-81892470D01*
X92480932Y-81886491D01*
X92542727Y-81919096D01*
X92556626Y-81935135D01*
X92618097Y-82019741D01*
X92618097Y-82019742D01*
X92779757Y-82181402D01*
X92964723Y-82315788D01*
X93168429Y-82419582D01*
X93385871Y-82490234D01*
X93476000Y-82504509D01*
X93476000Y-81516747D01*
X93513708Y-81538518D01*
X93653591Y-81576000D01*
X93798409Y-81576000D01*
X93938292Y-81538518D01*
X93976000Y-81516747D01*
X93976000Y-82504508D01*
X94066128Y-82490234D01*
X94283570Y-82419582D01*
X94487276Y-82315788D01*
X94670059Y-82182988D01*
X94735865Y-82159508D01*
X94803919Y-82175333D01*
X94852614Y-82225439D01*
X94859127Y-82239974D01*
X94869701Y-82268326D01*
X94869706Y-82268335D01*
X94955952Y-82383544D01*
X94955955Y-82383547D01*
X95071164Y-82469793D01*
X95071171Y-82469797D01*
X95206017Y-82520091D01*
X95206016Y-82520091D01*
X95212944Y-82520835D01*
X95265627Y-82526500D01*
X97266372Y-82526499D01*
X97325983Y-82520091D01*
X97460831Y-82469796D01*
X97576046Y-82383546D01*
X97662296Y-82268331D01*
X97712591Y-82133483D01*
X97719000Y-82073873D01*
X97718999Y-79978128D01*
X97712591Y-79918517D01*
X97705816Y-79900353D01*
X97662297Y-79783671D01*
X97662293Y-79783664D01*
X97576047Y-79668455D01*
X97576044Y-79668452D01*
X97460835Y-79582206D01*
X97460828Y-79582202D01*
X97325982Y-79531908D01*
X97325983Y-79531908D01*
X97266383Y-79525501D01*
X97266381Y-79525500D01*
X97266373Y-79525500D01*
X97266364Y-79525500D01*
X95265629Y-79525500D01*
X95265623Y-79525501D01*
X95206016Y-79531908D01*
X95071171Y-79582202D01*
X95071164Y-79582206D01*
X94955955Y-79668452D01*
X94955952Y-79668455D01*
X94869706Y-79783664D01*
X94869702Y-79783671D01*
X94859127Y-79812026D01*
X94817256Y-79867960D01*
X94751791Y-79892377D01*
X94683518Y-79877525D01*
X94670060Y-79869011D01*
X94487279Y-79736213D01*
X94283568Y-79632417D01*
X94066124Y-79561765D01*
X93976000Y-79547490D01*
X93976000Y-80535252D01*
X93938292Y-80513482D01*
X93798409Y-80476000D01*
X93653591Y-80476000D01*
X93513708Y-80513482D01*
X93476000Y-80535252D01*
X93476000Y-79547490D01*
X93475999Y-79547490D01*
X93385875Y-79561765D01*
X93168431Y-79632417D01*
X92964723Y-79736211D01*
X92779757Y-79870597D01*
X92618097Y-80032257D01*
X92556627Y-80116864D01*
X92501297Y-80159529D01*
X92431684Y-80165508D01*
X92369889Y-80132902D01*
X92355991Y-80116864D01*
X92294286Y-80031934D01*
X92132566Y-79870214D01*
X91947538Y-79735783D01*
X91915312Y-79719363D01*
X91743755Y-79631950D01*
X91526248Y-79561278D01*
X91340812Y-79531908D01*
X91300354Y-79525500D01*
X91071646Y-79525500D01*
X91031188Y-79531908D01*
X90880807Y-79555726D01*
X90811513Y-79546771D01*
X90758061Y-79501775D01*
X90737422Y-79435024D01*
X90756147Y-79367710D01*
X90773728Y-79345572D01*
X90783300Y-79336000D01*
X98600000Y-79336000D01*
X98600000Y-79441948D01*
X98658569Y-79598982D01*
X98661048Y-79606321D01*
X98674653Y-79651172D01*
X98676668Y-79658648D01*
X98691016Y-79719363D01*
X98692561Y-79726955D01*
X98700472Y-79773160D01*
X98701541Y-79780833D01*
X98712712Y-79884756D01*
X98713022Y-79888061D01*
X98714635Y-79908101D01*
X98714858Y-79911422D01*
X98716286Y-79938105D01*
X98716419Y-79941418D01*
X98716955Y-79961466D01*
X98716999Y-79964780D01*
X98716999Y-80838000D01*
X100102000Y-80838000D01*
X100102000Y-79336000D01*
X101100000Y-79336000D01*
X101100000Y-80838000D01*
X101252641Y-80838000D01*
X101257463Y-80829908D01*
X101260176Y-80825561D01*
X101413299Y-80591189D01*
X101416191Y-80586958D01*
X101434212Y-80561718D01*
X101437277Y-80557607D01*
X101462622Y-80525045D01*
X101465852Y-80521067D01*
X101485888Y-80497411D01*
X101489280Y-80493570D01*
X101678885Y-80287603D01*
X101682432Y-80283907D01*
X101704349Y-80261989D01*
X101708048Y-80258439D01*
X101738407Y-80230491D01*
X101742247Y-80227100D01*
X101765916Y-80207052D01*
X101769898Y-80203819D01*
X101990831Y-80031860D01*
X101994940Y-80028795D01*
X102020179Y-80010775D01*
X102024413Y-80007882D01*
X102058958Y-79985314D01*
X102063302Y-79982603D01*
X102089933Y-79966734D01*
X102094390Y-79964201D01*
X102340611Y-79830952D01*
X102345171Y-79828605D01*
X102373047Y-79814978D01*
X102377701Y-79812821D01*
X102415492Y-79796247D01*
X102420226Y-79794287D01*
X102449094Y-79783024D01*
X102453901Y-79781262D01*
X102602000Y-79730419D01*
X102602000Y-79336000D01*
X103600000Y-79336000D01*
X103600000Y-79608786D01*
X103600323Y-79608813D01*
X103605418Y-79609341D01*
X103636188Y-79613176D01*
X103641262Y-79613915D01*
X103917403Y-79659995D01*
X103922441Y-79660943D01*
X103952791Y-79667307D01*
X103957784Y-79668463D01*
X103997785Y-79678593D01*
X104002725Y-79679953D01*
X104032439Y-79688799D01*
X104037321Y-79690363D01*
X104302099Y-79781262D01*
X104306906Y-79783024D01*
X104335774Y-79794287D01*
X104340508Y-79796247D01*
X104378299Y-79812821D01*
X104382953Y-79814978D01*
X104410829Y-79828605D01*
X104415389Y-79830952D01*
X104648000Y-79956835D01*
X104880611Y-79830952D01*
X104885171Y-79828605D01*
X104913047Y-79814978D01*
X104917701Y-79812821D01*
X104955492Y-79796247D01*
X104960226Y-79794287D01*
X104989094Y-79783024D01*
X104993901Y-79781262D01*
X105102000Y-79744151D01*
X105102000Y-79336000D01*
X106100000Y-79336000D01*
X106100000Y-79605471D01*
X106140323Y-79608813D01*
X106145418Y-79609341D01*
X106176188Y-79613176D01*
X106181262Y-79613915D01*
X106457403Y-79659995D01*
X106462441Y-79660943D01*
X106492791Y-79667307D01*
X106497784Y-79668463D01*
X106537785Y-79678593D01*
X106542725Y-79679953D01*
X106572439Y-79688799D01*
X106577321Y-79690363D01*
X106842099Y-79781262D01*
X106846906Y-79783024D01*
X106875774Y-79794287D01*
X106880508Y-79796247D01*
X106918299Y-79812821D01*
X106922953Y-79814978D01*
X106950829Y-79828605D01*
X106955389Y-79830952D01*
X107188000Y-79956835D01*
X107420611Y-79830952D01*
X107425171Y-79828605D01*
X107453047Y-79814978D01*
X107457701Y-79812821D01*
X107495492Y-79796247D01*
X107500226Y-79794287D01*
X107529094Y-79783024D01*
X107533901Y-79781262D01*
X107602000Y-79757883D01*
X107602000Y-79336000D01*
X108600000Y-79336000D01*
X108600000Y-79603741D01*
X108603102Y-79603806D01*
X108634082Y-79605087D01*
X108639200Y-79605405D01*
X108680323Y-79608813D01*
X108685418Y-79609341D01*
X108716188Y-79613176D01*
X108721262Y-79613915D01*
X108997403Y-79659995D01*
X109002441Y-79660943D01*
X109032791Y-79667307D01*
X109037784Y-79668463D01*
X109077785Y-79678593D01*
X109082725Y-79679953D01*
X109112439Y-79688799D01*
X109117321Y-79690363D01*
X109382099Y-79781262D01*
X109386906Y-79783024D01*
X109415774Y-79794287D01*
X109420508Y-79796247D01*
X109458299Y-79812821D01*
X109462953Y-79814978D01*
X109490829Y-79828605D01*
X109495389Y-79830952D01*
X109741610Y-79964201D01*
X109746067Y-79966734D01*
X109772698Y-79982603D01*
X109777042Y-79985314D01*
X109811587Y-80007882D01*
X109815821Y-80010775D01*
X109841060Y-80028795D01*
X109845169Y-80031860D01*
X110066102Y-80203819D01*
X110070084Y-80207052D01*
X110093753Y-80227100D01*
X110097593Y-80230491D01*
X110102000Y-80234548D01*
X110102000Y-79336000D01*
X108600000Y-79336000D01*
X107602000Y-79336000D01*
X106100000Y-79336000D01*
X105102000Y-79336000D01*
X103600000Y-79336000D01*
X102602000Y-79336000D01*
X101100000Y-79336000D01*
X100102000Y-79336000D01*
X98600000Y-79336000D01*
X90783300Y-79336000D01*
X91781300Y-78338000D01*
X93600000Y-78338000D01*
X95102000Y-78338000D01*
X95102000Y-76836000D01*
X96100000Y-76836000D01*
X96100000Y-78338000D01*
X97602000Y-78338000D01*
X97602000Y-76836000D01*
X98600000Y-76836000D01*
X98600000Y-78338000D01*
X100102000Y-78338000D01*
X100102000Y-76836000D01*
X101100000Y-76836000D01*
X101100000Y-78338000D01*
X102602000Y-78338000D01*
X102602000Y-76836000D01*
X103600000Y-76836000D01*
X103600000Y-78338000D01*
X105102000Y-78338000D01*
X105102000Y-76836000D01*
X106100000Y-76836000D01*
X106100000Y-78338000D01*
X107602000Y-78338000D01*
X107602000Y-76836000D01*
X108600000Y-76836000D01*
X108600000Y-78338000D01*
X110102000Y-78338000D01*
X110102000Y-76836000D01*
X108600000Y-76836000D01*
X107602000Y-76836000D01*
X106100000Y-76836000D01*
X105102000Y-76836000D01*
X103600000Y-76836000D01*
X102602000Y-76836000D01*
X101100000Y-76836000D01*
X100102000Y-76836000D01*
X98600000Y-76836000D01*
X97602000Y-76836000D01*
X96100000Y-76836000D01*
X95102000Y-76836000D01*
X94694686Y-76836000D01*
X93600000Y-77930684D01*
X93600000Y-78338000D01*
X91781300Y-78338000D01*
X94265692Y-75853609D01*
X94265692Y-75853608D01*
X94265695Y-75853606D01*
X94339620Y-75742969D01*
X94390541Y-75620036D01*
X94416500Y-75489531D01*
X94416500Y-75356469D01*
X94416500Y-74336000D01*
X96100000Y-74336000D01*
X96100000Y-75838000D01*
X97602000Y-75838000D01*
X97602000Y-74336000D01*
X98600000Y-74336000D01*
X98600000Y-75838000D01*
X100102000Y-75838000D01*
X111100000Y-75838000D01*
X111548425Y-75838000D01*
X112375865Y-75010560D01*
X112377784Y-75009277D01*
X112295956Y-74892415D01*
X112292950Y-74887916D01*
X112275358Y-74860302D01*
X112272549Y-74855673D01*
X112250771Y-74817949D01*
X112248171Y-74813209D01*
X112233064Y-74784188D01*
X112230672Y-74779337D01*
X112112402Y-74525708D01*
X112110223Y-74520756D01*
X112097705Y-74490535D01*
X112095747Y-74485500D01*
X112080846Y-74444568D01*
X112079105Y-74439440D01*
X112069256Y-74408205D01*
X112067741Y-74403008D01*
X112049787Y-74336000D01*
X112041330Y-74336000D01*
X111973220Y-74518611D01*
X111971600Y-74522728D01*
X111961361Y-74547449D01*
X111959596Y-74551505D01*
X111944794Y-74583921D01*
X111942882Y-74587918D01*
X111930887Y-74611882D01*
X111928834Y-74615806D01*
X111774606Y-74898253D01*
X111772414Y-74902102D01*
X111758740Y-74925147D01*
X111756411Y-74928917D01*
X111737144Y-74958893D01*
X111734687Y-74962570D01*
X111719425Y-74984550D01*
X111716838Y-74988137D01*
X111524005Y-75245732D01*
X111521293Y-75249224D01*
X111504499Y-75270066D01*
X111501660Y-75273463D01*
X111478325Y-75300395D01*
X111475363Y-75303692D01*
X111457108Y-75323299D01*
X111454035Y-75326484D01*
X111226484Y-75554035D01*
X111223299Y-75557108D01*
X111203692Y-75575363D01*
X111200395Y-75578325D01*
X111173463Y-75601660D01*
X111170066Y-75604499D01*
X111149224Y-75621293D01*
X111145732Y-75624006D01*
X111100000Y-75658240D01*
X111100000Y-75838000D01*
X100102000Y-75838000D01*
X100102000Y-74867844D01*
X102140000Y-74867844D01*
X102146401Y-74927372D01*
X102146403Y-74927379D01*
X102196645Y-75062086D01*
X102196649Y-75062093D01*
X102282809Y-75177187D01*
X102282812Y-75177190D01*
X102397906Y-75263350D01*
X102397913Y-75263354D01*
X102532620Y-75313596D01*
X102532627Y-75313598D01*
X102592155Y-75319999D01*
X102592172Y-75320000D01*
X103890000Y-75320000D01*
X103890000Y-74039064D01*
X103918316Y-74050793D01*
X104065147Y-74080000D01*
X104214853Y-74080000D01*
X104361684Y-74050793D01*
X104390000Y-74039064D01*
X104390000Y-75320000D01*
X105687828Y-75320000D01*
X105687844Y-75319999D01*
X105747372Y-75313598D01*
X105747379Y-75313596D01*
X105882086Y-75263354D01*
X105882093Y-75263350D01*
X105997187Y-75177190D01*
X105997190Y-75177187D01*
X106083350Y-75062093D01*
X106083354Y-75062086D01*
X106133596Y-74927379D01*
X106133598Y-74927372D01*
X106139999Y-74867844D01*
X106140000Y-74867827D01*
X106140000Y-73570000D01*
X104859064Y-73570000D01*
X104870793Y-73541684D01*
X104900000Y-73394853D01*
X104900000Y-73320001D01*
X107214390Y-73320001D01*
X107234804Y-73605433D01*
X107295628Y-73885037D01*
X107295630Y-73885043D01*
X107295631Y-73885046D01*
X107357452Y-74050793D01*
X107395635Y-74153166D01*
X107532770Y-74404309D01*
X107532775Y-74404317D01*
X107704254Y-74633387D01*
X107704270Y-74633405D01*
X107906594Y-74835729D01*
X107906612Y-74835745D01*
X108135682Y-75007224D01*
X108135690Y-75007229D01*
X108386833Y-75144364D01*
X108386832Y-75144364D01*
X108386836Y-75144365D01*
X108386839Y-75144367D01*
X108654954Y-75244369D01*
X108654960Y-75244370D01*
X108654962Y-75244371D01*
X108934566Y-75305195D01*
X108934568Y-75305195D01*
X108934572Y-75305196D01*
X109187688Y-75323299D01*
X109219999Y-75325610D01*
X109220000Y-75325610D01*
X109220001Y-75325610D01*
X109252312Y-75323299D01*
X109505428Y-75305196D01*
X109666919Y-75270066D01*
X109785037Y-75244371D01*
X109785037Y-75244370D01*
X109785046Y-75244369D01*
X110053161Y-75144367D01*
X110304315Y-75007226D01*
X110533395Y-74835739D01*
X110735739Y-74633395D01*
X110907226Y-74404315D01*
X111044367Y-74153161D01*
X111144369Y-73885046D01*
X111193325Y-73660000D01*
X112944341Y-73660000D01*
X112964936Y-73895403D01*
X112964938Y-73895413D01*
X113026094Y-74123655D01*
X113026096Y-74123659D01*
X113026097Y-74123663D01*
X113039855Y-74153166D01*
X113125965Y-74337830D01*
X113125967Y-74337834D01*
X113175242Y-74408205D01*
X113261505Y-74531401D01*
X113428599Y-74698495D01*
X113525384Y-74766265D01*
X113622165Y-74834032D01*
X113622167Y-74834033D01*
X113622170Y-74834035D01*
X113836337Y-74933903D01*
X114064592Y-74995063D01*
X114252918Y-75011539D01*
X114299999Y-75015659D01*
X114300000Y-75015659D01*
X114300001Y-75015659D01*
X114339234Y-75012226D01*
X114535408Y-74995063D01*
X114763663Y-74933903D01*
X114977830Y-74834035D01*
X115171401Y-74698495D01*
X115338495Y-74531401D01*
X115474035Y-74337830D01*
X115573903Y-74123663D01*
X115635063Y-73895408D01*
X115655659Y-73660000D01*
X115635063Y-73424592D01*
X115573903Y-73196337D01*
X115474035Y-72982171D01*
X115458514Y-72960005D01*
X115338496Y-72788600D01*
X115279433Y-72729537D01*
X115216179Y-72666283D01*
X115182696Y-72604963D01*
X115187680Y-72535271D01*
X115229551Y-72479337D01*
X115260529Y-72462422D01*
X115392086Y-72413354D01*
X115392093Y-72413350D01*
X115507187Y-72327190D01*
X115507190Y-72327187D01*
X115593350Y-72212093D01*
X115593354Y-72212086D01*
X115643596Y-72077379D01*
X115643598Y-72077372D01*
X115649999Y-72017844D01*
X115650000Y-72017827D01*
X115650000Y-71370000D01*
X114733012Y-71370000D01*
X114765925Y-71312993D01*
X114800000Y-71185826D01*
X114800000Y-71054174D01*
X114765925Y-70927007D01*
X114733012Y-70870000D01*
X115650000Y-70870000D01*
X115650000Y-70222172D01*
X115649999Y-70222155D01*
X115643598Y-70162627D01*
X115643596Y-70162620D01*
X115593354Y-70027913D01*
X115593350Y-70027906D01*
X115507190Y-69912812D01*
X115507187Y-69912809D01*
X115392093Y-69826649D01*
X115392086Y-69826645D01*
X115257379Y-69776403D01*
X115257372Y-69776401D01*
X115197844Y-69770000D01*
X114550000Y-69770000D01*
X114550000Y-70686988D01*
X114492993Y-70654075D01*
X114365826Y-70620000D01*
X114234174Y-70620000D01*
X114107007Y-70654075D01*
X114050000Y-70686988D01*
X114050000Y-69770000D01*
X113402155Y-69770000D01*
X113342627Y-69776401D01*
X113342620Y-69776403D01*
X113207913Y-69826645D01*
X113207906Y-69826649D01*
X113092812Y-69912809D01*
X113092809Y-69912812D01*
X113006649Y-70027906D01*
X113006645Y-70027913D01*
X112956403Y-70162620D01*
X112956401Y-70162627D01*
X112950000Y-70222155D01*
X112950000Y-70870000D01*
X113866988Y-70870000D01*
X113834075Y-70927007D01*
X113800000Y-71054174D01*
X113800000Y-71185826D01*
X113834075Y-71312993D01*
X113866988Y-71370000D01*
X112950000Y-71370000D01*
X112950000Y-72017844D01*
X112956401Y-72077372D01*
X112956403Y-72077379D01*
X113006645Y-72212086D01*
X113006649Y-72212093D01*
X113092809Y-72327187D01*
X113092812Y-72327190D01*
X113207906Y-72413350D01*
X113207913Y-72413354D01*
X113339470Y-72462421D01*
X113395403Y-72504292D01*
X113419821Y-72569756D01*
X113404970Y-72638029D01*
X113383819Y-72666284D01*
X113261503Y-72788600D01*
X113125965Y-72982169D01*
X113125964Y-72982171D01*
X113026098Y-73196335D01*
X113026094Y-73196344D01*
X112964938Y-73424586D01*
X112964936Y-73424596D01*
X112944341Y-73659999D01*
X112944341Y-73660000D01*
X111193325Y-73660000D01*
X111205196Y-73605428D01*
X111225610Y-73320000D01*
X111205196Y-73034572D01*
X111198012Y-73001549D01*
X111144371Y-72754962D01*
X111144370Y-72754960D01*
X111144369Y-72754954D01*
X111044367Y-72486839D01*
X111038262Y-72475659D01*
X110907229Y-72235690D01*
X110907224Y-72235682D01*
X110735745Y-72006612D01*
X110735729Y-72006594D01*
X110533405Y-71804270D01*
X110533387Y-71804254D01*
X110304317Y-71632775D01*
X110304309Y-71632770D01*
X110053166Y-71495635D01*
X110053167Y-71495635D01*
X109869168Y-71427007D01*
X109785046Y-71395631D01*
X109785043Y-71395630D01*
X109785037Y-71395628D01*
X109505433Y-71334804D01*
X109220001Y-71314390D01*
X109219999Y-71314390D01*
X108934566Y-71334804D01*
X108654962Y-71395628D01*
X108386833Y-71495635D01*
X108135690Y-71632770D01*
X108135682Y-71632775D01*
X107906612Y-71804254D01*
X107906594Y-71804270D01*
X107704270Y-72006594D01*
X107704254Y-72006612D01*
X107532775Y-72235682D01*
X107532770Y-72235690D01*
X107395635Y-72486833D01*
X107295628Y-72754962D01*
X107234804Y-73034566D01*
X107214390Y-73319998D01*
X107214390Y-73320001D01*
X104900000Y-73320001D01*
X104900000Y-73245147D01*
X104870793Y-73098316D01*
X104859064Y-73070000D01*
X106140000Y-73070000D01*
X106140000Y-71772172D01*
X106139999Y-71772155D01*
X106133598Y-71712627D01*
X106133596Y-71712620D01*
X106083354Y-71577913D01*
X106083350Y-71577906D01*
X105997190Y-71462812D01*
X105997187Y-71462809D01*
X105882093Y-71376649D01*
X105882086Y-71376645D01*
X105747379Y-71326403D01*
X105747372Y-71326401D01*
X105687844Y-71320000D01*
X104390000Y-71320000D01*
X104390000Y-72600935D01*
X104361684Y-72589207D01*
X104214853Y-72560000D01*
X104065147Y-72560000D01*
X103918316Y-72589207D01*
X103890000Y-72600935D01*
X103890000Y-71320000D01*
X102592155Y-71320000D01*
X102532627Y-71326401D01*
X102532620Y-71326403D01*
X102397913Y-71376645D01*
X102397906Y-71376649D01*
X102282812Y-71462809D01*
X102282809Y-71462812D01*
X102196649Y-71577906D01*
X102196645Y-71577913D01*
X102146403Y-71712620D01*
X102146401Y-71712627D01*
X102140000Y-71772155D01*
X102140000Y-73070000D01*
X103420936Y-73070000D01*
X103409207Y-73098316D01*
X103380000Y-73245147D01*
X103380000Y-73394853D01*
X103409207Y-73541684D01*
X103420936Y-73570000D01*
X102140000Y-73570000D01*
X102140000Y-74867844D01*
X100102000Y-74867844D01*
X100102000Y-74336000D01*
X98600000Y-74336000D01*
X97602000Y-74336000D01*
X96100000Y-74336000D01*
X94416500Y-74336000D01*
X94416500Y-72594499D01*
X94436185Y-72527460D01*
X94488989Y-72481705D01*
X94540500Y-72470499D01*
X94638871Y-72470499D01*
X94638872Y-72470499D01*
X94698483Y-72464091D01*
X94833331Y-72413796D01*
X94948546Y-72327546D01*
X95034796Y-72212331D01*
X95083810Y-72080916D01*
X95125681Y-72024984D01*
X95191145Y-72000566D01*
X95259418Y-72015417D01*
X95287673Y-72036569D01*
X95409599Y-72158495D01*
X95490535Y-72215167D01*
X95603165Y-72294032D01*
X95603167Y-72294033D01*
X95603170Y-72294035D01*
X95817337Y-72393903D01*
X96045592Y-72455063D01*
X96222034Y-72470500D01*
X96280999Y-72475659D01*
X96281000Y-72475659D01*
X96281001Y-72475659D01*
X96339966Y-72470500D01*
X96516408Y-72455063D01*
X96744663Y-72393903D01*
X96958830Y-72294035D01*
X97152401Y-72158495D01*
X97319495Y-71991401D01*
X97449425Y-71805842D01*
X97504002Y-71762217D01*
X97573500Y-71755023D01*
X97635855Y-71786546D01*
X97652575Y-71805842D01*
X97782500Y-71991395D01*
X97782505Y-71991401D01*
X97949599Y-72158495D01*
X98030535Y-72215167D01*
X98143165Y-72294032D01*
X98143167Y-72294033D01*
X98143170Y-72294035D01*
X98357337Y-72393903D01*
X98585592Y-72455063D01*
X98762034Y-72470500D01*
X98820999Y-72475659D01*
X98821000Y-72475659D01*
X98821001Y-72475659D01*
X98879966Y-72470500D01*
X99056408Y-72455063D01*
X99284663Y-72393903D01*
X99498830Y-72294035D01*
X99692401Y-72158495D01*
X99859495Y-71991401D01*
X99995035Y-71797830D01*
X100094903Y-71583663D01*
X100156063Y-71355408D01*
X100176659Y-71120000D01*
X100156063Y-70884592D01*
X100102648Y-70685243D01*
X100094905Y-70656344D01*
X100094904Y-70656343D01*
X100094903Y-70656337D01*
X99995035Y-70442171D01*
X99989425Y-70434158D01*
X99859494Y-70248597D01*
X99822897Y-70212000D01*
X101100000Y-70212000D01*
X101100000Y-70551436D01*
X101125695Y-70647334D01*
X101126981Y-70652588D01*
X101134066Y-70684546D01*
X101135121Y-70689854D01*
X101142684Y-70732749D01*
X101143507Y-70738096D01*
X101147778Y-70770539D01*
X101148367Y-70775916D01*
X101153799Y-70838000D01*
X101503884Y-70838000D01*
X101505243Y-70836184D01*
X101510796Y-70829293D01*
X101545876Y-70788808D01*
X101551908Y-70782329D01*
X101602329Y-70731908D01*
X101608808Y-70725876D01*
X101649293Y-70690796D01*
X101656184Y-70685243D01*
X101828368Y-70556345D01*
X101835638Y-70551297D01*
X101880705Y-70522333D01*
X101888319Y-70517815D01*
X101950909Y-70483638D01*
X101958823Y-70479677D01*
X102007559Y-70457419D01*
X102015739Y-70454030D01*
X102213096Y-70380421D01*
X102220436Y-70377942D01*
X102265305Y-70364332D01*
X102272788Y-70362315D01*
X102333499Y-70347972D01*
X102341084Y-70346428D01*
X102387262Y-70338522D01*
X102394931Y-70337455D01*
X102498783Y-70326289D01*
X102502095Y-70325977D01*
X102522144Y-70324364D01*
X102525458Y-70324142D01*
X102552145Y-70322713D01*
X102555461Y-70322580D01*
X102575509Y-70322044D01*
X102578823Y-70322000D01*
X102602000Y-70322000D01*
X102602000Y-70212000D01*
X106100000Y-70212000D01*
X106100000Y-70392764D01*
X106264261Y-70454030D01*
X106272441Y-70457419D01*
X106321177Y-70479677D01*
X106329091Y-70483638D01*
X106391681Y-70517815D01*
X106399295Y-70522333D01*
X106444362Y-70551297D01*
X106451632Y-70556345D01*
X106623816Y-70685243D01*
X106630707Y-70690796D01*
X106671192Y-70725876D01*
X106677671Y-70731908D01*
X106728092Y-70782329D01*
X106734124Y-70788808D01*
X106769204Y-70829293D01*
X106774757Y-70836184D01*
X106776116Y-70838000D01*
X107532042Y-70838000D01*
X107551863Y-70823162D01*
X107555450Y-70820575D01*
X107577430Y-70805313D01*
X107581107Y-70802856D01*
X107602000Y-70789427D01*
X107602000Y-70212000D01*
X111100000Y-70212000D01*
X111100000Y-70838000D01*
X111952000Y-70838000D01*
X111952000Y-70212000D01*
X111100000Y-70212000D01*
X107602000Y-70212000D01*
X106100000Y-70212000D01*
X102602000Y-70212000D01*
X101100000Y-70212000D01*
X99822897Y-70212000D01*
X99692402Y-70081506D01*
X99692395Y-70081501D01*
X99498834Y-69945967D01*
X99498830Y-69945965D01*
X99427727Y-69912809D01*
X99284663Y-69846097D01*
X99284659Y-69846096D01*
X99284655Y-69846094D01*
X99056413Y-69784938D01*
X99056403Y-69784936D01*
X98821001Y-69764341D01*
X98820999Y-69764341D01*
X98585596Y-69784936D01*
X98585586Y-69784938D01*
X98357344Y-69846094D01*
X98357335Y-69846098D01*
X98143171Y-69945964D01*
X98143169Y-69945965D01*
X97949597Y-70081505D01*
X97782505Y-70248597D01*
X97652575Y-70434158D01*
X97597998Y-70477783D01*
X97528500Y-70484977D01*
X97466145Y-70453454D01*
X97449425Y-70434158D01*
X97319494Y-70248597D01*
X97152402Y-70081506D01*
X97152395Y-70081501D01*
X96958834Y-69945967D01*
X96958830Y-69945965D01*
X96887727Y-69912809D01*
X96744663Y-69846097D01*
X96744659Y-69846096D01*
X96744655Y-69846094D01*
X96516413Y-69784938D01*
X96516403Y-69784936D01*
X96281001Y-69764341D01*
X96280999Y-69764341D01*
X96045596Y-69784936D01*
X96045586Y-69784938D01*
X95817344Y-69846094D01*
X95817335Y-69846098D01*
X95603171Y-69945964D01*
X95603169Y-69945965D01*
X95409600Y-70081503D01*
X95287673Y-70203430D01*
X95226350Y-70236914D01*
X95156658Y-70231930D01*
X95100725Y-70190058D01*
X95083810Y-70159081D01*
X95034797Y-70027671D01*
X95034793Y-70027664D01*
X94948547Y-69912455D01*
X94948544Y-69912452D01*
X94833335Y-69826206D01*
X94833328Y-69826202D01*
X94698482Y-69775908D01*
X94698483Y-69775908D01*
X94638883Y-69769501D01*
X94638881Y-69769500D01*
X94638873Y-69769500D01*
X94638864Y-69769500D01*
X92843129Y-69769500D01*
X92843123Y-69769501D01*
X92783516Y-69775908D01*
X92648671Y-69826202D01*
X92648664Y-69826206D01*
X92533455Y-69912452D01*
X92533452Y-69912455D01*
X92447206Y-70027664D01*
X92447202Y-70027671D01*
X92396908Y-70162517D01*
X92390501Y-70222116D01*
X92390500Y-70222135D01*
X92390500Y-72017870D01*
X92390501Y-72017876D01*
X92396908Y-72077483D01*
X92447202Y-72212328D01*
X92447206Y-72212335D01*
X92533452Y-72327544D01*
X92533455Y-72327547D01*
X92648664Y-72413793D01*
X92648671Y-72413797D01*
X92693618Y-72430561D01*
X92783517Y-72464091D01*
X92843127Y-72470500D01*
X92941500Y-72470499D01*
X93008538Y-72490183D01*
X93054294Y-72542986D01*
X93065500Y-72594499D01*
X93065500Y-75091836D01*
X93045815Y-75158875D01*
X93029181Y-75179517D01*
X88375307Y-79833390D01*
X88375304Y-79833394D01*
X88301383Y-79944024D01*
X88301378Y-79944034D01*
X88250460Y-80066961D01*
X88250459Y-80066964D01*
X88244872Y-80095056D01*
X88244871Y-80095059D01*
X88224500Y-80197466D01*
X88224500Y-84250836D01*
X88204815Y-84317875D01*
X88188181Y-84338517D01*
X87613307Y-84913390D01*
X87613304Y-84913394D01*
X87539383Y-85024024D01*
X87539378Y-85024034D01*
X87488459Y-85146962D01*
X87482877Y-85175026D01*
X87471636Y-85231540D01*
X87471636Y-85231541D01*
X87462500Y-85277467D01*
X87462500Y-88966535D01*
X85852000Y-88966535D01*
X85852000Y-79336000D01*
X86976000Y-79336000D01*
X86976000Y-80838000D01*
X87226500Y-80838000D01*
X87226500Y-80172969D01*
X87226649Y-80166886D01*
X87228455Y-80130114D01*
X87228903Y-80124045D01*
X87233706Y-80075272D01*
X87234451Y-80069230D01*
X87239855Y-80032797D01*
X87240896Y-80026799D01*
X87266048Y-79900353D01*
X87276413Y-79848242D01*
X87277747Y-79842304D01*
X87286695Y-79806580D01*
X87288318Y-79800713D01*
X87302545Y-79753813D01*
X87304455Y-79748033D01*
X87316861Y-79713361D01*
X87319051Y-79707683D01*
X87388724Y-79539478D01*
X87391189Y-79533916D01*
X87406928Y-79500637D01*
X87409665Y-79495201D01*
X87432766Y-79451980D01*
X87435766Y-79446684D01*
X87454701Y-79415092D01*
X87457958Y-79409948D01*
X87507369Y-79336000D01*
X86976000Y-79336000D01*
X85852000Y-79336000D01*
X85852000Y-76836000D01*
X86976000Y-76836000D01*
X86976000Y-78338000D01*
X87602000Y-78338000D01*
X87602000Y-76836000D01*
X88600000Y-76836000D01*
X88600000Y-78197314D01*
X89961314Y-76836000D01*
X88600000Y-76836000D01*
X87602000Y-76836000D01*
X86976000Y-76836000D01*
X85852000Y-76836000D01*
X85852000Y-74336000D01*
X86976000Y-74336000D01*
X86976000Y-75838000D01*
X87602000Y-75838000D01*
X87602000Y-74336000D01*
X88600000Y-74336000D01*
X88600000Y-75838000D01*
X90102000Y-75838000D01*
X90102000Y-74336000D01*
X91100000Y-74336000D01*
X91100000Y-75697314D01*
X92067500Y-74729814D01*
X92067500Y-74336000D01*
X91100000Y-74336000D01*
X90102000Y-74336000D01*
X88600000Y-74336000D01*
X87602000Y-74336000D01*
X86976000Y-74336000D01*
X85852000Y-74336000D01*
X85852000Y-71836000D01*
X86976000Y-71836000D01*
X86976000Y-73338000D01*
X87602000Y-73338000D01*
X87602000Y-71836000D01*
X88600000Y-71836000D01*
X88600000Y-73338000D01*
X90102000Y-73338000D01*
X90102000Y-71836000D01*
X91100000Y-71836000D01*
X91100000Y-73338000D01*
X92067500Y-73338000D01*
X92067500Y-73225394D01*
X91906827Y-73105114D01*
X91899936Y-73099561D01*
X91859451Y-73064481D01*
X91852972Y-73058449D01*
X91802551Y-73008028D01*
X91796519Y-73001549D01*
X91761439Y-72961064D01*
X91755886Y-72954173D01*
X91626902Y-72781874D01*
X91621854Y-72774604D01*
X91592890Y-72729537D01*
X91588372Y-72721923D01*
X91554195Y-72659333D01*
X91550233Y-72651419D01*
X91527975Y-72602682D01*
X91524587Y-72594502D01*
X91450931Y-72397018D01*
X91448452Y-72389679D01*
X91434847Y-72344828D01*
X91432832Y-72337352D01*
X91418484Y-72276637D01*
X91416939Y-72269045D01*
X91409028Y-72222840D01*
X91407959Y-72215167D01*
X91396788Y-72111245D01*
X91396477Y-72107936D01*
X91394865Y-72087899D01*
X91394643Y-72084587D01*
X91393214Y-72057905D01*
X91393081Y-72054587D01*
X91392545Y-72034536D01*
X91392501Y-72031222D01*
X91392501Y-71836000D01*
X91100000Y-71836000D01*
X90102000Y-71836000D01*
X88600000Y-71836000D01*
X87602000Y-71836000D01*
X86976000Y-71836000D01*
X85852000Y-71836000D01*
X85852000Y-70212000D01*
X88600000Y-70212000D01*
X88600000Y-70838000D01*
X90102000Y-70838000D01*
X90102000Y-70212000D01*
X88600000Y-70212000D01*
X85852000Y-70212000D01*
X85852000Y-69901362D01*
X85871685Y-69834323D01*
X85888319Y-69813681D01*
X86577681Y-69124319D01*
X86639004Y-69090834D01*
X86665362Y-69088000D01*
X115772638Y-69088000D01*
X115839677Y-69107685D01*
G37*
%TD.AperFunction*%
%TD*%
M02*
