%TF.GenerationSoftware,KiCad,Pcbnew,8.0.1*%
%TF.CreationDate,2024-03-27T16:26:59+11:00*%
%TF.ProjectId,Breadboard Power Supply,42726561-6462-46f6-9172-6420506f7765,rev?*%
%TF.SameCoordinates,Original*%
%TF.FileFunction,Legend,Bot*%
%TF.FilePolarity,Positive*%
%FSLAX46Y46*%
G04 Gerber Fmt 4.6, Leading zero omitted, Abs format (unit mm)*
G04 Created by KiCad (PCBNEW 8.0.1) date 2024-03-27 16:26:59*
%MOMM*%
%LPD*%
G01*
G04 APERTURE LIST*
%ADD10C,0.100000*%
%ADD11C,0.150000*%
%ADD12C,0.300000*%
%ADD13C,0.010000*%
G04 APERTURE END LIST*
D10*
X96348544Y-89365789D02*
X96381878Y-89465789D01*
X96381878Y-89465789D02*
X96415211Y-89499122D01*
X96415211Y-89499122D02*
X96481878Y-89532455D01*
X96481878Y-89532455D02*
X96581878Y-89532455D01*
X96581878Y-89532455D02*
X96648544Y-89499122D01*
X96648544Y-89499122D02*
X96681878Y-89465789D01*
X96681878Y-89465789D02*
X96715211Y-89399122D01*
X96715211Y-89399122D02*
X96715211Y-89132455D01*
X96715211Y-89132455D02*
X96015211Y-89132455D01*
X96015211Y-89132455D02*
X96015211Y-89365789D01*
X96015211Y-89365789D02*
X96048544Y-89432455D01*
X96048544Y-89432455D02*
X96081878Y-89465789D01*
X96081878Y-89465789D02*
X96148544Y-89499122D01*
X96148544Y-89499122D02*
X96215211Y-89499122D01*
X96215211Y-89499122D02*
X96281878Y-89465789D01*
X96281878Y-89465789D02*
X96315211Y-89432455D01*
X96315211Y-89432455D02*
X96348544Y-89365789D01*
X96348544Y-89365789D02*
X96348544Y-89132455D01*
X96715211Y-89832455D02*
X96248544Y-89832455D01*
X96381878Y-89832455D02*
X96315211Y-89865789D01*
X96315211Y-89865789D02*
X96281878Y-89899122D01*
X96281878Y-89899122D02*
X96248544Y-89965789D01*
X96248544Y-89965789D02*
X96248544Y-90032455D01*
X96681878Y-90532455D02*
X96715211Y-90465788D01*
X96715211Y-90465788D02*
X96715211Y-90332455D01*
X96715211Y-90332455D02*
X96681878Y-90265788D01*
X96681878Y-90265788D02*
X96615211Y-90232455D01*
X96615211Y-90232455D02*
X96348544Y-90232455D01*
X96348544Y-90232455D02*
X96281878Y-90265788D01*
X96281878Y-90265788D02*
X96248544Y-90332455D01*
X96248544Y-90332455D02*
X96248544Y-90465788D01*
X96248544Y-90465788D02*
X96281878Y-90532455D01*
X96281878Y-90532455D02*
X96348544Y-90565788D01*
X96348544Y-90565788D02*
X96415211Y-90565788D01*
X96415211Y-90565788D02*
X96481878Y-90232455D01*
X96715211Y-91165788D02*
X96348544Y-91165788D01*
X96348544Y-91165788D02*
X96281878Y-91132455D01*
X96281878Y-91132455D02*
X96248544Y-91065788D01*
X96248544Y-91065788D02*
X96248544Y-90932455D01*
X96248544Y-90932455D02*
X96281878Y-90865788D01*
X96681878Y-91165788D02*
X96715211Y-91099122D01*
X96715211Y-91099122D02*
X96715211Y-90932455D01*
X96715211Y-90932455D02*
X96681878Y-90865788D01*
X96681878Y-90865788D02*
X96615211Y-90832455D01*
X96615211Y-90832455D02*
X96548544Y-90832455D01*
X96548544Y-90832455D02*
X96481878Y-90865788D01*
X96481878Y-90865788D02*
X96448544Y-90932455D01*
X96448544Y-90932455D02*
X96448544Y-91099122D01*
X96448544Y-91099122D02*
X96415211Y-91165788D01*
X96715211Y-91799121D02*
X96015211Y-91799121D01*
X96681878Y-91799121D02*
X96715211Y-91732455D01*
X96715211Y-91732455D02*
X96715211Y-91599121D01*
X96715211Y-91599121D02*
X96681878Y-91532455D01*
X96681878Y-91532455D02*
X96648544Y-91499121D01*
X96648544Y-91499121D02*
X96581878Y-91465788D01*
X96581878Y-91465788D02*
X96381878Y-91465788D01*
X96381878Y-91465788D02*
X96315211Y-91499121D01*
X96315211Y-91499121D02*
X96281878Y-91532455D01*
X96281878Y-91532455D02*
X96248544Y-91599121D01*
X96248544Y-91599121D02*
X96248544Y-91732455D01*
X96248544Y-91732455D02*
X96281878Y-91799121D01*
X96715211Y-92132454D02*
X96015211Y-92132454D01*
X96281878Y-92132454D02*
X96248544Y-92199121D01*
X96248544Y-92199121D02*
X96248544Y-92332454D01*
X96248544Y-92332454D02*
X96281878Y-92399121D01*
X96281878Y-92399121D02*
X96315211Y-92432454D01*
X96315211Y-92432454D02*
X96381878Y-92465788D01*
X96381878Y-92465788D02*
X96581878Y-92465788D01*
X96581878Y-92465788D02*
X96648544Y-92432454D01*
X96648544Y-92432454D02*
X96681878Y-92399121D01*
X96681878Y-92399121D02*
X96715211Y-92332454D01*
X96715211Y-92332454D02*
X96715211Y-92199121D01*
X96715211Y-92199121D02*
X96681878Y-92132454D01*
X96715211Y-92865787D02*
X96681878Y-92799121D01*
X96681878Y-92799121D02*
X96648544Y-92765787D01*
X96648544Y-92765787D02*
X96581878Y-92732454D01*
X96581878Y-92732454D02*
X96381878Y-92732454D01*
X96381878Y-92732454D02*
X96315211Y-92765787D01*
X96315211Y-92765787D02*
X96281878Y-92799121D01*
X96281878Y-92799121D02*
X96248544Y-92865787D01*
X96248544Y-92865787D02*
X96248544Y-92965787D01*
X96248544Y-92965787D02*
X96281878Y-93032454D01*
X96281878Y-93032454D02*
X96315211Y-93065787D01*
X96315211Y-93065787D02*
X96381878Y-93099121D01*
X96381878Y-93099121D02*
X96581878Y-93099121D01*
X96581878Y-93099121D02*
X96648544Y-93065787D01*
X96648544Y-93065787D02*
X96681878Y-93032454D01*
X96681878Y-93032454D02*
X96715211Y-92965787D01*
X96715211Y-92965787D02*
X96715211Y-92865787D01*
X96715211Y-93699120D02*
X96348544Y-93699120D01*
X96348544Y-93699120D02*
X96281878Y-93665787D01*
X96281878Y-93665787D02*
X96248544Y-93599120D01*
X96248544Y-93599120D02*
X96248544Y-93465787D01*
X96248544Y-93465787D02*
X96281878Y-93399120D01*
X96681878Y-93699120D02*
X96715211Y-93632454D01*
X96715211Y-93632454D02*
X96715211Y-93465787D01*
X96715211Y-93465787D02*
X96681878Y-93399120D01*
X96681878Y-93399120D02*
X96615211Y-93365787D01*
X96615211Y-93365787D02*
X96548544Y-93365787D01*
X96548544Y-93365787D02*
X96481878Y-93399120D01*
X96481878Y-93399120D02*
X96448544Y-93465787D01*
X96448544Y-93465787D02*
X96448544Y-93632454D01*
X96448544Y-93632454D02*
X96415211Y-93699120D01*
X96715211Y-94032453D02*
X96248544Y-94032453D01*
X96381878Y-94032453D02*
X96315211Y-94065787D01*
X96315211Y-94065787D02*
X96281878Y-94099120D01*
X96281878Y-94099120D02*
X96248544Y-94165787D01*
X96248544Y-94165787D02*
X96248544Y-94232453D01*
X96715211Y-94765786D02*
X96015211Y-94765786D01*
X96681878Y-94765786D02*
X96715211Y-94699120D01*
X96715211Y-94699120D02*
X96715211Y-94565786D01*
X96715211Y-94565786D02*
X96681878Y-94499120D01*
X96681878Y-94499120D02*
X96648544Y-94465786D01*
X96648544Y-94465786D02*
X96581878Y-94432453D01*
X96581878Y-94432453D02*
X96381878Y-94432453D01*
X96381878Y-94432453D02*
X96315211Y-94465786D01*
X96315211Y-94465786D02*
X96281878Y-94499120D01*
X96281878Y-94499120D02*
X96248544Y-94565786D01*
X96248544Y-94565786D02*
X96248544Y-94699120D01*
X96248544Y-94699120D02*
X96281878Y-94765786D01*
X97375505Y-89132455D02*
X98075505Y-89132455D01*
X97408839Y-89132455D02*
X97375505Y-89199122D01*
X97375505Y-89199122D02*
X97375505Y-89332455D01*
X97375505Y-89332455D02*
X97408839Y-89399122D01*
X97408839Y-89399122D02*
X97442172Y-89432455D01*
X97442172Y-89432455D02*
X97508839Y-89465789D01*
X97508839Y-89465789D02*
X97708839Y-89465789D01*
X97708839Y-89465789D02*
X97775505Y-89432455D01*
X97775505Y-89432455D02*
X97808839Y-89399122D01*
X97808839Y-89399122D02*
X97842172Y-89332455D01*
X97842172Y-89332455D02*
X97842172Y-89199122D01*
X97842172Y-89199122D02*
X97808839Y-89132455D01*
X97842172Y-89865788D02*
X97808839Y-89799122D01*
X97808839Y-89799122D02*
X97775505Y-89765788D01*
X97775505Y-89765788D02*
X97708839Y-89732455D01*
X97708839Y-89732455D02*
X97508839Y-89732455D01*
X97508839Y-89732455D02*
X97442172Y-89765788D01*
X97442172Y-89765788D02*
X97408839Y-89799122D01*
X97408839Y-89799122D02*
X97375505Y-89865788D01*
X97375505Y-89865788D02*
X97375505Y-89965788D01*
X97375505Y-89965788D02*
X97408839Y-90032455D01*
X97408839Y-90032455D02*
X97442172Y-90065788D01*
X97442172Y-90065788D02*
X97508839Y-90099122D01*
X97508839Y-90099122D02*
X97708839Y-90099122D01*
X97708839Y-90099122D02*
X97775505Y-90065788D01*
X97775505Y-90065788D02*
X97808839Y-90032455D01*
X97808839Y-90032455D02*
X97842172Y-89965788D01*
X97842172Y-89965788D02*
X97842172Y-89865788D01*
X97375505Y-90332455D02*
X97842172Y-90465788D01*
X97842172Y-90465788D02*
X97508839Y-90599121D01*
X97508839Y-90599121D02*
X97842172Y-90732455D01*
X97842172Y-90732455D02*
X97375505Y-90865788D01*
X97808839Y-91399121D02*
X97842172Y-91332454D01*
X97842172Y-91332454D02*
X97842172Y-91199121D01*
X97842172Y-91199121D02*
X97808839Y-91132454D01*
X97808839Y-91132454D02*
X97742172Y-91099121D01*
X97742172Y-91099121D02*
X97475505Y-91099121D01*
X97475505Y-91099121D02*
X97408839Y-91132454D01*
X97408839Y-91132454D02*
X97375505Y-91199121D01*
X97375505Y-91199121D02*
X97375505Y-91332454D01*
X97375505Y-91332454D02*
X97408839Y-91399121D01*
X97408839Y-91399121D02*
X97475505Y-91432454D01*
X97475505Y-91432454D02*
X97542172Y-91432454D01*
X97542172Y-91432454D02*
X97608839Y-91099121D01*
X97842172Y-91732454D02*
X97375505Y-91732454D01*
X97508839Y-91732454D02*
X97442172Y-91765788D01*
X97442172Y-91765788D02*
X97408839Y-91799121D01*
X97408839Y-91799121D02*
X97375505Y-91865788D01*
X97375505Y-91865788D02*
X97375505Y-91932454D01*
X98935800Y-89099122D02*
X98969133Y-89165789D01*
X98969133Y-89165789D02*
X98969133Y-89299122D01*
X98969133Y-89299122D02*
X98935800Y-89365789D01*
X98935800Y-89365789D02*
X98869133Y-89399122D01*
X98869133Y-89399122D02*
X98835800Y-89399122D01*
X98835800Y-89399122D02*
X98769133Y-89365789D01*
X98769133Y-89365789D02*
X98735800Y-89299122D01*
X98735800Y-89299122D02*
X98735800Y-89199122D01*
X98735800Y-89199122D02*
X98702466Y-89132455D01*
X98702466Y-89132455D02*
X98635800Y-89099122D01*
X98635800Y-89099122D02*
X98602466Y-89099122D01*
X98602466Y-89099122D02*
X98535800Y-89132455D01*
X98535800Y-89132455D02*
X98502466Y-89199122D01*
X98502466Y-89199122D02*
X98502466Y-89299122D01*
X98502466Y-89299122D02*
X98535800Y-89365789D01*
X98502466Y-89999122D02*
X98969133Y-89999122D01*
X98502466Y-89699122D02*
X98869133Y-89699122D01*
X98869133Y-89699122D02*
X98935800Y-89732456D01*
X98935800Y-89732456D02*
X98969133Y-89799122D01*
X98969133Y-89799122D02*
X98969133Y-89899122D01*
X98969133Y-89899122D02*
X98935800Y-89965789D01*
X98935800Y-89965789D02*
X98902466Y-89999122D01*
X98502466Y-90332455D02*
X99202466Y-90332455D01*
X98535800Y-90332455D02*
X98502466Y-90399122D01*
X98502466Y-90399122D02*
X98502466Y-90532455D01*
X98502466Y-90532455D02*
X98535800Y-90599122D01*
X98535800Y-90599122D02*
X98569133Y-90632455D01*
X98569133Y-90632455D02*
X98635800Y-90665789D01*
X98635800Y-90665789D02*
X98835800Y-90665789D01*
X98835800Y-90665789D02*
X98902466Y-90632455D01*
X98902466Y-90632455D02*
X98935800Y-90599122D01*
X98935800Y-90599122D02*
X98969133Y-90532455D01*
X98969133Y-90532455D02*
X98969133Y-90399122D01*
X98969133Y-90399122D02*
X98935800Y-90332455D01*
X98502466Y-90965788D02*
X99202466Y-90965788D01*
X98535800Y-90965788D02*
X98502466Y-91032455D01*
X98502466Y-91032455D02*
X98502466Y-91165788D01*
X98502466Y-91165788D02*
X98535800Y-91232455D01*
X98535800Y-91232455D02*
X98569133Y-91265788D01*
X98569133Y-91265788D02*
X98635800Y-91299122D01*
X98635800Y-91299122D02*
X98835800Y-91299122D01*
X98835800Y-91299122D02*
X98902466Y-91265788D01*
X98902466Y-91265788D02*
X98935800Y-91232455D01*
X98935800Y-91232455D02*
X98969133Y-91165788D01*
X98969133Y-91165788D02*
X98969133Y-91032455D01*
X98969133Y-91032455D02*
X98935800Y-90965788D01*
X98969133Y-91699121D02*
X98935800Y-91632455D01*
X98935800Y-91632455D02*
X98869133Y-91599121D01*
X98869133Y-91599121D02*
X98269133Y-91599121D01*
X98502466Y-91899122D02*
X98969133Y-92065788D01*
X98502466Y-92232455D02*
X98969133Y-92065788D01*
X98969133Y-92065788D02*
X99135800Y-91999122D01*
X99135800Y-91999122D02*
X99169133Y-91965788D01*
X99169133Y-91965788D02*
X99202466Y-91899122D01*
D11*
X92386892Y-91694000D02*
G75*
G02*
X85921108Y-91694000I-3232892J0D01*
G01*
X85921108Y-91694000D02*
G75*
G02*
X92386892Y-91694000I3232892J0D01*
G01*
D12*
X88716828Y-89565653D02*
X89716828Y-89922796D01*
X89716828Y-89922796D02*
X88716828Y-90279939D01*
X88216828Y-91137082D02*
X88216828Y-91279939D01*
X88216828Y-91279939D02*
X88288257Y-91422796D01*
X88288257Y-91422796D02*
X88359685Y-91494225D01*
X88359685Y-91494225D02*
X88502542Y-91565653D01*
X88502542Y-91565653D02*
X88788257Y-91637082D01*
X88788257Y-91637082D02*
X89145400Y-91637082D01*
X89145400Y-91637082D02*
X89431114Y-91565653D01*
X89431114Y-91565653D02*
X89573971Y-91494225D01*
X89573971Y-91494225D02*
X89645400Y-91422796D01*
X89645400Y-91422796D02*
X89716828Y-91279939D01*
X89716828Y-91279939D02*
X89716828Y-91137082D01*
X89716828Y-91137082D02*
X89645400Y-90994225D01*
X89645400Y-90994225D02*
X89573971Y-90922796D01*
X89573971Y-90922796D02*
X89431114Y-90851367D01*
X89431114Y-90851367D02*
X89145400Y-90779939D01*
X89145400Y-90779939D02*
X88788257Y-90779939D01*
X88788257Y-90779939D02*
X88502542Y-90851367D01*
X88502542Y-90851367D02*
X88359685Y-90922796D01*
X88359685Y-90922796D02*
X88288257Y-90994225D01*
X88288257Y-90994225D02*
X88216828Y-91137082D01*
X89573971Y-92279938D02*
X89645400Y-92351367D01*
X89645400Y-92351367D02*
X89716828Y-92279938D01*
X89716828Y-92279938D02*
X89645400Y-92208510D01*
X89645400Y-92208510D02*
X89573971Y-92279938D01*
X89573971Y-92279938D02*
X89716828Y-92279938D01*
X88216828Y-92851367D02*
X88216828Y-93779939D01*
X88216828Y-93779939D02*
X88788257Y-93279939D01*
X88788257Y-93279939D02*
X88788257Y-93494224D01*
X88788257Y-93494224D02*
X88859685Y-93637082D01*
X88859685Y-93637082D02*
X88931114Y-93708510D01*
X88931114Y-93708510D02*
X89073971Y-93779939D01*
X89073971Y-93779939D02*
X89431114Y-93779939D01*
X89431114Y-93779939D02*
X89573971Y-93708510D01*
X89573971Y-93708510D02*
X89645400Y-93637082D01*
X89645400Y-93637082D02*
X89716828Y-93494224D01*
X89716828Y-93494224D02*
X89716828Y-93065653D01*
X89716828Y-93065653D02*
X89645400Y-92922796D01*
X89645400Y-92922796D02*
X89573971Y-92851367D01*
D13*
%TO.C,REF\u002A\u002A*%
X106492158Y-110494732D02*
X106643594Y-110503311D01*
X106780283Y-110522167D01*
X106906276Y-110552163D01*
X107025625Y-110594164D01*
X107142381Y-110649031D01*
X107253179Y-110715833D01*
X107366739Y-110806637D01*
X107462211Y-110910292D01*
X107539073Y-111026113D01*
X107596797Y-111153414D01*
X107634858Y-111291511D01*
X107640666Y-111329207D01*
X107646396Y-111408248D01*
X107646583Y-111496371D01*
X107641539Y-111585764D01*
X107631578Y-111668616D01*
X107617012Y-111737113D01*
X107607364Y-111767965D01*
X107577123Y-111845270D01*
X107539617Y-111922321D01*
X107498614Y-111991800D01*
X107457879Y-112046385D01*
X107438505Y-112069084D01*
X107420662Y-112091799D01*
X107413778Y-112103221D01*
X107415424Y-112104463D01*
X107433205Y-112107272D01*
X107466370Y-112109224D01*
X107509733Y-112109955D01*
X107605689Y-112109955D01*
X107605689Y-112968104D01*
X107544974Y-112933839D01*
X107535868Y-112928645D01*
X107521249Y-112920285D01*
X107507173Y-112912712D01*
X107492540Y-112905888D01*
X107476249Y-112899773D01*
X107457198Y-112894327D01*
X107434286Y-112889513D01*
X107406413Y-112885292D01*
X107372478Y-112881623D01*
X107331379Y-112878469D01*
X107282015Y-112875789D01*
X107223286Y-112873546D01*
X107154090Y-112871701D01*
X107073326Y-112870213D01*
X106979894Y-112869045D01*
X106872692Y-112868156D01*
X106750620Y-112867509D01*
X106612576Y-112867064D01*
X106457459Y-112866782D01*
X106284168Y-112866625D01*
X106091603Y-112866552D01*
X105878662Y-112866526D01*
X105644245Y-112866507D01*
X103959378Y-112866311D01*
X103959378Y-111960983D01*
X103996067Y-111985415D01*
X104005647Y-111991682D01*
X104051981Y-112017792D01*
X104099102Y-112035531D01*
X104154251Y-112047092D01*
X104224667Y-112054669D01*
X104231650Y-112055161D01*
X104269641Y-112056938D01*
X104323576Y-112058556D01*
X104390703Y-112060001D01*
X104468271Y-112061260D01*
X104553528Y-112062320D01*
X104643724Y-112063171D01*
X104736107Y-112063797D01*
X104827925Y-112064188D01*
X104916427Y-112064330D01*
X104998862Y-112064210D01*
X105072479Y-112063817D01*
X105134526Y-112063138D01*
X105182251Y-112062159D01*
X105212904Y-112060868D01*
X105223733Y-112059253D01*
X105219333Y-112051043D01*
X105204362Y-112029353D01*
X105182448Y-111999986D01*
X105148236Y-111951121D01*
X105101714Y-111862875D01*
X105068046Y-111764084D01*
X105065231Y-111749557D01*
X105619465Y-111749557D01*
X105631389Y-111834681D01*
X105658040Y-111918867D01*
X105698962Y-111997392D01*
X105742530Y-112064800D01*
X106892721Y-112064800D01*
X106939089Y-111994244D01*
X106962791Y-111953583D01*
X106988639Y-111899454D01*
X107006829Y-111850311D01*
X107022551Y-111786835D01*
X107033541Y-111690669D01*
X107025365Y-111606100D01*
X106997805Y-111532781D01*
X106950642Y-111470363D01*
X106883658Y-111418498D01*
X106796633Y-111376840D01*
X106689350Y-111345038D01*
X106677009Y-111342455D01*
X106615772Y-111334000D01*
X106538692Y-111328337D01*
X106451002Y-111325424D01*
X106357934Y-111325217D01*
X106264720Y-111327670D01*
X106176594Y-111332739D01*
X106098788Y-111340381D01*
X106036533Y-111350552D01*
X106030666Y-111351833D01*
X105920121Y-111380874D01*
X105829575Y-111415390D01*
X105756953Y-111456544D01*
X105700181Y-111505501D01*
X105657184Y-111563426D01*
X105641615Y-111595380D01*
X105622722Y-111668216D01*
X105619465Y-111749557D01*
X105065231Y-111749557D01*
X105046231Y-111651490D01*
X105035265Y-111521836D01*
X105034219Y-111429330D01*
X105044014Y-111307989D01*
X105068174Y-111197901D01*
X105107785Y-111094611D01*
X105163932Y-110993662D01*
X105194883Y-110948497D01*
X105286115Y-110843089D01*
X105395106Y-110751462D01*
X105521726Y-110673668D01*
X105665845Y-110609759D01*
X105827332Y-110559786D01*
X106006059Y-110523802D01*
X106201895Y-110501857D01*
X106357934Y-110496100D01*
X106414711Y-110494006D01*
X106492158Y-110494732D01*
G36*
X106492158Y-110494732D02*
G01*
X106643594Y-110503311D01*
X106780283Y-110522167D01*
X106906276Y-110552163D01*
X107025625Y-110594164D01*
X107142381Y-110649031D01*
X107253179Y-110715833D01*
X107366739Y-110806637D01*
X107462211Y-110910292D01*
X107539073Y-111026113D01*
X107596797Y-111153414D01*
X107634858Y-111291511D01*
X107640666Y-111329207D01*
X107646396Y-111408248D01*
X107646583Y-111496371D01*
X107641539Y-111585764D01*
X107631578Y-111668616D01*
X107617012Y-111737113D01*
X107607364Y-111767965D01*
X107577123Y-111845270D01*
X107539617Y-111922321D01*
X107498614Y-111991800D01*
X107457879Y-112046385D01*
X107438505Y-112069084D01*
X107420662Y-112091799D01*
X107413778Y-112103221D01*
X107415424Y-112104463D01*
X107433205Y-112107272D01*
X107466370Y-112109224D01*
X107509733Y-112109955D01*
X107605689Y-112109955D01*
X107605689Y-112968104D01*
X107544974Y-112933839D01*
X107535868Y-112928645D01*
X107521249Y-112920285D01*
X107507173Y-112912712D01*
X107492540Y-112905888D01*
X107476249Y-112899773D01*
X107457198Y-112894327D01*
X107434286Y-112889513D01*
X107406413Y-112885292D01*
X107372478Y-112881623D01*
X107331379Y-112878469D01*
X107282015Y-112875789D01*
X107223286Y-112873546D01*
X107154090Y-112871701D01*
X107073326Y-112870213D01*
X106979894Y-112869045D01*
X106872692Y-112868156D01*
X106750620Y-112867509D01*
X106612576Y-112867064D01*
X106457459Y-112866782D01*
X106284168Y-112866625D01*
X106091603Y-112866552D01*
X105878662Y-112866526D01*
X105644245Y-112866507D01*
X103959378Y-112866311D01*
X103959378Y-111960983D01*
X103996067Y-111985415D01*
X104005647Y-111991682D01*
X104051981Y-112017792D01*
X104099102Y-112035531D01*
X104154251Y-112047092D01*
X104224667Y-112054669D01*
X104231650Y-112055161D01*
X104269641Y-112056938D01*
X104323576Y-112058556D01*
X104390703Y-112060001D01*
X104468271Y-112061260D01*
X104553528Y-112062320D01*
X104643724Y-112063171D01*
X104736107Y-112063797D01*
X104827925Y-112064188D01*
X104916427Y-112064330D01*
X104998862Y-112064210D01*
X105072479Y-112063817D01*
X105134526Y-112063138D01*
X105182251Y-112062159D01*
X105212904Y-112060868D01*
X105223733Y-112059253D01*
X105219333Y-112051043D01*
X105204362Y-112029353D01*
X105182448Y-111999986D01*
X105148236Y-111951121D01*
X105101714Y-111862875D01*
X105068046Y-111764084D01*
X105065231Y-111749557D01*
X105619465Y-111749557D01*
X105631389Y-111834681D01*
X105658040Y-111918867D01*
X105698962Y-111997392D01*
X105742530Y-112064800D01*
X106892721Y-112064800D01*
X106939089Y-111994244D01*
X106962791Y-111953583D01*
X106988639Y-111899454D01*
X107006829Y-111850311D01*
X107022551Y-111786835D01*
X107033541Y-111690669D01*
X107025365Y-111606100D01*
X106997805Y-111532781D01*
X106950642Y-111470363D01*
X106883658Y-111418498D01*
X106796633Y-111376840D01*
X106689350Y-111345038D01*
X106677009Y-111342455D01*
X106615772Y-111334000D01*
X106538692Y-111328337D01*
X106451002Y-111325424D01*
X106357934Y-111325217D01*
X106264720Y-111327670D01*
X106176594Y-111332739D01*
X106098788Y-111340381D01*
X106036533Y-111350552D01*
X106030666Y-111351833D01*
X105920121Y-111380874D01*
X105829575Y-111415390D01*
X105756953Y-111456544D01*
X105700181Y-111505501D01*
X105657184Y-111563426D01*
X105641615Y-111595380D01*
X105622722Y-111668216D01*
X105619465Y-111749557D01*
X105065231Y-111749557D01*
X105046231Y-111651490D01*
X105035265Y-111521836D01*
X105034219Y-111429330D01*
X105044014Y-111307989D01*
X105068174Y-111197901D01*
X105107785Y-111094611D01*
X105163932Y-110993662D01*
X105194883Y-110948497D01*
X105286115Y-110843089D01*
X105395106Y-110751462D01*
X105521726Y-110673668D01*
X105665845Y-110609759D01*
X105827332Y-110559786D01*
X106006059Y-110523802D01*
X106201895Y-110501857D01*
X106357934Y-110496100D01*
X106414711Y-110494006D01*
X106492158Y-110494732D01*
G37*
X108567178Y-111169083D02*
X108568631Y-111170443D01*
X108576992Y-111181646D01*
X108582547Y-111198748D01*
X108585840Y-111225918D01*
X108587418Y-111267322D01*
X108587822Y-111327127D01*
X108587822Y-111466489D01*
X108851589Y-111466489D01*
X108927417Y-111466564D01*
X108994083Y-111466972D01*
X109043867Y-111467954D01*
X109079784Y-111469750D01*
X109104850Y-111472601D01*
X109122081Y-111476747D01*
X109134492Y-111482429D01*
X109145100Y-111489886D01*
X109147906Y-111492176D01*
X109170548Y-111523354D01*
X109172112Y-111557734D01*
X109152267Y-111590666D01*
X109144191Y-111597645D01*
X109133593Y-111603117D01*
X109117749Y-111607137D01*
X109093773Y-111609928D01*
X109058774Y-111611712D01*
X109009864Y-111612711D01*
X108944154Y-111613148D01*
X108858756Y-111613244D01*
X108587822Y-111613244D01*
X108587822Y-111759180D01*
X108587821Y-111770280D01*
X108587596Y-111826798D01*
X108586457Y-111865642D01*
X108583657Y-111891035D01*
X108578450Y-111907196D01*
X108570089Y-111918348D01*
X108557826Y-111928711D01*
X108527138Y-111944559D01*
X108493358Y-111941457D01*
X108460822Y-111915813D01*
X108457105Y-111910871D01*
X108452269Y-111900662D01*
X108448506Y-111885236D01*
X108445683Y-111862114D01*
X108443670Y-111828817D01*
X108442333Y-111782863D01*
X108441542Y-111721772D01*
X108441163Y-111643065D01*
X108441067Y-111544260D01*
X108441068Y-111524233D01*
X108441158Y-111430110D01*
X108441498Y-111355595D01*
X108442239Y-111298189D01*
X108443535Y-111255389D01*
X108445537Y-111224696D01*
X108448396Y-111203609D01*
X108452266Y-111189627D01*
X108457298Y-111180250D01*
X108463645Y-111172978D01*
X108496362Y-111154172D01*
X108533939Y-111152725D01*
X108567178Y-111169083D01*
G36*
X108567178Y-111169083D02*
G01*
X108568631Y-111170443D01*
X108576992Y-111181646D01*
X108582547Y-111198748D01*
X108585840Y-111225918D01*
X108587418Y-111267322D01*
X108587822Y-111327127D01*
X108587822Y-111466489D01*
X108851589Y-111466489D01*
X108927417Y-111466564D01*
X108994083Y-111466972D01*
X109043867Y-111467954D01*
X109079784Y-111469750D01*
X109104850Y-111472601D01*
X109122081Y-111476747D01*
X109134492Y-111482429D01*
X109145100Y-111489886D01*
X109147906Y-111492176D01*
X109170548Y-111523354D01*
X109172112Y-111557734D01*
X109152267Y-111590666D01*
X109144191Y-111597645D01*
X109133593Y-111603117D01*
X109117749Y-111607137D01*
X109093773Y-111609928D01*
X109058774Y-111611712D01*
X109009864Y-111612711D01*
X108944154Y-111613148D01*
X108858756Y-111613244D01*
X108587822Y-111613244D01*
X108587822Y-111759180D01*
X108587821Y-111770280D01*
X108587596Y-111826798D01*
X108586457Y-111865642D01*
X108583657Y-111891035D01*
X108578450Y-111907196D01*
X108570089Y-111918348D01*
X108557826Y-111928711D01*
X108527138Y-111944559D01*
X108493358Y-111941457D01*
X108460822Y-111915813D01*
X108457105Y-111910871D01*
X108452269Y-111900662D01*
X108448506Y-111885236D01*
X108445683Y-111862114D01*
X108443670Y-111828817D01*
X108442333Y-111782863D01*
X108441542Y-111721772D01*
X108441163Y-111643065D01*
X108441067Y-111544260D01*
X108441068Y-111524233D01*
X108441158Y-111430110D01*
X108441498Y-111355595D01*
X108442239Y-111298189D01*
X108443535Y-111255389D01*
X108445537Y-111224696D01*
X108448396Y-111203609D01*
X108452266Y-111189627D01*
X108457298Y-111180250D01*
X108463645Y-111172978D01*
X108496362Y-111154172D01*
X108533939Y-111152725D01*
X108567178Y-111169083D01*
G37*
X108807956Y-100403378D02*
X108883617Y-100403417D01*
X108961526Y-100403672D01*
X109021536Y-100404316D01*
X109066264Y-100405520D01*
X109098326Y-100407457D01*
X109120340Y-100410297D01*
X109134924Y-100414212D01*
X109144694Y-100419374D01*
X109152267Y-100425955D01*
X109158501Y-100432923D01*
X109165801Y-100445921D01*
X109170554Y-100465069D01*
X109173292Y-100494472D01*
X109174545Y-100538238D01*
X109174845Y-100600472D01*
X109174469Y-100649418D01*
X109170041Y-100756278D01*
X109159953Y-100845506D01*
X109143365Y-100920304D01*
X109119435Y-100983875D01*
X109087321Y-101039421D01*
X109046182Y-101090146D01*
X109040330Y-101096134D01*
X108991821Y-101133001D01*
X108931013Y-101164101D01*
X108866769Y-101185583D01*
X108807956Y-101193600D01*
X108786739Y-101192321D01*
X108729323Y-101180009D01*
X108669413Y-101157480D01*
X108615363Y-101128250D01*
X108575532Y-101095833D01*
X108558510Y-101076292D01*
X108519322Y-101021580D01*
X108489193Y-100961277D01*
X108467232Y-100892081D01*
X108452550Y-100810689D01*
X108444259Y-100713800D01*
X108442148Y-100626333D01*
X108587808Y-100626333D01*
X108587817Y-100629361D01*
X108589782Y-100680481D01*
X108594507Y-100740584D01*
X108601035Y-100797292D01*
X108610331Y-100847250D01*
X108636600Y-100922002D01*
X108675899Y-100979511D01*
X108728933Y-101021012D01*
X108780200Y-101042229D01*
X108828026Y-101043647D01*
X108878961Y-101025365D01*
X108924878Y-100995695D01*
X108967287Y-100948998D01*
X108997090Y-100887608D01*
X109016226Y-100808462D01*
X109016464Y-100806972D01*
X109022256Y-100758001D01*
X109026396Y-100699307D01*
X109028004Y-100643266D01*
X109028089Y-100550133D01*
X108587822Y-100550133D01*
X108587808Y-100626333D01*
X108442148Y-100626333D01*
X108441467Y-100598111D01*
X108441066Y-100558629D01*
X108440653Y-100512918D01*
X108442457Y-100477117D01*
X108448739Y-100450026D01*
X108461759Y-100430444D01*
X108483778Y-100417170D01*
X108517055Y-100409002D01*
X108563851Y-100404740D01*
X108587822Y-100404143D01*
X108626427Y-100403183D01*
X108707041Y-100403130D01*
X108807956Y-100403378D01*
G36*
X108807956Y-100403378D02*
G01*
X108883617Y-100403417D01*
X108961526Y-100403672D01*
X109021536Y-100404316D01*
X109066264Y-100405520D01*
X109098326Y-100407457D01*
X109120340Y-100410297D01*
X109134924Y-100414212D01*
X109144694Y-100419374D01*
X109152267Y-100425955D01*
X109158501Y-100432923D01*
X109165801Y-100445921D01*
X109170554Y-100465069D01*
X109173292Y-100494472D01*
X109174545Y-100538238D01*
X109174845Y-100600472D01*
X109174469Y-100649418D01*
X109170041Y-100756278D01*
X109159953Y-100845506D01*
X109143365Y-100920304D01*
X109119435Y-100983875D01*
X109087321Y-101039421D01*
X109046182Y-101090146D01*
X109040330Y-101096134D01*
X108991821Y-101133001D01*
X108931013Y-101164101D01*
X108866769Y-101185583D01*
X108807956Y-101193600D01*
X108786739Y-101192321D01*
X108729323Y-101180009D01*
X108669413Y-101157480D01*
X108615363Y-101128250D01*
X108575532Y-101095833D01*
X108558510Y-101076292D01*
X108519322Y-101021580D01*
X108489193Y-100961277D01*
X108467232Y-100892081D01*
X108452550Y-100810689D01*
X108444259Y-100713800D01*
X108442148Y-100626333D01*
X108587808Y-100626333D01*
X108587817Y-100629361D01*
X108589782Y-100680481D01*
X108594507Y-100740584D01*
X108601035Y-100797292D01*
X108610331Y-100847250D01*
X108636600Y-100922002D01*
X108675899Y-100979511D01*
X108728933Y-101021012D01*
X108780200Y-101042229D01*
X108828026Y-101043647D01*
X108878961Y-101025365D01*
X108924878Y-100995695D01*
X108967287Y-100948998D01*
X108997090Y-100887608D01*
X109016226Y-100808462D01*
X109016464Y-100806972D01*
X109022256Y-100758001D01*
X109026396Y-100699307D01*
X109028004Y-100643266D01*
X109028089Y-100550133D01*
X108587822Y-100550133D01*
X108587808Y-100626333D01*
X108442148Y-100626333D01*
X108441467Y-100598111D01*
X108441066Y-100558629D01*
X108440653Y-100512918D01*
X108442457Y-100477117D01*
X108448739Y-100450026D01*
X108461759Y-100430444D01*
X108483778Y-100417170D01*
X108517055Y-100409002D01*
X108563851Y-100404740D01*
X108587822Y-100404143D01*
X108626427Y-100403183D01*
X108707041Y-100403130D01*
X108807956Y-100403378D01*
G37*
X108523915Y-109384772D02*
X108558481Y-109397636D01*
X108606826Y-109417395D01*
X108665825Y-109442619D01*
X108732355Y-109471881D01*
X108803291Y-109503750D01*
X108875507Y-109536799D01*
X108945880Y-109569599D01*
X109011285Y-109600720D01*
X109068597Y-109628735D01*
X109114692Y-109652214D01*
X109146446Y-109669728D01*
X109160733Y-109679849D01*
X109174102Y-109714257D01*
X109167741Y-109755954D01*
X109163044Y-109761319D01*
X109140893Y-109777148D01*
X109104132Y-109799350D01*
X109056415Y-109825767D01*
X109001393Y-109854240D01*
X108842150Y-109934014D01*
X108988742Y-110007201D01*
X109008032Y-110016897D01*
X109060380Y-110043875D01*
X109105170Y-110067904D01*
X109138154Y-110086668D01*
X109155089Y-110097854D01*
X109156332Y-110099000D01*
X109171619Y-110127121D01*
X109173302Y-110162183D01*
X109160733Y-110193224D01*
X109157884Y-110195650D01*
X109137259Y-110207910D01*
X109099708Y-110227648D01*
X109047880Y-110253552D01*
X108984423Y-110284315D01*
X108911985Y-110318625D01*
X108833216Y-110355175D01*
X108789093Y-110375415D01*
X108708365Y-110412188D01*
X108644687Y-110440645D01*
X108595752Y-110461669D01*
X108559257Y-110476146D01*
X108532895Y-110484961D01*
X108514361Y-110488996D01*
X108501352Y-110489138D01*
X108491561Y-110486270D01*
X108470678Y-110471613D01*
X108450377Y-110445010D01*
X108450035Y-110444255D01*
X108443034Y-110424665D01*
X108442504Y-110407210D01*
X108450478Y-110390298D01*
X108468989Y-110372337D01*
X108500071Y-110351737D01*
X108545756Y-110326905D01*
X108608078Y-110296250D01*
X108689071Y-110258180D01*
X108720454Y-110243546D01*
X108783638Y-110213797D01*
X108838244Y-110187703D01*
X108881290Y-110166708D01*
X108909793Y-110152261D01*
X108920770Y-110145809D01*
X108920189Y-110144450D01*
X108906242Y-110134458D01*
X108876704Y-110117167D01*
X108835087Y-110094570D01*
X108784903Y-110068662D01*
X108753414Y-110052689D01*
X108698061Y-110023739D01*
X108659044Y-110001251D01*
X108633566Y-109983035D01*
X108618831Y-109966904D01*
X108612042Y-109950670D01*
X108610400Y-109932143D01*
X108610875Y-109921640D01*
X108615082Y-109905524D01*
X108625946Y-109890210D01*
X108646219Y-109873612D01*
X108678654Y-109853643D01*
X108726004Y-109828217D01*
X108791022Y-109795248D01*
X108810277Y-109785515D01*
X108856946Y-109761057D01*
X108893109Y-109740822D01*
X108915497Y-109726689D01*
X108920845Y-109720540D01*
X108917573Y-109719173D01*
X108896664Y-109709798D01*
X108859725Y-109692938D01*
X108809874Y-109670021D01*
X108750226Y-109642480D01*
X108683898Y-109611745D01*
X108626677Y-109585030D01*
X108564688Y-109555407D01*
X108518949Y-109532336D01*
X108486908Y-109514357D01*
X108466014Y-109500010D01*
X108453718Y-109487834D01*
X108447466Y-109476368D01*
X108444574Y-109466958D01*
X108444425Y-109441853D01*
X108459768Y-109414710D01*
X108460753Y-109413410D01*
X108483388Y-109391326D01*
X108505613Y-109380277D01*
X108506253Y-109380231D01*
X108523915Y-109384772D01*
G36*
X108523915Y-109384772D02*
G01*
X108558481Y-109397636D01*
X108606826Y-109417395D01*
X108665825Y-109442619D01*
X108732355Y-109471881D01*
X108803291Y-109503750D01*
X108875507Y-109536799D01*
X108945880Y-109569599D01*
X109011285Y-109600720D01*
X109068597Y-109628735D01*
X109114692Y-109652214D01*
X109146446Y-109669728D01*
X109160733Y-109679849D01*
X109174102Y-109714257D01*
X109167741Y-109755954D01*
X109163044Y-109761319D01*
X109140893Y-109777148D01*
X109104132Y-109799350D01*
X109056415Y-109825767D01*
X109001393Y-109854240D01*
X108842150Y-109934014D01*
X108988742Y-110007201D01*
X109008032Y-110016897D01*
X109060380Y-110043875D01*
X109105170Y-110067904D01*
X109138154Y-110086668D01*
X109155089Y-110097854D01*
X109156332Y-110099000D01*
X109171619Y-110127121D01*
X109173302Y-110162183D01*
X109160733Y-110193224D01*
X109157884Y-110195650D01*
X109137259Y-110207910D01*
X109099708Y-110227648D01*
X109047880Y-110253552D01*
X108984423Y-110284315D01*
X108911985Y-110318625D01*
X108833216Y-110355175D01*
X108789093Y-110375415D01*
X108708365Y-110412188D01*
X108644687Y-110440645D01*
X108595752Y-110461669D01*
X108559257Y-110476146D01*
X108532895Y-110484961D01*
X108514361Y-110488996D01*
X108501352Y-110489138D01*
X108491561Y-110486270D01*
X108470678Y-110471613D01*
X108450377Y-110445010D01*
X108450035Y-110444255D01*
X108443034Y-110424665D01*
X108442504Y-110407210D01*
X108450478Y-110390298D01*
X108468989Y-110372337D01*
X108500071Y-110351737D01*
X108545756Y-110326905D01*
X108608078Y-110296250D01*
X108689071Y-110258180D01*
X108720454Y-110243546D01*
X108783638Y-110213797D01*
X108838244Y-110187703D01*
X108881290Y-110166708D01*
X108909793Y-110152261D01*
X108920770Y-110145809D01*
X108920189Y-110144450D01*
X108906242Y-110134458D01*
X108876704Y-110117167D01*
X108835087Y-110094570D01*
X108784903Y-110068662D01*
X108753414Y-110052689D01*
X108698061Y-110023739D01*
X108659044Y-110001251D01*
X108633566Y-109983035D01*
X108618831Y-109966904D01*
X108612042Y-109950670D01*
X108610400Y-109932143D01*
X108610875Y-109921640D01*
X108615082Y-109905524D01*
X108625946Y-109890210D01*
X108646219Y-109873612D01*
X108678654Y-109853643D01*
X108726004Y-109828217D01*
X108791022Y-109795248D01*
X108810277Y-109785515D01*
X108856946Y-109761057D01*
X108893109Y-109740822D01*
X108915497Y-109726689D01*
X108920845Y-109720540D01*
X108917573Y-109719173D01*
X108896664Y-109709798D01*
X108859725Y-109692938D01*
X108809874Y-109670021D01*
X108750226Y-109642480D01*
X108683898Y-109611745D01*
X108626677Y-109585030D01*
X108564688Y-109555407D01*
X108518949Y-109532336D01*
X108486908Y-109514357D01*
X108466014Y-109500010D01*
X108453718Y-109487834D01*
X108447466Y-109476368D01*
X108444574Y-109466958D01*
X108444425Y-109441853D01*
X108459768Y-109414710D01*
X108460753Y-109413410D01*
X108483388Y-109391326D01*
X108505613Y-109380277D01*
X108506253Y-109380231D01*
X108523915Y-109384772D01*
G37*
X106793295Y-100403313D02*
X106973535Y-100403407D01*
X107136015Y-100403605D01*
X107281670Y-100403937D01*
X107411434Y-100404431D01*
X107526243Y-100405117D01*
X107627030Y-100406024D01*
X107714730Y-100407183D01*
X107790279Y-100408622D01*
X107854611Y-100410371D01*
X107908661Y-100412460D01*
X107953363Y-100414917D01*
X107989652Y-100417773D01*
X108018463Y-100421057D01*
X108040731Y-100424798D01*
X108057390Y-100429026D01*
X108069375Y-100433771D01*
X108077621Y-100439061D01*
X108083062Y-100444927D01*
X108086634Y-100451398D01*
X108089270Y-100458503D01*
X108091906Y-100466272D01*
X108095477Y-100474734D01*
X108097145Y-100479092D01*
X108099111Y-100487605D01*
X108100911Y-100500306D01*
X108102555Y-100518115D01*
X108104047Y-100541951D01*
X108105397Y-100572734D01*
X108106611Y-100611383D01*
X108107697Y-100658818D01*
X108108661Y-100715957D01*
X108109511Y-100783721D01*
X108110253Y-100863029D01*
X108110897Y-100954801D01*
X108111447Y-101059956D01*
X108111913Y-101179413D01*
X108112300Y-101314092D01*
X108112616Y-101464912D01*
X108112869Y-101632794D01*
X108113066Y-101818655D01*
X108113213Y-102023417D01*
X108113318Y-102247998D01*
X108113389Y-102493318D01*
X108113432Y-102760296D01*
X108113437Y-102798679D01*
X108113480Y-103064078D01*
X108113525Y-103307950D01*
X108113548Y-103531217D01*
X108113524Y-103734804D01*
X108113430Y-103919633D01*
X108113243Y-104086627D01*
X108112939Y-104236710D01*
X108112494Y-104370804D01*
X108111885Y-104489834D01*
X108111089Y-104594721D01*
X108110080Y-104686390D01*
X108108837Y-104765763D01*
X108107335Y-104833763D01*
X108105551Y-104891314D01*
X108103461Y-104939338D01*
X108101042Y-104978760D01*
X108098270Y-105010501D01*
X108095121Y-105035486D01*
X108091572Y-105054636D01*
X108087598Y-105068877D01*
X108083178Y-105079129D01*
X108078286Y-105086318D01*
X108072900Y-105091365D01*
X108066996Y-105095195D01*
X108060549Y-105098729D01*
X108053537Y-105102892D01*
X108051687Y-105103975D01*
X108046180Y-105106187D01*
X108037868Y-105108214D01*
X108025809Y-105110062D01*
X108009063Y-105111739D01*
X107986687Y-105113255D01*
X107957740Y-105114617D01*
X107921280Y-105115833D01*
X107876367Y-105116911D01*
X107822057Y-105117860D01*
X107757410Y-105118688D01*
X107681484Y-105119403D01*
X107593338Y-105120013D01*
X107492029Y-105120526D01*
X107376617Y-105120950D01*
X107246160Y-105121294D01*
X107099716Y-105121566D01*
X106936344Y-105121773D01*
X106755101Y-105121924D01*
X106555048Y-105122028D01*
X106335241Y-105122092D01*
X106094739Y-105122124D01*
X105832602Y-105122133D01*
X103641031Y-105122133D01*
X103602649Y-105083751D01*
X103578911Y-105056645D01*
X103567111Y-105029747D01*
X103564267Y-104993440D01*
X103564267Y-104941511D01*
X103652206Y-104941511D01*
X103702102Y-104939573D01*
X103812523Y-104920801D01*
X103913987Y-104883783D01*
X104005152Y-104830631D01*
X104084673Y-104763454D01*
X104106249Y-104737805D01*
X105076978Y-104737805D01*
X106253845Y-104740880D01*
X107430711Y-104743955D01*
X107489622Y-104770593D01*
X107514183Y-104782515D01*
X107544434Y-104799754D01*
X107561560Y-104812926D01*
X107569591Y-104820924D01*
X107584493Y-104828622D01*
X107585765Y-104824740D01*
X107587791Y-104801480D01*
X107589626Y-104759126D01*
X107591227Y-104699868D01*
X107592549Y-104625893D01*
X107593548Y-104539390D01*
X107594180Y-104442548D01*
X107594400Y-104337555D01*
X107594349Y-104268644D01*
X107594091Y-104170393D01*
X107593637Y-104080970D01*
X107593010Y-104002667D01*
X107592235Y-103937777D01*
X107591335Y-103888589D01*
X107590334Y-103857396D01*
X107589257Y-103846489D01*
X107586037Y-103847678D01*
X107568452Y-103857824D01*
X107542158Y-103874960D01*
X107529691Y-103883460D01*
X107515622Y-103892671D01*
X107501351Y-103900767D01*
X107485479Y-103907815D01*
X107466609Y-103913883D01*
X107443341Y-103919039D01*
X107414278Y-103923349D01*
X107378021Y-103926881D01*
X107333170Y-103929703D01*
X107278328Y-103931882D01*
X107212097Y-103933486D01*
X107133077Y-103934581D01*
X107039871Y-103935235D01*
X106931079Y-103935516D01*
X106805303Y-103935491D01*
X106661145Y-103935228D01*
X106497207Y-103934794D01*
X106312089Y-103934255D01*
X106133232Y-103933721D01*
X105974374Y-103933195D01*
X105835316Y-103932650D01*
X105714665Y-103932055D01*
X105611028Y-103931381D01*
X105523011Y-103930597D01*
X105449223Y-103929674D01*
X105388269Y-103928581D01*
X105338757Y-103927288D01*
X105299293Y-103925765D01*
X105268484Y-103923981D01*
X105244938Y-103921908D01*
X105227260Y-103919514D01*
X105214059Y-103916770D01*
X105203940Y-103913644D01*
X105195511Y-103910108D01*
X105187375Y-103906209D01*
X105150544Y-103886562D01*
X105120391Y-103867775D01*
X105118908Y-103866728D01*
X105096659Y-103852398D01*
X105083702Y-103846489D01*
X105083249Y-103847496D01*
X105081803Y-103864695D01*
X105080480Y-103901344D01*
X105079316Y-103955038D01*
X105078347Y-104023370D01*
X105077611Y-104103936D01*
X105077142Y-104194330D01*
X105076978Y-104292147D01*
X105076978Y-104737805D01*
X104106249Y-104737805D01*
X104151205Y-104684362D01*
X104203406Y-104595466D01*
X104239930Y-104498875D01*
X104259434Y-104396700D01*
X104260573Y-104291050D01*
X104242005Y-104184036D01*
X104202384Y-104077768D01*
X104144516Y-103980781D01*
X104069684Y-103895707D01*
X103981615Y-103826985D01*
X103882616Y-103776082D01*
X103774993Y-103744465D01*
X103661054Y-103733600D01*
X103564267Y-103733600D01*
X103564267Y-102113247D01*
X103564280Y-101902103D01*
X103564330Y-101697980D01*
X103564430Y-101514314D01*
X103564592Y-101350009D01*
X103564829Y-101203971D01*
X103565153Y-101075106D01*
X103565575Y-100962317D01*
X103566109Y-100864512D01*
X103566767Y-100780596D01*
X103567561Y-100709473D01*
X103567588Y-100707803D01*
X104173867Y-100707803D01*
X104173867Y-101767686D01*
X104236966Y-101729689D01*
X104262005Y-101715007D01*
X104289586Y-101700469D01*
X104317700Y-101688373D01*
X104348551Y-101678468D01*
X104384344Y-101670506D01*
X104427283Y-101664239D01*
X104479574Y-101659418D01*
X104543419Y-101655794D01*
X104621025Y-101653119D01*
X104714594Y-101651143D01*
X104826333Y-101649618D01*
X104958445Y-101648296D01*
X105078434Y-101647387D01*
X105195063Y-101646980D01*
X105290531Y-101647233D01*
X105364556Y-101648143D01*
X105416855Y-101649707D01*
X105447149Y-101651921D01*
X105455156Y-101654780D01*
X105451858Y-101657839D01*
X105430408Y-101675994D01*
X105393889Y-101705725D01*
X105344442Y-101745361D01*
X105284207Y-101793229D01*
X105215327Y-101847657D01*
X105139943Y-101906973D01*
X105060196Y-101969505D01*
X104978228Y-102033579D01*
X104896180Y-102097525D01*
X104816194Y-102159669D01*
X104740411Y-102218339D01*
X104670973Y-102271863D01*
X104610021Y-102318570D01*
X104559696Y-102356786D01*
X104522140Y-102384839D01*
X104499495Y-102401057D01*
X104427212Y-102446365D01*
X104347463Y-102486339D01*
X104279188Y-102507870D01*
X104221844Y-102511173D01*
X104173867Y-102505884D01*
X104174117Y-103637644D01*
X104204722Y-103598133D01*
X104212089Y-103588752D01*
X104266438Y-103525817D01*
X104334259Y-103457003D01*
X104417516Y-103380404D01*
X104518178Y-103294112D01*
X104538847Y-103276948D01*
X104588409Y-103236167D01*
X104649326Y-103186412D01*
X104719898Y-103129045D01*
X104798424Y-103065431D01*
X104883204Y-102996931D01*
X104972537Y-102924910D01*
X105064722Y-102850730D01*
X105083702Y-102835483D01*
X105158060Y-102775754D01*
X105250848Y-102701347D01*
X105341388Y-102628869D01*
X105427978Y-102559686D01*
X105508918Y-102495159D01*
X105582506Y-102436653D01*
X105647044Y-102385530D01*
X105700829Y-102343153D01*
X105742162Y-102310885D01*
X105769342Y-102290090D01*
X105780668Y-102282131D01*
X105784771Y-102283889D01*
X105805334Y-102296770D01*
X105841561Y-102321115D01*
X105891824Y-102355753D01*
X105954492Y-102399514D01*
X106027936Y-102451225D01*
X106110527Y-102509716D01*
X106200636Y-102573816D01*
X106296631Y-102642354D01*
X106396885Y-102714157D01*
X106499768Y-102788056D01*
X106603650Y-102862879D01*
X106706901Y-102937455D01*
X106807892Y-103010613D01*
X106904994Y-103081181D01*
X106996577Y-103147989D01*
X107081011Y-103209865D01*
X107156667Y-103265639D01*
X107221916Y-103314138D01*
X107275128Y-103354193D01*
X107314673Y-103384631D01*
X107340026Y-103405056D01*
X107394295Y-103451101D01*
X107450775Y-103501388D01*
X107500669Y-103548185D01*
X107594400Y-103639349D01*
X107594400Y-102484910D01*
X107518200Y-102485544D01*
X107476160Y-102484426D01*
X107440334Y-102478696D01*
X107402772Y-102466110D01*
X107354577Y-102444432D01*
X107347897Y-102441211D01*
X107298359Y-102415812D01*
X107250369Y-102389004D01*
X107213466Y-102366083D01*
X107206834Y-102361515D01*
X107175593Y-102339484D01*
X107130654Y-102307307D01*
X107074147Y-102266543D01*
X107008204Y-102218755D01*
X106934957Y-102165502D01*
X106856536Y-102108345D01*
X106775072Y-102048845D01*
X106692698Y-101988563D01*
X106611544Y-101929060D01*
X106533742Y-101871895D01*
X106461423Y-101818630D01*
X106396718Y-101770826D01*
X106341759Y-101730043D01*
X106298676Y-101697842D01*
X106269602Y-101675784D01*
X106256667Y-101665429D01*
X106252351Y-101660956D01*
X106250312Y-101656764D01*
X106252926Y-101653357D01*
X106261986Y-101650675D01*
X106279285Y-101648659D01*
X106306614Y-101647252D01*
X106345765Y-101646395D01*
X106398533Y-101646030D01*
X106466707Y-101646097D01*
X106552082Y-101646540D01*
X106656449Y-101647298D01*
X106781600Y-101648315D01*
X106826300Y-101648692D01*
X106947395Y-101649831D01*
X107048688Y-101651028D01*
X107132262Y-101652364D01*
X107200204Y-101653923D01*
X107254599Y-101655785D01*
X107297532Y-101658034D01*
X107331089Y-101660752D01*
X107357355Y-101664021D01*
X107378416Y-101667922D01*
X107396357Y-101672539D01*
X107422770Y-101680808D01*
X107484772Y-101704417D01*
X107537573Y-101730315D01*
X107574645Y-101755465D01*
X107576075Y-101756661D01*
X107580424Y-101758832D01*
X107584026Y-101756672D01*
X107586951Y-101748356D01*
X107589269Y-101732060D01*
X107591051Y-101705959D01*
X107592367Y-101668229D01*
X107593286Y-101617044D01*
X107593878Y-101550580D01*
X107594215Y-101467013D01*
X107594365Y-101364517D01*
X107594400Y-101241268D01*
X107594400Y-100709704D01*
X107536783Y-100748477D01*
X107527893Y-100754568D01*
X107513069Y-100765024D01*
X107499422Y-100774421D01*
X107485765Y-100782817D01*
X107470911Y-100790267D01*
X107453670Y-100796827D01*
X107432855Y-100802554D01*
X107407280Y-100807505D01*
X107375755Y-100811734D01*
X107337093Y-100815299D01*
X107290107Y-100818256D01*
X107233608Y-100820660D01*
X107166409Y-100822569D01*
X107087322Y-100824038D01*
X106995160Y-100825124D01*
X106888734Y-100825882D01*
X106766857Y-100826370D01*
X106628341Y-100826642D01*
X106471999Y-100826757D01*
X106296642Y-100826769D01*
X106101082Y-100826735D01*
X105884133Y-100826711D01*
X105761513Y-100826720D01*
X105556447Y-100826757D01*
X105372116Y-100826773D01*
X105207334Y-100826712D01*
X105060916Y-100826516D01*
X104931674Y-100826130D01*
X104818422Y-100825495D01*
X104719975Y-100824556D01*
X104635144Y-100823255D01*
X104562744Y-100821536D01*
X104501589Y-100819341D01*
X104450492Y-100816615D01*
X104408267Y-100813299D01*
X104373727Y-100809338D01*
X104345686Y-100804675D01*
X104322958Y-100799253D01*
X104304356Y-100793014D01*
X104288693Y-100785903D01*
X104274784Y-100777862D01*
X104261441Y-100768834D01*
X104247479Y-100758764D01*
X104231711Y-100747593D01*
X104173867Y-100707803D01*
X103567588Y-100707803D01*
X103568504Y-100650050D01*
X103569608Y-100601232D01*
X103570884Y-100561923D01*
X103572347Y-100531031D01*
X103574007Y-100507459D01*
X103575878Y-100490114D01*
X103577972Y-100477901D01*
X103580300Y-100469725D01*
X103582876Y-100464492D01*
X103586445Y-100458496D01*
X103589978Y-100451721D01*
X103593488Y-100445522D01*
X103597918Y-100439874D01*
X103604208Y-100434753D01*
X103613301Y-100430131D01*
X103626139Y-100425985D01*
X103643662Y-100422287D01*
X103666813Y-100419013D01*
X103696534Y-100416137D01*
X103733765Y-100413633D01*
X103779449Y-100411476D01*
X103834527Y-100409640D01*
X103899941Y-100408100D01*
X103976633Y-100406830D01*
X104065544Y-100405805D01*
X104167617Y-100404999D01*
X104173867Y-100404966D01*
X104283792Y-100404386D01*
X104415011Y-100403941D01*
X104562216Y-100403638D01*
X104726349Y-100403452D01*
X104908352Y-100403358D01*
X105109165Y-100403329D01*
X105329732Y-100403339D01*
X105570992Y-100403364D01*
X105833889Y-100403378D01*
X105876040Y-100403378D01*
X106136668Y-100403354D01*
X106375796Y-100403315D01*
X106594360Y-100403292D01*
X106793295Y-100403313D01*
G36*
X106793295Y-100403313D02*
G01*
X106973535Y-100403407D01*
X107136015Y-100403605D01*
X107281670Y-100403937D01*
X107411434Y-100404431D01*
X107526243Y-100405117D01*
X107627030Y-100406024D01*
X107714730Y-100407183D01*
X107790279Y-100408622D01*
X107854611Y-100410371D01*
X107908661Y-100412460D01*
X107953363Y-100414917D01*
X107989652Y-100417773D01*
X108018463Y-100421057D01*
X108040731Y-100424798D01*
X108057390Y-100429026D01*
X108069375Y-100433771D01*
X108077621Y-100439061D01*
X108083062Y-100444927D01*
X108086634Y-100451398D01*
X108089270Y-100458503D01*
X108091906Y-100466272D01*
X108095477Y-100474734D01*
X108097145Y-100479092D01*
X108099111Y-100487605D01*
X108100911Y-100500306D01*
X108102555Y-100518115D01*
X108104047Y-100541951D01*
X108105397Y-100572734D01*
X108106611Y-100611383D01*
X108107697Y-100658818D01*
X108108661Y-100715957D01*
X108109511Y-100783721D01*
X108110253Y-100863029D01*
X108110897Y-100954801D01*
X108111447Y-101059956D01*
X108111913Y-101179413D01*
X108112300Y-101314092D01*
X108112616Y-101464912D01*
X108112869Y-101632794D01*
X108113066Y-101818655D01*
X108113213Y-102023417D01*
X108113318Y-102247998D01*
X108113389Y-102493318D01*
X108113432Y-102760296D01*
X108113437Y-102798679D01*
X108113480Y-103064078D01*
X108113525Y-103307950D01*
X108113548Y-103531217D01*
X108113524Y-103734804D01*
X108113430Y-103919633D01*
X108113243Y-104086627D01*
X108112939Y-104236710D01*
X108112494Y-104370804D01*
X108111885Y-104489834D01*
X108111089Y-104594721D01*
X108110080Y-104686390D01*
X108108837Y-104765763D01*
X108107335Y-104833763D01*
X108105551Y-104891314D01*
X108103461Y-104939338D01*
X108101042Y-104978760D01*
X108098270Y-105010501D01*
X108095121Y-105035486D01*
X108091572Y-105054636D01*
X108087598Y-105068877D01*
X108083178Y-105079129D01*
X108078286Y-105086318D01*
X108072900Y-105091365D01*
X108066996Y-105095195D01*
X108060549Y-105098729D01*
X108053537Y-105102892D01*
X108051687Y-105103975D01*
X108046180Y-105106187D01*
X108037868Y-105108214D01*
X108025809Y-105110062D01*
X108009063Y-105111739D01*
X107986687Y-105113255D01*
X107957740Y-105114617D01*
X107921280Y-105115833D01*
X107876367Y-105116911D01*
X107822057Y-105117860D01*
X107757410Y-105118688D01*
X107681484Y-105119403D01*
X107593338Y-105120013D01*
X107492029Y-105120526D01*
X107376617Y-105120950D01*
X107246160Y-105121294D01*
X107099716Y-105121566D01*
X106936344Y-105121773D01*
X106755101Y-105121924D01*
X106555048Y-105122028D01*
X106335241Y-105122092D01*
X106094739Y-105122124D01*
X105832602Y-105122133D01*
X103641031Y-105122133D01*
X103602649Y-105083751D01*
X103578911Y-105056645D01*
X103567111Y-105029747D01*
X103564267Y-104993440D01*
X103564267Y-104941511D01*
X103652206Y-104941511D01*
X103702102Y-104939573D01*
X103812523Y-104920801D01*
X103913987Y-104883783D01*
X104005152Y-104830631D01*
X104084673Y-104763454D01*
X104106249Y-104737805D01*
X105076978Y-104737805D01*
X106253845Y-104740880D01*
X107430711Y-104743955D01*
X107489622Y-104770593D01*
X107514183Y-104782515D01*
X107544434Y-104799754D01*
X107561560Y-104812926D01*
X107569591Y-104820924D01*
X107584493Y-104828622D01*
X107585765Y-104824740D01*
X107587791Y-104801480D01*
X107589626Y-104759126D01*
X107591227Y-104699868D01*
X107592549Y-104625893D01*
X107593548Y-104539390D01*
X107594180Y-104442548D01*
X107594400Y-104337555D01*
X107594349Y-104268644D01*
X107594091Y-104170393D01*
X107593637Y-104080970D01*
X107593010Y-104002667D01*
X107592235Y-103937777D01*
X107591335Y-103888589D01*
X107590334Y-103857396D01*
X107589257Y-103846489D01*
X107586037Y-103847678D01*
X107568452Y-103857824D01*
X107542158Y-103874960D01*
X107529691Y-103883460D01*
X107515622Y-103892671D01*
X107501351Y-103900767D01*
X107485479Y-103907815D01*
X107466609Y-103913883D01*
X107443341Y-103919039D01*
X107414278Y-103923349D01*
X107378021Y-103926881D01*
X107333170Y-103929703D01*
X107278328Y-103931882D01*
X107212097Y-103933486D01*
X107133077Y-103934581D01*
X107039871Y-103935235D01*
X106931079Y-103935516D01*
X106805303Y-103935491D01*
X106661145Y-103935228D01*
X106497207Y-103934794D01*
X106312089Y-103934255D01*
X106133232Y-103933721D01*
X105974374Y-103933195D01*
X105835316Y-103932650D01*
X105714665Y-103932055D01*
X105611028Y-103931381D01*
X105523011Y-103930597D01*
X105449223Y-103929674D01*
X105388269Y-103928581D01*
X105338757Y-103927288D01*
X105299293Y-103925765D01*
X105268484Y-103923981D01*
X105244938Y-103921908D01*
X105227260Y-103919514D01*
X105214059Y-103916770D01*
X105203940Y-103913644D01*
X105195511Y-103910108D01*
X105187375Y-103906209D01*
X105150544Y-103886562D01*
X105120391Y-103867775D01*
X105118908Y-103866728D01*
X105096659Y-103852398D01*
X105083702Y-103846489D01*
X105083249Y-103847496D01*
X105081803Y-103864695D01*
X105080480Y-103901344D01*
X105079316Y-103955038D01*
X105078347Y-104023370D01*
X105077611Y-104103936D01*
X105077142Y-104194330D01*
X105076978Y-104292147D01*
X105076978Y-104737805D01*
X104106249Y-104737805D01*
X104151205Y-104684362D01*
X104203406Y-104595466D01*
X104239930Y-104498875D01*
X104259434Y-104396700D01*
X104260573Y-104291050D01*
X104242005Y-104184036D01*
X104202384Y-104077768D01*
X104144516Y-103980781D01*
X104069684Y-103895707D01*
X103981615Y-103826985D01*
X103882616Y-103776082D01*
X103774993Y-103744465D01*
X103661054Y-103733600D01*
X103564267Y-103733600D01*
X103564267Y-102113247D01*
X103564280Y-101902103D01*
X103564330Y-101697980D01*
X103564430Y-101514314D01*
X103564592Y-101350009D01*
X103564829Y-101203971D01*
X103565153Y-101075106D01*
X103565575Y-100962317D01*
X103566109Y-100864512D01*
X103566767Y-100780596D01*
X103567561Y-100709473D01*
X103567588Y-100707803D01*
X104173867Y-100707803D01*
X104173867Y-101767686D01*
X104236966Y-101729689D01*
X104262005Y-101715007D01*
X104289586Y-101700469D01*
X104317700Y-101688373D01*
X104348551Y-101678468D01*
X104384344Y-101670506D01*
X104427283Y-101664239D01*
X104479574Y-101659418D01*
X104543419Y-101655794D01*
X104621025Y-101653119D01*
X104714594Y-101651143D01*
X104826333Y-101649618D01*
X104958445Y-101648296D01*
X105078434Y-101647387D01*
X105195063Y-101646980D01*
X105290531Y-101647233D01*
X105364556Y-101648143D01*
X105416855Y-101649707D01*
X105447149Y-101651921D01*
X105455156Y-101654780D01*
X105451858Y-101657839D01*
X105430408Y-101675994D01*
X105393889Y-101705725D01*
X105344442Y-101745361D01*
X105284207Y-101793229D01*
X105215327Y-101847657D01*
X105139943Y-101906973D01*
X105060196Y-101969505D01*
X104978228Y-102033579D01*
X104896180Y-102097525D01*
X104816194Y-102159669D01*
X104740411Y-102218339D01*
X104670973Y-102271863D01*
X104610021Y-102318570D01*
X104559696Y-102356786D01*
X104522140Y-102384839D01*
X104499495Y-102401057D01*
X104427212Y-102446365D01*
X104347463Y-102486339D01*
X104279188Y-102507870D01*
X104221844Y-102511173D01*
X104173867Y-102505884D01*
X104174117Y-103637644D01*
X104204722Y-103598133D01*
X104212089Y-103588752D01*
X104266438Y-103525817D01*
X104334259Y-103457003D01*
X104417516Y-103380404D01*
X104518178Y-103294112D01*
X104538847Y-103276948D01*
X104588409Y-103236167D01*
X104649326Y-103186412D01*
X104719898Y-103129045D01*
X104798424Y-103065431D01*
X104883204Y-102996931D01*
X104972537Y-102924910D01*
X105064722Y-102850730D01*
X105083702Y-102835483D01*
X105158060Y-102775754D01*
X105250848Y-102701347D01*
X105341388Y-102628869D01*
X105427978Y-102559686D01*
X105508918Y-102495159D01*
X105582506Y-102436653D01*
X105647044Y-102385530D01*
X105700829Y-102343153D01*
X105742162Y-102310885D01*
X105769342Y-102290090D01*
X105780668Y-102282131D01*
X105784771Y-102283889D01*
X105805334Y-102296770D01*
X105841561Y-102321115D01*
X105891824Y-102355753D01*
X105954492Y-102399514D01*
X106027936Y-102451225D01*
X106110527Y-102509716D01*
X106200636Y-102573816D01*
X106296631Y-102642354D01*
X106396885Y-102714157D01*
X106499768Y-102788056D01*
X106603650Y-102862879D01*
X106706901Y-102937455D01*
X106807892Y-103010613D01*
X106904994Y-103081181D01*
X106996577Y-103147989D01*
X107081011Y-103209865D01*
X107156667Y-103265639D01*
X107221916Y-103314138D01*
X107275128Y-103354193D01*
X107314673Y-103384631D01*
X107340026Y-103405056D01*
X107394295Y-103451101D01*
X107450775Y-103501388D01*
X107500669Y-103548185D01*
X107594400Y-103639349D01*
X107594400Y-102484910D01*
X107518200Y-102485544D01*
X107476160Y-102484426D01*
X107440334Y-102478696D01*
X107402772Y-102466110D01*
X107354577Y-102444432D01*
X107347897Y-102441211D01*
X107298359Y-102415812D01*
X107250369Y-102389004D01*
X107213466Y-102366083D01*
X107206834Y-102361515D01*
X107175593Y-102339484D01*
X107130654Y-102307307D01*
X107074147Y-102266543D01*
X107008204Y-102218755D01*
X106934957Y-102165502D01*
X106856536Y-102108345D01*
X106775072Y-102048845D01*
X106692698Y-101988563D01*
X106611544Y-101929060D01*
X106533742Y-101871895D01*
X106461423Y-101818630D01*
X106396718Y-101770826D01*
X106341759Y-101730043D01*
X106298676Y-101697842D01*
X106269602Y-101675784D01*
X106256667Y-101665429D01*
X106252351Y-101660956D01*
X106250312Y-101656764D01*
X106252926Y-101653357D01*
X106261986Y-101650675D01*
X106279285Y-101648659D01*
X106306614Y-101647252D01*
X106345765Y-101646395D01*
X106398533Y-101646030D01*
X106466707Y-101646097D01*
X106552082Y-101646540D01*
X106656449Y-101647298D01*
X106781600Y-101648315D01*
X106826300Y-101648692D01*
X106947395Y-101649831D01*
X107048688Y-101651028D01*
X107132262Y-101652364D01*
X107200204Y-101653923D01*
X107254599Y-101655785D01*
X107297532Y-101658034D01*
X107331089Y-101660752D01*
X107357355Y-101664021D01*
X107378416Y-101667922D01*
X107396357Y-101672539D01*
X107422770Y-101680808D01*
X107484772Y-101704417D01*
X107537573Y-101730315D01*
X107574645Y-101755465D01*
X107576075Y-101756661D01*
X107580424Y-101758832D01*
X107584026Y-101756672D01*
X107586951Y-101748356D01*
X107589269Y-101732060D01*
X107591051Y-101705959D01*
X107592367Y-101668229D01*
X107593286Y-101617044D01*
X107593878Y-101550580D01*
X107594215Y-101467013D01*
X107594365Y-101364517D01*
X107594400Y-101241268D01*
X107594400Y-100709704D01*
X107536783Y-100748477D01*
X107527893Y-100754568D01*
X107513069Y-100765024D01*
X107499422Y-100774421D01*
X107485765Y-100782817D01*
X107470911Y-100790267D01*
X107453670Y-100796827D01*
X107432855Y-100802554D01*
X107407280Y-100807505D01*
X107375755Y-100811734D01*
X107337093Y-100815299D01*
X107290107Y-100818256D01*
X107233608Y-100820660D01*
X107166409Y-100822569D01*
X107087322Y-100824038D01*
X106995160Y-100825124D01*
X106888734Y-100825882D01*
X106766857Y-100826370D01*
X106628341Y-100826642D01*
X106471999Y-100826757D01*
X106296642Y-100826769D01*
X106101082Y-100826735D01*
X105884133Y-100826711D01*
X105761513Y-100826720D01*
X105556447Y-100826757D01*
X105372116Y-100826773D01*
X105207334Y-100826712D01*
X105060916Y-100826516D01*
X104931674Y-100826130D01*
X104818422Y-100825495D01*
X104719975Y-100824556D01*
X104635144Y-100823255D01*
X104562744Y-100821536D01*
X104501589Y-100819341D01*
X104450492Y-100816615D01*
X104408267Y-100813299D01*
X104373727Y-100809338D01*
X104345686Y-100804675D01*
X104322958Y-100799253D01*
X104304356Y-100793014D01*
X104288693Y-100785903D01*
X104274784Y-100777862D01*
X104261441Y-100768834D01*
X104247479Y-100758764D01*
X104231711Y-100747593D01*
X104173867Y-100707803D01*
X103567588Y-100707803D01*
X103568504Y-100650050D01*
X103569608Y-100601232D01*
X103570884Y-100561923D01*
X103572347Y-100531031D01*
X103574007Y-100507459D01*
X103575878Y-100490114D01*
X103577972Y-100477901D01*
X103580300Y-100469725D01*
X103582876Y-100464492D01*
X103586445Y-100458496D01*
X103589978Y-100451721D01*
X103593488Y-100445522D01*
X103597918Y-100439874D01*
X103604208Y-100434753D01*
X103613301Y-100430131D01*
X103626139Y-100425985D01*
X103643662Y-100422287D01*
X103666813Y-100419013D01*
X103696534Y-100416137D01*
X103733765Y-100413633D01*
X103779449Y-100411476D01*
X103834527Y-100409640D01*
X103899941Y-100408100D01*
X103976633Y-100406830D01*
X104065544Y-100405805D01*
X104167617Y-100404999D01*
X104173867Y-100404966D01*
X104283792Y-100404386D01*
X104415011Y-100403941D01*
X104562216Y-100403638D01*
X104726349Y-100403452D01*
X104908352Y-100403358D01*
X105109165Y-100403329D01*
X105329732Y-100403339D01*
X105570992Y-100403364D01*
X105833889Y-100403378D01*
X105876040Y-100403378D01*
X106136668Y-100403354D01*
X106375796Y-100403315D01*
X106594360Y-100403292D01*
X106793295Y-100403313D01*
G37*
X103706307Y-103875331D02*
X103747450Y-103877540D01*
X103779582Y-103883106D01*
X103810122Y-103893414D01*
X103846489Y-103909852D01*
X103873728Y-103923800D01*
X103959429Y-103982335D01*
X104028617Y-104054381D01*
X104079741Y-104138053D01*
X104111250Y-104231469D01*
X104118225Y-104264566D01*
X104125094Y-104305040D01*
X104126919Y-104338001D01*
X104123947Y-104372302D01*
X104116426Y-104416800D01*
X104104002Y-104468066D01*
X104066112Y-104558566D01*
X104011836Y-104637655D01*
X103943770Y-104703472D01*
X103864511Y-104754160D01*
X103776654Y-104787860D01*
X103682795Y-104802714D01*
X103585530Y-104796864D01*
X103489220Y-104770601D01*
X103400494Y-104725582D01*
X103325419Y-104664627D01*
X103265641Y-104589816D01*
X103222809Y-104503232D01*
X103198571Y-104406957D01*
X103194576Y-104303072D01*
X103204850Y-104225438D01*
X103232053Y-104142687D01*
X103277484Y-104067594D01*
X103343302Y-103995702D01*
X103387567Y-103957154D01*
X103445961Y-103917744D01*
X103506586Y-103892554D01*
X103575865Y-103879139D01*
X103660222Y-103875052D01*
X103706307Y-103875331D01*
G36*
X103706307Y-103875331D02*
G01*
X103747450Y-103877540D01*
X103779582Y-103883106D01*
X103810122Y-103893414D01*
X103846489Y-103909852D01*
X103873728Y-103923800D01*
X103959429Y-103982335D01*
X104028617Y-104054381D01*
X104079741Y-104138053D01*
X104111250Y-104231469D01*
X104118225Y-104264566D01*
X104125094Y-104305040D01*
X104126919Y-104338001D01*
X104123947Y-104372302D01*
X104116426Y-104416800D01*
X104104002Y-104468066D01*
X104066112Y-104558566D01*
X104011836Y-104637655D01*
X103943770Y-104703472D01*
X103864511Y-104754160D01*
X103776654Y-104787860D01*
X103682795Y-104802714D01*
X103585530Y-104796864D01*
X103489220Y-104770601D01*
X103400494Y-104725582D01*
X103325419Y-104664627D01*
X103265641Y-104589816D01*
X103222809Y-104503232D01*
X103198571Y-104406957D01*
X103194576Y-104303072D01*
X103204850Y-104225438D01*
X103232053Y-104142687D01*
X103277484Y-104067594D01*
X103343302Y-103995702D01*
X103387567Y-103957154D01*
X103445961Y-103917744D01*
X103506586Y-103892554D01*
X103575865Y-103879139D01*
X103660222Y-103875052D01*
X103706307Y-103875331D01*
G37*
X108866486Y-105291489D02*
X108945573Y-105291708D01*
X109006516Y-105292317D01*
X109052062Y-105293508D01*
X109084963Y-105295471D01*
X109107968Y-105298397D01*
X109123826Y-105302477D01*
X109135286Y-105307903D01*
X109145100Y-105314864D01*
X109169493Y-105345292D01*
X109172372Y-105380235D01*
X109153282Y-105417216D01*
X109149807Y-105421400D01*
X109141279Y-105429576D01*
X109129728Y-105435636D01*
X109111896Y-105440019D01*
X109084524Y-105443161D01*
X109044354Y-105445498D01*
X108988128Y-105447469D01*
X108912589Y-105449511D01*
X108693458Y-105455155D01*
X108934099Y-105720444D01*
X109000875Y-105794278D01*
X109058991Y-105859458D01*
X109103949Y-105911652D01*
X109136871Y-105952727D01*
X109158879Y-105984545D01*
X109171094Y-106008974D01*
X109174639Y-106027876D01*
X109170636Y-106043117D01*
X109160207Y-106056561D01*
X109144474Y-106070073D01*
X109135991Y-106076318D01*
X109125413Y-106081950D01*
X109111255Y-106086161D01*
X109090803Y-106089113D01*
X109061342Y-106090968D01*
X109020161Y-106091887D01*
X108964544Y-106092032D01*
X108891779Y-106091565D01*
X108799151Y-106090648D01*
X108484199Y-106087333D01*
X108462633Y-106060682D01*
X108446441Y-106034617D01*
X108443670Y-106001759D01*
X108462623Y-105967228D01*
X108466208Y-105962916D01*
X108474737Y-105954784D01*
X108486329Y-105948755D01*
X108504235Y-105944394D01*
X108531706Y-105941266D01*
X108571994Y-105938937D01*
X108628351Y-105936971D01*
X108704029Y-105934933D01*
X108923878Y-105929289D01*
X108760084Y-105748666D01*
X108681451Y-105661928D01*
X108613058Y-105586157D01*
X108557708Y-105524020D01*
X108514338Y-105473922D01*
X108481881Y-105434265D01*
X108459273Y-105403452D01*
X108445448Y-105379886D01*
X108439343Y-105361970D01*
X108439892Y-105348107D01*
X108446029Y-105336699D01*
X108456691Y-105326150D01*
X108470811Y-105314864D01*
X108476772Y-105310411D01*
X108487268Y-105304412D01*
X108501093Y-105299833D01*
X108520998Y-105296481D01*
X108549732Y-105294167D01*
X108590045Y-105292699D01*
X108644687Y-105291887D01*
X108716407Y-105291540D01*
X108807956Y-105291466D01*
X108866486Y-105291489D01*
G36*
X108866486Y-105291489D02*
G01*
X108945573Y-105291708D01*
X109006516Y-105292317D01*
X109052062Y-105293508D01*
X109084963Y-105295471D01*
X109107968Y-105298397D01*
X109123826Y-105302477D01*
X109135286Y-105307903D01*
X109145100Y-105314864D01*
X109169493Y-105345292D01*
X109172372Y-105380235D01*
X109153282Y-105417216D01*
X109149807Y-105421400D01*
X109141279Y-105429576D01*
X109129728Y-105435636D01*
X109111896Y-105440019D01*
X109084524Y-105443161D01*
X109044354Y-105445498D01*
X108988128Y-105447469D01*
X108912589Y-105449511D01*
X108693458Y-105455155D01*
X108934099Y-105720444D01*
X109000875Y-105794278D01*
X109058991Y-105859458D01*
X109103949Y-105911652D01*
X109136871Y-105952727D01*
X109158879Y-105984545D01*
X109171094Y-106008974D01*
X109174639Y-106027876D01*
X109170636Y-106043117D01*
X109160207Y-106056561D01*
X109144474Y-106070073D01*
X109135991Y-106076318D01*
X109125413Y-106081950D01*
X109111255Y-106086161D01*
X109090803Y-106089113D01*
X109061342Y-106090968D01*
X109020161Y-106091887D01*
X108964544Y-106092032D01*
X108891779Y-106091565D01*
X108799151Y-106090648D01*
X108484199Y-106087333D01*
X108462633Y-106060682D01*
X108446441Y-106034617D01*
X108443670Y-106001759D01*
X108462623Y-105967228D01*
X108466208Y-105962916D01*
X108474737Y-105954784D01*
X108486329Y-105948755D01*
X108504235Y-105944394D01*
X108531706Y-105941266D01*
X108571994Y-105938937D01*
X108628351Y-105936971D01*
X108704029Y-105934933D01*
X108923878Y-105929289D01*
X108760084Y-105748666D01*
X108681451Y-105661928D01*
X108613058Y-105586157D01*
X108557708Y-105524020D01*
X108514338Y-105473922D01*
X108481881Y-105434265D01*
X108459273Y-105403452D01*
X108445448Y-105379886D01*
X108439343Y-105361970D01*
X108439892Y-105348107D01*
X108446029Y-105336699D01*
X108456691Y-105326150D01*
X108470811Y-105314864D01*
X108476772Y-105310411D01*
X108487268Y-105304412D01*
X108501093Y-105299833D01*
X108520998Y-105296481D01*
X108549732Y-105294167D01*
X108590045Y-105292699D01*
X108644687Y-105291887D01*
X108716407Y-105291540D01*
X108807956Y-105291466D01*
X108866486Y-105291489D01*
G37*
X108882713Y-101532303D02*
X108960889Y-101532552D01*
X109021103Y-101533188D01*
X109065982Y-101534385D01*
X109098152Y-101536316D01*
X109120239Y-101539154D01*
X109134870Y-101543073D01*
X109144670Y-101548245D01*
X109152267Y-101554844D01*
X109155444Y-101558178D01*
X109161554Y-101566700D01*
X109166229Y-101578702D01*
X109169659Y-101596913D01*
X109172036Y-101624060D01*
X109173552Y-101662871D01*
X109174398Y-101716076D01*
X109174765Y-101786402D01*
X109174845Y-101876578D01*
X109174833Y-101918686D01*
X109174651Y-101999833D01*
X109174098Y-102062325D01*
X109172982Y-102108891D01*
X109171113Y-102142259D01*
X109168298Y-102165156D01*
X109164346Y-102180312D01*
X109159066Y-102190454D01*
X109152267Y-102198311D01*
X109130667Y-102213037D01*
X109101467Y-102220889D01*
X109077560Y-102215390D01*
X109050667Y-102198311D01*
X109046059Y-102193332D01*
X109039772Y-102183557D01*
X109035146Y-102169441D01*
X109031930Y-102147946D01*
X109029870Y-102116032D01*
X109028712Y-102070658D01*
X109028202Y-102008787D01*
X109028089Y-101927378D01*
X109028089Y-101679022D01*
X108870045Y-101679022D01*
X108870045Y-101840199D01*
X108869899Y-101876017D01*
X108868176Y-101941641D01*
X108863741Y-101988882D01*
X108855637Y-102020617D01*
X108842906Y-102039723D01*
X108824592Y-102049077D01*
X108799738Y-102051555D01*
X108779482Y-102050758D01*
X108757656Y-102045506D01*
X108742304Y-102032712D01*
X108732309Y-102009372D01*
X108726553Y-101972483D01*
X108723919Y-101919041D01*
X108723289Y-101846042D01*
X108723289Y-101677895D01*
X108658378Y-101681281D01*
X108593467Y-101684666D01*
X108590418Y-101932383D01*
X108589539Y-101994974D01*
X108588095Y-102063435D01*
X108586164Y-102114339D01*
X108583514Y-102150592D01*
X108579910Y-102175099D01*
X108575121Y-102190765D01*
X108568913Y-102200494D01*
X108562510Y-102206509D01*
X108530828Y-102219518D01*
X108495142Y-102215957D01*
X108464084Y-102196182D01*
X108461161Y-102192931D01*
X108454810Y-102183951D01*
X108449957Y-102171847D01*
X108446403Y-102153841D01*
X108443946Y-102127153D01*
X108442385Y-102089003D01*
X108441518Y-102036614D01*
X108441146Y-101967206D01*
X108441067Y-101877999D01*
X108441083Y-101823266D01*
X108441275Y-101746169D01*
X108441860Y-101687223D01*
X108443051Y-101643636D01*
X108445064Y-101612617D01*
X108448112Y-101591375D01*
X108452409Y-101577118D01*
X108458172Y-101567055D01*
X108465612Y-101558394D01*
X108467293Y-101556609D01*
X108474832Y-101549365D01*
X108483850Y-101543723D01*
X108496984Y-101539483D01*
X108516872Y-101536444D01*
X108546151Y-101534406D01*
X108587458Y-101533170D01*
X108643431Y-101532535D01*
X108716707Y-101532300D01*
X108809923Y-101532266D01*
X108882713Y-101532303D01*
G36*
X108882713Y-101532303D02*
G01*
X108960889Y-101532552D01*
X109021103Y-101533188D01*
X109065982Y-101534385D01*
X109098152Y-101536316D01*
X109120239Y-101539154D01*
X109134870Y-101543073D01*
X109144670Y-101548245D01*
X109152267Y-101554844D01*
X109155444Y-101558178D01*
X109161554Y-101566700D01*
X109166229Y-101578702D01*
X109169659Y-101596913D01*
X109172036Y-101624060D01*
X109173552Y-101662871D01*
X109174398Y-101716076D01*
X109174765Y-101786402D01*
X109174845Y-101876578D01*
X109174833Y-101918686D01*
X109174651Y-101999833D01*
X109174098Y-102062325D01*
X109172982Y-102108891D01*
X109171113Y-102142259D01*
X109168298Y-102165156D01*
X109164346Y-102180312D01*
X109159066Y-102190454D01*
X109152267Y-102198311D01*
X109130667Y-102213037D01*
X109101467Y-102220889D01*
X109077560Y-102215390D01*
X109050667Y-102198311D01*
X109046059Y-102193332D01*
X109039772Y-102183557D01*
X109035146Y-102169441D01*
X109031930Y-102147946D01*
X109029870Y-102116032D01*
X109028712Y-102070658D01*
X109028202Y-102008787D01*
X109028089Y-101927378D01*
X109028089Y-101679022D01*
X108870045Y-101679022D01*
X108870045Y-101840199D01*
X108869899Y-101876017D01*
X108868176Y-101941641D01*
X108863741Y-101988882D01*
X108855637Y-102020617D01*
X108842906Y-102039723D01*
X108824592Y-102049077D01*
X108799738Y-102051555D01*
X108779482Y-102050758D01*
X108757656Y-102045506D01*
X108742304Y-102032712D01*
X108732309Y-102009372D01*
X108726553Y-101972483D01*
X108723919Y-101919041D01*
X108723289Y-101846042D01*
X108723289Y-101677895D01*
X108658378Y-101681281D01*
X108593467Y-101684666D01*
X108590418Y-101932383D01*
X108589539Y-101994974D01*
X108588095Y-102063435D01*
X108586164Y-102114339D01*
X108583514Y-102150592D01*
X108579910Y-102175099D01*
X108575121Y-102190765D01*
X108568913Y-102200494D01*
X108562510Y-102206509D01*
X108530828Y-102219518D01*
X108495142Y-102215957D01*
X108464084Y-102196182D01*
X108461161Y-102192931D01*
X108454810Y-102183951D01*
X108449957Y-102171847D01*
X108446403Y-102153841D01*
X108443946Y-102127153D01*
X108442385Y-102089003D01*
X108441518Y-102036614D01*
X108441146Y-101967206D01*
X108441067Y-101877999D01*
X108441083Y-101823266D01*
X108441275Y-101746169D01*
X108441860Y-101687223D01*
X108443051Y-101643636D01*
X108445064Y-101612617D01*
X108448112Y-101591375D01*
X108452409Y-101577118D01*
X108458172Y-101567055D01*
X108465612Y-101558394D01*
X108467293Y-101556609D01*
X108474832Y-101549365D01*
X108483850Y-101543723D01*
X108496984Y-101539483D01*
X108516872Y-101536444D01*
X108546151Y-101534406D01*
X108587458Y-101533170D01*
X108643431Y-101532535D01*
X108716707Y-101532300D01*
X108809923Y-101532266D01*
X108882713Y-101532303D01*
G37*
X108878911Y-106476829D02*
X108957228Y-106477061D01*
X109017496Y-106477681D01*
X109062393Y-106478874D01*
X109094602Y-106480821D01*
X109116800Y-106483706D01*
X109131669Y-106487712D01*
X109141889Y-106493021D01*
X109150138Y-106499817D01*
X109154795Y-106504332D01*
X109161282Y-106512562D01*
X109166194Y-106523922D01*
X109169749Y-106541190D01*
X109172167Y-106567145D01*
X109173667Y-106604564D01*
X109174467Y-106656227D01*
X109174787Y-106724911D01*
X109174845Y-106813394D01*
X109174838Y-106833069D01*
X109174572Y-106920094D01*
X109173806Y-106987746D01*
X109172392Y-107038701D01*
X109170180Y-107075633D01*
X109167022Y-107101217D01*
X109162769Y-107118129D01*
X109157271Y-107129043D01*
X109147285Y-107139536D01*
X109116168Y-107152797D01*
X109080280Y-107151614D01*
X109048733Y-107135450D01*
X109046457Y-107133261D01*
X109040189Y-107124573D01*
X109035523Y-107111231D01*
X109032227Y-107090248D01*
X109030068Y-107058637D01*
X109028814Y-107013410D01*
X109028231Y-106951580D01*
X109028089Y-106870161D01*
X109028089Y-106623555D01*
X108870045Y-106623555D01*
X108870045Y-106785994D01*
X108869964Y-106821662D01*
X108869167Y-106877432D01*
X108867162Y-106916570D01*
X108863521Y-106943024D01*
X108857812Y-106960741D01*
X108849607Y-106973671D01*
X108846423Y-106977314D01*
X108815448Y-106995722D01*
X108779112Y-106996356D01*
X108745493Y-106978817D01*
X108745424Y-106978755D01*
X108736798Y-106969084D01*
X108730742Y-106955791D01*
X108726811Y-106935083D01*
X108724556Y-106903172D01*
X108723531Y-106856266D01*
X108723289Y-106790576D01*
X108723289Y-106622429D01*
X108658378Y-106625814D01*
X108593467Y-106629200D01*
X108590414Y-106871277D01*
X108590086Y-106896293D01*
X108588606Y-106977913D01*
X108586222Y-107040232D01*
X108582227Y-107085846D01*
X108575913Y-107117348D01*
X108566574Y-107137333D01*
X108553503Y-107148396D01*
X108535992Y-107153131D01*
X108513335Y-107154133D01*
X108510970Y-107154127D01*
X108490939Y-107152973D01*
X108475146Y-107148176D01*
X108463090Y-107137368D01*
X108454267Y-107118183D01*
X108448175Y-107088255D01*
X108444311Y-107045217D01*
X108442174Y-106986701D01*
X108441260Y-106910343D01*
X108441067Y-106813774D01*
X108441067Y-106523594D01*
X108470811Y-106500197D01*
X108477495Y-106495248D01*
X108488066Y-106489404D01*
X108502153Y-106484943D01*
X108522478Y-106481679D01*
X108551765Y-106479426D01*
X108592737Y-106477998D01*
X108648117Y-106477208D01*
X108720628Y-106476871D01*
X108812994Y-106476800D01*
X108878911Y-106476829D01*
G36*
X108878911Y-106476829D02*
G01*
X108957228Y-106477061D01*
X109017496Y-106477681D01*
X109062393Y-106478874D01*
X109094602Y-106480821D01*
X109116800Y-106483706D01*
X109131669Y-106487712D01*
X109141889Y-106493021D01*
X109150138Y-106499817D01*
X109154795Y-106504332D01*
X109161282Y-106512562D01*
X109166194Y-106523922D01*
X109169749Y-106541190D01*
X109172167Y-106567145D01*
X109173667Y-106604564D01*
X109174467Y-106656227D01*
X109174787Y-106724911D01*
X109174845Y-106813394D01*
X109174838Y-106833069D01*
X109174572Y-106920094D01*
X109173806Y-106987746D01*
X109172392Y-107038701D01*
X109170180Y-107075633D01*
X109167022Y-107101217D01*
X109162769Y-107118129D01*
X109157271Y-107129043D01*
X109147285Y-107139536D01*
X109116168Y-107152797D01*
X109080280Y-107151614D01*
X109048733Y-107135450D01*
X109046457Y-107133261D01*
X109040189Y-107124573D01*
X109035523Y-107111231D01*
X109032227Y-107090248D01*
X109030068Y-107058637D01*
X109028814Y-107013410D01*
X109028231Y-106951580D01*
X109028089Y-106870161D01*
X109028089Y-106623555D01*
X108870045Y-106623555D01*
X108870045Y-106785994D01*
X108869964Y-106821662D01*
X108869167Y-106877432D01*
X108867162Y-106916570D01*
X108863521Y-106943024D01*
X108857812Y-106960741D01*
X108849607Y-106973671D01*
X108846423Y-106977314D01*
X108815448Y-106995722D01*
X108779112Y-106996356D01*
X108745493Y-106978817D01*
X108745424Y-106978755D01*
X108736798Y-106969084D01*
X108730742Y-106955791D01*
X108726811Y-106935083D01*
X108724556Y-106903172D01*
X108723531Y-106856266D01*
X108723289Y-106790576D01*
X108723289Y-106622429D01*
X108658378Y-106625814D01*
X108593467Y-106629200D01*
X108590414Y-106871277D01*
X108590086Y-106896293D01*
X108588606Y-106977913D01*
X108586222Y-107040232D01*
X108582227Y-107085846D01*
X108575913Y-107117348D01*
X108566574Y-107137333D01*
X108553503Y-107148396D01*
X108535992Y-107153131D01*
X108513335Y-107154133D01*
X108510970Y-107154127D01*
X108490939Y-107152973D01*
X108475146Y-107148176D01*
X108463090Y-107137368D01*
X108454267Y-107118183D01*
X108448175Y-107088255D01*
X108444311Y-107045217D01*
X108442174Y-106986701D01*
X108441260Y-106910343D01*
X108441067Y-106813774D01*
X108441067Y-106523594D01*
X108470811Y-106500197D01*
X108477495Y-106495248D01*
X108488066Y-106489404D01*
X108502153Y-106484943D01*
X108522478Y-106481679D01*
X108551765Y-106479426D01*
X108592737Y-106477998D01*
X108648117Y-106477208D01*
X108720628Y-106476871D01*
X108812994Y-106476800D01*
X108878911Y-106476829D01*
G37*
X109153264Y-110798873D02*
X109170739Y-110830233D01*
X109171575Y-110866034D01*
X109151082Y-110897472D01*
X109146416Y-110901348D01*
X109136949Y-110906814D01*
X109123267Y-110911021D01*
X109102748Y-110914133D01*
X109072768Y-110916313D01*
X109030704Y-110917724D01*
X108973932Y-110918529D01*
X108899830Y-110918893D01*
X108805773Y-110918978D01*
X108484227Y-110918978D01*
X108462647Y-110892327D01*
X108447877Y-110868614D01*
X108441067Y-110845600D01*
X108446949Y-110824594D01*
X108462647Y-110798873D01*
X108484227Y-110772222D01*
X109131684Y-110772222D01*
X109153264Y-110798873D01*
G36*
X109153264Y-110798873D02*
G01*
X109170739Y-110830233D01*
X109171575Y-110866034D01*
X109151082Y-110897472D01*
X109146416Y-110901348D01*
X109136949Y-110906814D01*
X109123267Y-110911021D01*
X109102748Y-110914133D01*
X109072768Y-110916313D01*
X109030704Y-110917724D01*
X108973932Y-110918529D01*
X108899830Y-110918893D01*
X108805773Y-110918978D01*
X108484227Y-110918978D01*
X108462647Y-110892327D01*
X108447877Y-110868614D01*
X108441067Y-110845600D01*
X108446949Y-110824594D01*
X108462647Y-110798873D01*
X108484227Y-110772222D01*
X109131684Y-110772222D01*
X109153264Y-110798873D01*
G37*
X108849631Y-112176891D02*
X108966000Y-112177375D01*
X108980175Y-112177443D01*
X109041937Y-112178029D01*
X109085620Y-112179352D01*
X109115001Y-112181897D01*
X109133855Y-112186152D01*
X109145959Y-112192604D01*
X109155089Y-112201738D01*
X109172506Y-112235196D01*
X109169604Y-112270144D01*
X109145100Y-112301047D01*
X109131897Y-112310056D01*
X109113361Y-112317508D01*
X109087333Y-112321876D01*
X109048787Y-112323931D01*
X108992700Y-112324444D01*
X108870045Y-112324444D01*
X108870045Y-112821155D01*
X109004871Y-112821155D01*
X109040662Y-112821228D01*
X109086992Y-112821991D01*
X109117526Y-112824167D01*
X109136557Y-112828464D01*
X109148374Y-112835588D01*
X109157271Y-112846245D01*
X109172341Y-112878496D01*
X109169673Y-112913783D01*
X109145100Y-112944514D01*
X109138845Y-112949169D01*
X109128321Y-112955105D01*
X109114391Y-112959636D01*
X109094317Y-112962952D01*
X109065360Y-112965241D01*
X109024780Y-112966692D01*
X108969840Y-112967495D01*
X108897799Y-112967838D01*
X108805920Y-112967911D01*
X108496485Y-112967911D01*
X108468776Y-112940202D01*
X108446533Y-112908823D01*
X108443844Y-112875594D01*
X108463645Y-112843733D01*
X108473415Y-112835447D01*
X108489307Y-112828035D01*
X108513275Y-112823698D01*
X108550148Y-112821662D01*
X108604756Y-112821155D01*
X108723289Y-112821155D01*
X108723289Y-112324444D01*
X108607776Y-112324444D01*
X108556078Y-112324006D01*
X108521554Y-112322042D01*
X108498978Y-112317526D01*
X108483126Y-112309433D01*
X108468776Y-112296735D01*
X108446533Y-112265357D01*
X108443844Y-112232128D01*
X108463645Y-112200266D01*
X108469835Y-112194634D01*
X108478041Y-112189544D01*
X108489817Y-112185457D01*
X108507276Y-112182279D01*
X108532530Y-112179913D01*
X108567690Y-112178262D01*
X108614869Y-112177231D01*
X108676177Y-112176723D01*
X108753727Y-112176641D01*
X108849631Y-112176891D01*
G36*
X108849631Y-112176891D02*
G01*
X108966000Y-112177375D01*
X108980175Y-112177443D01*
X109041937Y-112178029D01*
X109085620Y-112179352D01*
X109115001Y-112181897D01*
X109133855Y-112186152D01*
X109145959Y-112192604D01*
X109155089Y-112201738D01*
X109172506Y-112235196D01*
X109169604Y-112270144D01*
X109145100Y-112301047D01*
X109131897Y-112310056D01*
X109113361Y-112317508D01*
X109087333Y-112321876D01*
X109048787Y-112323931D01*
X108992700Y-112324444D01*
X108870045Y-112324444D01*
X108870045Y-112821155D01*
X109004871Y-112821155D01*
X109040662Y-112821228D01*
X109086992Y-112821991D01*
X109117526Y-112824167D01*
X109136557Y-112828464D01*
X109148374Y-112835588D01*
X109157271Y-112846245D01*
X109172341Y-112878496D01*
X109169673Y-112913783D01*
X109145100Y-112944514D01*
X109138845Y-112949169D01*
X109128321Y-112955105D01*
X109114391Y-112959636D01*
X109094317Y-112962952D01*
X109065360Y-112965241D01*
X109024780Y-112966692D01*
X108969840Y-112967495D01*
X108897799Y-112967838D01*
X108805920Y-112967911D01*
X108496485Y-112967911D01*
X108468776Y-112940202D01*
X108446533Y-112908823D01*
X108443844Y-112875594D01*
X108463645Y-112843733D01*
X108473415Y-112835447D01*
X108489307Y-112828035D01*
X108513275Y-112823698D01*
X108550148Y-112821662D01*
X108604756Y-112821155D01*
X108723289Y-112821155D01*
X108723289Y-112324444D01*
X108607776Y-112324444D01*
X108556078Y-112324006D01*
X108521554Y-112322042D01*
X108498978Y-112317526D01*
X108483126Y-112309433D01*
X108468776Y-112296735D01*
X108446533Y-112265357D01*
X108443844Y-112232128D01*
X108463645Y-112200266D01*
X108469835Y-112194634D01*
X108478041Y-112189544D01*
X108489817Y-112185457D01*
X108507276Y-112182279D01*
X108532530Y-112179913D01*
X108567690Y-112178262D01*
X108614869Y-112177231D01*
X108676177Y-112176723D01*
X108753727Y-112176641D01*
X108849631Y-112176891D01*
G37*
X108826259Y-104107702D02*
X108877592Y-104120643D01*
X108934118Y-104143806D01*
X108988035Y-104173698D01*
X109031539Y-104206827D01*
X109041887Y-104217023D01*
X109093662Y-104284108D01*
X109133554Y-104364234D01*
X109157956Y-104450444D01*
X109166068Y-104505408D01*
X109172673Y-104598861D01*
X109170586Y-104688642D01*
X109160340Y-104771131D01*
X109142470Y-104842714D01*
X109117508Y-104899772D01*
X109085988Y-104938689D01*
X109084012Y-104940064D01*
X109058786Y-104947152D01*
X109011535Y-104951391D01*
X108942071Y-104952800D01*
X108879838Y-104951940D01*
X108832456Y-104947220D01*
X108800353Y-104935530D01*
X108780800Y-104913761D01*
X108771070Y-104878802D01*
X108768433Y-104827544D01*
X108770161Y-104756877D01*
X108773173Y-104708257D01*
X108781366Y-104658061D01*
X108795419Y-104625567D01*
X108816654Y-104608108D01*
X108846394Y-104603017D01*
X108850936Y-104603123D01*
X108885730Y-104611825D01*
X108909147Y-104635835D01*
X108922347Y-104677100D01*
X108926489Y-104737569D01*
X108926489Y-104806044D01*
X108964841Y-104806044D01*
X108973976Y-104805994D01*
X108991227Y-104803773D01*
X109001521Y-104794506D01*
X109008459Y-104773125D01*
X109015641Y-104734564D01*
X109016575Y-104729090D01*
X109026478Y-104632140D01*
X109023559Y-104542148D01*
X109008829Y-104461240D01*
X108983299Y-104391541D01*
X108947978Y-104335176D01*
X108903879Y-104294271D01*
X108852012Y-104270949D01*
X108793388Y-104267337D01*
X108764494Y-104272855D01*
X108708604Y-104299539D01*
X108662945Y-104345727D01*
X108628108Y-104410709D01*
X108604690Y-104493771D01*
X108600241Y-104518445D01*
X108589742Y-104607774D01*
X108590971Y-104687581D01*
X108603906Y-104765674D01*
X108610696Y-104800817D01*
X108611713Y-104846255D01*
X108599182Y-104877570D01*
X108572395Y-104897723D01*
X108544148Y-104904107D01*
X108512924Y-104894621D01*
X108499499Y-104885292D01*
X108475967Y-104851057D01*
X108458095Y-104798435D01*
X108446599Y-104729919D01*
X108442192Y-104648000D01*
X108446179Y-104550850D01*
X108462494Y-104444843D01*
X108490545Y-104351031D01*
X108529452Y-104272235D01*
X108578334Y-104211281D01*
X108611195Y-104185211D01*
X108660394Y-104155703D01*
X108714252Y-104130432D01*
X108765419Y-104112782D01*
X108806544Y-104106142D01*
X108826259Y-104107702D01*
G36*
X108826259Y-104107702D02*
G01*
X108877592Y-104120643D01*
X108934118Y-104143806D01*
X108988035Y-104173698D01*
X109031539Y-104206827D01*
X109041887Y-104217023D01*
X109093662Y-104284108D01*
X109133554Y-104364234D01*
X109157956Y-104450444D01*
X109166068Y-104505408D01*
X109172673Y-104598861D01*
X109170586Y-104688642D01*
X109160340Y-104771131D01*
X109142470Y-104842714D01*
X109117508Y-104899772D01*
X109085988Y-104938689D01*
X109084012Y-104940064D01*
X109058786Y-104947152D01*
X109011535Y-104951391D01*
X108942071Y-104952800D01*
X108879838Y-104951940D01*
X108832456Y-104947220D01*
X108800353Y-104935530D01*
X108780800Y-104913761D01*
X108771070Y-104878802D01*
X108768433Y-104827544D01*
X108770161Y-104756877D01*
X108773173Y-104708257D01*
X108781366Y-104658061D01*
X108795419Y-104625567D01*
X108816654Y-104608108D01*
X108846394Y-104603017D01*
X108850936Y-104603123D01*
X108885730Y-104611825D01*
X108909147Y-104635835D01*
X108922347Y-104677100D01*
X108926489Y-104737569D01*
X108926489Y-104806044D01*
X108964841Y-104806044D01*
X108973976Y-104805994D01*
X108991227Y-104803773D01*
X109001521Y-104794506D01*
X109008459Y-104773125D01*
X109015641Y-104734564D01*
X109016575Y-104729090D01*
X109026478Y-104632140D01*
X109023559Y-104542148D01*
X109008829Y-104461240D01*
X108983299Y-104391541D01*
X108947978Y-104335176D01*
X108903879Y-104294271D01*
X108852012Y-104270949D01*
X108793388Y-104267337D01*
X108764494Y-104272855D01*
X108708604Y-104299539D01*
X108662945Y-104345727D01*
X108628108Y-104410709D01*
X108604690Y-104493771D01*
X108600241Y-104518445D01*
X108589742Y-104607774D01*
X108590971Y-104687581D01*
X108603906Y-104765674D01*
X108610696Y-104800817D01*
X108611713Y-104846255D01*
X108599182Y-104877570D01*
X108572395Y-104897723D01*
X108544148Y-104904107D01*
X108512924Y-104894621D01*
X108499499Y-104885292D01*
X108475967Y-104851057D01*
X108458095Y-104798435D01*
X108446599Y-104729919D01*
X108442192Y-104648000D01*
X108446179Y-104550850D01*
X108462494Y-104444843D01*
X108490545Y-104351031D01*
X108529452Y-104272235D01*
X108578334Y-104211281D01*
X108611195Y-104185211D01*
X108660394Y-104155703D01*
X108714252Y-104130432D01*
X108765419Y-104112782D01*
X108806544Y-104106142D01*
X108826259Y-104107702D01*
G37*
X108867526Y-107492825D02*
X108946311Y-107493050D01*
X109007021Y-107493668D01*
X109028089Y-107494225D01*
X109052396Y-107494867D01*
X109085175Y-107496837D01*
X109108095Y-107499765D01*
X109123897Y-107503842D01*
X109135319Y-107509257D01*
X109145100Y-107516197D01*
X109174845Y-107539594D01*
X109174251Y-107705286D01*
X109173953Y-107740082D01*
X109170522Y-107838565D01*
X109162839Y-107919527D01*
X109150282Y-107986621D01*
X109132227Y-108043504D01*
X109108052Y-108093831D01*
X109106135Y-108097190D01*
X109069417Y-108155002D01*
X109032451Y-108197356D01*
X108988966Y-108230172D01*
X108932689Y-108259372D01*
X108923073Y-108263654D01*
X108859887Y-108286231D01*
X108804509Y-108293203D01*
X108749483Y-108284601D01*
X108687351Y-108260459D01*
X108685658Y-108259663D01*
X108616236Y-108219212D01*
X108559638Y-108168527D01*
X108515070Y-108105802D01*
X108481741Y-108029226D01*
X108458861Y-107936991D01*
X108445636Y-107827288D01*
X108441275Y-107698309D01*
X108441270Y-107694737D01*
X108441372Y-107650844D01*
X108587822Y-107650844D01*
X108588270Y-107738333D01*
X108590746Y-107805253D01*
X108601998Y-107897651D01*
X108621537Y-107976966D01*
X108648511Y-108038940D01*
X108669240Y-108069880D01*
X108699006Y-108098000D01*
X108741434Y-108121340D01*
X108757400Y-108128467D01*
X108789902Y-108140291D01*
X108814333Y-108142721D01*
X108839061Y-108137108D01*
X108854939Y-108131382D01*
X108914847Y-108098452D01*
X108960600Y-108051114D01*
X108993736Y-107987348D01*
X109015790Y-107905139D01*
X109016292Y-107902345D01*
X109022255Y-107856060D01*
X109026483Y-107799664D01*
X109028089Y-107744726D01*
X109028089Y-107650844D01*
X108587822Y-107650844D01*
X108441372Y-107650844D01*
X108441410Y-107634717D01*
X108442446Y-107592786D01*
X108445040Y-107564672D01*
X108449853Y-107546103D01*
X108457544Y-107532806D01*
X108468776Y-107520509D01*
X108496485Y-107492800D01*
X108805920Y-107492800D01*
X108867526Y-107492825D01*
G36*
X108867526Y-107492825D02*
G01*
X108946311Y-107493050D01*
X109007021Y-107493668D01*
X109028089Y-107494225D01*
X109052396Y-107494867D01*
X109085175Y-107496837D01*
X109108095Y-107499765D01*
X109123897Y-107503842D01*
X109135319Y-107509257D01*
X109145100Y-107516197D01*
X109174845Y-107539594D01*
X109174251Y-107705286D01*
X109173953Y-107740082D01*
X109170522Y-107838565D01*
X109162839Y-107919527D01*
X109150282Y-107986621D01*
X109132227Y-108043504D01*
X109108052Y-108093831D01*
X109106135Y-108097190D01*
X109069417Y-108155002D01*
X109032451Y-108197356D01*
X108988966Y-108230172D01*
X108932689Y-108259372D01*
X108923073Y-108263654D01*
X108859887Y-108286231D01*
X108804509Y-108293203D01*
X108749483Y-108284601D01*
X108687351Y-108260459D01*
X108685658Y-108259663D01*
X108616236Y-108219212D01*
X108559638Y-108168527D01*
X108515070Y-108105802D01*
X108481741Y-108029226D01*
X108458861Y-107936991D01*
X108445636Y-107827288D01*
X108441275Y-107698309D01*
X108441270Y-107694737D01*
X108441372Y-107650844D01*
X108587822Y-107650844D01*
X108588270Y-107738333D01*
X108590746Y-107805253D01*
X108601998Y-107897651D01*
X108621537Y-107976966D01*
X108648511Y-108038940D01*
X108669240Y-108069880D01*
X108699006Y-108098000D01*
X108741434Y-108121340D01*
X108757400Y-108128467D01*
X108789902Y-108140291D01*
X108814333Y-108142721D01*
X108839061Y-108137108D01*
X108854939Y-108131382D01*
X108914847Y-108098452D01*
X108960600Y-108051114D01*
X108993736Y-107987348D01*
X109015790Y-107905139D01*
X109016292Y-107902345D01*
X109022255Y-107856060D01*
X109026483Y-107799664D01*
X109028089Y-107744726D01*
X109028089Y-107650844D01*
X108587822Y-107650844D01*
X108441372Y-107650844D01*
X108441410Y-107634717D01*
X108442446Y-107592786D01*
X108445040Y-107564672D01*
X108449853Y-107546103D01*
X108457544Y-107532806D01*
X108468776Y-107520509D01*
X108496485Y-107492800D01*
X108805920Y-107492800D01*
X108867526Y-107492825D01*
G37*
X105993325Y-105362449D02*
X106194581Y-105379209D01*
X106389128Y-105412708D01*
X106572756Y-105462956D01*
X106690053Y-105506810D01*
X106852951Y-105584652D01*
X107006866Y-105678172D01*
X107148671Y-105785178D01*
X107275239Y-105903481D01*
X107383441Y-106030889D01*
X107436120Y-106108394D01*
X107505750Y-106235275D01*
X107564468Y-106372757D01*
X107609587Y-106514284D01*
X107638422Y-106653298D01*
X107640106Y-106667403D01*
X107643434Y-106710847D01*
X107646275Y-106768277D01*
X107648373Y-106833878D01*
X107649468Y-106901833D01*
X107647140Y-107028622D01*
X107634136Y-107176327D01*
X107609133Y-107314221D01*
X107571318Y-107447986D01*
X107562889Y-107471438D01*
X107543408Y-107519388D01*
X107518473Y-107575860D01*
X107489722Y-107637621D01*
X107458790Y-107701437D01*
X107427315Y-107764074D01*
X107396934Y-107822297D01*
X107369283Y-107872873D01*
X107345999Y-107912567D01*
X107328718Y-107938146D01*
X107319079Y-107946375D01*
X107315984Y-107944924D01*
X107296079Y-107933750D01*
X107260420Y-107912866D01*
X107211459Y-107883735D01*
X107151646Y-107847819D01*
X107083433Y-107806580D01*
X107009271Y-107761483D01*
X106712008Y-107580215D01*
X106756539Y-107533685D01*
X106834865Y-107442277D01*
X106909439Y-107328666D01*
X106963474Y-107210878D01*
X106996290Y-107090441D01*
X107007211Y-106968883D01*
X107005868Y-106927415D01*
X106987612Y-106809920D01*
X106948617Y-106699911D01*
X106889670Y-106598570D01*
X106811557Y-106507079D01*
X106715064Y-106426620D01*
X106600978Y-106358373D01*
X106566724Y-106342092D01*
X106443240Y-106296018D01*
X106304918Y-106260894D01*
X106155561Y-106236803D01*
X105998973Y-106223827D01*
X105838956Y-106222051D01*
X105679314Y-106231557D01*
X105523850Y-106252428D01*
X105376366Y-106284748D01*
X105240667Y-106328601D01*
X105154076Y-106366018D01*
X105040688Y-106430815D01*
X104947070Y-106506228D01*
X104872959Y-106592582D01*
X104818094Y-106690205D01*
X104782212Y-106799423D01*
X104765051Y-106920561D01*
X104763880Y-106989962D01*
X104778141Y-107112832D01*
X104813241Y-107228336D01*
X104868682Y-107335047D01*
X104943964Y-107431536D01*
X104958440Y-107447280D01*
X104984962Y-107477850D01*
X105002138Y-107500191D01*
X105006787Y-107510309D01*
X105004597Y-107512294D01*
X104985721Y-107526759D01*
X104952397Y-107550600D01*
X104907380Y-107581971D01*
X104853425Y-107619026D01*
X104793285Y-107659917D01*
X104729718Y-107702798D01*
X104665476Y-107745822D01*
X104603315Y-107787143D01*
X104545991Y-107824914D01*
X104496257Y-107857288D01*
X104456868Y-107882418D01*
X104430580Y-107898458D01*
X104420147Y-107903561D01*
X104415941Y-107898950D01*
X104410933Y-107879733D01*
X104408386Y-107870162D01*
X104397249Y-107842191D01*
X104378802Y-107800552D01*
X104354725Y-107749005D01*
X104326699Y-107691310D01*
X104321154Y-107680043D01*
X104241889Y-107502313D01*
X104182385Y-107332510D01*
X104142245Y-107168570D01*
X104121071Y-107008429D01*
X104118466Y-106850023D01*
X104134033Y-106691289D01*
X104151523Y-106595732D01*
X104196564Y-106431442D01*
X104259656Y-106277411D01*
X104341915Y-106131491D01*
X104444457Y-105991534D01*
X104568399Y-105855392D01*
X104613661Y-105811527D01*
X104745865Y-105699242D01*
X104883832Y-105606028D01*
X105031750Y-105529281D01*
X105193803Y-105466397D01*
X105205391Y-105462580D01*
X105391392Y-105412493D01*
X105587521Y-105379101D01*
X105789568Y-105362416D01*
X105993325Y-105362449D01*
G36*
X105993325Y-105362449D02*
G01*
X106194581Y-105379209D01*
X106389128Y-105412708D01*
X106572756Y-105462956D01*
X106690053Y-105506810D01*
X106852951Y-105584652D01*
X107006866Y-105678172D01*
X107148671Y-105785178D01*
X107275239Y-105903481D01*
X107383441Y-106030889D01*
X107436120Y-106108394D01*
X107505750Y-106235275D01*
X107564468Y-106372757D01*
X107609587Y-106514284D01*
X107638422Y-106653298D01*
X107640106Y-106667403D01*
X107643434Y-106710847D01*
X107646275Y-106768277D01*
X107648373Y-106833878D01*
X107649468Y-106901833D01*
X107647140Y-107028622D01*
X107634136Y-107176327D01*
X107609133Y-107314221D01*
X107571318Y-107447986D01*
X107562889Y-107471438D01*
X107543408Y-107519388D01*
X107518473Y-107575860D01*
X107489722Y-107637621D01*
X107458790Y-107701437D01*
X107427315Y-107764074D01*
X107396934Y-107822297D01*
X107369283Y-107872873D01*
X107345999Y-107912567D01*
X107328718Y-107938146D01*
X107319079Y-107946375D01*
X107315984Y-107944924D01*
X107296079Y-107933750D01*
X107260420Y-107912866D01*
X107211459Y-107883735D01*
X107151646Y-107847819D01*
X107083433Y-107806580D01*
X107009271Y-107761483D01*
X106712008Y-107580215D01*
X106756539Y-107533685D01*
X106834865Y-107442277D01*
X106909439Y-107328666D01*
X106963474Y-107210878D01*
X106996290Y-107090441D01*
X107007211Y-106968883D01*
X107005868Y-106927415D01*
X106987612Y-106809920D01*
X106948617Y-106699911D01*
X106889670Y-106598570D01*
X106811557Y-106507079D01*
X106715064Y-106426620D01*
X106600978Y-106358373D01*
X106566724Y-106342092D01*
X106443240Y-106296018D01*
X106304918Y-106260894D01*
X106155561Y-106236803D01*
X105998973Y-106223827D01*
X105838956Y-106222051D01*
X105679314Y-106231557D01*
X105523850Y-106252428D01*
X105376366Y-106284748D01*
X105240667Y-106328601D01*
X105154076Y-106366018D01*
X105040688Y-106430815D01*
X104947070Y-106506228D01*
X104872959Y-106592582D01*
X104818094Y-106690205D01*
X104782212Y-106799423D01*
X104765051Y-106920561D01*
X104763880Y-106989962D01*
X104778141Y-107112832D01*
X104813241Y-107228336D01*
X104868682Y-107335047D01*
X104943964Y-107431536D01*
X104958440Y-107447280D01*
X104984962Y-107477850D01*
X105002138Y-107500191D01*
X105006787Y-107510309D01*
X105004597Y-107512294D01*
X104985721Y-107526759D01*
X104952397Y-107550600D01*
X104907380Y-107581971D01*
X104853425Y-107619026D01*
X104793285Y-107659917D01*
X104729718Y-107702798D01*
X104665476Y-107745822D01*
X104603315Y-107787143D01*
X104545991Y-107824914D01*
X104496257Y-107857288D01*
X104456868Y-107882418D01*
X104430580Y-107898458D01*
X104420147Y-107903561D01*
X104415941Y-107898950D01*
X104410933Y-107879733D01*
X104408386Y-107870162D01*
X104397249Y-107842191D01*
X104378802Y-107800552D01*
X104354725Y-107749005D01*
X104326699Y-107691310D01*
X104321154Y-107680043D01*
X104241889Y-107502313D01*
X104182385Y-107332510D01*
X104142245Y-107168570D01*
X104121071Y-107008429D01*
X104118466Y-106850023D01*
X104134033Y-106691289D01*
X104151523Y-106595732D01*
X104196564Y-106431442D01*
X104259656Y-106277411D01*
X104341915Y-106131491D01*
X104444457Y-105991534D01*
X104568399Y-105855392D01*
X104613661Y-105811527D01*
X104745865Y-105699242D01*
X104883832Y-105606028D01*
X105031750Y-105529281D01*
X105193803Y-105466397D01*
X105205391Y-105462580D01*
X105391392Y-105412493D01*
X105587521Y-105379101D01*
X105789568Y-105362416D01*
X105993325Y-105362449D01*
G37*
X108893567Y-103632041D02*
X108967789Y-103632299D01*
X109024541Y-103632970D01*
X109066512Y-103634248D01*
X109096389Y-103636327D01*
X109116861Y-103639401D01*
X109130614Y-103643666D01*
X109140337Y-103649316D01*
X109148717Y-103656545D01*
X109170181Y-103688009D01*
X109171947Y-103723174D01*
X109152267Y-103756178D01*
X109146398Y-103761484D01*
X109137314Y-103766934D01*
X109123973Y-103771100D01*
X109103757Y-103774154D01*
X109074049Y-103776268D01*
X109032232Y-103777614D01*
X108975689Y-103778362D01*
X108901802Y-103778686D01*
X108807956Y-103778755D01*
X108732294Y-103778716D01*
X108654385Y-103778461D01*
X108594375Y-103777817D01*
X108549648Y-103776613D01*
X108517585Y-103774676D01*
X108495571Y-103771836D01*
X108480987Y-103767921D01*
X108471218Y-103762758D01*
X108463645Y-103756178D01*
X108444623Y-103726994D01*
X108445463Y-103693863D01*
X108468776Y-103659709D01*
X108496485Y-103632000D01*
X108809537Y-103632000D01*
X108893567Y-103632041D01*
G36*
X108893567Y-103632041D02*
G01*
X108967789Y-103632299D01*
X109024541Y-103632970D01*
X109066512Y-103634248D01*
X109096389Y-103636327D01*
X109116861Y-103639401D01*
X109130614Y-103643666D01*
X109140337Y-103649316D01*
X109148717Y-103656545D01*
X109170181Y-103688009D01*
X109171947Y-103723174D01*
X109152267Y-103756178D01*
X109146398Y-103761484D01*
X109137314Y-103766934D01*
X109123973Y-103771100D01*
X109103757Y-103774154D01*
X109074049Y-103776268D01*
X109032232Y-103777614D01*
X108975689Y-103778362D01*
X108901802Y-103778686D01*
X108807956Y-103778755D01*
X108732294Y-103778716D01*
X108654385Y-103778461D01*
X108594375Y-103777817D01*
X108549648Y-103776613D01*
X108517585Y-103774676D01*
X108495571Y-103771836D01*
X108480987Y-103767921D01*
X108471218Y-103762758D01*
X108463645Y-103756178D01*
X108444623Y-103726994D01*
X108445463Y-103693863D01*
X108468776Y-103659709D01*
X108496485Y-103632000D01*
X108809537Y-103632000D01*
X108893567Y-103632041D01*
G37*
X106849363Y-107952739D02*
X106924202Y-107956368D01*
X106986401Y-107963978D01*
X107042984Y-107976312D01*
X107169076Y-108020687D01*
X107283679Y-108083600D01*
X107384568Y-108163762D01*
X107470924Y-108260260D01*
X107541932Y-108372178D01*
X107596776Y-108498603D01*
X107634638Y-108638622D01*
X107640351Y-108674851D01*
X107646313Y-108753845D01*
X107646646Y-108842159D01*
X107641659Y-108931925D01*
X107631666Y-109015278D01*
X107616978Y-109084349D01*
X107586749Y-109170813D01*
X107532057Y-109280714D01*
X107464543Y-109378044D01*
X107413556Y-109440133D01*
X107509622Y-109443395D01*
X107605689Y-109446657D01*
X107605689Y-109869550D01*
X107605686Y-109880457D01*
X107605380Y-109974944D01*
X107604616Y-110061669D01*
X107603451Y-110138163D01*
X107601942Y-110201957D01*
X107600147Y-110250582D01*
X107598121Y-110281567D01*
X107595922Y-110292444D01*
X107595463Y-110292422D01*
X107579910Y-110285386D01*
X107557071Y-110269566D01*
X107551638Y-110265266D01*
X107537606Y-110254223D01*
X107524186Y-110244689D01*
X107509722Y-110236539D01*
X107492556Y-110229648D01*
X107471034Y-110223889D01*
X107443498Y-110219138D01*
X107408292Y-110215269D01*
X107363760Y-110212156D01*
X107308246Y-110209675D01*
X107240093Y-110207700D01*
X107157645Y-110206106D01*
X107059246Y-110204766D01*
X106943239Y-110203556D01*
X106807968Y-110202351D01*
X106651778Y-110201025D01*
X106509012Y-110199772D01*
X106363942Y-110198349D01*
X106238027Y-110196824D01*
X106129436Y-110195067D01*
X106036334Y-110192949D01*
X105956891Y-110190340D01*
X105889273Y-110187110D01*
X105831649Y-110183131D01*
X105782185Y-110178272D01*
X105739050Y-110172403D01*
X105700410Y-110165396D01*
X105664434Y-110157120D01*
X105629289Y-110147446D01*
X105593142Y-110136244D01*
X105554161Y-110123384D01*
X105511091Y-110107910D01*
X105418871Y-110065006D01*
X105339099Y-110011265D01*
X105264965Y-109942424D01*
X105201405Y-109864815D01*
X105139725Y-109760239D01*
X105092202Y-109640756D01*
X105058567Y-109505492D01*
X105038552Y-109353574D01*
X105031889Y-109184128D01*
X105032287Y-109126110D01*
X105034335Y-109060602D01*
X105038704Y-108999307D01*
X105046035Y-108937903D01*
X105056969Y-108872068D01*
X105072147Y-108797480D01*
X105092209Y-108709816D01*
X105117797Y-108604755D01*
X105124820Y-108576194D01*
X105142776Y-108500946D01*
X105158820Y-108430612D01*
X105172028Y-108369433D01*
X105181474Y-108321646D01*
X105186231Y-108291489D01*
X105189910Y-108263217D01*
X105195187Y-108236940D01*
X105199942Y-108226941D01*
X105208781Y-108230048D01*
X105236072Y-108240806D01*
X105278906Y-108258136D01*
X105334425Y-108280874D01*
X105399772Y-108307853D01*
X105472089Y-108337910D01*
X105487879Y-108344507D01*
X105578484Y-108383093D01*
X105648217Y-108414232D01*
X105697405Y-108438083D01*
X105726374Y-108454802D01*
X105735452Y-108464546D01*
X105733405Y-108472234D01*
X105723760Y-108498585D01*
X105708190Y-108537018D01*
X105688815Y-108582178D01*
X105650814Y-108676707D01*
X105609780Y-108813520D01*
X105584612Y-108954711D01*
X105580611Y-108992686D01*
X105578447Y-109095941D01*
X105591622Y-109183048D01*
X105620756Y-109254871D01*
X105666466Y-109312269D01*
X105729372Y-109356104D01*
X105810092Y-109387238D01*
X105909245Y-109406530D01*
X105968224Y-109413950D01*
X105961445Y-109252064D01*
X105961110Y-109226106D01*
X106483842Y-109226106D01*
X106483857Y-109234993D01*
X106484655Y-109290340D01*
X106486488Y-109337264D01*
X106489111Y-109371047D01*
X106492274Y-109386972D01*
X106498741Y-109391057D01*
X106520875Y-109395428D01*
X106559988Y-109398396D01*
X106617939Y-109400086D01*
X106696586Y-109400622D01*
X106892462Y-109400622D01*
X106948973Y-109355952D01*
X106964212Y-109343215D01*
X107006844Y-109296396D01*
X107042672Y-109235745D01*
X107047850Y-109225103D01*
X107064745Y-109186324D01*
X107074909Y-109151308D01*
X107080325Y-109111278D01*
X107082978Y-109057459D01*
X107083383Y-109039352D01*
X107080540Y-108963989D01*
X107068620Y-108903257D01*
X107046037Y-108851548D01*
X107011211Y-108803254D01*
X107006798Y-108798197D01*
X106951160Y-108749728D01*
X106887333Y-108721541D01*
X106812282Y-108712248D01*
X106740693Y-108719480D01*
X106677645Y-108744204D01*
X106619758Y-108788751D01*
X106572808Y-108843681D01*
X106532961Y-108916106D01*
X106505263Y-109002660D01*
X106489096Y-109105330D01*
X106483842Y-109226106D01*
X105961110Y-109226106D01*
X105959813Y-109125505D01*
X105966194Y-108974049D01*
X105980777Y-108825604D01*
X106002882Y-108689422D01*
X106017821Y-108624755D01*
X106060741Y-108492510D01*
X106117340Y-108370238D01*
X106186017Y-108260315D01*
X106265170Y-108165117D01*
X106353196Y-108087020D01*
X106448493Y-108028401D01*
X106500864Y-108004405D01*
X106571590Y-107978768D01*
X106642812Y-107962522D01*
X106721712Y-107954178D01*
X106812282Y-107952310D01*
X106815467Y-107952245D01*
X106849363Y-107952739D01*
G36*
X106849363Y-107952739D02*
G01*
X106924202Y-107956368D01*
X106986401Y-107963978D01*
X107042984Y-107976312D01*
X107169076Y-108020687D01*
X107283679Y-108083600D01*
X107384568Y-108163762D01*
X107470924Y-108260260D01*
X107541932Y-108372178D01*
X107596776Y-108498603D01*
X107634638Y-108638622D01*
X107640351Y-108674851D01*
X107646313Y-108753845D01*
X107646646Y-108842159D01*
X107641659Y-108931925D01*
X107631666Y-109015278D01*
X107616978Y-109084349D01*
X107586749Y-109170813D01*
X107532057Y-109280714D01*
X107464543Y-109378044D01*
X107413556Y-109440133D01*
X107509622Y-109443395D01*
X107605689Y-109446657D01*
X107605689Y-109869550D01*
X107605686Y-109880457D01*
X107605380Y-109974944D01*
X107604616Y-110061669D01*
X107603451Y-110138163D01*
X107601942Y-110201957D01*
X107600147Y-110250582D01*
X107598121Y-110281567D01*
X107595922Y-110292444D01*
X107595463Y-110292422D01*
X107579910Y-110285386D01*
X107557071Y-110269566D01*
X107551638Y-110265266D01*
X107537606Y-110254223D01*
X107524186Y-110244689D01*
X107509722Y-110236539D01*
X107492556Y-110229648D01*
X107471034Y-110223889D01*
X107443498Y-110219138D01*
X107408292Y-110215269D01*
X107363760Y-110212156D01*
X107308246Y-110209675D01*
X107240093Y-110207700D01*
X107157645Y-110206106D01*
X107059246Y-110204766D01*
X106943239Y-110203556D01*
X106807968Y-110202351D01*
X106651778Y-110201025D01*
X106509012Y-110199772D01*
X106363942Y-110198349D01*
X106238027Y-110196824D01*
X106129436Y-110195067D01*
X106036334Y-110192949D01*
X105956891Y-110190340D01*
X105889273Y-110187110D01*
X105831649Y-110183131D01*
X105782185Y-110178272D01*
X105739050Y-110172403D01*
X105700410Y-110165396D01*
X105664434Y-110157120D01*
X105629289Y-110147446D01*
X105593142Y-110136244D01*
X105554161Y-110123384D01*
X105511091Y-110107910D01*
X105418871Y-110065006D01*
X105339099Y-110011265D01*
X105264965Y-109942424D01*
X105201405Y-109864815D01*
X105139725Y-109760239D01*
X105092202Y-109640756D01*
X105058567Y-109505492D01*
X105038552Y-109353574D01*
X105031889Y-109184128D01*
X105032287Y-109126110D01*
X105034335Y-109060602D01*
X105038704Y-108999307D01*
X105046035Y-108937903D01*
X105056969Y-108872068D01*
X105072147Y-108797480D01*
X105092209Y-108709816D01*
X105117797Y-108604755D01*
X105124820Y-108576194D01*
X105142776Y-108500946D01*
X105158820Y-108430612D01*
X105172028Y-108369433D01*
X105181474Y-108321646D01*
X105186231Y-108291489D01*
X105189910Y-108263217D01*
X105195187Y-108236940D01*
X105199942Y-108226941D01*
X105208781Y-108230048D01*
X105236072Y-108240806D01*
X105278906Y-108258136D01*
X105334425Y-108280874D01*
X105399772Y-108307853D01*
X105472089Y-108337910D01*
X105487879Y-108344507D01*
X105578484Y-108383093D01*
X105648217Y-108414232D01*
X105697405Y-108438083D01*
X105726374Y-108454802D01*
X105735452Y-108464546D01*
X105733405Y-108472234D01*
X105723760Y-108498585D01*
X105708190Y-108537018D01*
X105688815Y-108582178D01*
X105650814Y-108676707D01*
X105609780Y-108813520D01*
X105584612Y-108954711D01*
X105580611Y-108992686D01*
X105578447Y-109095941D01*
X105591622Y-109183048D01*
X105620756Y-109254871D01*
X105666466Y-109312269D01*
X105729372Y-109356104D01*
X105810092Y-109387238D01*
X105909245Y-109406530D01*
X105968224Y-109413950D01*
X105961445Y-109252064D01*
X105961110Y-109226106D01*
X106483842Y-109226106D01*
X106483857Y-109234993D01*
X106484655Y-109290340D01*
X106486488Y-109337264D01*
X106489111Y-109371047D01*
X106492274Y-109386972D01*
X106498741Y-109391057D01*
X106520875Y-109395428D01*
X106559988Y-109398396D01*
X106617939Y-109400086D01*
X106696586Y-109400622D01*
X106892462Y-109400622D01*
X106948973Y-109355952D01*
X106964212Y-109343215D01*
X107006844Y-109296396D01*
X107042672Y-109235745D01*
X107047850Y-109225103D01*
X107064745Y-109186324D01*
X107074909Y-109151308D01*
X107080325Y-109111278D01*
X107082978Y-109057459D01*
X107083383Y-109039352D01*
X107080540Y-108963989D01*
X107068620Y-108903257D01*
X107046037Y-108851548D01*
X107011211Y-108803254D01*
X107006798Y-108798197D01*
X106951160Y-108749728D01*
X106887333Y-108721541D01*
X106812282Y-108712248D01*
X106740693Y-108719480D01*
X106677645Y-108744204D01*
X106619758Y-108788751D01*
X106572808Y-108843681D01*
X106532961Y-108916106D01*
X106505263Y-109002660D01*
X106489096Y-109105330D01*
X106483842Y-109226106D01*
X105961110Y-109226106D01*
X105959813Y-109125505D01*
X105966194Y-108974049D01*
X105980777Y-108825604D01*
X106002882Y-108689422D01*
X106017821Y-108624755D01*
X106060741Y-108492510D01*
X106117340Y-108370238D01*
X106186017Y-108260315D01*
X106265170Y-108165117D01*
X106353196Y-108087020D01*
X106448493Y-108028401D01*
X106500864Y-108004405D01*
X106571590Y-107978768D01*
X106642812Y-107962522D01*
X106721712Y-107954178D01*
X106812282Y-107952310D01*
X106815467Y-107952245D01*
X106849363Y-107952739D01*
G37*
X108692232Y-102504048D02*
X108717029Y-102509840D01*
X108738699Y-102524647D01*
X108766049Y-102552620D01*
X108773378Y-102560598D01*
X108794281Y-102584308D01*
X108811251Y-102606702D01*
X108825205Y-102630735D01*
X108837056Y-102659363D01*
X108847720Y-102695540D01*
X108858111Y-102742220D01*
X108869146Y-102802359D01*
X108881738Y-102878910D01*
X108896804Y-102974829D01*
X108899838Y-102993192D01*
X108913458Y-103055522D01*
X108929192Y-103100740D01*
X108946263Y-103127024D01*
X108963897Y-103132553D01*
X108968168Y-103129932D01*
X108983233Y-103112000D01*
X108999867Y-103083874D01*
X109005857Y-103071074D01*
X109013050Y-103049776D01*
X109017827Y-103023390D01*
X109020646Y-102987546D01*
X109021964Y-102937872D01*
X109022237Y-102870000D01*
X109022164Y-102852215D01*
X109021053Y-102784594D01*
X109018828Y-102719655D01*
X109015762Y-102664030D01*
X109012127Y-102624349D01*
X109008059Y-102588838D01*
X109007276Y-102559585D01*
X109011876Y-102540685D01*
X109022551Y-102525571D01*
X109026144Y-102521915D01*
X109057918Y-102505573D01*
X109093572Y-102506893D01*
X109124190Y-102525850D01*
X109135796Y-102546220D01*
X109148491Y-102582204D01*
X109158541Y-102624628D01*
X109159140Y-102628078D01*
X109164356Y-102670748D01*
X109168730Y-102728134D01*
X109171818Y-102793151D01*
X109173177Y-102858711D01*
X109173218Y-102874943D01*
X109170741Y-102973256D01*
X109162735Y-103053308D01*
X109148203Y-103118487D01*
X109126149Y-103172183D01*
X109095576Y-103217784D01*
X109055486Y-103258677D01*
X109029259Y-103278798D01*
X108999712Y-103290424D01*
X108959995Y-103293333D01*
X108948026Y-103293192D01*
X108915345Y-103289319D01*
X108888819Y-103276935D01*
X108857971Y-103251770D01*
X108835831Y-103230558D01*
X108813285Y-103204162D01*
X108794917Y-103174445D01*
X108779661Y-103138215D01*
X108766449Y-103092283D01*
X108754214Y-103033456D01*
X108741889Y-102958544D01*
X108728406Y-102864355D01*
X108721396Y-102819043D01*
X108706837Y-102751089D01*
X108690337Y-102701953D01*
X108672439Y-102672386D01*
X108653685Y-102663136D01*
X108634615Y-102674952D01*
X108615771Y-102708584D01*
X108614557Y-102711630D01*
X108602479Y-102757989D01*
X108594279Y-102820639D01*
X108590119Y-102894073D01*
X108590161Y-102972783D01*
X108594569Y-103051261D01*
X108603505Y-103124000D01*
X108604154Y-103127927D01*
X108611861Y-103176743D01*
X108615473Y-103208995D01*
X108614876Y-103229992D01*
X108609954Y-103245046D01*
X108600596Y-103259466D01*
X108599725Y-103260636D01*
X108569351Y-103285153D01*
X108533850Y-103289946D01*
X108499269Y-103274140D01*
X108494813Y-103269594D01*
X108479673Y-103239980D01*
X108466550Y-103192998D01*
X108455750Y-103132694D01*
X108447581Y-103063112D01*
X108442351Y-102988297D01*
X108440367Y-102912294D01*
X108441936Y-102839147D01*
X108447366Y-102772900D01*
X108456964Y-102717600D01*
X108471825Y-102666717D01*
X108504958Y-102595405D01*
X108547640Y-102544248D01*
X108599705Y-102513425D01*
X108660983Y-102503111D01*
X108692232Y-102504048D01*
G36*
X108692232Y-102504048D02*
G01*
X108717029Y-102509840D01*
X108738699Y-102524647D01*
X108766049Y-102552620D01*
X108773378Y-102560598D01*
X108794281Y-102584308D01*
X108811251Y-102606702D01*
X108825205Y-102630735D01*
X108837056Y-102659363D01*
X108847720Y-102695540D01*
X108858111Y-102742220D01*
X108869146Y-102802359D01*
X108881738Y-102878910D01*
X108896804Y-102974829D01*
X108899838Y-102993192D01*
X108913458Y-103055522D01*
X108929192Y-103100740D01*
X108946263Y-103127024D01*
X108963897Y-103132553D01*
X108968168Y-103129932D01*
X108983233Y-103112000D01*
X108999867Y-103083874D01*
X109005857Y-103071074D01*
X109013050Y-103049776D01*
X109017827Y-103023390D01*
X109020646Y-102987546D01*
X109021964Y-102937872D01*
X109022237Y-102870000D01*
X109022164Y-102852215D01*
X109021053Y-102784594D01*
X109018828Y-102719655D01*
X109015762Y-102664030D01*
X109012127Y-102624349D01*
X109008059Y-102588838D01*
X109007276Y-102559585D01*
X109011876Y-102540685D01*
X109022551Y-102525571D01*
X109026144Y-102521915D01*
X109057918Y-102505573D01*
X109093572Y-102506893D01*
X109124190Y-102525850D01*
X109135796Y-102546220D01*
X109148491Y-102582204D01*
X109158541Y-102624628D01*
X109159140Y-102628078D01*
X109164356Y-102670748D01*
X109168730Y-102728134D01*
X109171818Y-102793151D01*
X109173177Y-102858711D01*
X109173218Y-102874943D01*
X109170741Y-102973256D01*
X109162735Y-103053308D01*
X109148203Y-103118487D01*
X109126149Y-103172183D01*
X109095576Y-103217784D01*
X109055486Y-103258677D01*
X109029259Y-103278798D01*
X108999712Y-103290424D01*
X108959995Y-103293333D01*
X108948026Y-103293192D01*
X108915345Y-103289319D01*
X108888819Y-103276935D01*
X108857971Y-103251770D01*
X108835831Y-103230558D01*
X108813285Y-103204162D01*
X108794917Y-103174445D01*
X108779661Y-103138215D01*
X108766449Y-103092283D01*
X108754214Y-103033456D01*
X108741889Y-102958544D01*
X108728406Y-102864355D01*
X108721396Y-102819043D01*
X108706837Y-102751089D01*
X108690337Y-102701953D01*
X108672439Y-102672386D01*
X108653685Y-102663136D01*
X108634615Y-102674952D01*
X108615771Y-102708584D01*
X108614557Y-102711630D01*
X108602479Y-102757989D01*
X108594279Y-102820639D01*
X108590119Y-102894073D01*
X108590161Y-102972783D01*
X108594569Y-103051261D01*
X108603505Y-103124000D01*
X108604154Y-103127927D01*
X108611861Y-103176743D01*
X108615473Y-103208995D01*
X108614876Y-103229992D01*
X108609954Y-103245046D01*
X108600596Y-103259466D01*
X108599725Y-103260636D01*
X108569351Y-103285153D01*
X108533850Y-103289946D01*
X108499269Y-103274140D01*
X108494813Y-103269594D01*
X108479673Y-103239980D01*
X108466550Y-103192998D01*
X108455750Y-103132694D01*
X108447581Y-103063112D01*
X108442351Y-102988297D01*
X108440367Y-102912294D01*
X108441936Y-102839147D01*
X108447366Y-102772900D01*
X108456964Y-102717600D01*
X108471825Y-102666717D01*
X108504958Y-102595405D01*
X108547640Y-102544248D01*
X108599705Y-102513425D01*
X108660983Y-102503111D01*
X108692232Y-102504048D01*
G37*
%TD*%
M02*
