%TF.GenerationSoftware,KiCad,Pcbnew,8.0.1*%
%TF.CreationDate,2024-03-27T16:27:17+11:00*%
%TF.ProjectId,Breadboard Power Supply,42726561-6462-46f6-9172-6420506f7765,rev?*%
%TF.SameCoordinates,Original*%
%TF.FileFunction,Plated,1,2,PTH,Mixed*%
%TF.FilePolarity,Positive*%
%FSLAX46Y46*%
G04 Gerber Fmt 4.6, Leading zero omitted, Abs format (unit mm)*
G04 Created by KiCad (PCBNEW 8.0.1) date 2024-03-27 16:27:17*
%MOMM*%
%LPD*%
G01*
G04 APERTURE LIST*
%TA.AperFunction,ViaDrill*%
%ADD10C,0.500000*%
%TD*%
%TA.AperFunction,ComponentDrill*%
%ADD11C,0.700000*%
%TD*%
%TA.AperFunction,ComponentDrill*%
%ADD12C,0.800000*%
%TD*%
%TA.AperFunction,ComponentDrill*%
%ADD13C,0.900000*%
%TD*%
%TA.AperFunction,ComponentDrill*%
%ADD14C,1.000000*%
%TD*%
G04 aperture for slot hole*
%TA.AperFunction,ComponentDrill*%
%ADD15C,1.000000*%
%TD*%
%TA.AperFunction,ComponentDrill*%
%ADD16C,1.016000*%
%TD*%
%TA.AperFunction,ComponentDrill*%
%ADD17C,1.100000*%
%TD*%
%TA.AperFunction,ComponentDrill*%
%ADD18C,1.520000*%
%TD*%
G04 APERTURE END LIST*
D10*
X90424000Y-116586000D03*
X90932000Y-90424000D03*
D11*
%TO.C,R1*%
X102362000Y-86614000D03*
%TO.C,R2*%
X102362000Y-103632000D03*
%TO.C,R3*%
X102362000Y-108712000D03*
%TO.C,R1*%
X109982000Y-86614000D03*
%TO.C,R2*%
X109982000Y-103632000D03*
%TO.C,R3*%
X109982000Y-108712000D03*
D12*
%TO.C,C2*%
X89428000Y-87376000D03*
X91928000Y-87376000D03*
%TO.C,C3*%
X92730000Y-114554000D03*
%TO.C,C1*%
X94508000Y-87376000D03*
%TO.C,C3*%
X95230000Y-114554000D03*
%TO.C,C1*%
X97008000Y-87376000D03*
D13*
%TO.C,D1*%
X106680000Y-95001000D03*
X106680000Y-97541000D03*
D14*
%TO.C,J6*%
X93487000Y-119634000D03*
%TO.C,J7*%
X93741000Y-71120000D03*
D15*
%TO.C,J1*%
X93980000Y-97324500D02*
X93980000Y-95324500D01*
D14*
%TO.C,J6*%
X96027000Y-119634000D03*
%TO.C,J7*%
X96281000Y-71120000D03*
D15*
%TO.C,J1*%
X97980000Y-101024500D02*
X95980000Y-101024500D01*
D14*
%TO.C,J6*%
X98567000Y-119634000D03*
%TO.C,J7*%
X98821000Y-71120000D03*
D15*
%TO.C,J1*%
X99980000Y-97324500D02*
X99980000Y-95324500D01*
D14*
%TO.C,J5*%
X114300000Y-71120000D03*
X114300000Y-73660000D03*
%TO.C,J4*%
X114300000Y-116941600D03*
X114300000Y-119481600D03*
D16*
%TO.C,SW1*%
X103378000Y-82042000D03*
X105918000Y-82042000D03*
X108458000Y-82042000D03*
D17*
%TO.C,U2*%
X90678000Y-110165000D03*
%TO.C,U1*%
X91186000Y-81026000D03*
%TO.C,U2*%
X93218000Y-110165000D03*
%TO.C,U1*%
X93726000Y-81026000D03*
%TO.C,U2*%
X95758000Y-110165000D03*
%TO.C,U1*%
X96266000Y-81026000D03*
D18*
%TO.C,J2*%
X104140000Y-73320000D03*
%TO.C,J3*%
X104140000Y-117291600D03*
%TO.C,J2*%
X109220000Y-73320000D03*
%TO.C,J3*%
X109220000Y-117291600D03*
M02*
